<?xml version="1.0" encoding="utf-8"?>
<!-- Generator: Adobe Illustrator 18.1.1, SVG Export Plug-In . SVG Version: 6.00 Build 0)  -->
<!DOCTYPE svg PUBLIC "-//W3C//DTD SVG 1.1//EN" "http://www.w3.org/Graphics/SVG/1.1/DTD/svg11.dtd">
<svg version="1.1" id="Ebene_1" xmlns="http://www.w3.org/2000/svg" xmlns:xlink="http://www.w3.org/1999/xlink" x="0px" y="0px"
	 viewBox="-434 232.1 90 96.9" enable-background="new -434 232.1 90 96.9" xml:space="preserve">
<g>
	<path fill="#9B5618" d="M-402.9,293.5l-0.1,1c0,0-0.8,0.8-2.8,0.9c-2.8,0.1-5.8-1.5-5.8-1.5l-0.1-0.2c0,0,0,0-0.1,0
		c0.8,1.3,1.5,3,1.6,5.2c0.7,10.7-1.2,22.2-1.2,22.2l10.7,1.3c0,0-2.3-8.9-2.6-20.9C-403.3,298.9-403.2,296.5-402.9,293.5
		L-402.9,293.5L-402.9,293.5z"/>
	<path fill="#9B5618" d="M-411.7,293.6l0.1,0.2c0,0,2.9,1.5,5.8,1.5c2-0.1,2.8-0.8,2.8-0.8l0.1-0.9h-8
		C-411.2,293.5-411.4,293.6-411.7,293.6z"/>
	
		<linearGradient id="SVGID_1_" gradientUnits="userSpaceOnUse" x1="-398.491" y1="221.1931" x2="-385.7145" y2="222.1105" gradientTransform="matrix(0.9932 0.1166 0.1166 -0.9932 -46.3001 560.4918)">
		<stop  offset="0" style="stop-color:#AB7234"/>
		<stop  offset="1" style="stop-color:#6B3B17"/>
	</linearGradient>
	<path fill="url(#SVGID_1_)" d="M-411.7,293.6l0.1,0.3c0,0,2.9,2.4,5.8,2.3c2-0.1,2.8-1.3,2.8-1.3l0.1-1.5h-8
		C-411.2,293.5-411.4,293.6-411.7,293.6z"/>
</g>
<g>
	
		<linearGradient id="SVGID_2_" gradientUnits="userSpaceOnUse" x1="-345.8781" y1="373.3136" x2="-341.1966" y2="373.8342" gradientTransform="matrix(0.9916 0.1294 0.1294 -0.9916 -78.6646 733.3242)">
		<stop  offset="0" style="stop-color:#AB7234"/>
		<stop  offset="1" style="stop-color:#804D28"/>
	</linearGradient>
	<path fill="url(#SVGID_2_)" d="M-366.9,309.6L-366.9,309.6l-0.3,0.1c0,0-0.7,0.3-2.2,0.1l-3-0.7l-0.1-0.3c0,0,0.6-0.1,0,0
		c0.1,0.5,0.2,1,0.2,1.6c0.4,8.1-1.2,16.7-1.2,16.7l8.3,1.1c0,0-1.7-6.7-1.8-15.8C-367,311.5-366.9,310.6-366.9,309.6z"/>
	
		<linearGradient id="SVGID_3_" gradientUnits="userSpaceOnUse" x1="-382.7694" y1="308.5399" x2="-366.8691" y2="309.6815" gradientTransform="matrix(0.9945 -0.1043 0.1043 0.9945 -35.2397 -36.9744)">
		<stop  offset="0" style="stop-color:#AB7234"/>
		<stop  offset="1" style="stop-color:#6B3B17"/>
	</linearGradient>
	<path fill="url(#SVGID_3_)" d="M-366.9,309.6l0.1-1.1c0,0,0,0,0,0l0-0.1c-1,0.1-2,0.2-3,0.3c-0.9,0.1-1.9,0.1-2.8,0.1l0,0.1
		c0,0,0,0,0,0l0.1,0.3c0,0,0.9,0.7,3.1,1c1.5,0.2,2.4,0,2.4,0L-366.9,309.6L-366.9,309.6L-366.9,309.6L-366.9,309.6z"/>
</g>
<g>
	<path fill="#ABCC64" d="M-407.5,232.1c-17,1-30.8,34-25.3,49.6c3,8.3,12.4,12.8,23.2,12.7l0,0l0.2,0c0.7,0,1.4-0.1,2.1-0.1v-62.2
		C-407.4,232.1-407.4,232.1-407.5,232.1z"/>
	<path fill="#BCD676" d="M-406.8,294.3C-406.8,294.3-406.8,294.3-406.8,294.3C-406.8,294.3-406.8,294.3-406.8,294.3
		c0.1,0,0.1,0,0.1,0l0.7-0.1c0.4,0,0.9-0.1,1.3-0.2l0.2,0l0,0c2.2-0.3,4.1-0.7,6.3-1.4l0.4-0.2l0,0c5.3-1.7,10.6-4.6,15.2-8.7
		c12.2-10.9,5.1-36.9-16.2-49.3c-2.9-1.7-5.8-2.4-8.7-2.2v62.2c0.1,0,0.3,0,0.4,0C-406.9,294.3-406.9,294.3-406.8,294.3z"/>
</g>
<g>
	<path fill="#83AA0B" d="M-391.4,293.8c0.4,7.9,8,13.2,17.4,14.9l0,0c0,0,0.5,0.1,1.4,0.2c0.1,0,0.1,0,0.2,0c0,0,0,0,0,0
		c0,0,0,0,0,0c0,0,0,0,0,0c0,0,0,0,0,0l0,0c0.6,0.1,1.2,0.1,1.8,0.2c0.2,0,0.5,0,0.8,0.1c0.1,0,0.1,0,0.2,0l0,0c0,0,0,0,0,0l0,0
		c0,0,0,0,0.1,0c0.1,0,0.2,0,0.3,0l4.1-45.2C-378.8,263.1-392,281.2-391.4,293.8z"/>
	<path fill="#97B711" d="M-367,309.2L-367,309.2C-367,309.2-367,309.2-367,309.2C-367,309.2-367,309.2-367,309.2
		c0.5,0,0.9,0,1.3-0.1l0,0c5-0.3,10.1-1.6,14.6-4.1c11.2-6.1,8.3-27.9-6.6-38.2c-2.5-1.7-5.1-2.6-7.6-2.8l0,0c0,0-0.1,0-0.1,0
		l-4.1,45.2C-368.7,309.2-367.9,309.2-367,309.2z"/>
</g>
</svg>
