<?xml version="1.0" encoding="utf-8"?>
<!-- Generator: Adobe Illustrator 18.1.1, SVG Export Plug-In . SVG Version: 6.00 Build 0)  -->
<!DOCTYPE svg PUBLIC "-//W3C//DTD SVG 1.1//EN" "http://www.w3.org/Graphics/SVG/1.1/DTD/svg11.dtd">
<svg version="1.1" id="Ebene_1" xmlns="http://www.w3.org/2000/svg" xmlns:xlink="http://www.w3.org/1999/xlink" x="0px" y="0px"
	 viewBox="-445 245.3 67.7 71.7" enable-background="new -445 245.3 67.7 71.7" xml:space="preserve">
<path fill="#E6F4F4" d="M-428.7,300.2l0.1,1.3c0,0,0.6,0.1,1.5,0.1l0-1.2C-427.5,300.3-428.1,300.3-428.7,300.2z"/>
<path fill="#E6F4F4" d="M-426.7,291.2l1-26.7c-2.1-0.1-4.3,0.3-6.5,1.5c-12.6,6.8-16.7,23.7-8.5,29.4c3.6,2.5,7.9,4.1,12.1,4.7
	c-0.6-6.4-2.9-12.8-2.9-12.8S-429.1,289.2-426.7,291.2z"/>
<path fill="#E6F4F4" d="M-429,295.4l2.1,1.4l0.2-5.6c-2.5-2-4.8-3.8-4.8-3.8s2.3,6.5,2.9,12.8c0,0,0,0,0,0L-429,295.4z"/>
<path fill="#E6F4F4" d="M-426.9,296.8l-2.1-1.4l0.4,4.8c0.5,0.1,1,0.1,1.6,0.2L-426.9,296.8z"/>
<g>
	<path fill="#774B0A" d="M-424.1,300.4L-424.1,300.4C-424.1,300.4-424.1,300.4-424.1,300.4C-424.1,300.4-424.1,300.4-424.1,300.4z"
		/>
	<g>
		<path fill="#774B0A" d="M-423.4,314.9c0,0-1.2-6.6-0.9-12.8l-2.8-0.1l0-0.4c-0.9,0.1-1.4-0.1-1.4-0.1l-0.1-1.3
			c0,0,0.1,1.3,0.1,1.3c0.1,1.1,0,0.8,0,1.9c-0.1,7.2-1.5,12.4-1.5,12.4L-423.4,314.9z"/>
		<path fill="#774B0A" d="M-424.1,300.7c0,0-0.7,0.6-2.4,0.8c-0.2,0-0.6,0.1-0.8,0.1l0.3,1l2.8,0.1c0-0.1,0-0.9,0-1
			C-424.2,301.4-424.2,300.9-424.1,300.7z"/>
	</g>
	<path fill="#774B0A" d="M-424.1,300.5c0,0,0,0.1-0.1,0.2l0,0L-424.1,300.5z"/>
</g>
<path fill="#FFFFFF" d="M-424.1,300.7l0.1-0.2c-1,0-1.9,0-2.9-0.1l0,1.2c0.2,0,0.3,0,0.5,0C-424.8,301.3-424.1,300.7-424.1,300.7z"
	/>
<path fill="#FFFFFF" d="M-421.3,296.5c-0.9,0.8-2.3,1.9-2.8,4c8.1-0.1,15.1-3.8,16.2-10.2c1.6-9.8-7.2-25.1-17.9-25.7l-1,26.7
	C-424.1,293.4-421.3,295.8-421.3,296.5z"/>
<path fill="#FFFFFF" d="M-424.1,300.4C-424.1,300.4-424.1,300.4-424.1,300.4c0.5-2,1.9-3.2,2.8-4c-0.1-0.7-2.8-3.1-5.4-5.3l-0.2,5.6
	l3.2,2.1L-424.1,300.4z"/>
<path fill="#FFFFFF" d="M-424.1,300.5l0.4-1.5l-3.2-2.1l-0.1,3.6C-426,300.5-425,300.5-424.1,300.5z"/>
<path fill="#EDF5F7" d="M-404.3,293.5l0.7,2.1c0,0,0.3,0.5,1.9,0.4c0.3,0,0.4,0,0.4-0.1v-1.8C-402.3,293.9-403.2,293.8-404.3,293.5z
	"/>
<path fill="#EDF5F7" d="M-401.3,286.2v-40.8c-2,0-4.3,0.7-6.7,2.4c-15.9,11.3-19.2,32.3-8.8,40c4,2.9,8.4,4.8,12.8,5.8
	c-1.7-6.8-4.8-12.6-4.8-12.6S-404.3,283.5-401.3,286.2z"/>
<path fill="#EDF5F7" d="M-405.3,289l4,2.1v-5c-3-2.7-7.4-5.3-7.4-5.3s2.9,5.9,4.6,12.6c0,0-0.1,0-0.1,0L-405.3,289z"/>
<path fill="#EDF5F7" d="M-401.3,291.2l-4-2.1l0.7,4.5c1.2,0.3,2.2,0.5,3.2,0.6L-401.3,291.2L-401.3,291.2z"/>
<g>
	<path fill="#A57426" d="M-404,293.5C-404,293.5-403.9,293.5-404,293.5L-404,293.5C-404,293.5-403.9,293.5-404,293.5z"/>
	<path fill="#A57426" d="M-394.9,315.2c0,0-1.6-6-2.2-12.8l0,0c-0.1-1.3-0.2-2.7-0.3-4c0-1.7,0.4-3,0.9-4.1c0,0,0,0-0.1,0l-0.6,0.2
		c0,0-2.2,1.1-4.2,1.5c0,0,0,0.1-0.2,0.1c-1.1,0.1-1.6-0.2-1.9-0.3c0.4,1.7,0.7,3.5,0.8,5.2c0.6,9.2-0.6,16.1-0.6,16.1L-394.9,315.2
		z"/>
</g>
<path fill="#FFFFFF" d="M-401.3,294.1v1.8c2-0.3,4.2-1.5,4.2-1.5l-0.2-0.2C-398.6,294.3-399.3,294.2-401.3,294.1z"/>
<path fill="#FFFFFF" d="M-394.7,291.4c-0.7,0.7-1.4,1.6-2.1,2.9c9.4-0.1,17.1-4.5,19-11.7c3.2-12.5-9.5-37.1-23.5-37.2v40.8
	C-397.3,288.4-394.8,290.6-394.7,291.4z"/>
<path fill="#FFFFFF" d="M-401.3,286.2v5l4.8,2.1l-0.3,1c0,0,0.2,0,0.2,0c0.7-1.3,1.2-2.2,1.9-2.9
	C-394.9,290.6-397.3,288.4-401.3,286.2z"/>
<path fill="#FFFFFF" d="M-401.3,291.2v2.9c2,0.1,3,0.2,4.3,0.2l0.3-1L-401.3,291.2z"/>
</svg>
