<?xml version="1.0" encoding="utf-8"?>
<!-- Generator: Adobe Illustrator 16.0.0, SVG Export Plug-In . SVG Version: 6.00 Build 0)  -->
<!DOCTYPE svg PUBLIC "-//W3C//DTD SVG 1.1//EN" "http://www.w3.org/Graphics/SVG/1.1/DTD/svg11.dtd">
<svg version="1.1" id="Ebene_1" xmlns="http://www.w3.org/2000/svg" xmlns:xlink="http://www.w3.org/1999/xlink" x="0px" y="0px"
	 width="68.025px" height="71.667px" viewBox="0 0 68.025 71.667" enable-background="new 0 0 68.025 71.667" xml:space="preserve">
<g>
	<g>
		<path fill="#774B0A" d="M17.94,56.672l0.017-0.444c-0.88,0.053-1.412-0.089-1.412-0.089l-0.108-1.277
			c-0.011-0.001-0.021-0.003-0.031-0.005c0.098,1.064,0.153,2.125,0.136,3.152c-0.126,7.162-1.502,12.445-1.502,12.445l6.572-0.848
			c0,0-1.165-6.563-0.865-12.833L17.94,56.672z"/>
		<path fill="#AAAA04" d="M16.436,54.861l0.108,1.277c0,0,0.532,0.142,1.412,0.089L18,55.039
			C17.479,54.995,16.958,54.934,16.436,54.861z"/>
		<path fill="#AAAA04" d="M18.331,45.884l0.964-26.659c-2.128-0.124-4.33,0.322-6.543,1.521C0.18,27.553-3.974,44.419,4.273,50.195
			c3.641,2.55,7.902,4.069,12.132,4.661c-0.586-6.357-2.89-12.814-2.89-12.814S15.876,43.856,18.331,45.884z"/>
		<path fill="#AAAA04" d="M16.03,50.072l2.099,1.384l0.202-5.572c-2.454-2.027-4.815-3.842-4.815-3.842s2.304,6.457,2.89,12.814
			c0.011,0.002,0.021,0.004,0.031,0.005L16.03,50.072z"/>
		<path fill="#AAAA04" d="M18.128,51.456l-2.099-1.384l0.406,4.789c0.522,0.072,1.043,0.134,1.563,0.178L18.128,51.456z"/>
		<path fill="#774B0A" d="M20.952,55.083c-0.008,0-0.016,0-0.023,0l-0.062,0.245c0,0-0.704,0.618-2.428,0.84
			c-0.172,0.022-0.33,0.043-0.481,0.052l-0.017,0.449l2.806,0.103c0.007-0.133,0.01-0.294,0.018-0.426
			C20.79,55.894,20.861,55.083,20.952,55.083z"/>
		<path fill="#AAAA04" d="M20.866,55.357l0.062-0.216c-0.964,0.016-1.943-0.02-2.929-0.103l-0.043,1.188
			c0.151-0.01,0.31-0.022,0.481-0.045C20.162,55.96,20.866,55.357,20.866,55.357z"/>
		<path opacity="0.2" fill="#FFFFFF" d="M20.866,55.357l0.062-0.216c-0.964,0.016-1.943-0.02-2.929-0.103l-0.043,1.188
			c0.151-0.01,0.31-0.022,0.481-0.045C20.162,55.96,20.866,55.357,20.866,55.357z"/>
		<path fill="#AAAA04" d="M23.744,51.154c-0.929,0.801-2.29,1.879-2.792,3.985c8.092-0.145,15.147-3.775,16.212-10.243
			c1.601-9.762-7.176-25.053-17.869-25.671l-0.964,26.659C20.94,48.04,23.654,50.437,23.744,51.154z"/>
		<path opacity="0.2" fill="#FFFFFF" d="M23.744,51.154c-0.929,0.801-2.29,1.879-2.792,3.985
			c8.092-0.145,15.147-3.775,16.212-10.243c1.601-9.762-7.176-25.053-17.869-25.671l-0.964,26.659
			C20.94,48.04,23.654,50.437,23.744,51.154z"/>
		<path fill="#AAAA04" d="M20.928,55.083c0.008,0,0.016,0,0.023,0c0.502-2,1.863-3.156,2.792-3.957
			c-0.09-0.718-2.804-3.101-5.413-5.256l-0.202,5.579l3.248,2.116L20.928,55.083z"/>
		<path opacity="0.2" fill="#FFFFFF" d="M20.928,55.083c0.008,0,0.016,0,0.023,0c0.502-2,1.863-3.156,2.792-3.957
			c-0.09-0.718-2.804-3.101-5.413-5.256l-0.202,5.579l3.248,2.116L20.928,55.083z"/>
		<path fill="#AAAA04" d="M20.928,55.142l0.448-1.543l-3.248-2.143L18,55.039C18.985,55.122,19.964,55.157,20.928,55.142z"/>
		<path opacity="0.2" fill="#FFFFFF" d="M20.928,55.142l0.448-1.543l-3.248-2.143L18,55.039
			C18.985,55.122,19.964,55.157,20.928,55.142z"/>
	</g>
	<g>
		<path fill="#A57426" d="M44.156,50.584c0,0.044-0.248,0.079-0.5,0.093c-1.561,0.094-2.14-0.429-2.14-0.429l-0.402-2.09
			c-0.023-0.005-0.017-0.011-0.04-0.016c0.603,2.448,1.089,5.011,1.251,7.452c0.608,9.174-0.591,16.072-0.591,16.072l8.324-1.783
			c0,0-1.593-6.031-2.239-12.801h-3.663V50.584z"/>
		<path fill="#9CC605" d="M40.926,48.158l0.59,2.09c0,0,0.517,0.522,2.077,0.429c0.252-0.014,0.562-0.049,0.562-0.093v-1.836
			C43.156,48.616,42.091,48.42,40.926,48.158z"/>
		<path fill="#9CC605" d="M44.156,40.829V0c-2-0.018-4.557,0.709-6.921,2.391c-15.86,11.279-19.28,32.303-8.89,39.967
			c3.966,2.922,8.377,4.803,12.697,5.784c-1.663-6.755-4.552-12.635-4.552-12.635S41.156,38.151,44.156,40.829z"/>
		<path fill="#9CC605" d="M39.935,43.698l4.221,2.148v-5.018c-3-2.678-7.634-5.322-7.634-5.322s2.795,5.88,4.458,12.635
			c0.023,0.005-0.015,0.011,0.009,0.016L39.935,43.698z"/>
		<path fill="#9CC605" d="M44.156,45.847l-4.221-2.148l0.866,4.46c1.165,0.262,2.354,0.458,3.354,0.59V45.847z"/>
		<path fill="#A57426" d="M48.5,48.96c-0.023,0.001-0.048,0.002-0.071,0.002l-0.341,0.164c0,0-1.932,1.117-3.932,1.458v6.499h3.663
			c-0.126-1.326-0.22-2.678-0.254-4.02C47.521,51.333,47.929,50.02,48.5,48.96z"/>
		<path fill="#9CC605" d="M44.156,48.748v1.836c2-0.341,3.932-1.458,3.932-1.458l-0.034-0.164
			C46.816,48.969,46.156,48.894,44.156,48.748z"/>
		<path opacity="0.3" fill="#FFFFFD" d="M44.156,48.748v1.836c2-0.341,3.932-1.458,3.932-1.458l-0.034-0.164
			C46.816,48.969,46.156,48.894,44.156,48.748z"/>
		<path fill="#9CC605" d="M50.57,46.065c-0.709,0.724-1.509,1.621-2.195,2.895c9.42-0.068,17.279-4.454,19.144-11.734
			C70.732,24.684,58.156,0.103,44.156,0v40.829C48.156,43.038,50.402,45.27,50.57,46.065z"/>
		<path opacity="0.3" fill="#FFFFFD" d="M50.57,46.065c-0.709,0.724-1.509,1.621-2.195,2.895c9.42-0.068,17.279-4.454,19.144-11.734
			C70.732,24.684,58.156,0.103,44.156,0v40.829C48.156,43.038,50.402,45.27,50.57,46.065z"/>
		<path fill="#9CC605" d="M44.156,40.829v5.018l4.594,2.086l-0.446,1.029c0.023,0,0.11-0.001,0.134-0.002
			c0.687-1.273,1.393-2.171,2.102-2.895C50.371,45.27,48.156,43.038,44.156,40.829z"/>
		<path opacity="0.3" fill="#FFFFFD" d="M44.156,40.829v5.018l4.594,2.086l-0.446,1.029c0.023,0,0.11-0.001,0.134-0.002
			c0.687-1.273,1.393-2.171,2.102-2.895C50.371,45.27,48.156,43.038,44.156,40.829z"/>
		<path fill="#9CC605" d="M44.156,45.847v2.901c2,0.146,2.785,0.221,4.022,0.214l0.446-1.029L44.156,45.847z"/>
		<path opacity="0.3" fill="#FFFFFD" d="M44.156,45.847v2.901c2,0.146,2.785,0.221,4.022,0.214l0.446-1.029L44.156,45.847z"/>
	</g>
</g>
</svg>
