<?xml version="1.0" encoding="utf-8"?>
<!-- Generator: Adobe Illustrator 16.0.0, SVG Export Plug-In . SVG Version: 6.00 Build 0)  -->
<!DOCTYPE svg PUBLIC "-//W3C//DTD SVG 1.1//EN" "http://www.w3.org/Graphics/SVG/1.1/DTD/svg11.dtd">
<svg version="1.1" id="Ebene_1" xmlns="http://www.w3.org/2000/svg" xmlns:xlink="http://www.w3.org/1999/xlink" x="0px" y="0px"
	 width="399.105px" height="767.25px" viewBox="0 0 399.105 767.25" enable-background="new 0 0 399.105 767.25"
	 xml:space="preserve">
<g>
	<g>
		<path fill="#113442" d="M330.294,0H68.812C30.807,0,0,30.807,0,68.812v629.623c0,38.01,30.807,68.812,68.812,68.812h278.685
			c38.005,0,51.609-30.803,51.609-68.812V68.812C399.105,30.807,368.298,0,330.294,0z"/>
		<rect x="10.319" y="79.133" fill="#DBE17E" width="378.466" height="608.98"/>
		<path fill="#0A1F26" d="M255.462,33.546h-94.616c-2.375,0-4.301,1.925-4.301,4.3c0,2.376,1.926,4.301,4.301,4.301h94.616
			c2.377,0,4.3-1.925,4.3-4.301C259.762,35.471,257.839,33.546,255.462,33.546z"/>
		<g opacity="0.5">
			<path opacity="0.3" fill="#FFFFFF" enable-background="new    " d="M68.088,766.921h278.688
				c38.006,0,52.239-30.477,52.239-68.486V68.812c0-15.284-5.303-29.396-13.731-40.816L18.602,745.894
				C31.123,758.949,48.572,766.921,68.088,766.921z"/>
		</g>
	</g>
	<g>
		<rect x="50.053" y="271.125" fill="none" width="290" height="447"/>
		<path fill="#F84855" d="M87.404,310.112h-7.182l18.306-38.988h9.558l0.756,38.988h-7.128l-0.054-8.208H91.347L87.404,310.112z
			 M101.283,279.548l-7.128,15.768h7.398l-0.162-15.768H101.283z"/>
		<path fill="#F84855" d="M125.798,282.68l-3.564,15.876c-0.432,2.052-0.324,3.483,0.324,4.293s1.763,1.215,3.348,1.215
			c1.62,0,2.925-0.405,3.915-1.215c0.99-0.81,1.701-2.241,2.133-4.293l0.594-2.592H140l-0.378,1.62
			c-1.909,8.712-6.966,13.068-15.174,13.068s-11.358-4.355-9.45-13.068l3.132-13.932c1.908-8.712,6.966-13.068,15.174-13.068
			s11.358,4.356,9.45,13.068l-0.054,0.108h-7.452l0.27-1.08c0.432-2.052,0.324-3.483-0.324-4.293s-1.764-1.215-3.348-1.215
			c-1.62,0-2.925,0.405-3.915,1.215C126.941,279.197,126.23,280.628,125.798,282.68z"/>
		<path fill="#F84855" d="M150.8,310.112h-7.452l8.64-38.988h7.452l-3.456,15.552h10.53l3.456-15.552h7.452l-8.64,38.988h-7.452
			l3.726-16.848h-10.53L150.8,310.112z"/>
		<path fill="#F84855" d="M182.282,271.124h24.839l-1.457,6.588h-8.694l-7.182,32.4h-7.452l7.182-32.4h-8.694L182.282,271.124z"/>
		<path fill="#F84855" d="M211.982,271.124h7.451l-6.047,27.27c-0.83,3.78,0.504,5.67,3.996,5.67c3.527,0,5.705-1.89,6.533-5.67
			l6.049-27.27h7.451l-6.049,27.324c-0.9,4.14-2.699,7.209-5.398,9.207c-2.701,1.998-6.049,2.997-10.045,2.997
			s-6.885-0.999-8.666-2.997c-1.783-1.998-2.225-5.067-1.324-9.207L211.982,271.124z"/>
		<path fill="#F84855" d="M243.14,310.112h-6.804l8.64-38.988h8.154l5.237,23.112h0.108l5.13-23.112h6.804l-8.64,38.988h-7.128
			l-5.832-25.164h-0.107L243.14,310.112z"/>
		<path fill="#F84855" d="M288.661,310.112l-0.433-3.24c-2.772,2.521-5.364,3.78-7.775,3.78c-8.208,0-11.358-4.355-9.45-13.068
			l3.132-13.932c1.908-8.712,6.966-13.068,15.174-13.068c7.704,0,10.728,4.41,9.072,13.23h-7.452
			c1.008-4.428-0.019-6.642-3.078-6.642c-1.62,0-2.925,0.405-3.915,1.215s-1.701,2.241-2.133,4.293l-3.563,15.876
			c-0.433,2.052-0.324,3.483,0.323,4.293c0.648,0.81,1.764,1.215,3.349,1.215c1.403,0,2.609-0.477,3.618-1.431
			c1.007-0.954,1.709-2.276,2.105-3.969l0.54-2.376h-5.238l1.351-6.156h12.689l-4.428,19.98H288.661z"/>
		<path fill="#F84855" d="M306.913,310.112h-7.668l1.674-7.668h7.668L306.913,310.112z M315.661,271.124l-7.236,25.812h-4.859
			l4.212-25.812H315.661z"/>
		<path fill="#F84855" d="M56.293,356.112h-4.14l4.8-21.66h4.14L56.293,356.112z"/>
		<path fill="#F84855" d="M64.633,356.112h-4.14l4.8-21.66h4.14l-1.92,8.64h5.85l1.92-8.64h4.14l-4.8,21.66h-4.14l2.07-9.36h-5.85
			L64.633,356.112z"/>
		<path fill="#F84855" d="M92.742,356.112h-4.44l-1.65-8.82h-1.98l-1.95,8.82h-4.14l4.8-21.66h6c2.439,0,4.15,0.561,5.13,1.68
			c0.979,1.12,1.24,2.72,0.78,4.8c-0.64,2.86-2.14,4.7-4.5,5.52L92.742,356.112z M86.772,337.872l-1.35,6h2.13
			c1.96,0,3.169-1,3.63-3c0.42-2-0.34-3-2.28-3H86.772z"/>
		<path fill="#F84855" d="M117.762,356.112h-4.44l-1.65-8.82h-1.98l-1.95,8.82h-4.14l4.8-21.66h6c2.439,0,4.15,0.561,5.13,1.68
			c0.979,1.12,1.24,2.72,0.78,4.8c-0.64,2.86-2.14,4.7-4.5,5.52L117.762,356.112z M111.792,337.872l-1.35,6h2.13
			c1.96,0,3.169-1,3.63-3c0.42-2-0.34-3-2.28-3H111.792z"/>
		<path fill="#F84855" d="M131.922,356.112h-11.64l4.8-21.66h11.34l-0.81,3.66h-7.2l-1.11,4.98h5.49l-0.81,3.66h-5.49l-1.26,5.7h7.5
			L131.922,356.112z"/>
		<path fill="#F84855" d="M139.663,356.112h-4.14l4.8-21.66h4.14L139.663,356.112z"/>
		<path fill="#F84855" d="M147.762,356.112h-4.14l4.8-21.66h10.8l-0.81,3.66h-6.66l-1.11,4.98h5.22l-0.81,3.66h-5.22
			L147.762,356.112z"/>
		<path fill="#F84855" d="M168.582,356.112h-11.64l4.8-21.66h11.34l-0.81,3.66h-7.2l-1.11,4.98h5.49l-0.81,3.66h-5.49l-1.26,5.7h7.5
			L168.582,356.112z"/>
		<path fill="#F84855" d="M175.961,356.112h-3.78l4.8-21.66h4.53l2.91,12.84h0.06l2.85-12.84h3.78l-4.8,21.66h-3.96l-3.24-13.98
			h-0.06L175.961,356.112z"/>
		<path fill="#F84855" d="M194.651,356.112h-4.14l4.8-21.66h5.97c2.52,0,4.29,0.561,5.31,1.68c1.021,1.12,1.3,2.72,0.84,4.8
			c-0.46,2.081-1.45,3.68-2.97,4.8s-3.54,1.68-6.06,1.68h-1.83L194.651,356.112z M198.701,337.872l-1.35,6.12h2.22
			c2.02,0,3.26-1.02,3.72-3.06c0.439-2.04-0.35-3.06-2.37-3.06H198.701z"/>
		<path fill="#F84855" d="M221.11,356.112h-4.439l-1.65-8.82h-1.979l-1.95,8.82h-4.14l4.8-21.66h6c2.439,0,4.149,0.561,5.13,1.68
			c0.979,1.12,1.24,2.72,0.78,4.8c-0.641,2.86-2.141,4.7-4.5,5.52L221.11,356.112z M215.141,337.872l-1.35,6h2.13
			c1.96,0,3.17-1,3.63-3c0.42-2-0.34-3-2.28-3H215.141z"/>
		<path fill="#F84855" d="M224.801,349.152l1.739-7.74c1.061-4.84,3.87-7.26,8.431-7.26c4.56,0,6.31,2.42,5.25,7.26l-1.74,7.74
			c-1.061,4.84-3.87,7.26-8.43,7.26C225.49,356.412,223.74,353.992,224.801,349.152z M230.801,340.872l-1.98,8.82
			c-0.24,1.14-0.18,1.935,0.181,2.385c0.359,0.45,0.979,0.675,1.859,0.675c0.9,0,1.625-0.225,2.175-0.675
			c0.55-0.45,0.945-1.245,1.186-2.385l1.979-8.82c0.24-1.14,0.181-1.935-0.18-2.385s-0.98-0.675-1.86-0.675
			c-0.899,0-1.625,0.225-2.175,0.675S231.04,339.732,230.801,340.872z"/>
		<path fill="#F84855" d="M244.45,356.112h-4.14l4.8-21.66h10.8l-0.81,3.66h-6.66l-1.11,4.98h5.22l-0.81,3.66h-5.22L244.45,356.112z
			"/>
		<path fill="#F84855" d="M258.01,356.112h-4.141l4.801-21.66h4.14L258.01,356.112z"/>
		<path fill="#F84855" d="M272.77,356.112h-10.8l4.8-21.66h4.14l-3.99,18h6.66L272.77,356.112z"/>
		<path fill="#F84855" d="M56.293,390.912h-4.14l4.8-21.66h4.14L56.293,390.912z"/>
		<path fill="#F84855" d="M76.812,374.202l-3.93,1.08c-0.12-1.02-0.371-1.76-0.75-2.22c-0.38-0.46-0.93-0.69-1.65-0.69
			c-0.72,0-1.33,0.21-1.83,0.63s-0.83,1-0.99,1.74c-0.12,0.58,0.08,1.13,0.6,1.65c0.52,0.521,1.18,1.01,1.98,1.47
			c0.8,0.46,1.59,0.975,2.37,1.545c0.78,0.57,1.38,1.335,1.8,2.295s0.49,2.07,0.21,3.33c-0.4,1.88-1.335,3.38-2.805,4.5
			c-1.47,1.12-3.285,1.68-5.445,1.68c-1.74,0-3.11-0.499-4.11-1.5c-1-0.999-1.541-2.53-1.62-4.59l4.26-0.87
			c-0.04,1.2,0.18,2.09,0.66,2.67s1.07,0.87,1.77,0.87c0.74,0,1.4-0.229,1.98-0.69c0.58-0.459,0.96-1.09,1.14-1.89
			c0.12-0.54,0.06-1.044-0.18-1.515c-0.24-0.47-0.59-0.885-1.05-1.245c-0.46-0.36-0.98-0.71-1.56-1.05
			c-0.581-0.34-1.155-0.715-1.725-1.125c-0.57-0.41-1.075-0.845-1.515-1.305c-0.44-0.46-0.755-1.03-0.945-1.71
			c-0.19-0.68-0.195-1.43-0.015-2.25c0.42-1.9,1.31-3.385,2.67-4.455c1.359-1.07,3.09-1.605,5.19-1.605
			c1.78,0,3.135,0.475,4.065,1.425C76.317,371.327,76.792,372.602,76.812,374.202z"/>
		<path fill="#F84855" d="M80.473,369.251h13.8l-0.81,3.66h-4.83l-3.99,18h-4.14l3.99-18h-4.83L80.473,369.251z"/>
		<path fill="#F84855" d="M104.232,372.912l0.81-3.66h12l-0.78,3.48l-11.4,14.52h8.37l-0.81,3.66h-13.02l0.78-3.51l11.4-14.49
			H104.232z"/>
		<path fill="#F84855" d="M120.312,369.251h4.14l-3.36,15.15c-0.46,2.1,0.28,3.15,2.22,3.15c1.96,0,3.17-1.051,3.63-3.15l3.36-15.15
			h4.14l-3.36,15.18c-0.5,2.301-1.5,4.006-3,5.115c-1.5,1.11-3.36,1.665-5.58,1.665c-2.22,0-3.825-0.555-4.815-1.665
			c-0.99-1.109-1.235-2.814-0.735-5.115L120.312,369.251z"/>
		<path fill="#F84855" d="M152.922,390.912l-0.24-1.8c-1.541,1.399-2.98,2.1-4.32,2.1c-4.56,0-6.31-2.419-5.25-7.26l1.74-7.74
			c1.06-4.84,3.87-7.26,8.43-7.26c4.279,0,5.959,2.45,5.04,7.35h-4.14c0.56-2.46-0.01-3.69-1.71-3.69
			c-0.9,0-1.625,0.225-2.175,0.675c-0.55,0.45-0.945,1.245-1.185,2.385l-1.98,8.82c-0.24,1.141-0.18,1.936,0.18,2.385
			c0.36,0.45,0.979,0.676,1.86,0.676c0.78,0,1.45-0.266,2.01-0.795c0.56-0.53,0.95-1.266,1.17-2.205l0.3-1.321h-2.91l0.75-3.42h7.05
			l-2.46,11.1H152.922z"/>
		<path fill="#F84855" d="M170.262,390.912h-11.64l4.8-21.66h11.34l-0.81,3.66h-7.2l-1.11,4.98h5.49l-0.81,3.66h-5.49l-1.26,5.7h7.5
			L170.262,390.912z"/>
		<path fill="#F84855" d="M187.782,390.912h-4.44l-1.65-8.82h-1.98l-1.95,8.82h-4.14l4.8-21.66h6c2.439,0,4.15,0.561,5.13,1.68
			c0.979,1.12,1.24,2.72,0.78,4.8c-0.64,2.86-2.14,4.7-4.5,5.52L187.782,390.912z M181.812,372.671l-1.35,6h2.13
			c1.96,0,3.169-1,3.63-3c0.42-2-0.34-3-2.28-3H181.812z"/>
		<path fill="#F84855" d="M194.683,390.912h-4.14l4.8-21.66h4.14L194.683,390.912z"/>
		<path fill="#F84855" d="M202.662,390.912h-3.78l4.8-21.66h4.529l2.91,12.84h0.061l2.85-12.84h3.78l-4.8,21.66h-3.961l-3.239-13.98
			h-0.061L202.662,390.912z"/>
		<path fill="#F84855" d="M227.952,390.912l-0.24-1.8c-1.54,1.399-2.979,2.1-4.319,2.1c-4.561,0-6.311-2.419-5.25-7.26l1.739-7.74
			c1.061-4.84,3.87-7.26,8.431-7.26c4.279,0,5.96,2.45,5.04,7.35h-4.141c0.561-2.46-0.01-3.69-1.71-3.69
			c-0.899,0-1.625,0.225-2.175,0.675s-0.945,1.245-1.185,2.385l-1.98,8.82c-0.24,1.141-0.18,1.936,0.181,2.385
			c0.359,0.45,0.979,0.676,1.859,0.676c0.78,0,1.45-0.266,2.01-0.795c0.561-0.53,0.95-1.266,1.17-2.205l0.301-1.321h-2.91l0.75-3.42
			h7.05l-2.46,11.1H227.952z"/>
		<path fill="#F84855" d="M238.092,390.912h-4.26l0.93-4.26h4.261L238.092,390.912z"/>
		<path fill="#F84855" d="M68.473,409.001l-3.93,1.08c-0.12-1.02-0.371-1.76-0.75-2.22c-0.38-0.46-0.93-0.69-1.65-0.69
			c-0.72,0-1.33,0.211-1.83,0.631s-0.83,1-0.99,1.74c-0.12,0.58,0.08,1.129,0.6,1.649c0.52,0.521,1.18,1.011,1.98,1.47
			c0.8,0.461,1.59,0.975,2.37,1.545c0.78,0.57,1.38,1.336,1.8,2.295c0.42,0.961,0.49,2.07,0.21,3.33
			c-0.4,1.881-1.335,3.381-2.805,4.5c-1.47,1.121-3.285,1.68-5.445,1.68c-1.74,0-3.11-0.499-4.11-1.5
			c-1-0.999-1.541-2.529-1.62-4.59l4.26-0.869c-0.04,1.199,0.18,2.09,0.66,2.67s1.07,0.869,1.77,0.869c0.74,0,1.4-0.229,1.98-0.689
			c0.58-0.46,0.96-1.09,1.14-1.891c0.12-0.539,0.06-1.044-0.18-1.514c-0.24-0.471-0.59-0.886-1.05-1.246
			c-0.46-0.359-0.98-0.709-1.56-1.049c-0.581-0.34-1.155-0.715-1.725-1.125c-0.57-0.41-1.075-0.846-1.515-1.306
			s-0.755-1.03-0.945-1.71c-0.19-0.68-0.195-1.43-0.015-2.25c0.42-1.9,1.31-3.385,2.67-4.455c1.359-1.07,3.09-1.605,5.19-1.605
			c1.78,0,3.135,0.476,4.065,1.426C67.978,406.126,68.453,407.402,68.473,409.001z"/>
		<path fill="#F84855" d="M69.763,418.751l1.74-7.74c1.06-4.84,3.87-7.26,8.43-7.26c4.56,0,6.31,2.42,5.25,7.26l-1.74,7.74
			c-1.06,4.841-3.87,7.26-8.43,7.26C70.453,426.011,68.703,423.592,69.763,418.751z M75.763,410.472l-1.98,8.82
			c-0.24,1.14-0.18,1.935,0.18,2.385c0.36,0.449,0.979,0.675,1.86,0.675c0.9,0,1.625-0.226,2.175-0.675
			c0.55-0.45,0.945-1.245,1.185-2.385l1.98-8.82c0.24-1.141,0.18-1.936-0.18-2.385c-0.36-0.451-0.98-0.676-1.86-0.676
			c-0.9,0-1.625,0.225-2.175,0.676C76.397,408.537,76.003,409.332,75.763,410.472z"/>
		<path fill="#F84855" d="M96.073,425.712h-10.8l4.8-21.66h4.14l-3.99,18h6.66L96.073,425.712z"/>
		<path fill="#F84855" d="M109.393,425.712h-10.8l4.8-21.66h4.14l-3.99,18h6.66L109.393,425.712z"/>
		<path fill="#F84855" d="M124.632,425.712h-4.14l4.8-21.66h4.14L124.632,425.712z"/>
		<path fill="#F84855" d="M135.761,410.472l-1.98,8.82c-0.24,1.14-0.18,1.935,0.18,2.385c0.36,0.449,0.979,0.675,1.86,0.675
			c0.9,0,1.625-0.226,2.175-0.675c0.55-0.45,0.945-1.245,1.185-2.385l0.33-1.44h4.14l-0.21,0.899c-1.06,4.841-3.87,7.26-8.43,7.26
			c-4.56,0-6.31-2.419-5.25-7.26l1.74-7.74c1.06-4.84,3.87-7.26,8.43-7.26c4.56,0,6.31,2.42,5.25,7.26l-0.03,0.061h-4.14l0.15-0.6
			c0.24-1.141,0.18-1.936-0.18-2.385c-0.36-0.451-0.98-0.676-1.86-0.676c-0.9,0-1.625,0.225-2.175,0.676
			C136.396,408.537,136.001,409.332,135.761,410.472z"/>
		<path fill="#F84855" d="M149.652,425.712h-4.14l4.8-21.66h4.14l-1.92,8.64h5.85l1.92-8.64h4.14l-4.8,21.66h-4.14l2.07-9.36h-5.85
			L149.652,425.712z"/>
		<path fill="#F84855" d="M183.581,425.712h-11.64l4.8-21.66h11.34l-0.81,3.66h-7.2l-1.11,4.979h5.49l-0.81,3.66h-5.49l-1.26,5.7
			h7.5L183.581,425.712z"/>
		<path fill="#F84855" d="M191.321,425.712h-4.14l4.8-21.66h4.14L191.321,425.712z"/>
		<path fill="#F84855" d="M199.301,425.712h-3.78l4.799-21.66h4.53l2.91,12.84h0.061l2.85-12.84h3.78l-4.8,21.66h-3.961
			l-3.239-13.98h-0.061L199.301,425.712z"/>
		<path fill="#F84855" d="M225.251,425.712h-11.64l4.8-21.66h11.34l-0.81,3.66h-7.2l-1.11,4.979h5.49l-0.811,3.66h-5.489l-1.261,5.7
			h7.5L225.251,425.712z"/>
		<path fill="#F84855" d="M232.631,425.712h-3.78l4.801-21.66h4.529l2.91,12.84h0.061l2.85-12.84h3.78l-4.8,21.66h-3.961
			l-3.239-13.98h-0.061L232.631,425.712z"/>
		<path fill="#F84855" d="M55.453,438.851h13.8l-0.81,3.66h-4.83l-3.99,18h-4.14l3.99-18h-4.83L55.453,438.851z"/>
		<path fill="#F84855" d="M78.553,460.511h-11.64l4.8-21.66h11.34l-0.81,3.66h-7.2l-1.11,4.98h5.49l-0.81,3.66h-5.49l-1.26,5.699
			h7.5L78.553,460.511z"/>
		<path fill="#F84855" d="M96.073,460.511h-4.44l-1.65-8.819h-1.98l-1.95,8.819h-4.14l4.8-21.66h6c2.439,0,4.15,0.561,5.13,1.681
			c0.979,1.12,1.24,2.72,0.78,4.8c-0.64,2.86-2.14,4.7-4.5,5.52L96.073,460.511z M90.103,442.271l-1.35,6h2.13
			c1.96,0,3.169-0.999,3.63-3c0.42-1.999-0.34-3-2.28-3H90.103z"/>
		<path fill="#F84855" d="M102.373,460.511h-3.54l4.8-21.66h5.79l0.6,14.221h0.06l6.9-14.221h5.79l-4.8,21.66h-3.54l3.78-17.039
			h-0.06l-8.19,17.039h-3.12l-0.63-17.039h-0.06L102.373,460.511z"/>
		<path fill="#F84855" d="M126.313,460.511h-4.14l4.8-21.66h4.14L126.313,460.511z"/>
		<path fill="#F84855" d="M134.292,460.511h-3.78l4.8-21.66h4.53l2.91,12.841h0.06l2.85-12.841h3.78l-4.8,21.66h-3.96l-3.24-13.979
			h-0.06L134.292,460.511z"/>
		<path fill="#F84855" d="M161.322,460.511h-4.14l4.8-21.66h4.14L161.322,460.511z"/>
		<path fill="#F84855" d="M169.302,460.511h-3.78l4.8-21.66h4.53l2.91,12.841h0.06l2.85-12.841h3.78l-4.8,21.66h-3.96l-3.24-13.979
			h-0.06L169.302,460.511z"/>
		<path fill="#F84855" d="M191.951,460.511l4.8-21.66h5.76c2.439,0,4.16,0.586,5.16,1.756s1.25,3.085,0.75,5.744l-1.5,6.66
			c-0.682,2.66-1.775,4.576-3.285,5.746s-3.486,1.754-5.925,1.754H191.951z M200.082,442.511l-3.181,14.34h1.44
			c1.2,0,2.174-0.33,2.924-0.989c0.75-0.66,1.295-1.771,1.635-3.33l1.262-5.7c0.34-1.539,0.305-2.645-0.105-3.314
			s-1.256-1.006-2.535-1.006H200.082z"/>
		<path fill="#F84855" d="M220.271,460.511h-11.64l4.8-21.66h11.34l-0.81,3.66h-7.2l-1.11,4.98h5.49l-0.811,3.66h-5.489
			l-1.261,5.699h7.5L220.271,460.511z"/>
		<path fill="#F84855" d="M237.791,460.511h-4.439l-1.65-8.819h-1.979l-1.95,8.819h-4.14l4.8-21.66h6
			c2.439,0,4.149,0.561,5.13,1.681c0.979,1.12,1.24,2.72,0.78,4.8c-0.641,2.86-2.141,4.7-4.5,5.52L237.791,460.511z
			 M231.821,442.271l-1.35,6h2.13c1.96,0,3.17-0.999,3.63-3c0.42-1.999-0.34-3-2.28-3H231.821z"/>
		<path fill="#F84855" d="M55.273,495.312l0.27-21.66h3.84l-0.24,14.16h0.06l6.12-14.16h3.99l-0.15,14.16h0.06l6.03-14.16h3.87
			l-9.54,21.66h-3.99l0.27-14.82h-0.06l-6.57,14.82H55.273z"/>
		<path fill="#F84855" d="M88.542,495.312h-11.64l4.8-21.66h11.34l-0.81,3.66h-7.2l-1.11,4.979h5.49l-0.81,3.66h-5.49l-1.26,5.7h7.5
			L88.542,495.312z"/>
		<path fill="#F84855" d="M106.062,495.312h-4.44l-1.65-8.82h-1.98l-1.95,8.82h-4.14l4.8-21.66h6c2.439,0,4.15,0.561,5.13,1.68
			c0.979,1.12,1.24,2.721,0.78,4.8c-0.64,2.86-2.14,4.7-4.5,5.521L106.062,495.312z M100.092,477.072l-1.35,6h2.13
			c1.96,0,3.169-1,3.63-3c0.42-2-0.34-3-2.28-3H100.092z"/>
		<path fill="#F84855" d="M112.723,495.312h-4.14l4.8-21.66h4.14l-1.98,8.939h0.06l7.35-8.939h4.53l-7.5,8.729l3.33,12.931h-4.65
			l-2.31-9.09l-2.16,2.459L112.723,495.312z"/>
		<path fill="#F84855" d="M141.823,478.601l-3.93,1.08c-0.12-1.02-0.371-1.76-0.75-2.22c-0.38-0.46-0.93-0.69-1.65-0.69
			c-0.72,0-1.33,0.211-1.83,0.631s-0.83,1-0.99,1.74c-0.12,0.58,0.08,1.129,0.6,1.649c0.52,0.521,1.18,1.011,1.98,1.47
			c0.8,0.461,1.59,0.975,2.37,1.545c0.78,0.57,1.38,1.336,1.8,2.295c0.42,0.961,0.49,2.07,0.21,3.33
			c-0.4,1.881-1.335,3.381-2.805,4.5c-1.47,1.121-3.285,1.68-5.445,1.68c-1.74,0-3.11-0.499-4.11-1.5
			c-1-0.999-1.541-2.529-1.62-4.59l4.26-0.869c-0.04,1.199,0.18,2.09,0.66,2.67s1.07,0.869,1.77,0.869c0.74,0,1.4-0.229,1.98-0.689
			c0.58-0.46,0.96-1.09,1.14-1.891c0.12-0.539,0.06-1.044-0.18-1.514c-0.24-0.471-0.59-0.886-1.05-1.246
			c-0.46-0.359-0.98-0.709-1.56-1.049c-0.581-0.34-1.155-0.715-1.725-1.125c-0.57-0.41-1.075-0.846-1.515-1.306
			s-0.755-1.03-0.945-1.71c-0.19-0.68-0.195-1.43-0.015-2.25c0.42-1.9,1.31-3.385,2.67-4.455c1.359-1.07,3.09-1.605,5.19-1.605
			c1.78,0,3.135,0.476,4.065,1.426C141.328,475.726,141.803,477.001,141.823,478.601z"/>
		<path fill="#F84855" d="M145.483,473.652h13.8l-0.81,3.66h-4.83l-3.99,18h-4.14l3.99-18h-4.83L145.483,473.652z"/>
		<path fill="#F84855" d="M158.354,495.312h-3.99l10.17-21.66h5.31l0.42,21.66h-3.96l-0.03-4.561h-5.73L158.354,495.312z
			 M166.063,478.332l-3.96,8.76h4.11l-0.09-8.76H166.063z"/>
		<path fill="#F84855" d="M174.404,473.652h13.8l-0.81,3.66h-4.83l-3.99,18h-4.14l3.99-18h-4.83L174.404,473.652z"/>
		<path fill="#F84855" d="M189.404,473.652h13.8l-0.811,3.66h-4.83l-3.99,18h-4.14l3.99-18h-4.83L189.404,473.652z"/>
		<path fill="#F84855" d="M212.983,495.312h-3.54l4.801-21.66h5.79l0.6,14.22h0.06l6.9-14.22h5.79l-4.8,21.66h-3.54l3.78-17.041
			h-0.061l-8.189,17.041h-3.12l-0.63-17.041h-0.061L212.983,495.312z"/>
		<path fill="#F84855" d="M235.063,495.312h-3.99l10.17-21.66h5.311l0.42,21.66h-3.96l-0.03-4.561h-5.729L235.063,495.312z
			 M242.773,478.332l-3.96,8.76h4.11l-0.09-8.76H242.773z"/>
		<path fill="#F84855" d="M256.394,480.072l-1.98,8.82c-0.24,1.14-0.18,1.935,0.181,2.385c0.359,0.449,0.979,0.675,1.859,0.675
			c0.9,0,1.625-0.226,2.175-0.675c0.55-0.45,0.945-1.245,1.186-2.385l0.33-1.44h4.14l-0.21,0.899c-1.061,4.841-3.87,7.26-8.43,7.26
			c-4.561,0-6.311-2.419-5.25-7.26l1.739-7.74c1.061-4.84,3.87-7.26,8.431-7.26c4.56,0,6.31,2.42,5.25,7.26l-0.03,0.061h-4.14
			l0.149-0.6c0.24-1.141,0.181-1.936-0.18-2.385c-0.36-0.451-0.98-0.676-1.86-0.676c-0.899,0-1.625,0.225-2.175,0.676
			C257.028,478.136,256.633,478.931,256.394,480.072z"/>
		<path fill="#F84855" d="M270.283,495.312h-4.141l4.801-21.66h4.14l-1.92,8.64h5.85l1.92-8.64h4.141l-4.8,21.66h-4.141l2.07-9.36
			h-5.851L270.283,495.312z"/>
		<path fill="#F84855" d="M295.873,495.312h-11.64l4.8-21.66h11.34l-0.81,3.66h-7.2l-1.11,4.979h5.49l-0.811,3.66h-5.489l-1.261,5.7
			h7.5L295.873,495.312z"/>
		<path fill="#F84855" d="M303.253,495.312h-3.78l4.801-21.66h4.529l2.91,12.84h0.061l2.85-12.84h3.78l-4.8,21.66h-3.961
			l-3.239-13.98h-0.061L303.253,495.312z"/>
		<path fill="#F84855" d="M323.803,495.312h-4.26l0.93-4.26h4.261L323.803,495.312z M323.053,479.052l-3.239-0.961
			c0.699-1.479,1.675-2.64,2.925-3.48c1.25-0.84,2.635-1.26,4.155-1.26c1.52,0,2.734,0.455,3.645,1.365s1.195,2.156,0.855,3.735
			c-0.24,0.979-1.271,2.38-3.091,4.2c-0.659,0.66-1.135,1.145-1.425,1.455s-0.615,0.71-0.975,1.199
			c-0.36,0.49-0.58,0.926-0.66,1.305l-0.33,1.5h-3.3l0.66-2.939c0.1-0.459,0.989-1.595,2.67-3.404
			c1.68-1.811,2.59-3.016,2.729-3.615c0.101-0.5,0-0.916-0.3-1.245c-0.3-0.33-0.7-0.495-1.2-0.495c-0.6,0-1.22,0.275-1.859,0.824
			C323.673,477.787,323.253,478.392,323.053,479.052z"/>
	</g>
</g>
<g>
	<circle fill="#FFFFFF" cx="208.809" cy="171.109" r="51.25"/>
	<circle fill="#F84855" cx="208.809" cy="171.109" r="41.709"/>
</g>
<g>
	<path fill="#FFFFFF" d="M206.41,183.439l-0.821-14.833V151.48h6.452v17.126l-0.821,14.833H206.41z M211.924,186.32v6.217h-6.217
		v-6.217H211.924z"/>
</g>
</svg>
