<?xml version="1.0" encoding="utf-8"?>
<!-- Generator: Adobe Illustrator 16.0.0, SVG Export Plug-In . SVG Version: 6.00 Build 0)  -->
<!DOCTYPE svg PUBLIC "-//W3C//DTD SVG 1.1//EN" "http://www.w3.org/Graphics/SVG/1.1/DTD/svg11.dtd">
<svg version="1.1" id="Ebene_1" xmlns="http://www.w3.org/2000/svg" xmlns:xlink="http://www.w3.org/1999/xlink" x="0px" y="0px"
	 width="399.105px" height="767.25px" viewBox="0 0 399.105 767.25" enable-background="new 0 0 399.105 767.25"
	 xml:space="preserve">
<g>
	<g>
		<path fill="#113442" d="M330.294,0H68.812C30.807,0,0,30.807,0,68.812v629.623c0,38.01,30.807,68.812,68.812,68.812h278.685
			c38.005,0,51.609-30.803,51.609-68.812V68.812C399.105,30.807,368.298,0,330.294,0z"/>
		<rect x="10.319" y="79.133" fill="#DBE17E" width="378.466" height="608.98"/>
		<path fill="#0A1F26" d="M255.462,33.546h-94.616c-2.375,0-4.301,1.925-4.301,4.3c0,2.376,1.926,4.301,4.301,4.301h94.616
			c2.377,0,4.3-1.925,4.3-4.301C259.762,35.471,257.839,33.546,255.462,33.546z"/>
		<g opacity="0.5">
			<path opacity="0.3" fill="#FFFFFF" enable-background="new    " d="M68.088,766.921h278.688
				c38.006,0,52.239-30.477,52.239-68.486V68.812c0-15.284-5.303-29.396-13.731-40.816L18.602,745.894
				C31.123,758.949,48.572,766.921,68.088,766.921z"/>
		</g>
	</g>
	<g>
		<rect x="50.053" y="271.125" fill="none" width="290" height="447"/>
		<path fill="#F84855" d="M87.404,310.112h-7.182l18.306-38.988h9.558l0.756,38.988h-7.128l-0.054-8.208H91.347L87.404,310.112z
			 M101.283,279.548l-7.128,15.768h7.398l-0.162-15.768H101.283z"/>
		<path fill="#F84855" d="M125.798,282.68l-3.564,15.876c-0.432,2.052-0.324,3.483,0.324,4.293s1.763,1.215,3.348,1.215
			c1.62,0,2.925-0.405,3.915-1.215c0.99-0.81,1.701-2.241,2.133-4.293l0.594-2.592H140l-0.378,1.62
			c-1.909,8.712-6.966,13.068-15.174,13.068s-11.358-4.355-9.45-13.068l3.132-13.932c1.908-8.712,6.966-13.068,15.174-13.068
			s11.358,4.356,9.45,13.068l-0.054,0.108h-7.452l0.27-1.08c0.432-2.052,0.324-3.483-0.324-4.293s-1.764-1.215-3.348-1.215
			c-1.62,0-2.925,0.405-3.915,1.215C126.941,279.197,126.23,280.628,125.798,282.68z"/>
		<path fill="#F84855" d="M150.8,310.112h-7.452l8.64-38.988h7.452l-3.456,15.552h10.53l3.456-15.552h7.452l-8.64,38.988h-7.452
			l3.726-16.848h-10.53L150.8,310.112z"/>
		<path fill="#F84855" d="M182.282,271.124h24.839l-1.457,6.588h-8.694l-7.182,32.4h-7.452l7.182-32.4h-8.694L182.282,271.124z"/>
		<path fill="#F84855" d="M211.982,271.124h7.451l-6.047,27.27c-0.83,3.78,0.504,5.67,3.996,5.67c3.527,0,5.705-1.89,6.533-5.67
			l6.049-27.27h7.451l-6.049,27.324c-0.9,4.14-2.699,7.209-5.398,9.207c-2.701,1.998-6.049,2.997-10.045,2.997
			s-6.885-0.999-8.666-2.997c-1.783-1.998-2.225-5.067-1.324-9.207L211.982,271.124z"/>
		<path fill="#F84855" d="M243.14,310.112h-6.804l8.64-38.988h8.154l5.237,23.112h0.108l5.13-23.112h6.804l-8.64,38.988h-7.128
			l-5.832-25.164h-0.107L243.14,310.112z"/>
		<path fill="#F84855" d="M288.661,310.112l-0.433-3.24c-2.772,2.521-5.364,3.78-7.775,3.78c-8.208,0-11.358-4.355-9.45-13.068
			l3.132-13.932c1.908-8.712,6.966-13.068,15.174-13.068c7.704,0,10.728,4.41,9.072,13.23h-7.452
			c1.008-4.428-0.019-6.642-3.078-6.642c-1.62,0-2.925,0.405-3.915,1.215s-1.701,2.241-2.133,4.293l-3.563,15.876
			c-0.433,2.052-0.324,3.483,0.323,4.293c0.648,0.81,1.764,1.215,3.349,1.215c1.403,0,2.609-0.477,3.618-1.431
			c1.007-0.954,1.709-2.276,2.105-3.969l0.54-2.376h-5.238l1.351-6.156h12.689l-4.428,19.98H288.661z"/>
		<path fill="#F84855" d="M306.913,310.112h-7.668l1.674-7.668h7.668L306.913,310.112z M315.661,271.124l-7.236,25.812h-4.859
			l4.212-25.812H315.661z"/>
		<path fill="#F84855" d="M56.085,356.112h-4.002l4.64-20.938h4.002l-1.856,8.352h5.655l1.856-8.352h4.002l-4.64,20.938H61.74
			l2.001-9.048h-5.655L56.085,356.112z"/>
		<path fill="#F84855" d="M80.821,356.112H69.569l4.64-20.938h10.962l-0.783,3.538h-6.96l-1.073,4.814h5.307l-0.783,3.538h-5.307
			l-1.218,5.51h7.25L80.821,356.112z"/>
		<path fill="#F84855" d="M88.941,335.174h4.002l-3.248,14.645c-0.445,2.03,0.271,3.045,2.146,3.045
			c1.895,0,3.064-1.015,3.509-3.045l3.248-14.645h4.002l-3.248,14.674c-0.483,2.224-1.45,3.872-2.9,4.945
			c-1.45,1.073-3.248,1.609-5.394,1.609s-3.698-0.537-4.655-1.609c-0.957-1.073-1.194-2.721-0.71-4.945L88.941,335.174z"/>
		<path fill="#F84855" d="M105.21,335.174h13.34l-0.783,3.538h-4.669l-3.857,17.4h-4.002l3.857-17.4h-4.669L105.21,335.174z"/>
		<path fill="#F84855" d="M127.54,356.112h-11.252l4.64-20.938h10.962l-0.783,3.538h-6.96l-1.073,4.814h5.307l-0.783,3.538h-5.307
			l-1.218,5.51h7.25L127.54,356.112z"/>
		<path fill="#F84855" d="M138.85,356.112l4.64-20.938h5.626c2.165,0,3.731,0.455,4.698,1.363c0.966,0.909,1.256,2.252,0.87,4.031
			c-0.406,1.856-1.585,3.306-3.538,4.35c0.986,0.715,1.624,1.44,1.914,2.175c0.29,0.735,0.29,1.73,0,2.987
			c-0.445,2.011-1.402,3.519-2.871,4.524c-1.47,1.005-3.297,1.508-5.481,1.508H138.85z M144.911,346.774l-1.334,6.032h1.682
			c1.024,0,1.875-0.275,2.552-0.826c0.677-0.551,1.121-1.291,1.334-2.219c0.213-0.966,0.063-1.706-0.449-2.218
			c-0.513-0.512-1.31-0.769-2.393-0.769H144.911z M146.767,338.48l-1.102,4.988h1.392c0.889,0,1.663-0.232,2.32-0.696
			c0.657-0.464,1.063-1.054,1.218-1.769c0.174-0.792,0.073-1.411-0.305-1.856c-0.377-0.445-1.02-0.667-1.928-0.667H146.767z"/>
		<path fill="#F84855" d="M166.226,356.112h-11.252l4.64-20.938h10.962l-0.783,3.538h-6.96l-1.073,4.814h5.307l-0.783,3.538h-5.307
			l-1.218,5.51h7.25L166.226,356.112z"/>
		<path fill="#F84855" d="M185.482,339.959l-3.799,1.044c-0.116-0.986-0.358-1.701-0.725-2.146
			c-0.368-0.445-0.899-0.667-1.595-0.667s-1.286,0.203-1.769,0.609c-0.483,0.406-0.802,0.967-0.957,1.682
			c-0.116,0.561,0.077,1.092,0.58,1.595c0.502,0.503,1.141,0.977,1.914,1.421c0.773,0.445,1.537,0.943,2.291,1.494
			c0.754,0.551,1.334,1.291,1.74,2.219c0.406,0.928,0.474,2.001,0.203,3.219c-0.387,1.817-1.291,3.268-2.711,4.35
			c-1.421,1.083-3.176,1.624-5.264,1.624c-1.682,0-3.006-0.483-3.973-1.45c-0.967-0.966-1.489-2.445-1.566-4.437l4.118-0.841
			c-0.039,1.16,0.174,2.021,0.638,2.581c0.464,0.561,1.034,0.841,1.711,0.841c0.715,0,1.353-0.222,1.914-0.667
			c0.561-0.444,0.928-1.053,1.102-1.827c0.116-0.522,0.058-1.01-0.174-1.465c-0.232-0.454-0.57-0.855-1.015-1.204
			c-0.445-0.348-0.948-0.686-1.508-1.015c-0.561-0.329-1.116-0.691-1.667-1.087c-0.551-0.396-1.04-0.817-1.464-1.262
			c-0.426-0.444-0.73-0.996-0.914-1.653c-0.184-0.657-0.188-1.382-0.015-2.175c0.406-1.836,1.266-3.272,2.581-4.306
			c1.314-1.034,2.987-1.552,5.017-1.552c1.721,0,3.03,0.459,3.93,1.377C185.004,337.18,185.463,338.412,185.482,339.959z"/>
		<path fill="#F84855" d="M186.729,349.384l1.682-7.482c1.025-4.679,3.741-7.018,8.149-7.018c4.409,0,6.1,2.339,5.075,7.018
			l-1.682,7.482c-1.025,4.679-3.741,7.018-8.149,7.018C187.396,356.402,185.704,354.063,186.729,349.384z M192.529,341.38
			l-1.914,8.526c-0.232,1.102-0.174,1.871,0.174,2.306c0.348,0.435,0.947,0.652,1.798,0.652c0.87,0,1.57-0.217,2.103-0.652
			c0.531-0.435,0.914-1.204,1.146-2.306l1.914-8.526c0.232-1.102,0.174-1.871-0.174-2.306s-0.947-0.652-1.798-0.652
			c-0.87,0-1.571,0.217-2.103,0.652S192.761,340.278,192.529,341.38z"/>
		<path fill="#F84855" d="M205.607,356.112h-3.652l4.639-20.938h4.379l2.814,12.412h0.057l2.756-12.412h3.654l-4.641,20.938h-3.828
			l-3.133-13.514h-0.057L205.607,356.112z"/>
		<path fill="#F84855" d="M219.441,356.112l4.641-20.938h5.567c2.358,0,4.021,0.565,4.988,1.696
			c0.967,1.131,1.208,2.983,0.725,5.554l-1.45,6.438c-0.657,2.571-1.716,4.422-3.175,5.554c-1.46,1.131-3.369,1.696-5.728,1.696
			H219.441z M227.301,338.712l-3.074,13.862h1.392c1.16,0,2.103-0.319,2.828-0.957c0.725-0.638,1.251-1.711,1.58-3.219l1.218-5.51
			c0.329-1.488,0.295-2.557-0.102-3.205c-0.396-0.647-1.213-0.971-2.45-0.971H227.301z"/>
		<path fill="#F84855" d="M246.817,356.112h-11.252l4.641-20.938h10.962l-0.783,3.538h-6.96l-1.073,4.814h5.307l-0.782,3.538h-5.308
			l-1.218,5.51h7.25L246.817,356.112z"/>
		<path fill="#F84855" d="M263.754,356.112h-4.292l-1.596-8.526h-1.914l-1.885,8.526h-4.002l4.641-20.938h5.8
			c2.358,0,4.012,0.542,4.959,1.624c0.946,1.083,1.198,2.629,0.754,4.64c-0.619,2.765-2.069,4.543-4.351,5.336L263.754,356.112z
			 M257.982,338.48l-1.305,5.8h2.059c1.895,0,3.064-0.966,3.509-2.9c0.406-1.933-0.328-2.9-2.203-2.9H257.982z"/>
		<path fill="#F84855" d="M282.197,339.959l-3.799,1.044c-0.116-0.986-0.357-1.701-0.725-2.146
			c-0.368-0.445-0.899-0.667-1.596-0.667c-0.695,0-1.285,0.203-1.769,0.609c-0.483,0.406-0.803,0.967-0.957,1.682
			c-0.116,0.561,0.077,1.092,0.58,1.595c0.503,0.503,1.141,0.977,1.914,1.421c0.773,0.445,1.537,0.943,2.291,1.494
			c0.754,0.551,1.334,1.291,1.74,2.219c0.405,0.928,0.474,2.001,0.203,3.219c-0.388,1.817-1.291,3.268-2.712,4.35
			c-1.421,1.083-3.176,1.624-5.264,1.624c-1.682,0-3.007-0.483-3.973-1.45c-0.967-0.966-1.489-2.445-1.566-4.437l4.118-0.841
			c-0.039,1.16,0.174,2.021,0.638,2.581c0.464,0.561,1.034,0.841,1.711,0.841c0.716,0,1.354-0.222,1.914-0.667
			c0.561-0.444,0.929-1.053,1.103-1.827c0.116-0.522,0.058-1.01-0.174-1.465c-0.232-0.454-0.571-0.855-1.016-1.204
			c-0.444-0.348-0.947-0.686-1.508-1.015s-1.116-0.691-1.667-1.087c-0.552-0.396-1.04-0.817-1.465-1.262
			c-0.426-0.444-0.73-0.996-0.914-1.653s-0.188-1.382-0.014-2.175c0.405-1.836,1.266-3.272,2.581-4.306
			c1.314-1.034,2.986-1.552,5.017-1.552c1.721,0,3.03,0.459,3.93,1.377C281.719,337.18,282.178,338.412,282.197,339.959z"/>
		<path fill="#F84855" d="M63.103,390.912H51.851l4.64-20.938h10.962l-0.783,3.538h-6.96l-1.073,4.814h5.307l-0.783,3.538h-5.307
			l-1.218,5.51h7.25L63.103,390.912z"/>
		<path fill="#F84855" d="M70.585,390.912h-4.002l4.64-20.938h4.002L70.585,390.912z"/>
		<path fill="#F84855" d="M90.421,374.759l-3.799,1.044c-0.116-0.986-0.358-1.701-0.725-2.146c-0.368-0.445-0.899-0.667-1.595-0.667
			s-1.286,0.203-1.769,0.609c-0.483,0.406-0.802,0.967-0.957,1.682c-0.116,0.561,0.077,1.092,0.58,1.595
			c0.502,0.503,1.141,0.977,1.914,1.421c0.773,0.445,1.537,0.943,2.291,1.494c0.754,0.551,1.334,1.291,1.74,2.219
			c0.406,0.928,0.474,2.001,0.203,3.219c-0.387,1.816-1.291,3.268-2.711,4.35c-1.421,1.083-3.176,1.624-5.264,1.624
			c-1.682,0-3.006-0.483-3.973-1.45c-0.967-0.967-1.489-2.445-1.566-4.438l4.118-0.84c-0.039,1.16,0.174,2.02,0.638,2.58
			c0.464,0.562,1.034,0.842,1.711,0.842c0.715,0,1.353-0.223,1.914-0.668c0.561-0.443,0.928-1.053,1.102-1.826
			c0.116-0.522,0.058-1.01-0.174-1.465c-0.232-0.454-0.57-0.855-1.015-1.204c-0.445-0.348-0.948-0.686-1.508-1.015
			c-0.561-0.329-1.116-0.691-1.667-1.087c-0.551-0.396-1.04-0.817-1.464-1.262c-0.426-0.444-0.73-0.996-0.914-1.653
			c-0.184-0.657-0.188-1.382-0.015-2.175c0.406-1.836,1.266-3.272,2.581-4.306c1.314-1.034,2.987-1.552,5.017-1.552
			c1.721,0,3.03,0.459,3.93,1.377C89.942,371.979,90.401,373.212,90.421,374.759z"/>
		<path fill="#F84855" d="M94.771,390.912h-4.002l4.64-20.938h4.002L94.771,390.912z"/>
		<path fill="#F84855" d="M109.213,390.912l-0.232-1.74c-1.489,1.354-2.881,2.03-4.176,2.03c-4.408,0-6.1-2.339-5.075-7.019
			l1.682-7.481c1.025-4.679,3.741-7.018,8.149-7.018c4.137,0,5.761,2.369,4.872,7.105h-4.002c0.541-2.378-0.01-3.567-1.653-3.567
			c-0.87,0-1.571,0.217-2.103,0.652s-0.914,1.204-1.146,2.306l-1.914,8.526c-0.232,1.103-0.174,1.87,0.174,2.306
			c0.348,0.436,0.947,0.652,1.798,0.652c0.754,0,1.401-0.256,1.943-0.769c0.541-0.512,0.918-1.223,1.131-2.132l0.29-1.275h-2.813
			l0.725-3.306h6.815l-2.378,10.73H109.213z"/>
		<path fill="#F84855" d="M119.015,390.912h-4.118l0.899-4.118h4.118L119.015,390.912z M123.713,369.974l-3.886,13.862h-2.61
			l2.262-13.862H123.713z"/>
		<path fill="#F84855" d="M62.291,425.712h-10.44l4.64-20.938h4.002l-3.857,17.399h6.438L62.291,425.712z"/>
		<path fill="#F84855" d="M67.162,425.712h-3.857l9.831-20.938h5.133l0.406,20.938h-3.828l-0.029-4.408h-5.539L67.162,425.712z
			 M74.615,409.298l-3.828,8.468h3.973l-0.087-8.468H74.615z"/>
		<path fill="#F84855" d="M96.858,409.559l-3.799,1.044c-0.116-0.986-0.358-1.701-0.725-2.146c-0.368-0.444-0.899-0.666-1.595-0.666
			s-1.286,0.202-1.769,0.608c-0.483,0.405-0.802,0.967-0.957,1.683c-0.116,0.561,0.077,1.092,0.58,1.594
			c0.502,0.504,1.141,0.977,1.914,1.422c0.773,0.445,1.537,0.942,2.291,1.493c0.754,0.552,1.334,1.29,1.74,2.219
			c0.406,0.928,0.474,2.001,0.203,3.219c-0.387,1.817-1.291,3.268-2.711,4.351c-1.421,1.082-3.176,1.623-5.264,1.623
			c-1.682,0-3.006-0.482-3.973-1.449c-0.967-0.967-1.489-2.445-1.566-4.438l4.118-0.841c-0.039,1.16,0.174,2.021,0.638,2.581
			c0.464,0.561,1.034,0.841,1.711,0.841c0.715,0,1.353-0.222,1.914-0.667c0.561-0.444,0.928-1.053,1.102-1.826
			c0.116-0.523,0.058-1.011-0.174-1.465c-0.232-0.455-0.57-0.855-1.015-1.204c-0.445-0.348-0.948-0.687-1.508-1.015
			c-0.561-0.328-1.116-0.691-1.667-1.088c-0.551-0.396-1.04-0.816-1.464-1.262c-0.426-0.443-0.73-0.995-0.914-1.652
			c-0.184-0.657-0.188-1.383-0.015-2.176c0.406-1.836,1.266-3.271,2.581-4.306c1.314-1.034,2.987-1.552,5.017-1.552
			c1.721,0,3.03,0.459,3.93,1.377C96.38,406.78,96.839,408.012,96.858,409.559z"/>
		<path fill="#F84855" d="M112.982,409.559l-3.799,1.044c-0.116-0.986-0.358-1.701-0.725-2.146
			c-0.368-0.444-0.899-0.666-1.595-0.666s-1.286,0.202-1.769,0.608c-0.483,0.405-0.802,0.967-0.957,1.683
			c-0.116,0.561,0.077,1.092,0.58,1.594c0.502,0.504,1.141,0.977,1.914,1.422c0.773,0.445,1.537,0.942,2.291,1.493
			c0.754,0.552,1.334,1.29,1.74,2.219c0.406,0.928,0.474,2.001,0.203,3.219c-0.387,1.817-1.291,3.268-2.711,4.351
			c-1.421,1.082-3.176,1.623-5.264,1.623c-1.682,0-3.006-0.482-3.973-1.449c-0.967-0.967-1.489-2.445-1.566-4.438l4.118-0.841
			c-0.039,1.16,0.174,2.021,0.638,2.581c0.464,0.561,1.034,0.841,1.711,0.841c0.715,0,1.353-0.222,1.914-0.667
			c0.561-0.444,0.928-1.053,1.102-1.826c0.116-0.523,0.058-1.011-0.174-1.465c-0.232-0.455-0.57-0.855-1.015-1.204
			c-0.445-0.348-0.948-0.687-1.508-1.015c-0.561-0.328-1.116-0.691-1.667-1.088c-0.551-0.396-1.04-0.816-1.464-1.262
			c-0.426-0.443-0.73-0.995-0.914-1.652c-0.184-0.657-0.188-1.383-0.015-2.176c0.406-1.836,1.266-3.271,2.581-4.306
			c1.314-1.034,2.987-1.552,5.017-1.552c1.721,0,3.03,0.459,3.93,1.377C112.504,406.78,112.963,408.012,112.982,409.559z"/>
		<path fill="#F84855" d="M124.35,425.712h-11.252l4.64-20.938H128.7l-0.783,3.538h-6.96l-1.073,4.814h5.307l-0.783,3.537h-5.307
			l-1.218,5.51h7.25L124.35,425.712z"/>
		<path fill="#F84855" d="M131.484,425.712h-3.654l4.64-20.938h4.379l2.813,12.412h0.058l2.755-12.412h3.654l-4.64,20.938h-3.828
			l-3.132-13.515h-0.058L131.484,425.712z"/>
		<path fill="#F84855" d="M169.387,409.559l-3.799,1.044c-0.116-0.986-0.358-1.701-0.725-2.146
			c-0.368-0.444-0.899-0.666-1.595-0.666s-1.286,0.202-1.769,0.608c-0.483,0.405-0.802,0.967-0.957,1.683
			c-0.116,0.561,0.077,1.092,0.58,1.594c0.502,0.504,1.141,0.977,1.914,1.422c0.773,0.445,1.537,0.942,2.291,1.493
			c0.754,0.552,1.334,1.29,1.74,2.219c0.406,0.928,0.474,2.001,0.203,3.219c-0.387,1.817-1.291,3.268-2.711,4.351
			c-1.421,1.082-3.176,1.623-5.264,1.623c-1.682,0-3.006-0.482-3.973-1.449c-0.967-0.967-1.489-2.445-1.566-4.438l4.118-0.841
			c-0.039,1.16,0.174,2.021,0.638,2.581c0.464,0.561,1.034,0.841,1.711,0.841c0.715,0,1.353-0.222,1.914-0.667
			c0.561-0.444,0.928-1.053,1.102-1.826c0.116-0.523,0.058-1.011-0.174-1.465c-0.232-0.455-0.57-0.855-1.015-1.204
			c-0.445-0.348-0.948-0.687-1.508-1.015c-0.561-0.328-1.116-0.691-1.667-1.088c-0.551-0.396-1.04-0.816-1.464-1.262
			c-0.426-0.443-0.73-0.995-0.914-1.652c-0.184-0.657-0.188-1.383-0.015-2.176c0.406-1.836,1.266-3.271,2.581-4.306
			c1.314-1.034,2.987-1.552,5.017-1.552c1.721,0,3.03,0.459,3.93,1.377C168.909,406.78,169.368,408.012,169.387,409.559z"/>
		<path fill="#F84855" d="M173.737,425.712h-4.002l4.64-20.938h4.002L173.737,425.712z"/>
		<path fill="#F84855" d="M188.817,425.712h-11.252l4.64-20.938h10.962l-0.783,3.538h-6.96l-1.073,4.814h5.307l-0.783,3.537h-5.307
			l-1.218,5.51h7.25L188.817,425.712z"/>
		<path fill="#F84855" d="M204.361,425.712h-4.002l4.64-20.938h4.002L204.361,425.712z"/>
		<path fill="#F84855" d="M212.423,425.712h-4.002l4.64-20.938h4.002l-1.855,8.353h5.654l1.856-8.353h4.002l-4.64,20.938h-4.003
			l2.002-9.049h-5.655L212.423,425.712z"/>
		<path fill="#F84855" d="M239.596,425.712h-4.292l-1.596-8.526h-1.914l-1.885,8.526h-4.002l4.641-20.938h5.8
			c2.358,0,4.012,0.542,4.959,1.624c0.946,1.083,1.198,2.629,0.754,4.641c-0.619,2.764-2.069,4.543-4.351,5.336L239.596,425.712z
			 M233.824,408.08l-1.305,5.801h2.059c1.895,0,3.064-0.967,3.509-2.9c0.406-1.934-0.328-2.9-2.203-2.9H233.824z"/>
		<path fill="#F84855" d="M252.529,425.712h-3.857l9.831-20.938h5.133l0.406,20.938h-3.828l-0.029-4.408h-5.539L252.529,425.712z
			 M259.981,409.298l-3.827,8.468h3.973l-0.087-8.468H259.981z"/>
		<path fill="#F84855" d="M271.089,404.774h4.002l-3.248,14.646c-0.444,2.029,0.271,3.045,2.146,3.045
			c1.895,0,3.063-1.016,3.509-3.045l3.248-14.646h4.002l-3.248,14.674c-0.483,2.224-1.45,3.872-2.9,4.944
			c-1.449,1.073-3.248,1.609-5.394,1.609c-2.146,0-3.697-0.536-4.654-1.609c-0.957-1.072-1.194-2.721-0.711-4.944L271.089,404.774z"
			/>
		<path fill="#F84855" d="M287.357,404.774h13.34l-0.782,3.538h-4.669l-3.857,17.4h-4.002l3.857-17.4h-4.67L287.357,404.774z"/>
		<path fill="#F84855" d="M299.566,418.984l1.683-7.482c1.024-4.678,3.74-7.018,8.148-7.018s6.1,2.34,5.075,7.018l-1.682,7.482
			c-1.025,4.68-3.741,7.018-8.149,7.018S298.542,423.664,299.566,418.984z M305.366,410.98l-1.913,8.525
			c-0.232,1.103-0.175,1.871,0.174,2.307c0.348,0.435,0.946,0.652,1.798,0.652c0.87,0,1.57-0.218,2.103-0.652
			c0.531-0.436,0.913-1.204,1.146-2.307l1.914-8.525c0.231-1.102,0.174-1.871-0.174-2.306c-0.349-0.435-0.948-0.652-1.799-0.652
			c-0.869,0-1.57,0.218-2.103,0.652C305.98,409.109,305.599,409.878,305.366,410.98z"/>
		<path fill="#F84855" d="M51.851,460.511l4.64-20.938h5.626c2.165,0,3.731,0.455,4.698,1.363c0.966,0.908,1.256,2.252,0.87,4.031
			c-0.406,1.855-1.585,3.306-3.538,4.35c0.986,0.715,1.624,1.44,1.914,2.175c0.29,0.735,0.29,1.73,0,2.987
			c-0.445,2.011-1.402,3.519-2.871,4.523c-1.47,1.006-3.297,1.508-5.481,1.508H51.851z M57.912,451.173l-1.334,6.032h1.682
			c1.024,0,1.875-0.275,2.552-0.826c0.677-0.552,1.121-1.29,1.334-2.219c0.213-0.966,0.063-1.706-0.449-2.218
			c-0.513-0.513-1.31-0.77-2.393-0.77H57.912z M59.768,442.88l-1.102,4.987h1.392c0.889,0,1.663-0.231,2.32-0.696
			c0.657-0.464,1.063-1.053,1.218-1.769c0.174-0.792,0.073-1.411-0.305-1.856c-0.377-0.444-1.02-0.666-1.928-0.666H59.768z"/>
		<path fill="#F84855" d="M79.227,460.511H67.975l4.64-20.938h10.962l-0.783,3.538h-6.96l-1.073,4.813h5.307l-0.783,3.539h-5.307
			l-1.218,5.51h7.25L79.227,460.511z"/>
		<path fill="#F84855" d="M98.483,444.359l-3.799,1.044c-0.116-0.986-0.358-1.701-0.725-2.146c-0.368-0.445-0.899-0.668-1.595-0.668
			s-1.286,0.203-1.769,0.609c-0.483,0.406-0.802,0.967-0.957,1.682c-0.116,0.562,0.077,1.093,0.58,1.596
			c0.502,0.502,1.141,0.977,1.914,1.42c0.773,0.445,1.537,0.943,2.291,1.494s1.334,1.291,1.74,2.219
			c0.406,0.928,0.474,2.001,0.203,3.219c-0.387,1.817-1.291,3.268-2.711,4.35c-1.421,1.084-3.176,1.625-5.264,1.625
			c-1.682,0-3.006-0.483-3.973-1.451c-0.967-0.966-1.489-2.445-1.566-4.437l4.118-0.841c-0.039,1.16,0.174,2.021,0.638,2.581
			c0.464,0.562,1.034,0.841,1.711,0.841c0.715,0,1.353-0.222,1.914-0.667c0.561-0.444,0.928-1.054,1.102-1.827
			c0.116-0.521,0.058-1.01-0.174-1.465c-0.232-0.453-0.57-0.855-1.015-1.203c-0.445-0.348-0.948-0.686-1.508-1.015
			c-0.561-0.329-1.116-0.69-1.667-1.087c-0.551-0.396-1.04-0.817-1.464-1.262c-0.426-0.445-0.73-0.996-0.914-1.653
			c-0.184-0.657-0.188-1.382-0.015-2.175c0.406-1.837,1.266-3.272,2.581-4.307c1.314-1.034,2.987-1.552,5.017-1.552
			c1.721,0,3.03,0.46,3.93,1.378C98.004,441.58,98.463,442.812,98.483,444.359z"/>
		<path fill="#F84855" d="M114.607,444.359l-3.799,1.044c-0.116-0.986-0.358-1.701-0.725-2.146
			c-0.368-0.445-0.899-0.668-1.595-0.668s-1.286,0.203-1.769,0.609c-0.483,0.406-0.802,0.967-0.957,1.682
			c-0.116,0.562,0.077,1.093,0.58,1.596c0.502,0.502,1.141,0.977,1.914,1.42c0.773,0.445,1.537,0.943,2.291,1.494
			s1.334,1.291,1.74,2.219c0.406,0.928,0.474,2.001,0.203,3.219c-0.387,1.817-1.291,3.268-2.711,4.35
			c-1.421,1.084-3.176,1.625-5.264,1.625c-1.682,0-3.006-0.483-3.973-1.451c-0.967-0.966-1.489-2.445-1.566-4.437l4.118-0.841
			c-0.039,1.16,0.174,2.021,0.638,2.581c0.464,0.562,1.034,0.841,1.711,0.841c0.715,0,1.353-0.222,1.914-0.667
			c0.561-0.444,0.928-1.054,1.102-1.827c0.116-0.521,0.058-1.01-0.174-1.465c-0.232-0.453-0.57-0.855-1.015-1.203
			c-0.445-0.348-0.948-0.686-1.508-1.015c-0.561-0.329-1.116-0.69-1.667-1.087c-0.551-0.396-1.04-0.817-1.464-1.262
			c-0.426-0.445-0.73-0.996-0.914-1.653c-0.184-0.657-0.188-1.382-0.015-2.175c0.406-1.837,1.266-3.272,2.581-4.307
			c1.314-1.034,2.987-1.552,5.017-1.552c1.721,0,3.03,0.46,3.93,1.378C114.128,441.58,114.587,442.812,114.607,444.359z"/>
		<path fill="#F84855" d="M125.975,460.511h-11.252l4.64-20.938h10.962l-0.783,3.538h-6.96l-1.073,4.813h5.307l-0.783,3.539h-5.307
			l-1.218,5.51h7.25L125.975,460.511z"/>
		<path fill="#F84855" d="M142.911,460.511h-4.292l-1.595-8.525h-1.914l-1.885,8.525h-4.002l4.64-20.938h5.8
			c2.359,0,4.012,0.541,4.959,1.624s1.199,2.63,0.754,4.64c-0.619,2.766-2.069,4.544-4.35,5.336L142.911,460.511z M137.14,442.88
			l-1.305,5.799h2.059c1.894,0,3.064-0.966,3.509-2.899c0.406-1.933-0.329-2.899-2.204-2.899H137.14z"/>
		<path fill="#F84855" d="M169.417,444.359l-3.799,1.044c-0.116-0.986-0.358-1.701-0.725-2.146
			c-0.368-0.445-0.899-0.668-1.595-0.668s-1.286,0.203-1.769,0.609c-0.483,0.406-0.802,0.967-0.957,1.682
			c-0.116,0.562,0.077,1.093,0.58,1.596c0.502,0.502,1.141,0.977,1.914,1.42c0.773,0.445,1.537,0.943,2.291,1.494
			s1.334,1.291,1.74,2.219c0.406,0.928,0.474,2.001,0.203,3.219c-0.387,1.817-1.291,3.268-2.711,4.35
			c-1.421,1.084-3.176,1.625-5.264,1.625c-1.682,0-3.006-0.483-3.973-1.451c-0.967-0.966-1.489-2.445-1.566-4.437l4.118-0.841
			c-0.039,1.16,0.174,2.021,0.638,2.581c0.464,0.562,1.034,0.841,1.711,0.841c0.715,0,1.353-0.222,1.914-0.667
			c0.561-0.444,0.928-1.054,1.102-1.827c0.116-0.521,0.058-1.01-0.174-1.465c-0.232-0.453-0.57-0.855-1.015-1.203
			c-0.445-0.348-0.948-0.686-1.508-1.015c-0.561-0.329-1.116-0.69-1.667-1.087c-0.551-0.396-1.04-0.817-1.464-1.262
			c-0.426-0.445-0.73-0.996-0.914-1.653c-0.184-0.657-0.188-1.382-0.015-2.175c0.406-1.837,1.266-3.272,2.581-4.307
			c1.314-1.034,2.987-1.552,5.017-1.552c1.721,0,3.03,0.46,3.93,1.378C168.938,441.58,169.397,442.812,169.417,444.359z"/>
		<path fill="#F84855" d="M172.955,439.574h13.34l-0.783,3.538h-4.669l-3.857,17.399h-4.002l3.857-17.399h-4.669L172.955,439.574z"
			/>
		<path fill="#F84855" d="M195.285,460.511h-11.252l4.64-20.938h10.962l-0.783,3.538h-6.96l-1.073,4.813h5.307l-0.783,3.539h-5.307
			l-1.218,5.51h7.25L195.285,460.511z"/>
		<path fill="#F84855" d="M202.768,460.511h-4.003l4.64-20.938h4.002l-1.855,8.352h5.654l1.857-8.352h4.002l-4.641,20.938h-4.002
			l2.002-9.047h-5.656L202.768,460.511z"/>
		<path fill="#F84855" d="M227.504,460.511h-11.252l4.641-20.938h10.962l-0.783,3.538h-6.96l-1.073,4.813h5.307l-0.782,3.539h-5.308
			l-1.218,5.51h7.25L227.504,460.511z"/>
		<path fill="#F84855" d="M234.638,460.511h-3.653l4.64-20.938h4.379l2.813,12.412h0.058l2.755-12.412h3.654l-4.64,20.938h-3.828
			l-3.133-13.514h-0.058L234.638,460.511z"/>
		<path fill="#F84855" d="M252.763,460.511h-4.118l0.899-4.117h4.118L252.763,460.511z M257.461,439.574l-3.886,13.861h-2.61
			l2.262-13.861H257.461z"/>
	</g>
</g>
<g>
	<circle fill="#FFFFFF" cx="208.809" cy="171.109" r="51.25"/>
	<circle fill="#F84855" cx="208.809" cy="171.109" r="41.709"/>
</g>
<g>
	<path fill="#FFFFFF" d="M206.41,183.439l-0.821-14.833V151.48h6.452v17.126l-0.821,14.833H206.41z M211.924,186.32v6.217h-6.217
		v-6.217H211.924z"/>
</g>
</svg>
