<?xml version="1.0" encoding="utf-8"?>
<!-- Generator: Adobe Illustrator 16.0.0, SVG Export Plug-In . SVG Version: 6.00 Build 0)  -->
<!DOCTYPE svg PUBLIC "-//W3C//DTD SVG 1.1//EN" "http://www.w3.org/Graphics/SVG/1.1/DTD/svg11.dtd">
<svg version="1.1" id="Ebene_1" xmlns="http://www.w3.org/2000/svg" xmlns:xlink="http://www.w3.org/1999/xlink" x="0px" y="0px"
	 width="399.105px" height="767.25px" viewBox="0 0 399.105 767.25" enable-background="new 0 0 399.105 767.25"
	 xml:space="preserve">
<g>
	<g>
		<path fill="#113442" d="M330.294,0H68.812C30.807,0,0,30.807,0,68.812v629.623c0,38.01,30.807,68.812,68.812,68.812h278.685
			c38.005,0,51.609-30.803,51.609-68.812V68.812C399.105,30.807,368.298,0,330.294,0z"/>
		<rect x="10.319" y="79.133" fill="#DBE17E" width="378.466" height="608.98"/>
		<path fill="#0A1F26" d="M255.462,33.546h-94.616c-2.375,0-4.301,1.925-4.301,4.3c0,2.376,1.926,4.301,4.301,4.301h94.616
			c2.377,0,4.3-1.925,4.3-4.301C259.762,35.471,257.839,33.546,255.462,33.546z"/>
		<g opacity="0.5">
			<path opacity="0.3" fill="#FFFFFF" enable-background="new    " d="M68.088,766.921h278.688
				c38.006,0,52.239-30.477,52.239-68.486V68.812c0-15.284-5.303-29.396-13.731-40.816L18.602,745.894
				C31.123,758.949,48.572,766.921,68.088,766.921z"/>
		</g>
	</g>
	<g>
		<rect x="50.053" y="271.125" fill="none" width="290" height="447"/>
		<path fill="#F84855" d="M87.404,310.112h-7.182l18.306-38.988h9.558l0.756,38.988h-7.128l-0.054-8.208H91.347L87.404,310.112z
			 M101.283,279.548l-7.128,15.768h7.398l-0.162-15.768H101.283z"/>
		<path fill="#F84855" d="M125.798,282.68l-3.564,15.876c-0.432,2.052-0.324,3.483,0.324,4.293s1.763,1.215,3.348,1.215
			c1.62,0,2.925-0.405,3.915-1.215c0.99-0.81,1.701-2.241,2.133-4.293l0.594-2.592H140l-0.378,1.62
			c-1.909,8.712-6.966,13.068-15.174,13.068s-11.358-4.355-9.45-13.068l3.132-13.932c1.908-8.712,6.966-13.068,15.174-13.068
			s11.358,4.356,9.45,13.068l-0.054,0.108h-7.452l0.27-1.08c0.432-2.052,0.324-3.483-0.324-4.293s-1.764-1.215-3.348-1.215
			c-1.62,0-2.925,0.405-3.915,1.215C126.941,279.197,126.23,280.628,125.798,282.68z"/>
		<path fill="#F84855" d="M150.8,310.112h-7.452l8.64-38.988h7.452l-3.456,15.552h10.53l3.456-15.552h7.452l-8.64,38.988h-7.452
			l3.726-16.848h-10.53L150.8,310.112z"/>
		<path fill="#F84855" d="M182.282,271.124h24.839l-1.457,6.588h-8.694l-7.182,32.4h-7.452l7.182-32.4h-8.694L182.282,271.124z"/>
		<path fill="#F84855" d="M211.982,271.124h7.451l-6.047,27.27c-0.83,3.78,0.504,5.67,3.996,5.67c3.527,0,5.705-1.89,6.533-5.67
			l6.049-27.27h7.451l-6.049,27.324c-0.9,4.14-2.699,7.209-5.398,9.207c-2.701,1.998-6.049,2.997-10.045,2.997
			s-6.885-0.999-8.666-2.997c-1.783-1.998-2.225-5.067-1.324-9.207L211.982,271.124z"/>
		<path fill="#F84855" d="M243.14,310.112h-6.804l8.64-38.988h8.154l5.237,23.112h0.108l5.13-23.112h6.804l-8.64,38.988h-7.128
			l-5.832-25.164h-0.107L243.14,310.112z"/>
		<path fill="#F84855" d="M288.661,310.112l-0.433-3.24c-2.772,2.521-5.364,3.78-7.775,3.78c-8.208,0-11.358-4.355-9.45-13.068
			l3.132-13.932c1.908-8.712,6.966-13.068,15.174-13.068c7.704,0,10.728,4.41,9.072,13.23h-7.452
			c1.008-4.428-0.019-6.642-3.078-6.642c-1.62,0-2.925,0.405-3.915,1.215s-1.701,2.241-2.133,4.293l-3.563,15.876
			c-0.433,2.052-0.324,3.483,0.323,4.293c0.648,0.81,1.764,1.215,3.349,1.215c1.403,0,2.609-0.477,3.618-1.431
			c1.007-0.954,1.709-2.276,2.105-3.969l0.54-2.376h-5.238l1.351-6.156h12.689l-4.428,19.98H288.661z"/>
		<path fill="#F84855" d="M306.913,310.112h-7.668l1.674-7.668h7.668L306.913,310.112z M315.661,271.124l-7.236,25.812h-4.859
			l4.212-25.812H315.661z"/>
		<path fill="#F84855" d="M51.851,356.112l4.64-20.938h5.568c2.359,0,4.021,0.565,4.988,1.696c0.966,1.131,1.208,2.983,0.725,5.554
			l-1.45,6.438c-0.658,2.571-1.716,4.422-3.176,5.554c-1.46,1.131-3.369,1.696-5.727,1.696H51.851z M59.71,338.712l-3.074,13.862
			h1.392c1.16,0,2.103-0.319,2.828-0.957c0.725-0.638,1.251-1.711,1.58-3.219l1.218-5.51c0.329-1.488,0.294-2.557-0.102-3.205
			c-0.396-0.647-1.213-0.971-2.451-0.971H59.71z"/>
		<path fill="#F84855" d="M79.227,356.112H67.975l4.64-20.938h10.962l-0.783,3.538h-6.96l-1.073,4.814h5.307l-0.783,3.538h-5.307
			l-1.218,5.51h7.25L79.227,356.112z"/>
		<path fill="#F84855" d="M96.163,356.112h-4.292l-1.595-8.526h-1.914l-1.885,8.526h-4.002l4.64-20.938h5.8
			c2.359,0,4.012,0.542,4.959,1.624c0.947,1.083,1.199,2.629,0.754,4.64c-0.619,2.765-2.069,4.543-4.35,5.336L96.163,356.112z
			 M90.392,338.48l-1.305,5.8h2.059c1.894,0,3.064-0.966,3.509-2.9c0.406-1.933-0.329-2.9-2.204-2.9H90.392z"/>
		<path fill="#F84855" d="M111.533,335.174h4.002l-3.248,14.645c-0.445,2.03,0.271,3.045,2.146,3.045
			c1.895,0,3.064-1.015,3.509-3.045l3.248-14.645h4.002l-3.248,14.674c-0.483,2.224-1.45,3.872-2.9,4.945
			c-1.45,1.073-3.248,1.609-5.394,1.609s-3.698-0.537-4.655-1.609c-0.957-1.073-1.194-2.721-0.71-4.945L111.533,335.174z"/>
		<path fill="#F84855" d="M128.266,356.112h-3.654l4.64-20.938h4.379l2.813,12.412h0.058l2.755-12.412h3.654l-4.64,20.938h-3.828
			l-3.132-13.514h-0.058L128.266,356.112z"/>
		<path fill="#F84855" d="M145.521,335.174h13.34l-0.783,3.538h-4.669l-3.857,17.4h-4.002l3.857-17.4h-4.669L145.521,335.174z"/>
		<path fill="#F84855" d="M167.85,356.112h-11.252l4.64-20.938H172.2l-0.783,3.538h-6.96l-1.073,4.814h5.307l-0.783,3.538h-5.307
			l-1.218,5.51h7.25L167.85,356.112z"/>
		<path fill="#F84855" d="M184.786,356.112h-4.292l-1.595-8.526h-1.914l-1.885,8.526h-4.002l4.64-20.938h5.8
			c2.359,0,4.012,0.542,4.959,1.624c0.947,1.083,1.199,2.629,0.754,4.64c-0.619,2.765-2.069,4.543-4.35,5.336L184.786,356.112z
			 M179.015,338.48l-1.305,5.8h2.059c1.894,0,3.064-0.966,3.509-2.9c0.406-1.933-0.329-2.9-2.204-2.9H179.015z"/>
		<path fill="#F84855" d="M197.836,356.112l-0.232-1.74c-1.489,1.354-2.881,2.03-4.176,2.03c-4.408,0-6.1-2.339-5.075-7.018
			l1.682-7.482c1.025-4.679,3.741-7.018,8.149-7.018c4.138,0,5.761,2.369,4.873,7.105h-4.002c0.541-2.378-0.01-3.567-1.653-3.567
			c-0.87,0-1.571,0.217-2.103,0.652s-0.914,1.204-1.146,2.306l-1.914,8.526c-0.232,1.102-0.174,1.871,0.174,2.306
			c0.348,0.435,0.947,0.652,1.798,0.652c0.754,0,1.401-0.256,1.943-0.769c0.541-0.512,0.918-1.223,1.131-2.131l0.29-1.276h-2.813
			l0.725-3.306h6.815l-2.378,10.73H197.836z"/>
		<path fill="#F84855" d="M217.034,356.112h-4.292l-1.596-8.526h-1.914l-1.885,8.526h-4.002l4.641-20.938h5.8
			c2.358,0,4.012,0.542,4.959,1.624c0.946,1.083,1.198,2.629,0.754,4.64c-0.619,2.765-2.069,4.543-4.351,5.336L217.034,356.112z
			 M211.263,338.48l-1.305,5.8h2.059c1.895,0,3.064-0.966,3.509-2.9c0.406-1.933-0.328-2.9-2.203-2.9H211.263z"/>
		<path fill="#F84855" d="M224.342,335.174h4.002l-3.248,14.645c-0.444,2.03,0.271,3.045,2.146,3.045
			c1.895,0,3.063-1.015,3.509-3.045l3.248-14.645h4.002l-3.248,14.674c-0.483,2.224-1.45,3.872-2.9,4.945
			c-1.449,1.073-3.248,1.609-5.394,1.609c-2.146,0-3.697-0.537-4.654-1.609c-0.957-1.073-1.194-2.721-0.711-4.945L224.342,335.174z"
			/>
		<path fill="#F84855" d="M241.074,356.112h-3.653l4.64-20.938h4.379l2.813,12.412h0.058l2.755-12.412h3.654l-4.64,20.938h-3.828
			l-3.133-13.514h-0.058L241.074,356.112z"/>
		<path fill="#F84855" d="M254.907,356.112l4.641-20.938h5.567c2.358,0,4.021,0.565,4.988,1.696
			c0.967,1.131,1.208,2.983,0.725,5.554l-1.45,6.438c-0.657,2.571-1.716,4.422-3.175,5.554c-1.46,1.131-3.369,1.696-5.728,1.696
			H254.907z M262.767,338.712l-3.074,13.862h1.392c1.16,0,2.103-0.319,2.828-0.957c0.725-0.638,1.251-1.711,1.58-3.219l1.218-5.51
			c0.329-1.488,0.295-2.557-0.102-3.205c-0.396-0.647-1.213-0.971-2.45-0.971H262.767z"/>
		<path fill="#F84855" d="M67.859,374.759l-3.799,1.044c-0.116-0.986-0.358-1.701-0.725-2.146c-0.368-0.445-0.899-0.667-1.595-0.667
			s-1.286,0.203-1.769,0.609c-0.483,0.406-0.802,0.967-0.957,1.682c-0.116,0.561,0.077,1.092,0.58,1.595
			c0.502,0.503,1.141,0.977,1.914,1.421c0.773,0.445,1.537,0.943,2.291,1.494c0.754,0.551,1.334,1.291,1.74,2.219
			c0.406,0.928,0.474,2.001,0.203,3.219c-0.387,1.816-1.291,3.268-2.711,4.35c-1.421,1.083-3.176,1.624-5.264,1.624
			c-1.682,0-3.006-0.483-3.973-1.45c-0.967-0.967-1.489-2.445-1.566-4.438l4.118-0.84c-0.039,1.16,0.174,2.02,0.638,2.58
			c0.464,0.562,1.034,0.842,1.711,0.842c0.715,0,1.353-0.223,1.914-0.668c0.561-0.443,0.928-1.053,1.102-1.826
			c0.116-0.522,0.058-1.01-0.174-1.465c-0.232-0.454-0.57-0.855-1.015-1.204c-0.445-0.348-0.948-0.686-1.508-1.015
			c-0.561-0.329-1.116-0.691-1.667-1.087c-0.551-0.396-1.04-0.817-1.464-1.262c-0.426-0.444-0.73-0.996-0.914-1.653
			c-0.184-0.657-0.188-1.382-0.015-2.175c0.406-1.836,1.266-3.272,2.581-4.306c1.314-1.034,2.987-1.552,5.017-1.552
			c1.721,0,3.03,0.459,3.93,1.377C67.38,371.979,67.839,373.212,67.859,374.759z"/>
		<path fill="#F84855" d="M74.906,376.18l-1.914,8.526c-0.232,1.103-0.174,1.87,0.174,2.306c0.348,0.436,0.947,0.652,1.798,0.652
			c0.87,0,1.57-0.217,2.103-0.652c0.531-0.436,0.914-1.203,1.146-2.306l0.319-1.392h4.002l-0.203,0.87
			c-1.025,4.68-3.741,7.019-8.149,7.019c-4.408,0-6.1-2.339-5.075-7.019l1.682-7.481c1.025-4.679,3.741-7.018,8.149-7.018
			c4.408,0,6.1,2.339,5.075,7.018l-0.029,0.058h-4.002l0.145-0.58c0.232-1.102,0.174-1.871-0.174-2.306s-0.947-0.652-1.798-0.652
			c-0.87,0-1.571,0.217-2.103,0.652S75.138,375.078,74.906,376.18z"/>
		<path fill="#F84855" d="M88.333,390.912h-4.002l4.64-20.938h4.002l-1.856,8.352h5.655l1.856-8.352h4.002l-4.64,20.938h-4.002
			l2.001-9.048h-5.655L88.333,390.912z"/>
		<path fill="#F84855" d="M104.253,390.912h-3.857l9.831-20.938h5.133l0.406,20.938h-3.828l-0.029-4.408h-5.539L104.253,390.912z
			 M111.707,374.498l-3.828,8.468h3.973l-0.087-8.468H111.707z"/>
		<path fill="#F84855" d="M117.941,390.912l4.64-20.938h5.568c2.359,0,4.021,0.565,4.988,1.696c0.966,1.131,1.208,2.983,0.725,5.554
			l-1.45,6.438c-0.658,2.571-1.716,4.422-3.176,5.554c-1.46,1.131-3.369,1.696-5.727,1.696H117.941z M125.801,373.512l-3.074,13.862
			h1.392c1.16,0,2.103-0.319,2.828-0.957c0.725-0.638,1.251-1.711,1.58-3.219l1.218-5.51c0.329-1.488,0.294-2.557-0.102-3.205
			c-0.396-0.647-1.213-0.971-2.451-0.971H125.801z"/>
		<path fill="#F84855" d="M145.317,390.912h-11.252l4.64-20.938h10.962l-0.783,3.538h-6.96l-1.073,4.814h5.307l-0.783,3.538h-5.307
			l-1.218,5.51h7.25L145.317,390.912z"/>
		<path fill="#F84855" d="M151.988,369.974h13.34l-0.783,3.538h-4.669l-3.857,17.4h-4.002l3.857-17.4h-4.669L151.988,369.974z"/>
		<path fill="#F84855" d="M175.362,390.912h-4.002l4.64-20.938h4.002L175.362,390.912z"/>
		<path fill="#F84855" d="M183.424,390.912h-4.002l4.64-20.938h4.002l-1.856,8.352h5.655l1.856-8.352h4.002l-4.64,20.938h-4.002
			l2.001-9.048h-5.655L183.424,390.912z"/>
		<path fill="#F84855" d="M210.597,390.912h-4.292l-1.596-8.526h-1.914l-1.885,8.526h-4.002l4.641-20.938h5.8
			c2.358,0,4.012,0.542,4.959,1.624c0.946,1.083,1.198,2.629,0.754,4.64c-0.619,2.765-2.069,4.543-4.351,5.336L210.597,390.912z
			 M204.825,373.28l-1.305,5.8h2.059c1.895,0,3.064-0.966,3.509-2.9c0.406-1.933-0.328-2.9-2.203-2.9H204.825z"/>
		<path fill="#F84855" d="M224.284,390.912h-11.252l4.641-20.938h10.962l-0.783,3.538h-6.96l-1.073,4.814h5.307l-0.782,3.538h-5.308
			l-1.218,5.51h7.25L224.284,390.912z"/>
		<path fill="#F84855" d="M231.418,390.912h-3.653l4.64-20.938h4.379l2.813,12.412h0.058l2.755-12.412h3.654l-4.64,20.938h-3.828
			l-3.133-13.514h-0.058L231.418,390.912z"/>
		<path fill="#F84855" d="M65.539,425.712h-4.292l-1.595-8.526h-1.914l-1.885,8.526h-4.002l4.64-20.938h5.8
			c2.359,0,4.012,0.542,4.959,1.624c0.947,1.083,1.199,2.629,0.754,4.641c-0.619,2.764-2.069,4.543-4.35,5.336L65.539,425.712z
			 M59.768,408.08l-1.305,5.801h2.059c1.894,0,3.064-0.967,3.509-2.9c0.406-1.934-0.329-2.9-2.204-2.9H59.768z"/>
		<path fill="#F84855" d="M79.227,425.712H67.975l4.64-20.938h10.962l-0.783,3.538h-6.96l-1.073,4.814h5.307l-0.783,3.537h-5.307
			l-1.218,5.51h7.25L79.227,425.712z"/>
		<path fill="#F84855" d="M86.709,425.712h-4.002l4.64-20.938h4.002L86.709,425.712z"/>
		<path fill="#F84855" d="M94.539,425.712h-4.002l4.64-20.938h10.44l-0.783,3.538h-6.438l-1.073,4.814h5.046l-0.783,3.537H96.54
			L94.539,425.712z"/>
		<path fill="#F84855" d="M114.664,425.712h-11.252l4.64-20.938h10.962l-0.783,3.538h-6.96l-1.073,4.814h5.307l-0.783,3.537h-5.307
			l-1.218,5.51h7.25L114.664,425.712z"/>
		<path fill="#F84855" d="M121.798,425.712h-3.654l4.64-20.938h4.379l2.813,12.412h0.058l2.755-12.412h3.654l-4.64,20.938h-3.828
			l-3.132-13.515h-0.058L121.798,425.712z"/>
		<path fill="#F84855" d="M135.109,430.003l2.436-4.291h-1.74l0.899-4.119h4.118l-0.899,4.119l-2.784,4.291H135.109z"/>
		<path fill="#F84855" d="M155.409,425.712h-3.422l4.64-20.938h5.597l0.58,13.746h0.058l6.67-13.746h5.597l-4.64,20.938h-3.422
			l3.654-16.473h-0.058l-7.917,16.473h-3.016l-0.609-16.473h-0.058L155.409,425.712z"/>
		<path fill="#F84855" d="M175.448,418.984l1.682-7.482c1.025-4.678,3.741-7.018,8.149-7.018c4.408,0,6.1,2.34,5.075,7.018
			l-1.682,7.482c-1.025,4.68-3.741,7.018-8.149,7.018C176.115,426.001,174.423,423.664,175.448,418.984z M181.248,410.98
			l-1.914,8.525c-0.232,1.103-0.174,1.871,0.174,2.307c0.348,0.435,0.947,0.652,1.798,0.652c0.87,0,1.57-0.218,2.103-0.652
			c0.531-0.436,0.914-1.204,1.146-2.307l1.914-8.525c0.232-1.102,0.174-1.871-0.174-2.306s-0.947-0.652-1.798-0.652
			c-0.87,0-1.571,0.218-2.103,0.652S181.48,409.878,181.248,410.98z M181.77,400.046h3.48l-0.725,3.307h-3.48L181.77,400.046z
			 M187.28,400.046h3.48l-0.725,3.307h-3.48L187.28,400.046z"/>
		<path fill="#F84855" d="M197.372,410.98l-1.914,8.525c-0.232,1.103-0.174,1.871,0.174,2.307c0.348,0.435,0.947,0.652,1.798,0.652
			c0.87,0,1.57-0.218,2.103-0.652c0.532-0.436,0.914-1.204,1.145-2.307l0.318-1.392H205l-0.203,0.87
			c-1.025,4.68-3.742,7.018-8.15,7.018s-6.1-2.338-5.075-7.018l1.682-7.482c1.025-4.678,3.741-7.018,8.148-7.018
			c4.408,0,6.1,2.34,5.076,7.018l-0.029,0.059h-4.002l0.145-0.58c0.232-1.102,0.174-1.871-0.174-2.306s-0.947-0.652-1.798-0.652
			c-0.87,0-1.571,0.218-2.103,0.652S197.604,409.878,197.372,410.98z"/>
		<path fill="#F84855" d="M210.799,425.712h-4.002l4.64-20.938h4.002l-1.855,8.353h5.654l1.856-8.353h4.002l-4.64,20.938h-4.003
			l2.002-9.049H212.8L210.799,425.712z"/>
		<path fill="#F84855" d="M227.705,404.774h13.34l-0.782,3.538h-4.669l-3.857,17.4h-4.002l3.857-17.4h-4.67L227.705,404.774z"/>
		<path fill="#F84855" d="M250.035,425.712h-11.252l4.641-20.938h10.962l-0.783,3.538h-6.96l-1.073,4.814h5.307l-0.782,3.537h-5.308
			l-1.218,5.51h7.25L250.035,425.712z"/>
		<path fill="#F84855" d="M257.169,425.712h-3.653l4.64-20.938h4.379l2.813,12.412h0.058l2.755-12.412h3.654l-4.64,20.938h-3.828
			l-3.133-13.515h-0.058L257.169,425.712z"/>
		<path fill="#F84855" d="M295.071,409.559l-3.799,1.044c-0.116-0.986-0.357-1.701-0.725-2.146
			c-0.368-0.444-0.899-0.666-1.596-0.666c-0.695,0-1.285,0.202-1.769,0.608c-0.483,0.405-0.803,0.967-0.957,1.683
			c-0.116,0.561,0.077,1.092,0.58,1.594c0.503,0.504,1.141,0.977,1.914,1.422s1.537,0.942,2.291,1.493
			c0.754,0.552,1.334,1.29,1.74,2.219c0.405,0.928,0.474,2.001,0.203,3.219c-0.388,1.817-1.291,3.268-2.712,4.351
			c-1.421,1.082-3.176,1.623-5.264,1.623c-1.682,0-3.007-0.482-3.973-1.449c-0.967-0.967-1.489-2.445-1.566-4.438l4.118-0.841
			c-0.039,1.16,0.174,2.021,0.638,2.581s1.034,0.841,1.711,0.841c0.716,0,1.354-0.222,1.914-0.667
			c0.561-0.444,0.929-1.053,1.103-1.826c0.116-0.523,0.058-1.011-0.174-1.465c-0.232-0.455-0.571-0.855-1.016-1.204
			c-0.444-0.348-0.947-0.687-1.508-1.015s-1.116-0.691-1.667-1.088c-0.552-0.396-1.04-0.816-1.465-1.262
			c-0.426-0.443-0.73-0.995-0.914-1.652s-0.188-1.383-0.014-2.176c0.405-1.836,1.266-3.271,2.581-4.306
			c1.314-1.034,2.986-1.552,5.017-1.552c1.721,0,3.03,0.459,3.93,1.377C294.593,406.78,295.052,408.012,295.071,409.559z"/>
		<path fill="#F84855" d="M299.422,425.712h-4.002l4.64-20.938h4.002L299.422,425.712z"/>
		<path fill="#F84855" d="M314.501,425.712h-11.252l4.641-20.938h10.962l-0.783,3.538h-6.96l-1.073,4.814h5.307l-0.782,3.537h-5.308
			l-1.218,5.51h7.25L314.501,425.712z"/>
		<path fill="#F84855" d="M63.103,460.511H51.851l4.64-20.938h10.962l-0.783,3.538h-6.96l-1.073,4.813h5.307l-0.783,3.539h-5.307
			l-1.218,5.51h7.25L63.103,460.511z"/>
		<path fill="#F84855" d="M70.585,460.511h-4.002l4.64-20.938h4.002L70.585,460.511z"/>
		<path fill="#F84855" d="M78.299,460.511h-3.654l4.64-20.938h4.379l2.813,12.412h0.058l2.755-12.412h3.654l-4.64,20.938h-3.828
			l-3.132-13.514h-0.058L78.299,460.511z"/>
		<path fill="#F84855" d="M103.383,460.511H92.131l4.64-20.938h10.962l-0.783,3.538h-6.96l-1.073,4.813h5.307l-0.783,3.539h-5.307
			l-1.218,5.51h7.25L103.383,460.511z"/>
		<path fill="#F84855" d="M117.129,460.511h-3.857l9.831-20.938h5.133l0.406,20.938h-3.828l-0.029-4.408h-5.539L117.129,460.511z
			 M124.583,444.097l-3.828,8.469h3.973l-0.087-8.469H124.583z"/>
		<path fill="#F84855" d="M141.257,460.511h-10.44l4.64-20.938h4.002l-3.857,17.4h6.438L141.257,460.511z"/>
		<path fill="#F84855" d="M145.521,439.574h13.34l-0.783,3.538h-4.669l-3.857,17.399h-4.002l3.857-17.399h-4.669L145.521,439.574z"
			/>
		<path fill="#F84855" d="M167.85,460.511h-11.252l4.64-20.938H172.2l-0.783,3.538h-6.96l-1.073,4.813h5.307l-0.783,3.539h-5.307
			l-1.218,5.51h7.25L167.85,460.511z"/>
		<path fill="#F84855" d="M184.786,460.511h-4.292l-1.595-8.525h-1.914l-1.885,8.525h-4.002l4.64-20.938h5.8
			c2.359,0,4.012,0.541,4.959,1.624s1.199,2.63,0.754,4.64c-0.619,2.766-2.069,4.544-4.35,5.336L184.786,460.511z M179.015,442.88
			l-1.305,5.799h2.059c1.894,0,3.064-0.966,3.509-2.899c0.406-1.933-0.329-2.899-2.204-2.899H179.015z"/>
		<path fill="#F84855" d="M191.108,460.511h-3.654l4.64-20.938h4.379l2.813,12.412h0.058l2.755-12.412h3.654l-4.641,20.938h-3.828
			l-3.132-13.514h-0.058L191.108,460.511z"/>
		<path fill="#F84855" d="M207.378,460.511h-3.857l9.831-20.938h5.133l0.406,20.938h-3.828l-0.029-4.408h-5.539L207.378,460.511z
			 M214.83,444.097l-3.827,8.469h3.973l-0.087-8.469H214.83z"/>
		<path fill="#F84855" d="M222.893,439.574h13.34l-0.782,3.538h-4.669l-3.857,17.399h-4.002l3.857-17.399h-4.67L222.893,439.574z"/>
		<path fill="#F84855" d="M238.205,460.511h-4.002l4.64-20.938h4.002L238.205,460.511z"/>
		<path fill="#F84855" d="M246.034,460.511l-0.725-20.938h3.943l0.378,14.964h0.058l6.96-14.964h3.915l-9.977,20.938H246.034z"/>
		<path fill="#F84855" d="M269.408,460.511h-11.252l4.641-20.938h10.962l-0.783,3.538h-6.96l-1.073,4.813h5.307l-0.782,3.539h-5.308
			l-1.218,5.51h7.25L269.408,460.511z"/>
		<path fill="#F84855" d="M65.539,495.312h-4.292l-1.595-8.526h-1.914l-1.885,8.526h-4.002l4.64-20.938h5.8
			c2.359,0,4.012,0.542,4.959,1.624c0.947,1.083,1.199,2.629,0.754,4.641c-0.619,2.764-2.069,4.543-4.35,5.336L65.539,495.312z
			 M59.768,477.679l-1.305,5.801h2.059c1.894,0,3.064-0.967,3.509-2.9c0.406-1.934-0.329-2.9-2.204-2.9H59.768z"/>
		<path fill="#F84855" d="M69.106,488.583l1.682-7.482c1.025-4.678,3.741-7.018,8.149-7.018c4.408,0,6.1,2.34,5.075,7.018
			l-1.682,7.482c-1.025,4.68-3.741,7.018-8.149,7.018C69.773,495.601,68.081,493.263,69.106,488.583z M74.906,480.58l-1.914,8.525
			c-0.232,1.103-0.174,1.871,0.174,2.307c0.348,0.435,0.947,0.652,1.798,0.652c0.87,0,1.57-0.218,2.103-0.652
			c0.531-0.436,0.914-1.204,1.146-2.307l1.914-8.525c0.232-1.102,0.174-1.871-0.174-2.306s-0.947-0.652-1.798-0.652
			c-0.87,0-1.571,0.218-2.103,0.652S75.138,479.478,74.906,480.58z"/>
		<path fill="#F84855" d="M88.971,474.374h4.002l-3.248,14.646c-0.445,2.029,0.271,3.045,2.146,3.045
			c1.895,0,3.064-1.016,3.509-3.045l3.248-14.646h4.002l-3.248,14.674c-0.483,2.224-1.45,3.872-2.9,4.944
			c-1.45,1.073-3.248,1.609-5.394,1.609s-3.698-0.536-4.655-1.609c-0.957-1.072-1.194-2.721-0.71-4.944L88.971,474.374z"/>
		<path fill="#F84855" d="M105.24,474.374h13.34l-0.783,3.538h-4.669l-3.857,17.4h-4.002l3.857-17.4h-4.669L105.24,474.374z"/>
		<path fill="#F84855" d="M127.569,495.312h-11.252l4.64-20.938h10.962l-0.783,3.538h-6.96l-1.073,4.814h5.307l-0.783,3.537h-5.307
			l-1.218,5.51h7.25L127.569,495.312z"/>
		<path fill="#F84855" d="M142.127,495.312l0.261-20.938h3.712l-0.232,13.688h0.058l5.916-13.688h3.857l-0.145,13.688h0.058
			l5.829-13.688h3.741l-9.222,20.938h-3.857l0.261-14.326h-0.058l-6.351,14.326H142.127z"/>
		<path fill="#F84855" d="M164.951,495.312h-3.857l9.831-20.938h5.133l0.406,20.938h-3.828l-0.029-4.408h-5.539L164.951,495.312z
			 M172.404,478.898l-3.828,8.468h3.973l-0.087-8.468H172.404z M169.968,469.646h3.48l-0.725,3.307h-3.48L169.968,469.646z
			 M175.478,469.646h3.48l-0.725,3.307h-3.48L175.478,469.646z"/>
		<path fill="#F84855" d="M182.873,495.312h-4.002l4.64-20.938h4.002l-1.856,8.353h5.655l1.856-8.353h4.002l-4.64,20.938h-4.002
			l2.001-9.049h-5.655L182.873,495.312z"/>
		<path fill="#F84855" d="M206.798,495.312h-10.44l4.641-20.938H205l-3.857,17.399h6.438L206.798,495.312z"/>
		<path fill="#F84855" d="M220.485,495.312h-11.252l4.641-20.938h10.962l-0.783,3.538h-6.96l-1.073,4.814h5.307l-0.782,3.537h-5.308
			l-1.218,5.51h7.25L220.485,495.312z"/>
		<path fill="#F84855" d="M227.619,495.312h-3.653l4.64-20.938h4.379l2.813,12.412h0.058l2.755-12.412h3.654l-4.64,20.938h-3.828
			l-3.133-13.515h-0.058L227.619,495.312z"/>
		<path fill="#F84855" d="M247.484,495.312h-4.118l0.899-4.119h4.117L247.484,495.312z M246.76,479.593l-3.133-0.928
			c0.677-1.431,1.619-2.553,2.828-3.363c1.208-0.812,2.547-1.219,4.017-1.219c1.469,0,2.644,0.439,3.523,1.319
			c0.879,0.88,1.154,2.083,0.826,3.61c-0.232,0.947-1.228,2.301-2.987,4.061c-0.638,0.638-1.097,1.107-1.377,1.406
			c-0.28,0.3-0.595,0.687-0.942,1.16c-0.349,0.474-0.562,0.895-0.639,1.262l-0.318,1.449h-3.19l0.638-2.842
			c0.097-0.444,0.957-1.541,2.581-3.291s2.504-2.914,2.64-3.494c0.097-0.483,0-0.885-0.29-1.204s-0.677-0.479-1.16-0.479
			c-0.58,0-1.18,0.267-1.798,0.798C247.358,478.371,246.952,478.956,246.76,479.593z"/>
	</g>
</g>
<g>
	<circle fill="#FFFFFF" cx="208.809" cy="171.109" r="51.25"/>
	<circle fill="#F84855" cx="208.809" cy="171.109" r="41.709"/>
</g>
<g>
	<path fill="#FFFFFF" d="M206.41,183.439l-0.821-14.833V151.48h6.452v17.126l-0.821,14.833H206.41z M211.924,186.32v6.217h-6.217
		v-6.217H211.924z"/>
</g>
</svg>
