<?xml version="1.0" encoding="utf-8"?>
<!-- Generator: Adobe Illustrator 16.0.0, SVG Export Plug-In . SVG Version: 6.00 Build 0)  -->
<!DOCTYPE svg PUBLIC "-//W3C//DTD SVG 1.1//EN" "http://www.w3.org/Graphics/SVG/1.1/DTD/svg11.dtd">
<svg version="1.1" id="Ebene_1" xmlns="http://www.w3.org/2000/svg" xmlns:xlink="http://www.w3.org/1999/xlink" x="0px" y="0px"
	 width="4997.473px" height="263.189px" viewBox="-41.991 84.811 4997.473 263.189"
	 enable-background="new -41.991 84.811 4997.473 263.189" xml:space="preserve">
<g>
	<g>
		<path fill-rule="evenodd" clip-rule="evenodd" fill="#606002" d="M-56.95,159.127c54.518,0,109.027-12.39,180.02-37.161
			c70.988-24.772,125.502-37.156,180.016-37.156c54.516,0,109.027,12.384,180.018,37.156
			c70.799,24.705,125.213,37.092,179.582,37.158c54.369-0.066,108.781-12.453,179.582-37.158
			c70.99-24.772,125.504-37.156,180.018-37.156s109.029,12.384,180.018,37.156c70.99,24.771,125.504,37.161,180.02,37.161
			c54.518,0,109.025-12.39,180.018-37.161c70.99-24.772,125.504-37.156,180.016-37.156c54.518,0,109.155,22.917,180.146,47.689
			c70.988,24.771,125.378,34,179.892,34V348H663.521h-0.4H-41.991H-56.95V159.127z"/>
	</g>
	<g>
		<path fill-rule="evenodd" clip-rule="evenodd" fill="#CEEEF4" d="M2796.14,159.127c54.518,0,109.027-12.39,180.02-37.161
			c70.988-24.772,125.502-37.156,180.016-37.156c54.516,0,109.027,12.384,180.018,37.156
			c70.799,24.705,125.213,37.092,179.582,37.158c54.369-0.066,108.781-12.453,179.582-37.158
			c70.99-24.772,125.504-37.156,180.018-37.156s109.029,12.384,180.018,37.156c70.99,24.771,125.504,37.161,180.02,37.161
			c54.518,0,109.025-12.39,180.018-37.161c70.99-24.772,125.504-37.156,180.016-37.156c54.518,0,109.029,12.384,180.02,37.156
			c70.988,24.771,125.504,37.161,180.018,37.161V348H3516.61h-0.4h-705.111h-14.959V159.127z"/>
	</g>
	<g>
		<linearGradient id="SVGID_1_" gradientUnits="userSpaceOnUse" x1="1202.8496" y1="216.4053" x2="2822.1396" y2="216.4053">
			<stop  offset="0.1354" style="stop-color:#606002"/>
			<stop  offset="0.1694" style="stop-color:#6B6F1B"/>
			<stop  offset="0.255" style="stop-color:#859054"/>
			<stop  offset="0.3408" style="stop-color:#9BAD85"/>
			<stop  offset="0.4249" style="stop-color:#AEC4AD"/>
			<stop  offset="0.5071" style="stop-color:#BCD6CC"/>
			<stop  offset="0.5868" style="stop-color:#C6E3E2"/>
			<stop  offset="0.6628" style="stop-color:#CCEBEF"/>
			<stop  offset="0.7312" style="stop-color:#CEEEF4"/>
		</linearGradient>
		<path fill-rule="evenodd" clip-rule="evenodd" fill="url(#SVGID_1_)" d="M1202.851,348h180.417H2822.14V159.127
			c-54.514,0-109.029-12.39-180.018-37.161c-70.99-24.772-125.502-37.156-180.02-37.156c-54.512,0-109.025,12.384-180.016,37.156
			c-70.992,24.771-125.5,37.161-180.018,37.161c-54.516,0-109.03-12.39-180.02-37.161c-70.988-24.772-125.504-37.156-180.018-37.156
			s-109.027,12.384-180.018,37.156c-70.801,24.705-125.213,37.092-179.582,37.158c-54.369-0.066-108.783-11.453-179.582-36.158
			L1202.851,348z"/>
	</g>
</g>
</svg>
