<?xml version="1.0" encoding="utf-8"?>
<!-- Generator: Adobe Illustrator 16.0.0, SVG Export Plug-In . SVG Version: 6.00 Build 0)  -->
<!DOCTYPE svg PUBLIC "-//W3C//DTD SVG 1.1//EN" "http://www.w3.org/Graphics/SVG/1.1/DTD/svg11.dtd">
<svg version="1.1" id="Ebene_1" xmlns="http://www.w3.org/2000/svg" xmlns:xlink="http://www.w3.org/1999/xlink" x="0px" y="0px"
	 width="296.417px" height="315.562px" viewBox="0 0 296.417 315.562" enable-background="new 0 0 296.417 315.562"
	 xml:space="preserve">
<g>
	<path d="M76.572,315.562h-8.995c6.234-35.352,12.469-70.31,18.781-105.661c-2.841-0.237-5.443-0.473-8.443-0.711
		c0.472-2.445,0.79-4.574,1.264-6.943h25.725c0,1.263,0.078,2.369,0,3.393c-0.158,1.105-0.554,2.21-0.947,3.63
		c-2.605,0.159-5.131,0.239-8.363,0.474C89.198,244.937,82.886,280.13,76.572,315.562"/>
	<path d="M79.572,188.593h-8.128c3.076-17.358,5.997-34.323,9.075-51.526c1.498-0.156,2.761-0.395,4.024-0.395
		c1.261,0,2.604,0.158,4.34,0.238c1.735,8.916,3.471,17.754,5.208,26.592c0.315,0,0.63,0,0.948,0
		c1.576-8.681,3.155-17.36,4.811-26.436h8.13c-2.999,17.203-5.998,34.168-9.075,51.526h-7.812
		c-1.736-9.704-3.551-19.488-5.367-29.273c-0.314,0-0.631,0.08-0.946,0.08C83.122,169.023,81.308,178.729,79.572,188.593"/>
	<path d="M155.956,224.735c3.709,0.238,6.866,0.869,8.997-2.208c1.894-2.762,2.446-5.998,2.129-9.391
		c-0.156-2.053-1.497-3.236-3.551-3.474c-1.577-0.155-3.155,0-4.97,0C157.614,214.793,156.824,219.527,155.956,224.735
		 M167.399,230.731c1.103,7.814,2.129,15.231,3.155,22.964h-8.995c-0.868-7.022-1.658-13.808-2.604-20.989
		c-1.342-0.08-2.684-0.159-4.418-0.314c-1.345,7.178-2.606,14.045-3.947,21.226h-8.995c2.999-17.203,5.995-34.169,9.074-51.371
		c5.84,0,11.363-0.474,16.809,0.08c5.997,0.631,8.837,4.339,8.679,10.492C176,219.922,174.422,226.473,167.399,230.731"/>
	<path d="M35.619,188.517c3.077-17.36,6.076-34.327,9.073-51.606h23.99c-0.396,2.287-0.712,4.34-1.185,6.943H52.587
		c-0.87,4.813-1.659,9.23-2.528,14.283h11.207c-0.396,2.84-0.712,4.971-1.106,7.494H48.797c-0.945,5.209-1.815,10.102-2.76,15.626
		h15.938c-0.475,2.761-0.947,4.893-1.342,7.26H35.619L35.619,188.517z"/>
	<path d="M273.77,181.415h15.939c-0.474,2.603-0.869,4.813-1.341,7.178h-25.014c3.076-17.358,6.076-34.403,9.073-51.683h23.989
		c-0.395,2.287-0.709,4.34-1.185,6.943h-14.913c-0.869,4.813-1.657,9.23-2.524,14.283h11.204c-0.394,2.84-0.711,4.971-1.104,7.494
		H276.53C275.662,170.84,274.715,175.812,273.77,181.415"/>
	<path d="M31.358,147.877c-2.686,0.396-5.049,0.711-7.734,1.026c-0.314-0.947-0.631-1.657-0.709-2.368
		c-0.394-2.05-1.737-3.55-3.63-3.234c-1.579,0.236-3.313,1.342-4.261,2.682c-1.5,2.053-1.578,4.735,0,6.947
		c1.577,2.207,3.55,4.261,5.285,6.39c1.738,2.13,3.789,4.103,5.208,6.472c3.395,5.602,2.606,12.783-1.577,17.832
		c-3.787,4.655-11.204,6.945-16.887,5.287c-5.603-1.658-8.128-6.628-6.629-13.65c2.367-0.314,4.97-0.553,7.654-0.869
		c0.236,1.264,0.475,2.209,0.552,3.156c0.237,2.369,1.106,4.104,3.788,4.262c2.446,0.159,4.498-1.025,5.524-3.234
		c1.184-2.683,0.788-5.208-0.946-7.418c-1.973-2.525-4.261-4.894-6.472-7.261c-3.63-3.788-6.076-8.05-5.445-13.572
		c1.184-10.258,8.128-14.756,17.046-14.44C28.833,135.963,31.911,140.145,31.358,147.877"/>
	<path d="M143.411,147.799c-2.685,0.395-5.052,0.709-7.734,1.104c-0.316-1.026-0.552-1.974-0.946-2.762
		c-1.343-3.472-4.894-4.103-7.26-1.183c-1.736,2.209-2.368,4.812-0.869,7.338c1.263,2.053,2.842,3.945,4.42,5.761
		c1.814,2.13,3.866,4.023,5.444,6.233c4.024,5.681,3.867,12.705,0,18.307c-3.551,5.129-10.731,7.733-16.967,6.312
		c-5.838-1.342-8.679-6.393-7.257-13.729c2.366-0.316,4.891-0.631,7.653-1.026c0.236,1.184,0.552,2.131,0.63,2.998
		c0.238,2.29,1.026,4.104,3.709,4.419c2.604,0.237,4.814-1.104,5.762-3.551c1.104-2.683,0.472-5.207-1.262-7.336
		c-2.133-2.687-4.579-5.13-6.868-7.577c-4.654-4.971-6.154-10.573-3.943-17.125c2.682-7.811,11.6-12.309,19.412-9.626
		C141.753,137.777,143.646,141.171,143.411,147.799"/>
	<path d="M234.789,188.358c-0.633-17.124-1.186-34.089-1.814-51.448h8.6c0.632,10.73,0,21.541,1.261,32.51
		c0.475-0.947,1.026-1.814,1.344-2.762c2.92-8.127,5.839-16.335,8.68-24.461c2.288-6.394,2.761-6.63,10.416-4.973
		c-0.474,1.5-0.867,3.078-1.42,4.499c-5.13,13.413-10.259,26.827-15.468,40.244C243.627,189.541,243.627,189.541,234.789,188.358"/>
	<path d="M194.544,230.971c-0.947,5.443-1.736,10.178-2.682,15.544h15.622c-0.395,2.842-0.708,4.972-1.104,7.261h-25.015
		c2.999-17.281,5.997-34.248,8.997-51.449h23.909c-0.396,2.445-0.79,4.577-1.184,7.182h-14.835
		c-0.788,4.731-1.58,9.151-2.447,14.044h11.444c-0.474,2.684-0.87,4.812-1.422,7.419H194.544z"/>
	<path d="M124.234,219.845c2.841-5.84,5.684-11.68,8.602-17.678h8.679c-0.552,1.42-0.945,2.604-1.576,3.708
		c-3.078,5.921-5.998,11.997-9.471,17.677c-3.866,6.313-5.681,13.1-6.707,20.28c-0.473,3.235-1.103,6.393-1.735,9.785h-8.917
		c0.789-4.813,1.42-9.392,2.367-13.968c1.027-4.891,1.105-9.626,0.08-14.519c-1.579-7.497-2.762-15.072-4.103-22.964h8.758
		C121.946,207.928,121.789,214.083,124.234,219.845"/>
	<path d="M185.783,188.674h-8.915c2.604-14.756,5.05-29.274,7.654-44.269c-2.919-0.237-5.604-0.474-8.443-0.71
		c0.473-2.289,0.789-4.34,1.262-6.785h25.962c-0.314,2.287-0.632,4.417-0.948,6.785c-2.919,0.158-5.602,0.395-8.678,0.553
		C191.07,159.16,188.39,173.84,185.783,188.674"/>
	<path d="M157.771,188.593h-7.97c-0.71-3.629,5.839-43.398,8.442-51.683h8.523C163.849,154.27,160.85,171.313,157.771,188.593"/>
	<path d="M222.951,136.595c-3.156,17.831-6.155,34.64-9.153,51.843h-8.681c0.158-1.816,0.158-3.551,0.474-5.207
		c2.525-14.284,5.05-28.566,7.654-42.85c0.631-3.709,0.71-3.709,4.262-3.786C219.084,136.516,220.743,136.595,222.951,136.595"/>
	<path fill="#FFFFFF" d="M133.624,3.236c-6.312,35.193-15.466,86.801-21.856,122.23h-8.996C109.007,90.115,118.711,35.352,125.022,0
		"/>
</g>
</svg>
