<?xml version="1.0" encoding="utf-8"?>
<!-- Generator: Adobe Illustrator 18.1.1, SVG Export Plug-In . SVG Version: 6.00 Build 0)  -->
<svg version="1.1" id="Ebene_1" xmlns="http://www.w3.org/2000/svg" xmlns:xlink="http://www.w3.org/1999/xlink" x="0px" y="0px"
	 viewBox="0 0 361.2 392.7" enable-background="new 0 0 361.2 392.7" xml:space="preserve">
<g>
	<g opacity="0.7">
		<g opacity="0.22">
			<path d="M222,392.7l-102.8-7.8c0,0-23.6-4.2-35.7-12.3c0,0-81.3-46.4-79.1-176.4c0,0-4.4-54.7,27.6-116.1
				c0,0,15.6-30.3,41.1-48.9c0,0,19.4-17.3,52.7-20.3L218.9,4c0,0,0,0,0.1,0c1,0,36.1,0.1,57,9.9l49.7,124.8l31.9,52.1
				c0,0,4.1,40.5-5.2,83.7c-5.8,26.7-20.1,55-20.1,55s-8.7,15.2-24.3,31.4C292.3,377.2,264.7,393.5,222,392.7z"/>
		</g>
		<g>
			<path fill="#FFFFFF" d="M218,388.7l-102.8-7.8c0,0-23.6-4.2-35.7-12.3c0,0-81.3-46.4-79.1-176.4c0,0-4.4-54.7,27.6-116.1
				c0,0,15.6-30.3,41.1-48.9c0,0,19.4-17.3,52.7-20.3L214.9,0c0,0,0,0,0.1,0c1,0,36.1,0.1,57,9.9l49.7,124.8l31.9,52.1
				c0,0,4.1,40.5-5.2,83.7c-5.8,26.7-20.1,55-20.1,55s-8.7,15.2-24.3,31.4C288.3,373.2,260.7,389.5,218,388.7z"/>
		</g>
	</g>
	<g>
		<g>
			<defs>
				<rect id="SVGID_1_" x="0" y="0.2" width="361.2" height="388.7"/>
			</defs>
			<clipPath id="SVGID_2_">
				<use xlink:href="#SVGID_1_"  overflow="visible"/>
			</clipPath>
			<g clip-path="url(#SVGID_2_)">
				<g>
					<defs>
						<rect id="SVGID_3_" x="0" y="0.2" width="361.2" height="388.7"/>
					</defs>
					<defs>
						<rect id="SVGID_4_" x="0" y="0.2" width="361.2" height="388.7"/>
					</defs>
					<defs>
						<rect id="SVGID_5_" x="0" y="0.2" width="361.2" height="388.7"/>
					</defs>
					<defs>
						<rect id="SVGID_6_" x="0" y="0.2" width="361.2" height="388.7"/>
					</defs>
					<defs>
						<rect id="SVGID_7_" x="0" y="0.2" width="361.2" height="388.7"/>
					</defs>
					<defs>
						<rect id="SVGID_8_" x="0" y="0.2" width="361.2" height="388.7"/>
					</defs>
					<defs>
						<rect id="SVGID_9_" x="0" y="0.2" width="361.2" height="388.7"/>
					</defs>
					<defs>
						<rect id="SVGID_10_" x="0" y="0.2" width="361.2" height="388.7"/>
					</defs>
					<defs>
						<rect id="SVGID_11_" x="0" y="0.2" width="361.2" height="388.7"/>
					</defs>
					<defs>
						<rect id="SVGID_12_" x="0" y="0.2" width="361.2" height="388.7"/>
					</defs>
					<defs>
						<rect id="SVGID_13_" x="0" y="0.2" width="361.2" height="388.7"/>
					</defs>
					<defs>
						<rect id="SVGID_14_" x="0" y="0.2" width="361.2" height="388.7"/>
					</defs>
					<defs>
						<rect id="SVGID_15_" x="0" y="0.2" width="361.2" height="388.7"/>
					</defs>
					<defs>
						<rect id="SVGID_16_" x="0" y="0.2" width="361.2" height="388.7"/>
					</defs>
					<defs>
						<rect id="SVGID_17_" x="0" y="0.2" width="361.2" height="388.7"/>
					</defs>
					<defs>
						<rect id="SVGID_18_" x="0" y="0.2" width="361.2" height="388.7"/>
					</defs>
					<defs>
						<rect id="SVGID_19_" x="0" y="0.2" width="361.2" height="388.7"/>
					</defs>
					<defs>
						<rect id="SVGID_20_" x="0" y="0.2" width="361.2" height="388.7"/>
					</defs>
					<defs>
						<rect id="SVGID_21_" x="0" y="0.2" width="361.2" height="388.7"/>
					</defs>
					<defs>
						<rect id="SVGID_22_" x="0" y="0.2" width="361.2" height="388.7"/>
					</defs>
					<defs>
						<rect id="SVGID_23_" x="0" y="0.2" width="361.2" height="388.7"/>
					</defs>
					<defs>
						<rect id="SVGID_24_" x="0" y="0.2" width="361.2" height="388.7"/>
					</defs>
					<defs>
						<rect id="SVGID_25_" x="0" y="0.2" width="361.2" height="388.7"/>
					</defs>
					<defs>
						<rect id="SVGID_26_" x="0" y="0.2" width="361.2" height="388.7"/>
					</defs>
					<defs>
						<rect id="SVGID_27_" x="0" y="0.2" width="361.2" height="388.7"/>
					</defs>
					<defs>
						<rect id="SVGID_28_" x="0" y="0.2" width="361.2" height="388.7"/>
					</defs>
					<defs>
						<rect id="SVGID_29_" x="0" y="0.2" width="361.2" height="388.7"/>
					</defs>
					<defs>
						<rect id="SVGID_30_" x="0" y="0.2" width="361.2" height="388.7"/>
					</defs>
					<defs>
						<rect id="SVGID_31_" x="0" y="0.2" width="361.2" height="388.7"/>
					</defs>
					<defs>
						<rect id="SVGID_32_" x="0" y="0.2" width="361.2" height="388.7"/>
					</defs>
					<defs>
						<rect id="SVGID_33_" x="0" y="0.2" width="361.2" height="388.7"/>
					</defs>
					<defs>
						<rect id="SVGID_34_" x="0" y="0.2" width="361.2" height="388.7"/>
					</defs>
					<defs>
						<rect id="SVGID_35_" x="0" y="0.2" width="361.2" height="388.7"/>
					</defs>
					<defs>
						<rect id="SVGID_36_" x="0" y="0.2" width="361.2" height="388.7"/>
					</defs>
					<defs>
						<rect id="SVGID_37_" x="0" y="0.2" width="361.2" height="388.7"/>
					</defs>
					<defs>
						<rect id="SVGID_38_" x="0" y="0.2" width="361.2" height="388.7"/>
					</defs>
					<defs>
						<rect id="SVGID_39_" x="0" y="0.2" width="361.2" height="388.7"/>
					</defs>
					<defs>
						<rect id="SVGID_40_" x="0" y="0.2" width="361.2" height="388.7"/>
					</defs>
					<defs>
						<rect id="SVGID_41_" x="0" y="0.2" width="361.2" height="388.7"/>
					</defs>
					<defs>
						<rect id="SVGID_42_" x="0" y="0.2" width="361.2" height="388.7"/>
					</defs>
					<defs>
						<rect id="SVGID_43_" x="0" y="0.2" width="361.2" height="388.7"/>
					</defs>
					<defs>
						<rect id="SVGID_44_" x="0" y="0.2" width="361.2" height="388.7"/>
					</defs>
					<defs>
						<rect id="SVGID_45_" x="0" y="0.2" width="361.2" height="388.7"/>
					</defs>
					<defs>
						<rect id="SVGID_46_" x="0" y="0.2" width="361.2" height="388.7"/>
					</defs>
					<defs>
						<rect id="SVGID_47_" x="0" y="0.2" width="361.2" height="388.7"/>
					</defs>
					<defs>
						<rect id="SVGID_48_" x="0" y="0.2" width="361.2" height="388.7"/>
					</defs>
					<defs>
						<rect id="SVGID_49_" x="0" y="0.2" width="361.2" height="388.7"/>
					</defs>
					<defs>
						<rect id="SVGID_50_" x="0" y="0.2" width="361.2" height="388.7"/>
					</defs>
					<defs>
						<rect id="SVGID_51_" x="0" y="0.2" width="361.2" height="388.7"/>
					</defs>
					<defs>
						<rect id="SVGID_52_" x="0" y="0.2" width="361.2" height="388.7"/>
					</defs>
					<defs>
						<rect id="SVGID_53_" x="0" y="0.2" width="361.2" height="388.7"/>
					</defs>
					<defs>
						<rect id="SVGID_54_" x="0" y="0.2" width="361.2" height="388.7"/>
					</defs>
					<clipPath id="SVGID_55_">
						<use xlink:href="#SVGID_3_"  overflow="visible"/>
					</clipPath>
					<clipPath id="SVGID_56_" clip-path="url(#SVGID_55_)">
						<use xlink:href="#SVGID_4_"  overflow="visible"/>
					</clipPath>
					<clipPath id="SVGID_57_" clip-path="url(#SVGID_56_)">
						<use xlink:href="#SVGID_5_"  overflow="visible"/>
					</clipPath>
					<clipPath id="SVGID_58_" clip-path="url(#SVGID_57_)">
						<use xlink:href="#SVGID_6_"  overflow="visible"/>
					</clipPath>
					<clipPath id="SVGID_59_" clip-path="url(#SVGID_58_)">
						<use xlink:href="#SVGID_7_"  overflow="visible"/>
					</clipPath>
					<clipPath id="SVGID_60_" clip-path="url(#SVGID_59_)">
						<use xlink:href="#SVGID_8_"  overflow="visible"/>
					</clipPath>
					<clipPath id="SVGID_61_" clip-path="url(#SVGID_60_)">
						<use xlink:href="#SVGID_9_"  overflow="visible"/>
					</clipPath>
					<clipPath id="SVGID_62_" clip-path="url(#SVGID_61_)">
						<use xlink:href="#SVGID_10_"  overflow="visible"/>
					</clipPath>
					<clipPath id="SVGID_63_" clip-path="url(#SVGID_62_)">
						<use xlink:href="#SVGID_11_"  overflow="visible"/>
					</clipPath>
					<clipPath id="SVGID_64_" clip-path="url(#SVGID_63_)">
						<use xlink:href="#SVGID_12_"  overflow="visible"/>
					</clipPath>
					<clipPath id="SVGID_65_" clip-path="url(#SVGID_64_)">
						<use xlink:href="#SVGID_13_"  overflow="visible"/>
					</clipPath>
					<clipPath id="SVGID_66_" clip-path="url(#SVGID_65_)">
						<use xlink:href="#SVGID_14_"  overflow="visible"/>
					</clipPath>
					<clipPath id="SVGID_67_" clip-path="url(#SVGID_66_)">
						<use xlink:href="#SVGID_15_"  overflow="visible"/>
					</clipPath>
					<clipPath id="SVGID_68_" clip-path="url(#SVGID_67_)">
						<use xlink:href="#SVGID_16_"  overflow="visible"/>
					</clipPath>
					<clipPath id="SVGID_69_" clip-path="url(#SVGID_68_)">
						<use xlink:href="#SVGID_17_"  overflow="visible"/>
					</clipPath>
					<clipPath id="SVGID_70_" clip-path="url(#SVGID_69_)">
						<use xlink:href="#SVGID_18_"  overflow="visible"/>
					</clipPath>
					<clipPath id="SVGID_71_" clip-path="url(#SVGID_70_)">
						<use xlink:href="#SVGID_19_"  overflow="visible"/>
					</clipPath>
					<clipPath id="SVGID_72_" clip-path="url(#SVGID_71_)">
						<use xlink:href="#SVGID_20_"  overflow="visible"/>
					</clipPath>
					<clipPath id="SVGID_73_" clip-path="url(#SVGID_72_)">
						<use xlink:href="#SVGID_21_"  overflow="visible"/>
					</clipPath>
					<clipPath id="SVGID_74_" clip-path="url(#SVGID_73_)">
						<use xlink:href="#SVGID_22_"  overflow="visible"/>
					</clipPath>
					<clipPath id="SVGID_75_" clip-path="url(#SVGID_74_)">
						<use xlink:href="#SVGID_23_"  overflow="visible"/>
					</clipPath>
					<clipPath id="SVGID_76_" clip-path="url(#SVGID_75_)">
						<use xlink:href="#SVGID_24_"  overflow="visible"/>
					</clipPath>
					<clipPath id="SVGID_77_" clip-path="url(#SVGID_76_)">
						<use xlink:href="#SVGID_25_"  overflow="visible"/>
					</clipPath>
					<clipPath id="SVGID_78_" clip-path="url(#SVGID_77_)">
						<use xlink:href="#SVGID_26_"  overflow="visible"/>
					</clipPath>
					<clipPath id="SVGID_79_" clip-path="url(#SVGID_78_)">
						<use xlink:href="#SVGID_27_"  overflow="visible"/>
					</clipPath>
					<clipPath id="SVGID_80_" clip-path="url(#SVGID_79_)">
						<use xlink:href="#SVGID_28_"  overflow="visible"/>
					</clipPath>
					<clipPath id="SVGID_81_" clip-path="url(#SVGID_80_)">
						<use xlink:href="#SVGID_29_"  overflow="visible"/>
					</clipPath>
					<clipPath id="SVGID_82_" clip-path="url(#SVGID_81_)">
						<use xlink:href="#SVGID_30_"  overflow="visible"/>
					</clipPath>
					<clipPath id="SVGID_83_" clip-path="url(#SVGID_82_)">
						<use xlink:href="#SVGID_31_"  overflow="visible"/>
					</clipPath>
					<clipPath id="SVGID_84_" clip-path="url(#SVGID_83_)">
						<use xlink:href="#SVGID_32_"  overflow="visible"/>
					</clipPath>
					<clipPath id="SVGID_85_" clip-path="url(#SVGID_84_)">
						<use xlink:href="#SVGID_33_"  overflow="visible"/>
					</clipPath>
					<clipPath id="SVGID_86_" clip-path="url(#SVGID_85_)">
						<use xlink:href="#SVGID_34_"  overflow="visible"/>
					</clipPath>
					<clipPath id="SVGID_87_" clip-path="url(#SVGID_86_)">
						<use xlink:href="#SVGID_35_"  overflow="visible"/>
					</clipPath>
					<clipPath id="SVGID_88_" clip-path="url(#SVGID_87_)">
						<use xlink:href="#SVGID_36_"  overflow="visible"/>
					</clipPath>
					<clipPath id="SVGID_89_" clip-path="url(#SVGID_88_)">
						<use xlink:href="#SVGID_37_"  overflow="visible"/>
					</clipPath>
					<clipPath id="SVGID_90_" clip-path="url(#SVGID_89_)">
						<use xlink:href="#SVGID_38_"  overflow="visible"/>
					</clipPath>
					<clipPath id="SVGID_91_" clip-path="url(#SVGID_90_)">
						<use xlink:href="#SVGID_39_"  overflow="visible"/>
					</clipPath>
					<clipPath id="SVGID_92_" clip-path="url(#SVGID_91_)">
						<use xlink:href="#SVGID_40_"  overflow="visible"/>
					</clipPath>
					<clipPath id="SVGID_93_" clip-path="url(#SVGID_92_)">
						<use xlink:href="#SVGID_41_"  overflow="visible"/>
					</clipPath>
					<clipPath id="SVGID_94_" clip-path="url(#SVGID_93_)">
						<use xlink:href="#SVGID_42_"  overflow="visible"/>
					</clipPath>
					<clipPath id="SVGID_95_" clip-path="url(#SVGID_94_)">
						<use xlink:href="#SVGID_43_"  overflow="visible"/>
					</clipPath>
					<clipPath id="SVGID_96_" clip-path="url(#SVGID_95_)">
						<use xlink:href="#SVGID_44_"  overflow="visible"/>
					</clipPath>
					<clipPath id="SVGID_97_" clip-path="url(#SVGID_96_)">
						<use xlink:href="#SVGID_45_"  overflow="visible"/>
					</clipPath>
					<clipPath id="SVGID_98_" clip-path="url(#SVGID_97_)">
						<use xlink:href="#SVGID_46_"  overflow="visible"/>
					</clipPath>
					<clipPath id="SVGID_99_" clip-path="url(#SVGID_98_)">
						<use xlink:href="#SVGID_47_"  overflow="visible"/>
					</clipPath>
					<clipPath id="SVGID_100_" clip-path="url(#SVGID_99_)">
						<use xlink:href="#SVGID_48_"  overflow="visible"/>
					</clipPath>
					<clipPath id="SVGID_101_" clip-path="url(#SVGID_100_)">
						<use xlink:href="#SVGID_49_"  overflow="visible"/>
					</clipPath>
					<clipPath id="SVGID_102_" clip-path="url(#SVGID_101_)">
						<use xlink:href="#SVGID_50_"  overflow="visible"/>
					</clipPath>
					<clipPath id="SVGID_103_" clip-path="url(#SVGID_102_)">
						<use xlink:href="#SVGID_51_"  overflow="visible"/>
					</clipPath>
					<clipPath id="SVGID_104_" clip-path="url(#SVGID_103_)">
						<use xlink:href="#SVGID_52_"  overflow="visible"/>
					</clipPath>
					<clipPath id="SVGID_105_" clip-path="url(#SVGID_104_)">
						<use xlink:href="#SVGID_53_"  overflow="visible"/>
					</clipPath>
					<clipPath id="SVGID_106_" clip-path="url(#SVGID_105_)">
						<use xlink:href="#SVGID_54_"  overflow="visible"/>
					</clipPath>
					<path clip-path="url(#SVGID_106_)" d="M143.1,381.9c8.9,0.9,17.8,2.2,26.8,2.9l-31.2-2.4c0.9-0.1,1-0.1,2-0.6
						C140.9,381.8,141.3,381.8,143.1,381.9"/>
					<path clip-path="url(#SVGID_106_)" d="M174.9,382.1c0.6,0.2,1.4,0.4,3.1,0.8l0.4,0.1c23.6,4.2,29.3,4.1,30.6,3.8
						c-0.1-0.2-15.4-5.9-15.6-6c-0.9-0.3-2-0.7-3.9-1.1c-0.9-0.2-11.9-2-13.8-0.3c-1.9,2.1-1.9,2.1-1.9,2.2
						C174.1,381.7,174.2,381.9,174.9,382.1"/>
					<path clip-path="url(#SVGID_106_)" d="M206.3,387.3l0.7,0.1l0.5,0.1l0.4,0.1h0.4l0.4,0.1l0.6,0.1l0.8,0.1
						c1.2,0.1,3.9,0.3,9,0.9c0.1,0,0.2,0,0.3,0.1c0.1,0,0.2,0,0.3,0.1c0.1,0,0.2,0,0.3,0.1c0.1,0,0.2,0,0.3,0.1
						c0.2,0,0.3,0.1,0.4,0.1c0.2,0,0.3,0.1,0.4,0.1c0.2,0,0.3,0.1,0.4,0.1c0.2,0,0.3,0,0.4,0.1c0.1,0,0.2,0,0.2,0s0.2,0,0.2,0
						s0.2,0,0.2,0c0.1,0,0.2,0,0.2,0l-23.6-1.8c0.4,0,0.9,0,1.2-0.1C201.6,386.9,204.2,387.1,206.3,387.3"/>
					<path clip-path="url(#SVGID_106_)" d="M103,377.2l0.5,0.1l0.4,0.1h0.3h0.3l0.4,0.1l0.6,0.1l0.9,0.1c7.5,0.7,14.9,2.2,22.4,3.4
						l0.4,0.1c2,0.3,3.3,0.5,4.1,0.8c-0.3,0.1-0.7,0.3-1,0.3c-0.2,0-0.3,0-0.5-0.1l-13.3-1c-0.7-0.1-1.5-0.1-2.2-0.2
						c-1.4-0.1-2.8-0.3-4.2-0.5c-1.4-0.2-2.7-0.4-4.1-0.7c-1.4-0.3-2.7-0.5-4.1-0.9c-1.4-0.3-2.7-0.7-4.1-1.1
						c-0.1-0.1-0.3-0.2-0.3-0.3C100.3,377.1,100.4,377,103,377.2"/>
					<path clip-path="url(#SVGID_106_)" d="M78.8,365.2l0.5,0.1l0.4,0.1h0.3h0.3l0.4,0.1l0.6,0.1l0.9,0.1c2.7,0.3,2.7,0.3,21.9,5.9
						l0.4,0.1c4.5,1.3,4.5,1.3,2.5,4.3c-0.6,0.5-1.8,0.7-5.4,0.4l-0.6-0.1l-0.4-0.1l-0.3-0.1h-0.3l-0.4-0.1l-0.5-0.1l-0.8-0.1
						c-3.3-0.3-5.8-0.9-7.2-1.4c-1.3-0.5-2.6-1.1-3.9-1.8c-1.3-0.6-2.6-1.3-3.9-1.9c-1.3-0.7-2.6-1.4-3.8-2.1
						c-1.3-0.7-2.5-1.5-3.8-2.3C74.8,365.3,75.9,364.9,78.8,365.2"/>
					<path clip-path="url(#SVGID_106_)" d="M118.5,372.4c0.4,0.1,1.3,0.2,2.6,0.5c18,4.9,27.4,7,45.3,10.1
						c9.2,1.4,18.7,0.7,27.8,3.2c-0.5,0.2-1.2,0.3-1.7,0.3l-16.6-1.3c-15.4-1.4-19.7-1.9-35.7-4.4c-8.7-1.4-17.6-0.7-26.1-3.4
						c-0.3-0.1-0.7-0.3-0.9-0.4c0.3-0.5,0.3-0.5,2.8-4.5C116.7,372.3,117,372.2,118.5,372.4"/>
					<path clip-path="url(#SVGID_106_)" d="M90.3,364.8c0.2,0.1,18.5,8.6,20.6,5c0.5-0.8,2.2-0.8,5.2,0.1
						c34.4,10.4,49.6,12.2,50.2,11.8c1.4-1.4,1.7-1.7,3.5-3.8c-0.1-0.4-0.3-1.1-4.3-2.2c-4.8-1.4-9.4-3.3-14.4-4.2
						c-2.6-0.4-2.8,0-3.3,0.7c-0.3,0.5-0.9,1.4-5.4,0.1c-17.9-5.8-26.5-8.9-43.9-16.2c-2.4-1-4.1-1.2-5-0.3
						C89.2,364.1,89.2,364.1,90.3,364.8"/>
					<path clip-path="url(#SVGID_106_)" d="M129.6,348.9c0.9,1,1.9,1.6,2.7,2l0.4,0.2c14.9,7,14.9,7,18.5,7.8
						c0.1,0.1,12.5,2.5,11.2-0.9c-0.1-0.2-12.2-14.7-12.3-14.9c-1-1.1-2.4-1.9-2.8-2.1c-2.9-1.6-13-3.6-15.3,0.3
						C128.6,347.7,128.6,347.7,129.6,348.9"/>
					<path clip-path="url(#SVGID_106_)" d="M151.1,369.2c0.5,0.4,1.3,0.9,3,1.4l0.4,0.2c13.1,4.2,15.1,4.9,18.7,5.5
						c0.1,0,13,2.1,11.6-0.1c-0.2-0.3-0.5-0.5-1.3-0.9c-0.5-0.4-2.6-1.7-5-3.5c-2.6-1.9-5-4.2-7.6-6c-1.1-0.8-2.2-1.3-3-1.6
						c-3.5-1.3-13.4-2.9-15.2-0.2C150.1,368.3,150.1,368.3,151.1,369.2"/>
					<path clip-path="url(#SVGID_106_)" d="M56.9,345.9l0.5,0.1h0.4h0.3h0.4H59l0.6,0.1l0.9,0.1c3.4,0.3,3.4,0.3,21.1,8.1l0.4,0.2
						c4.2,1.9,4.2,1.9,1.6,7.3c-0.8,1.1-2.1,1.4-5.6,1.1l-0.6-0.1l-0.4-0.1h-0.4h-0.3l-0.4-0.1l-0.5-0.1l-0.8,0.1
						c-3.6-0.4-5.8-1.4-7.3-2.2c-1.2-0.9-2.4-1.9-3.5-2.9c-1.2-1-2.3-2-3.5-3c-1.2-1-2.3-2.1-3.4-3.2c-1.2-1.1-2.2-2.2-3.3-3.3
						C52.5,345.6,55.7,345.8,56.9,345.9"/>
					<path clip-path="url(#SVGID_106_)" d="M37.9,320.2l0.5,0.1h0.4h0.3h0.4H40l0.6,0.1l0.9,0.1c3.7,0.3,3.7,0.3,20.1,10.1l0.4,0.2
						c3.9,2.4,3.9,2.4,0.4,10c-1,1.6-2.3,2.1-5.9,1.9l-0.6-0.1h-0.4h-0.4h-0.3h-0.4l-0.5-0.1l-0.8-0.1c-3.6-0.4-5.7-1.9-7-2.9
						c-1-1.3-2.1-2.6-3.1-3.9c-1-1.3-2-2.7-3-4.1c-1-1.4-2-2.8-2.9-4.2c-0.9-1.4-1.9-2.9-2.8-4.3C33.5,319.9,36.6,320.1,37.9,320.2"
						/>
					<path clip-path="url(#SVGID_106_)" d="M68.6,345c0.2,0.2,17.3,12.2,20,6.7c0.6-1.3,2.4-1.3,5.2-0.1
						c0.4,0.2,45.7,20.3,48.6,17.7c4.8-7.9,4.8-7.9,4-8.7c-1.7-1.8-17.4-9.2-19.8-8.3c-1.3,0.4-1.1,2.2-2.4,2.5
						c-0.2,0.1-1.5,0.3-4.2-0.9c-14.5-6.8-28.1-15.2-42.6-22c-0.3-0.2-3.2-1.4-4.2,0.2C67.5,343.8,67.5,343.8,68.6,345"/>
					<path clip-path="url(#SVGID_106_)" d="M49.8,318.5c1.2,1.9,16.4,13.9,18.7,9.1c0.9-1.8,1.7-3.6,5.8-1.2
						c43.6,26.2,45.7,23.8,46.4,23c6.1-11.6,6.1-11.6,5.4-12.7c-1-1.8-15.1-11.3-18.4-10.5c-0.8,0.2-0.8,0.2-1.8,2.2
						c-0.9,1.7-2.7,1.8-5.4,0.2c-13.6-8.4-26-18.6-39.7-26.8c-0.5-0.3-2.9-1.6-4.3,0.3C49,317,49,317,49.8,318.5"/>
					<path clip-path="url(#SVGID_106_)" d="M95.8,288.5c0.4,1.2,1.1,2.1,2.1,3l0.4,0.3c13.3,10.6,13.3,10.6,16.3,11.5
						c0.1,0.1,12.8,3.4,11.8-2.7c-0.1-0.7-7.6-21.7-7.6-21.8c-0.2-0.4-0.8-1.6-1.7-2.5c-3.5-3.4-12.7-3.9-15.7,0
						c-0.2,0.2-0.4,0.5-0.5,0.8C95.2,286.7,95.2,286.7,95.8,288.5"/>
					<path clip-path="url(#SVGID_106_)" d="M110.6,321.4c0.6,1,1.3,1.8,2.5,2.5l0.4,0.3c14.3,8.9,14.3,8.9,17.5,9.8
						c0.1,0.1,12.3,2.9,11.5-1.6c-0.2-1-10.1-18.7-10.2-18.9c-0.4-0.7-1.3-1.6-2-2.2c-4.2-3.1-13.4-3.7-15.8,0
						c-0.1,0.1-0.2,0.2-0.2,0.3C109.8,319.9,109.8,319.9,110.6,321.4"/>
					<path clip-path="url(#SVGID_106_)" d="M22.3,288.1h0.5h0.4h0.3H24h0.4H25l0.9,0.1c3.8,0.3,3.8,0.3,18.8,11.7l0.4,0.3
						c3.6,2.9,3.6,2.9-1.1,12.6c-1.2,2.1-2.7,2.7-6.2,2.5l-0.6-0.1h-0.4h-0.4H36h-0.4l-0.5-0.1l-0.8-0.1c-2.6-0.3-4.8-1.4-6.4-3.2
						c-0.9-1.6-1.8-3.3-2.6-4.9c-0.8-1.7-1.6-3.3-2.5-5.1c-0.8-1.7-1.6-3.5-2.4-5.2c-0.8-1.8-1.5-3.6-2.2-5.4
						C17.9,289.1,19.4,288,22.3,288.1"/>
					<path clip-path="url(#SVGID_106_)" d="M11.5,251.7h0.5h0.4h0.3h0.4h0.4h0.6h0.9c3.8,0.3,3.8,0.3,17.2,13l0.3,0.3
						c3.2,3.2,3.2,3.2-3,14.6c-1.7,2.8-3.5,3.2-6.6,3.1h-0.6H22h-0.4h-0.3h-0.4h-0.5l-0.8-0.1c-2.6-0.3-4.6-1.6-6-3.7
						c-0.7-1.9-1.3-3.8-1.9-5.8c-0.6-1.9-1.2-3.9-1.8-5.9c-0.5-2-1.1-3.9-1.6-6c-0.5-2-1-4.1-1.5-6.1C7,252.9,8.6,251.6,11.5,251.7"
						/>
					<path clip-path="url(#SVGID_106_)" d="M34.5,286c0.9,2.2,14.5,16.3,17.5,10.5c1.2-2.4,2.3-4.3,6-1.6
						c40.9,31.5,42.5,29,43.4,27.5c7.8-14.9,7.8-14.9,7.4-16.2c-0.8-2.2-13.6-13.5-17-12.4c-0.8,0.3-0.8,0.3-2.3,3
						c-1.5,2.7-4.5,0.8-5.4,0.2c-12.3-9.8-23.2-21.2-35.8-30.6c-1.3-1-3.2-1.8-4.7,0.2C33.8,284.1,33.8,284.1,34.5,286"/>
					<path clip-path="url(#SVGID_106_)" d="M24.3,248.9c0.8,3.4,12.4,17.8,16,11.9c2-3.3,3.2-5.3,6.5-2.2
						C83.7,294.2,85,292,86.5,289.8c10-17.9,10-17.9,9.8-19.2c-0.4-2.7-11.8-14.7-15.1-14c-1.1,0.3-1.1,0.3-3,3.5
						c-1.8,3.1-4.2,1.6-5.5,0.4c-13.3-13.1-19.4-19.7-31.3-33.3c-0.1-0.1-0.2-0.2-0.3-0.3c-1.7-1.5-3.5-1.4-4.8,0.3
						C23.8,246.7,23.8,246.7,24.3,248.9"/>
					<path clip-path="url(#SVGID_106_)" d="M80.6,208.8c0.1,1.4,0.5,2.5,1.3,3.5l0.3,0.3c10.4,12.7,10.4,12.7,13.1,13.8
						c0.1,0.1,12,3.7,12.8-4c0.1-1-1.2-26.3-1.2-26.5c-0.1-0.7-0.4-1.8-0.7-2.4c-3.1-5.6-12.4-3.2-14.9-1.2c-1,0.8-1.6,1.7-2,2.2
						C80.5,206.7,80.5,206.7,80.6,208.8"/>
					<path clip-path="url(#SVGID_106_)" d="M85.6,250.5c0.3,1.3,0.8,2.3,1.8,3.3l0.3,0.3c12,11.8,12,11.8,14.9,12.8
						c0.1,0.1,12.4,3.6,12.3-3.4c0-0.9-4.6-24.3-4.6-24.6c-0.1-0.6-0.5-1.6-1.4-2.7c-2.9-3.8-12-3.6-15.1-0.5
						c-0.7,0.6-1,1.2-1.4,1.7C85.2,248.5,85.2,248.5,85.6,250.5"/>
					<path clip-path="url(#SVGID_106_)" d="M6.2,211.4h0.5h0.4h0.3h0.4h0.4h0.6h0.9c3.9,0.3,3.9,0.3,15.4,13.9l0.3,0.3
						c2.7,3.5,2.7,3.5-5.2,16.3c-2.1,3.2-4,3.7-7.1,3.6h-0.6h-0.4h-0.4h-0.3H11h-0.5H9.6C7,245.3,5.3,244,4,241.3
						c-0.3-2.1-0.7-4.2-1-6.2c-0.3-2.1-0.6-4.2-0.9-6.3c-0.3-2.1-0.5-4.2-0.7-6.4c-0.2-2.1-0.4-4.3-0.5-6.5
						C1.8,211.4,4.9,211.4,6.2,211.4"/>
					<path clip-path="url(#SVGID_106_)" d="M6.7,169.4h0.5h0.4h0.3h0.4h0.4h0.6h0.9c4,0.2,4,0.2,13.3,13.8l0.2,0.3
						C26,187,26,187,16.3,201c-2.6,3.5-4.6,4.1-7.7,4.1H8H7.6H7.2H6.9H6.4H5.9H5.1c-2.6-0.3-4.2-1.8-5-4.6c0-0.5,0-1-0.1-1.5
						c0-0.5,0-1,0-1.5c0-0.5,0-1,0-1.5s0-1,0-1.5c0-1.7,0-3.4,0.1-5.2c0.1-1.7,0.1-3.4,0.2-5.1c0.1-1.7,0.1-3.4,0.2-5
						c0.1-1.7,0.2-3.3,0.3-5C2.4,169.4,5.4,169.4,6.7,169.4"/>
					<path clip-path="url(#SVGID_106_)" d="M19.3,208.3c0.3,3.6,9.9,18,13.8,13.4c4.9-6,4.9-6,7.3-3.3
						c32.2,38.7,33.6,36.8,35.6,33.9C88.5,232,88.5,232,88.5,230.6c-0.1-3-9.8-15.9-13.2-15c-1.1,0.3-1.7,1.2-2.1,1.7
						c-2.4,3.5-4,6-7,2.7c-11.8-14.5-16.3-20.6-26.6-35.2c-0.1-0.1-0.2-0.2-0.3-0.3c-1.1-1.2-3-1.8-4.8,0.4
						C19.2,205.6,19.2,205.8,19.3,208.3"/>
					<path clip-path="url(#SVGID_106_)" d="M20.4,166c-0.2,3.3,7,17.4,11.5,13.4c1.7-1.5,2.4-3.9,4.6-5c0.4-0.2,2-0.7,3.5,1.2
						c27.2,39.8,27.8,38.9,30.7,35.2c15.6-22.3,15.6-22.3,15.7-23c0.5-4.1-7.6-16.1-10.6-15.7c-1.4,0.2-1.5,0.3-4.7,4.3
						c-2.1,2.7-4.2,2-5.5,0.4c-9.2-13.6-13.4-20.1-21.7-33.4c-0.1-0.1-0.2-0.2-0.2-0.3c-0.7-0.9-2.6-1.8-4.8,0.4
						C20.7,163.1,20.7,163.7,20.4,166"/>
					<path clip-path="url(#SVGID_106_)" d="M88.3,125c-0.3,1.3-0.2,2.2,0.3,3.1l0.2,0.3c7.2,11.8,7.2,11.8,9.8,12.6
						c0.1,0.1,12,3,13.9-5.6c3.1-13.9,3.1-13.9,3.7-16.2c2-7.5,2-7.5,1.6-8.4c-1.7-4.7-11.6-2.3-14.6-0.4c-1.2,0.7-2.1,1.5-2.6,1.9
						C88.8,123.1,88.8,123.1,88.3,125"/>
					<path clip-path="url(#SVGID_106_)" d="M81.5,165.6c-0.1,1.4,0.1,2.5,0.8,3.5l0.2,0.3c8.8,12.9,8.8,12.9,11.6,13.9
						c0.1,0.1,11.8,3.3,13-5.2c0-0.1,2.4-25,2.4-25.4c0.1-0.7-0.1-1.6-0.4-2.2c-2.2-4.9-11.6-3.1-14.7-0.8c-1.1,0.8-1.9,1.6-2.4,2.1
						C81.7,163.5,81.7,163.5,81.5,165.6"/>
					<path clip-path="url(#SVGID_106_)" d="M13.1,130h0.5h0.4h0.3h0.4h0.4h0.6h0.9c4,0.1,4,0.1,11.4,12.5l0.2,0.3
						c1.4,2.6-0.2,5.3-0.3,5.4c-2.6,4.3-6.5,7.4-9.6,11.1c-3.1,3.4-5.2,4-8.3,4.1H9.4H9H8.6H8.3H7.8H7.3H6.5c-2.5-0.3-3.9-1.6-4.3-4
						c0.3-2.2,0.5-4.3,0.9-6.5c0.3-2.1,0.7-4.3,1-6.4c0.4-2.1,0.8-4.2,1.2-6.3c0.4-2.1,0.9-4.2,1.3-6.2C8.7,130.1,12,130,13.1,130"
						/>
					<path clip-path="url(#SVGID_106_)" d="M24.7,94.3h0.5h0.4H26h0.4h0.4h0.6l0.9-0.1c4,0.1,4,0.1,9.8,10.9l0.2,0.3
						c1,2.2-0.9,4.7-1,4.8c-3.2,3.9-7.4,6.8-11.1,10.2c-3.6,3.1-5.7,3.7-8.8,3.8h-0.6h-0.4H16h-0.3h-0.4h-0.5h-0.8
						c-3-0.2-3.7-2.1-3.8-3.6c0.5-2,1.2-3.9,1.8-5.9c0.6-1.9,1.2-3.8,1.9-5.8c0.7-1.9,1.3-3.8,2-5.6c0.7-1.9,1.4-3.7,2.1-5.5
						C20.3,94.6,23.6,94.4,24.7,94.3"/>
					<path clip-path="url(#SVGID_106_)" d="M27.1,126.7c-0.6,2.8,4.6,15.3,9.4,12.4c2-1.3,3-3.8,5.3-4.8c2.4-1,3.3,0.4,3.7,0.9
						c22.1,36.8,22.3,36.7,25.9,32.7C90,145.8,90,145.8,90.1,145.7c1.3-4.4-5.8-14.5-8.2-14.4c-4.2,0.1-7.8,9.1-11.1,4.5
						c-7.5-12.4-10.7-18-17.3-30c-0.1-0.1-0.1-0.2-0.2-0.3c-0.6-0.8-2.3-1.6-4.9,0.4C27.7,124,27.6,124.7,27.1,126.7"/>
					<path clip-path="url(#SVGID_106_)" d="M39.1,91.2C38,94,42,104,46.5,102.1c2.4-1,3.8-3.5,6.2-4.5c0.6-0.2,2.5-0.9,3.6,0.7
						c17.5,32.6,17.5,32.6,21.6,28.9c8-7.6,10.1-9.6,19.9-18.3c1-0.9,1.5-1.8,1.7-2.2c2-4.2-4.2-12.5-6-12.6
						c-4.6-0.3-8.7,9.2-12,4.2c-2.9-5.2-7.1-13-11.1-21c-0.7-1.4-1.4-3.4-2.4-4.7c-1.3-1.8-3.9-0.4-5,0.3
						C40.2,88.6,39.9,89.6,39.1,91.2"/>
					<path clip-path="url(#SVGID_106_)" d="M116.4,57.5c-0.7,1.2-0.5,1.8-0.4,2.2l0.1,0.2c4.2,7.8,4.2,7.8,5.7,8.6
						c1.8,0.9,8.9,0.5,11.1-0.3c3.1-1.2,4.4-3,4.8-3.5c0.1-0.1,10.7-16.7,11-17.7c0.9-3.7-10.7-2.5-17.3,1
						C117.4,56,117.4,56,116.4,57.5"/>
					<path clip-path="url(#SVGID_106_)" d="M100.3,88.6c-0.4,1.1-0.4,2-0.1,2.7l0.2,0.3c5.3,9.5,5.3,9.5,7,10.4
						c2,1.2,8.9,0.9,11.2-0.1c1.9-0.9,3.4-2.2,4.4-4.1l8.4-20.3c1.9-5.6-9.4-4.3-14.3-1.9c-1.3,0.7-2.2,1.3-2.8,1.7
						C101,86.8,101,86.8,100.3,88.6"/>
					<path clip-path="url(#SVGID_106_)" d="M40.8,63.6l0.5-0.1h0.4h0.3h0.4H43l0.6-0.1l0.9-0.1c4-0.1,4-0.1,8.3,8.9l0.1,0.2
						c0.9,2.2,0.9,2.2-13.9,13c-3.9,2.8-6.1,3.3-9.2,3.5h-0.6h-0.4h-0.4H28h-0.4H27l-0.8,0.1C23.8,89,22.8,88,23,85.8
						c0.8-1.6,1.6-3.3,2.4-4.9c0.8-1.6,1.6-3.2,2.5-4.8c0.9-1.6,1.8-3.1,2.6-4.7c0.9-1.5,1.8-3.1,2.7-4.5
						C36.4,63.9,39.5,63.8,40.8,63.6"/>
					<path clip-path="url(#SVGID_106_)" d="M60.4,39l0.5-0.1h0.4h0.3h0.4l0.4-0.1l0.6-0.1l0.9-0.1c4.1-0.1,4.1-0.1,7.2,6.7l0.1,0.2
						c0.5,1.7,0.5,1.7-15.3,10.7c-4.3,2.4-6.5,2.9-9.6,3l-0.6,0.1h-0.4H45h-0.3h-0.4l-0.5,0.1l-0.8,0.1c-2.4-0.1-3.3-0.9-2.9-2.6
						c1-1.4,2-2.7,3-4.1c1-1.3,2-2.6,3.1-3.9c1-1.3,2.1-2.5,3.2-3.7c1-1.2,2.1-2.4,3.2-3.6C56,39.2,59.1,39,60.4,39"/>
					<path clip-path="url(#SVGID_106_)" d="M55.4,60.8c-1.4,2.2,1.6,9.9,5.2,9.2c3.8-0.8,7.7-7.9,11-3.6
						c13.7,27.5,13.7,27.5,17.9,24.4c8.9-6.7,11.3-8.6,22-16.1c0.8-0.6,1.5-1.3,2-1.9c2.5-3.7-2.6-10.2-4.1-10.5
						c-1.7-0.3-2.8,0.4-7.1,3.1c-4,2.5-5.3,0.9-5.5,0.5c-2.2-4.3-5.3-10.3-8.6-17c-0.5-1.1-1-2.7-1.8-3.6c-1.1-1.4-3.9-0.3-5,0.3
						C57,58.5,56.2,59.7,55.4,60.8"/>
					<path clip-path="url(#SVGID_106_)" d="M75.4,36.4c-1.8,1.8,1.3,7.1,3.3,7c1.5-0.1,2.9-0.8,3.7-1.2c4.1-2,7.1-3.5,8.3-1.9
						c6.8,13.9,9.7,19.4,9.8,19.5c1.3,1.6,3.8,0.5,5.2-0.3c9.6-5.7,12.2-7.2,23.7-13.5c0.3-0.2,1.3-0.7,2.2-1.6
						c3.2-3.1-1.9-7.9-2.6-8c-1.7-0.4-3.3,0.4-7.7,2.6c-3.3,1.6-5,1.3-5.5,0.5c-2.3-4.4-7.7-14.8-7.8-15c-0.6-0.7-2.5-0.5-5,0.3
						C77.5,34.3,75.9,35.8,75.4,36.4"/>
					<path clip-path="url(#SVGID_106_)" d="M158.7,14.3c-0.8,0.5-1,0.8-0.8,1.1l0.1,0.1c2.5,3.8,2.5,3.8,3.5,4.1
						c2.6,0.7,9.9-0.3,10.7-0.4c2.8-0.6,4.6-1.4,5.6-2c0.2-0.1,14.7-8.9,14.9-9.2c0.1-0.1,0.1-0.2,0.1-0.2
						c-0.9-0.8-10.4-0.1-17.3,1.6C160.1,13.4,160.1,13.4,158.7,14.3"/>
					<path clip-path="url(#SVGID_106_)" d="M136.3,32.2c-0.7,0.8-0.8,1.2-0.7,1.7l0.1,0.2c3.2,5.9,3.2,5.9,4.6,6.5
						c1.7,0.7,8.7,0.2,11-0.5c2.5-0.8,4.2-2,4.8-2.5l12.9-13.2c0.2-0.2,0.4-0.5,0.5-0.8c0.5-2.4-10.7-1.2-17.3,1.4
						C137.5,31,137.5,31,136.3,32.2"/>
					<path clip-path="url(#SVGID_106_)" d="M83.1,20.7l0.5-0.1l0.4-0.1h0.3h0.4l0.4-0.1l0.6-0.1l0.9-0.1c4.1-0.2,4.1-0.2,6.3,4.2
						l0.1,0.1c0.2,1.2,0.2,1.2-16.5,8c-4.5,1.8-6.8,2.2-9.9,2.5l-0.6,0.1l-0.4,0.1h-0.3H65l-0.4,0.1L64,35.4l-0.8,0.1
						c-2.9,0-3-0.9-2.6-1.7c1.2-1,2.4-2.1,3.6-3.1c1.2-1,2.4-2,3.6-2.9c1.2-0.9,2.5-1.9,3.7-2.7c1.3-0.9,2.5-1.7,3.7-2.5
						C78.6,21,82,20.7,83.1,20.7"/>
					<path clip-path="url(#SVGID_106_)" d="M107.4,10l0.5-0.1l0.4-0.1h0.3h0.3l0.4-0.1l0.6-0.1l0.9-0.1c4.2-0.3,4.2-0.3,5.7,1.7
						l0.1,0.1c-0.1,0.5-0.1,0.5-17.3,5.1c-4.8,1.3-7.1,1.6-10,1.8l-0.6,0.1h-0.4L88,18.5l-0.3,0.1l-0.4,0.1l-0.5,0.1L86,18.7
						c-1.7,0.1-2.3-0.1-2.6-0.5c0.1-0.2,0.2-0.3,0.3-0.4c1.3-0.7,2.6-1.3,3.9-1.9c1.3-0.6,2.6-1.2,3.9-1.8c1.3-0.5,2.6-1,4-1.5
						c1.3-0.5,2.7-0.9,4-1.3C101.7,10.6,104.4,10.2,107.4,10"/>
					<path clip-path="url(#SVGID_106_)" d="M98,18.6c-2.5,1.5,1,4.3,1.1,4.4c0.4,0.2,1.7,0.4,5.2-0.8c4.1-1.4,7.3-2.5,8.5-1.5
						c2.6,4.6,3.8,9.9,7.6,13.9c0,0,1.2,1,4.9-0.6c10.2-4.5,12.9-5.7,25.1-10.5c0.8-0.3,1.5-0.7,2.4-1.2c3.3-2.1-0.9-5.2-0.9-5.2
						c-1.3-0.7-4.7,0.4-8.6,1.8c-2,0.7-4.7,1.3-5.6,0.5c-5.8-9.5-5.8-9.5-10.9-8.4C110.4,14.7,99.9,17.5,98,18.6"/>
					<path clip-path="url(#SVGID_106_)" d="M161.7,7c0.5,0.1,1.4,0.3,5.4-0.4c8.7-1.6,8.7-1.6,10.7,0.3c-0.1,0.2-0.3,0.8-3.5,1.6
						c-10,2.5-13.8,3.5-26.5,7.2c-3.9,1.1-4.8,0.6-4.9,0.5c-2.8-1.9-3.6-5.3-5.8-7.6c-1.4-0.3-4.1,0.2-8.1,1c-5.7,1.1-6.7,1-7.1-0.8
						c0.3-0.2,0.4-0.2,1-0.3C123,8.4,129,7,151.2,5.1l6-0.4C158,4.7,158,4.7,161.7,7"/>
					<path clip-path="url(#SVGID_106_)" d="M183.2,3.9c-0.8,0.2-0.9,0.3-1,0.4c0,0,0,0.1,0.1,0.1l0.1,0.1c2.6,2,3.1,2.4,12.4,1.3
						c2.6-0.3,4.6-0.8,5.4-0.9c0.2-0.1,0.4-0.1,0.5-0.1c3-0.8,5.9-1.9,8.9-2.7c2.6-0.7,5.4-0.9,8.1-1.7c-1-0.1-12.7,0.9-17.3,1.4
						C190.2,2.8,185.2,3.3,183.2,3.9"/>
					<path clip-path="url(#SVGID_106_)" d="M141.9,5.9c-0.1,0-7.5,0.7-17.4,1.9c-5.6,0.7-7.3,0.9-10.2,1.1l-0.6,0.1l-0.4,0.1h-0.3
						h-0.3L112.1,9L111.6,9l-0.8,0.1c-1.4,0.1-1.8,0.1-2.4,0.1c0.1-0.1,0.2-0.2,0.3-0.2c0.8-0.2,1.5-0.3,2.2-0.4
						c0.8-0.1,1.5-0.2,2.2-0.3c0.8-0.1,1.5-0.2,2.2-0.3c0.8-0.1,1.5-0.2,2.2-0.2L141.9,5.9C141.9,5.8,141.9,5.8,141.9,5.9"/>
					<path clip-path="url(#SVGID_106_)" d="M202.5,1.2c-12.2,1-23.2,2.7-30.5,3.8c-4.6,0.7-4.7,0.7-6.1-0.2c-0.3-0.2-1-0.5-2.3-0.5
						C176.5,3.2,189.5,2.2,202.5,1.2C202.5,1.2,202.5,1.2,202.5,1.2"/>
					<path clip-path="url(#SVGID_106_)" d="M245,72.5c-38.4,0-69.5,54.7-69.5,122.1c0,67.4,31.1,122.1,69.5,122.1
						s69.5-54.7,69.5-122.1C314.5,127.1,283.4,72.5,245,72.5 M361.2,194.6c0,105.9-54.9,191.8-122.5,191.8
						c-67.7,0-122.5-85.8-122.5-191.8c0-106,54.8-191.8,122.5-191.8C306.3,2.7,361.2,88.6,361.2,194.6"/>
					<path clip-path="url(#SVGID_106_)" d="M245,84c-17.9,0-34,14.4-45,37.2c9.4,19.5,15.2,45.2,15.2,73.4
						c0,28.2-5.8,53.9-15.2,73.4c11,22.8,27.1,37.2,45,37.2c33.2,0,60.2-49.5,60.2-110.6C305.2,133.5,278.2,84,245,84"/>
					<path clip-path="url(#SVGID_106_)" fill="#FA7885" d="M27.1,126.7c-0.6,2.8,4.6,15.3,9.4,12.4c2-1.3,3-3.8,5.3-4.8
						c2.4-1,3.3,0.4,3.7,0.9c22.1,36.8,22.3,36.7,25.9,32.7C90,145.8,90,145.8,90.1,145.7c1.3-4.4-5.8-14.5-8.2-14.4
						c-4.2,0.1-7.8,9.1-11.1,4.5c-7.5-12.4-10.7-18-17.3-30c-0.1-0.1-0.1-0.2-0.2-0.3c-0.6-0.8-2.3-1.6-4.9,0.4
						C27.7,124,27.6,124.7,27.1,126.7"/>
					<path clip-path="url(#SVGID_106_)" fill="#FA7885" d="M39.1,91.2C38,94,42,104,46.5,102.1c2.4-1,3.8-3.5,6.2-4.5
						c0.6-0.2,2.5-0.9,3.6,0.7c17.5,32.6,17.5,32.6,21.6,28.9c8-7.6,10.1-9.6,19.9-18.3c1-0.9,1.5-1.8,1.7-2.2
						c2-4.2-4.2-12.5-6-12.6c-4.6-0.3-8.7,9.2-12,4.2c-2.9-5.2-7.1-13-11.1-21c-0.7-1.4-1.4-3.4-2.4-4.7c-1.3-1.8-3.9-0.4-5,0.3
						C40.2,88.6,39.9,89.6,39.1,91.2"/>
					<path clip-path="url(#SVGID_106_)" fill="#FA7885" d="M55.4,60.8c-1.4,2.2,1.6,9.9,5.2,9.2c3.8-0.8,7.7-7.9,11-3.6
						c13.7,27.5,13.7,27.5,17.9,24.4c8.9-6.7,11.3-8.6,22-16.1c0.8-0.6,1.5-1.3,2-1.9c2.5-3.7-2.6-10.2-4.1-10.5
						c-1.7-0.3-2.8,0.4-7.1,3.1c-4,2.5-5.3,0.9-5.5,0.5c-2.2-4.3-5.3-10.3-8.6-17c-0.5-1.1-1-2.7-1.8-3.6c-1.1-1.4-3.9-0.3-5,0.3
						C57,58.5,56.2,59.7,55.4,60.8"/>
					<g clip-path="url(#SVGID_106_)">
						<g>
							<g>
								<defs>
									<rect id="SVGID_107_" x="17.7" y="37.5" width="105.9" height="132.7"/>
								</defs>
								<defs>
									<rect id="SVGID_108_" x="17.7" y="37.5" width="105.9" height="132.7"/>
								</defs>
								<defs>
									<rect id="SVGID_109_" x="17.7" y="37.5" width="105.9" height="132.7"/>
								</defs>
								<clipPath id="SVGID_110_">
									<use xlink:href="#SVGID_107_"  overflow="visible"/>
								</clipPath>
								<clipPath id="SVGID_111_" clip-path="url(#SVGID_110_)">
									<use xlink:href="#SVGID_108_"  overflow="visible"/>
								</clipPath>
								<clipPath id="SVGID_112_" clip-path="url(#SVGID_111_)">
									<use xlink:href="#SVGID_109_"  overflow="visible"/>
								</clipPath>
								<path clip-path="url(#SVGID_112_)" fill="#FA7885" d="M27.1,126.7c-0.6,2.8,4.6,15.3,9.4,12.4c2-1.3,3-3.8,5.3-4.8
									c2.4-1,3.3,0.4,3.7,0.9c22.1,36.8,22.3,36.7,25.9,32.7C90,145.8,90,145.8,90.1,145.7c1.3-4.4-5.8-14.5-8.2-14.4
									c-4.2,0.1-7.8,9.1-11.1,4.5c-7.5-12.4-10.7-18-17.3-30c-0.1-0.1-0.1-0.2-0.2-0.3c-0.6-0.8-2.3-1.6-4.9,0.4
									C27.7,124,27.6,124.7,27.1,126.7"/>
								<path clip-path="url(#SVGID_112_)" fill="#FA7885" d="M39.1,91.2C38,94,42,104,46.5,102.1c2.4-1,3.8-3.5,6.2-4.5
									c0.6-0.2,2.5-0.9,3.6,0.7c17.5,32.6,17.5,32.6,21.6,28.9c8-7.6,10.1-9.6,19.9-18.3c1-0.9,1.5-1.8,1.7-2.2
									c2-4.2-4.2-12.5-6-12.6c-4.6-0.3-8.7,9.2-12,4.2c-2.9-5.2-7.1-13-11.1-21c-0.7-1.4-1.4-3.4-2.4-4.7c-1.3-1.8-3.9-0.4-5,0.3
									C40.2,88.6,39.9,89.6,39.1,91.2"/>
								<path clip-path="url(#SVGID_112_)" fill="#FA7885" d="M55.4,60.8c-1.4,2.2,1.6,9.9,5.2,9.2c3.8-0.8,7.7-7.9,11-3.6
									c13.7,27.5,13.7,27.5,17.9,24.4c8.9-6.7,11.3-8.6,22-16.1c0.8-0.6,1.5-1.3,2-1.9c2.5-3.7-2.6-10.2-4.1-10.5
									c-1.7-0.3-2.8,0.4-7.1,3.1c-4,2.5-5.3,0.9-5.5,0.5c-2.2-4.3-5.3-10.3-8.6-17c-0.5-1.1-1-2.7-1.8-3.6c-1.1-1.4-3.9-0.3-5,0.3
									C57,58.5,56.2,59.7,55.4,60.8"/>
							</g>
						</g>
					</g>
				</g>
			</g>
		</g>
	</g>
</g>
</svg>
