<?xml version="1.0" encoding="utf-8"?>
<!-- Generator: Adobe Illustrator 16.0.0, SVG Export Plug-In . SVG Version: 6.00 Build 0)  -->
<!DOCTYPE svg PUBLIC "-//W3C//DTD SVG 1.1//EN" "http://www.w3.org/Graphics/SVG/1.1/DTD/svg11.dtd">
<svg version="1.1" id="Ebene_1" xmlns="http://www.w3.org/2000/svg" xmlns:xlink="http://www.w3.org/1999/xlink" x="0px" y="0px"
	 width="10805.056px" height="347.582px" viewBox="0 0.418 10805.056 347.582" enable-background="new 0 0.418 10805.056 347.582"
	 xml:space="preserve">
<rect x="0.5" y="8.462" fill="#A2A5BA" width="9691.216" height="339.538"/>
<rect x="1982.072" y="166.827" fill="#F2F2F2" width="311.844" height="27.162"/>
<rect x="2344.059" y="165.028" fill="#F2F2F2" width="311.83" height="27.162"/>
<rect x="2707.855" y="165.028" fill="#F2F2F2" width="311.843" height="27.162"/>
<rect x="891.072" y="166.827" fill="#F2F2F2" width="311.844" height="27.162"/>
<rect x="1253.059" y="165.028" fill="#F2F2F2" width="311.83" height="27.162"/>
<rect x="1616.855" y="165.028" fill="#F2F2F2" width="311.843" height="27.162"/>
<rect y="166.827" fill="#F2F2F2" width="113.332" height="27.162"/>
<rect x="163.475" y="165.028" fill="#F2F2F2" width="311.83" height="27.162"/>
<rect x="527.271" y="165.028" fill="#F2F2F2" width="311.843" height="27.162"/>
<rect x="3077.188" y="166.827" fill="#F2F2F2" width="311.845" height="27.162"/>
<rect x="3439.173" y="165.028" fill="#F2F2F2" width="311.83" height="27.162"/>
<rect x="3802.97" y="165.028" fill="#F2F2F2" width="311.843" height="27.162"/>
<rect x="8251.717" y="6.462" fill="#B6CEDD" width="2553.339" height="341.538"/>
<linearGradient id="SVGID_1_" gradientUnits="userSpaceOnUse" x1="7218.8652" y1="446.0732" x2="7607.2168" y2="446.0732" gradientTransform="matrix(1 0 0 1 648 -263)">
	<stop  offset="0" style="stop-color:#A2A5BA"/>
	<stop  offset="1" style="stop-color:#B6CEDD"/>
</linearGradient>
<rect x="7866.865" y="18.146" fill="url(#SVGID_1_)" width="388.352" height="329.854"/>
<rect x="0.834" y="0.418" fill="#7C7E8C" width="10804.222" height="36.164"/>
<rect x="4166.132" y="166.827" fill="#F2F2F2" width="311.844" height="27.162"/>
<rect x="4528.118" y="165.028" fill="#F2F2F2" width="311.83" height="27.162"/>
<rect x="4891.915" y="165.028" fill="#F2F2F2" width="311.843" height="27.162"/>
<rect x="5251.296" y="166.827" fill="#F2F2F2" width="311.844" height="27.162"/>
<rect x="5613.282" y="165.028" fill="#F2F2F2" width="311.83" height="27.162"/>
<rect x="5977.079" y="165.028" fill="#F2F2F2" width="311.843" height="27.162"/>
<rect x="6333.242" y="165.028" fill="#F2F2F2" width="311.843" height="27.162"/>
<rect x="6695.441" y="166.827" fill="#F2F2F2" width="311.845" height="27.162"/>
<rect x="7057.43" y="165.028" fill="#F2F2F2" width="311.83" height="27.162"/>
<rect x="7421.227" y="165.028" fill="#F2F2F2" width="311.842" height="27.162"/>
<rect x="7777.389" y="165.028" fill="#F2F2F2" width="311.844" height="27.162"/>
<rect x="8146.283" y="166.827" fill="#F2F2F2" width="311.844" height="27.162"/>
<rect x="8508.27" y="165.028" fill="#F2F2F2" width="311.83" height="27.162"/>
<rect x="8872.066" y="165.028" fill="#F2F2F2" width="311.844" height="27.162"/>
<rect x="9228.229" y="165.028" fill="#F2F2F2" width="311.842" height="27.162"/>
<rect x="9589.283" y="166.827" fill="#F2F2F2" width="311.844" height="27.162"/>
<rect x="9951.27" y="165.028" fill="#F2F2F2" width="311.83" height="27.162"/>
<rect x="10315.066" y="165.028" fill="#F2F2F2" width="311.844" height="27.162"/>
<rect x="10671.229" y="165.028" fill="#F2F2F2" width="133.827" height="27.162"/>
</svg>
