<?xml version="1.0" encoding="utf-8"?>
<!-- Generator: Adobe Illustrator 18.1.1, SVG Export Plug-In . SVG Version: 6.00 Build 0)  -->
<svg version="1.1" id="Ebene_1" xmlns="http://www.w3.org/2000/svg" xmlns:xlink="http://www.w3.org/1999/xlink" x="0px" y="0px"
	 viewBox="0 0 300 90" enable-background="new 0 0 300 90" xml:space="preserve">
<g>
	<path fill="#EDEDED" d="M288,90H12C5.4,90,0,84.6,0,78V12C0,5.4,5.4,0,12,0h276c6.6,0,12,5.4,12,12v66C300,84.6,294.6,90,288,90z"
		/>
	<g>
		<path fill="#333333" d="M46.1,31.7c1.1,0.8,2.1,2.3,2.1,2.9c0,1.1-0.7,1.8-2,1.8c-1.1,0-1.6-0.6-2-1.7c-0.2-0.7-1.3-1.3-3.4-1.3
			c-1.7,0-3.7,0.7-6.1,2.5c-3,2.2-6,5.6-6,11.3c0,5.1,2.5,7.5,5.5,7.5c2.2,0,5.5-1.1,7.3-2.9c2.7-2.5,4-5.2,4-6.7
			c-1.1,0.3-5.4,1.3-6.7,1.3c-0.7,0-1.5-0.5-1.5-1.6c0-1,0.6-1.8,1.8-1.8c3.3,0,7.7-1.4,8.8-1.4c1.2,0,1.8,0.8,1.8,1.9
			c0,3.6-4,14.6-15.9,14.6c-5.9,0-9.1-4.4-9.1-10.8c0-6.2,3.7-11,7.9-13.8c3-2.2,6.1-3.3,8.4-3.3C43.3,30.1,44.9,30.7,46.1,31.7z"/>
		<path fill="#333333" d="M57.3,53c0,0.5,0.7,1.3,1.3,1.3c1.4,0,3.9-1.7,5.5-3.7v-8.8c-0.1-0.3-0.3-0.5-0.3-0.9c0-1,0.5-1.4,1.9-1.4
			c1.3,0,2.4,0.2,2.2,2.3v13.2c0.2,0.2,0.4,0.7,0.4,1.1c0,0.9-0.9,1.5-2.6,1.5c-1.3,0-1.8-0.4-1.8-1.3c0-0.3,0.2-0.7,0.4-0.9v-0.9
			c-1.8,1.9-4.2,3.7-7,3.6c-1.7,0-3.6-1.7-3.6-3.6V42c0-0.3-0.2-0.6-0.2-1c0-1.3,1.1-1.7,2.4-1.7c0.8,0,1.9,0.4,1.9,1.6
			c0,0.4-0.1,0.7-0.3,1V53z"/>
		<path fill="#333333" d="M75.5,36.5c-0.1-0.2-0.2-0.3-0.2-1c0-1.1,1.1-1.4,2.6-1.4c0.8,0,1.8,0.2,1.8,1.3c0,0.3-0.1,0.7-0.4,1v2.5
			l5.1-0.9c0.2-0.2,0.5-0.3,0.8-0.3c1,0,1.5,0.8,1.5,1.7c0,1.3-0.5,2-1.4,2c-0.3,0-0.5,0-0.7-0.2l-5.3,0.9v11c0,0.7,0.2,1.2,0.7,1.2
			c0.8,0,4-1.8,5.6-3.9c0-0.9,0.6-1.6,1.5-1.6c1.6,0,2.1,0.8,2.1,2c0,1.6-6.9,7.2-10.6,7.2c-2,0-3.2-1.5-3.2-3.4V42.6L72.9,43
			c-0.2,0.2-0.5,0.3-0.8,0.4c-1,0-1.7-0.7-1.7-1.9c0-1,0.7-1.8,1.6-1.8c0.3,0,0.6,0.1,0.7,0.2l2.8-0.5V36.5z"/>
		<path fill="#333333" d="M107,44.2c0,1.8-1.3,3.5-10.7,5.2l-1.9,0.3c-0.2,0.7-0.3,1.4-0.3,2.2c0,2,1.1,2.8,2.9,2.8
			c2.8,0,5.1-1.6,5.9-2.7c-0.1-1,0.7-1.8,2-1.8c1.5,0,1.8,0.9,1.8,1.8c0,1.1-3.5,6-10.2,6c-3.5,0-6.1-1.5-6.1-5.7
			c0-7.5,5.3-13,10.6-13C105.6,39.2,107,42.6,107,44.2z M95.1,46.8c7.2-1.3,8.2-1.9,8.2-2.4c0-1-0.7-2-2.4-2
			C98.5,42.3,96.3,44.2,95.1,46.8z"/>
		<path fill="#333333" d="M114.6,55c0.2,0.3,0.3,0.5,0.3,1c0,1.1-1.5,1.5-2.5,1.5c-1,0-2-0.4-2-1.4c0-0.5,0.1-0.8,0.5-1.1v-6.4
			c-0.3-0.2-0.6-0.7-0.6-1.3c0-0.7,0.2-1.4,0.6-2.4v-3.3c-0.2-0.4-0.3-0.7-0.3-1.2c0-0.8,1.3-1.7,2.5-1.7c1.6,0,2,0.6,2,1.4
			c0,0.6-0.2,1-0.4,1.3v1.6c4.2-3.5,6-4.3,7.5-4.3s3,1.4,3,2.7v13.3c0.1,0.2,0.3,0.5,0.3,1.1c0,1.3-0.8,1.7-2.4,1.7
			c-1.4,0-2-0.6-2-1.5c0-0.4,0.1-0.7,0.3-1.1V43.4c0-0.3-0.6-0.8-0.9-0.8c-0.4,0-1.9,0.5-5.8,3.8V55z"/>
		<path fill="#333333" d="M142.5,48.1c-2.2,4.4-2.7,5.2-2.7,5.9c-0.1,0.6-0.1,1.3-0.1,1.8c0,0.9-0.5,1.7-2.4,1.7
			c-1.5,0-2.1-0.9-2.1-1.9c0-0.9,0.7-2.4,2.2-5.4l7.1-14c0.9-1.5,1.3-2.5,1.4-3.3c-0.1-1.5,0.9-2.8,2.4-2.8c1.4,0,2.1,0.9,2.1,1.5
			s-0.3,0.9-0.3,1.5c0,1.3,3.5,7.9,4.6,10.2c3,6.2,4.9,10.3,4.9,11.7c0,1.5-0.9,2.4-2.4,2.4c-1.3,0-2.2-0.7-2.2-1.5
			c0-0.7,0.2-1.1,0.2-1.5c0-0.6-0.4-2-2.7-7L142.5,48.1z M151.2,44.4l-3.3-7.5l-3.8,8L151.2,44.4z"/>
		<path fill="#333333" d="M166.7,44.2L166.7,44.2c2.4-3.3,4.7-4.8,8.2-4.8c2.8,0,4.8,2.1,4.8,5.4c0,8.2-6.4,12.9-10.7,12.9
			c-0.9,0-1.7-0.3-2.3-0.9v9.5c0.2,0.3,0.4,0.7,0.4,1.2c0,1.2-0.8,1.7-2.6,1.7c-0.9,0-1.9-0.2-1.9-1.5c0-0.7,0.2-1.1,0.4-1.5V42.4
			c-0.2-0.3-0.4-0.7-0.4-1.2c0-1.4,1.1-1.9,2-1.9c1.8,0,2.4,0.6,2.4,1.8c0,0.4-0.2,0.9-0.3,1.1V44.2z M166.7,53.3
			c0.5,0.9,1.2,1.3,2.1,1.3c3.1,0,7.1-4.3,7.1-9.2c0-1.5-0.6-2.7-2.1-2.7c-1.1,0-2.2,0.4-4.1,2.4c-1,1.1-2.1,2.4-3,4.1V53.3z"/>
		<path fill="#333333" d="M187,44.2L187,44.2c2.4-3.3,4.7-4.8,8.2-4.8c2.8,0,4.8,2.1,4.8,5.4c0,8.2-6.4,12.9-10.7,12.9
			c-0.9,0-1.7-0.3-2.3-0.9v9.5c0.2,0.3,0.4,0.7,0.4,1.2c0,1.2-0.8,1.7-2.6,1.7c-0.9,0-1.9-0.2-1.9-1.5c0-0.7,0.2-1.1,0.4-1.5V42.4
			c-0.2-0.3-0.4-0.7-0.4-1.2c0-1.4,1.1-1.9,2-1.9c1.8,0,2.4,0.6,2.4,1.8c0,0.4-0.2,0.9-0.3,1.1V44.2z M187,53.3
			c0.5,0.9,1.2,1.3,2.1,1.3c3.1,0,7.1-4.3,7.1-9.2c0-1.5-0.6-2.7-2.1-2.7c-1.1,0-2.2,0.4-4.1,2.4c-1,1.1-2.1,2.4-3,4.1V53.3z"/>
		<path fill="#333333" d="M218.6,44.2c0,1.8-1.3,3.5-10.7,5.2l-1.9,0.3c-0.2,0.7-0.3,1.4-0.3,2.2c0,2,1.1,2.8,2.9,2.8
			c2.8,0,5.1-1.6,5.9-2.7c-0.1-1,0.7-1.8,2-1.8c1.5,0,1.8,0.9,1.8,1.8c0,1.1-3.5,6-10.2,6c-3.5,0-6.1-1.5-6.1-5.7
			c0-7.5,5.3-13,10.6-13C217.3,39.2,218.6,42.6,218.6,44.2z M206.8,46.8c7.2-1.3,8.2-1.9,8.2-2.4c0-1-0.7-2-2.4-2
			C210.2,42.3,208,44.2,206.8,46.8z"/>
		<path fill="#333333" d="M225,36.5c-0.1-0.2-0.2-0.3-0.2-1c0-1.1,1.1-1.4,2.6-1.4c0.8,0,1.8,0.2,1.8,1.3c0,0.3-0.1,0.7-0.4,1v2.5
			l5.1-0.9c0.2-0.2,0.5-0.3,0.8-0.3c1,0,1.5,0.8,1.5,1.7c0,1.3-0.5,2-1.4,2c-0.3,0-0.5,0-0.7-0.2l-5.3,0.9v11c0,0.7,0.2,1.2,0.7,1.2
			c0.8,0,4-1.8,5.6-3.9c0-0.9,0.6-1.6,1.5-1.6c1.6,0,2.1,0.8,2.1,2c0,1.6-6.9,7.2-10.6,7.2c-2,0-3.2-1.5-3.2-3.4V42.6l-2.6,0.4
			c-0.2,0.2-0.5,0.3-0.8,0.4c-1,0-1.7-0.7-1.7-1.9c0-1,0.7-1.8,1.6-1.8c0.3,0,0.6,0.1,0.7,0.2l2.8-0.5V36.5z"/>
		<path fill="#333333" d="M241.5,42.8c-0.2-0.2-0.4-0.7-0.4-1.1c0-1.1,0.1-2.4,2.6-2.4c0.9,0,2,1.1,2,1.9c0,0.7-0.4,1.1-0.4,1.4
			v11.7c0.2,0.2,0.5,0.7,0.5,1.1c0,1.4-1.7,2-3,2c-1.1,0-1.8-0.7-1.8-1.9c0-0.7,0.3-1.2,0.5-1.4V42.8z M245.8,33.5
			c0,2.4-1.1,3.8-2.4,3.8s-1.8-0.8-1.8-2c0-2,0.9-3.7,2.4-3.7C245.1,31.6,245.8,32.3,245.8,33.5z"/>
		<path fill="#333333" d="M252.9,36.5c-0.1-0.2-0.2-0.3-0.2-1c0-1.1,1.1-1.4,2.6-1.4c0.8,0,1.8,0.2,1.8,1.3c0,0.3-0.1,0.7-0.4,1v2.5
			l5.1-0.9c0.2-0.2,0.5-0.3,0.8-0.3c1,0,1.5,0.8,1.5,1.7c0,1.3-0.5,2-1.4,2c-0.3,0-0.5,0-0.7-0.2l-5.3,0.9v11c0,0.7,0.2,1.2,0.7,1.2
			c0.8,0,4-1.8,5.6-3.9c0-0.9,0.6-1.6,1.5-1.6c1.6,0,2.1,0.8,2.1,2c0,1.6-6.9,7.2-10.6,7.2c-2,0-3.2-1.5-3.2-3.4V42.6l-2.6,0.4
			c-0.2,0.2-0.5,0.3-0.8,0.4c-1,0-1.7-0.7-1.7-1.9c0-1,0.7-1.8,1.6-1.8c0.3,0,0.6,0.1,0.7,0.2l2.8-0.5V36.5z"/>
		<path fill="#333333" d="M273.6,47.2c0.3,0.3,0.4,0.9,0.4,1.7c0,0.9-1.5,1.8-3,1.8c-1.3,0-1.8-1.2-1.8-2c0-0.6,0.3-1.1,0.5-1.5
			V33.5c-0.3-0.4-0.6-0.9-0.6-1.5c0-1.3,0.6-2,3.1-2c1.3,0,1.8,0.4,1.8,1.8c0,0.8-0.3,1.3-0.5,1.5V47.2z M269.4,55.9
			c0-1.5,1.3-3.1,2.7-3.1c1.1,0,1.7,0.6,1.7,2.4c0,1.7-0.5,2.7-2.7,2.7C270.1,57.9,269.4,56.9,269.4,55.9z"/>
	</g>
</g>
</svg>
