<?xml version="1.0" encoding="utf-8"?>
<!-- Generator: Adobe Illustrator 18.1.1, SVG Export Plug-In . SVG Version: 6.00 Build 0)  -->
<svg version="1.1" id="Ebene_1" xmlns="http://www.w3.org/2000/svg" xmlns:xlink="http://www.w3.org/1999/xlink" x="0px" y="0px"
	 viewBox="594 603.3 252 252" enable-background="new 594 603.3 252 252" xml:space="preserve">
<g>
	<ellipse opacity="0.9" fill="#EDEDED" enable-background="new    " cx="720" cy="729.3" rx="126" ry="126"/>
	<g>
		<polygon fill="#FFEBC6" points="662.9,704.7 699.9,670.8 726.7,668.7 745.6,671.8 774.4,697 767.7,714 672.1,718.1 		"/>
		<path fill="#FAC761" d="M656,727.2h127.8c1.6,0,3-1.4,4-2.6s1.3-3.1,1-4.7c-6.8-31.8-35.1-55.8-68.9-55.8
			c-33.9,0-62.1,23.8-68.9,55.7c-0.3,1.5,0.1,3.7,1,4.9C653,725.9,654.4,727.2,656,727.2L656,727.2z M761.5,689.3c2.8,0,5,2.2,5,5
			c0,2.8-2.2,5-5,5s-5-2.2-5-5S758.7,689.3,761.5,689.3L761.5,689.3z M733.7,701.7c0,2.8-2.2,5-5,5s-5-2.2-5-5s2.2-5,5-5
			C731.4,696.7,733.7,698.9,733.7,701.7L733.7,701.7z M730.1,671.1c2.8,0,5,2.2,5,5s-2.2,5-5,5s-5-2.2-5-5S727.4,671.1,730.1,671.1
			L730.1,671.1z M695.8,678.4c2.8,0,5,2.2,5,5s-2.2,5-5,5s-5-2.2-5-5S693,678.4,695.8,678.4L695.8,678.4z M681.2,700.3
			c2.8,0,5,2.2,5,5s-2.2,5-5,5s-5-2.2-5-5C676.2,702.6,678.4,700.3,681.2,700.3L681.2,700.3z"/>
		<path fill="#FAC761" d="M784.7,760.9H655.3c-1.5,0-2.9,0.7-3.9,1.9c-1,1.1-1.4,2.7-1.2,4.2c5,30.8,34.4,27.3,69.7,27.3
			c35.5,0,64.7,3.5,69.7-27.3c0.3-1.5-0.2-3.1-1.1-4.2C787.6,761.7,786.2,760.9,784.7,760.9L784.7,760.9z"/>
		<path fill="#F4B649" d="M656,727.2h63.9v-63.1c-33.9,0-62.1,23.8-68.9,55.7c-0.3,1.5,0.1,3.7,1,4.9
			C653,725.9,654.4,727.2,656,727.2L656,727.2z M695.8,678.4c2.8,0,5,2.2,5,5s-2.2,5-5,5s-5-2.2-5-5S693,678.4,695.8,678.4
			L695.8,678.4z M681.2,700.3c2.8,0,5,2.2,5,5s-2.2,5-5,5s-5-2.2-5-5C676.2,702.6,678.4,700.3,681.2,700.3L681.2,700.3z"/>
		<path fill="#F4B649" d="M720.2,760.9h-64.9c-1.5,0-2.9,0.7-3.9,1.9c-1,1.1-1.4,2.7-1.2,4.2c5,30.8,34.4,27.3,69.7,27.3
			L720.2,760.9z"/>
		<path fill="#BC8C5D" d="M645.8,754.6h148.2c5.4,0,9.8-4.3,9.8-9.7v-2.2c0-5.4-4.4-9.8-9.8-9.8H645.8c-5.4,0-9.8,4.4-9.8,9.8v2.2
			C636,750.3,640.4,754.6,645.8,754.6L645.8,754.6z"/>
		<path fill="#B48051" d="M804,743.7v-1.1c0-5.4-4.4-9.8-9.8-9.8H645.9c-5.4,0-9.8,4.4-9.8,9.8v1.1H804z"/>
	</g>
</g>
</svg>
