<?xml version="1.0" encoding="utf-8"?>
<!-- Generator: Adobe Illustrator 18.1.1, SVG Export Plug-In . SVG Version: 6.00 Build 0)  -->
<svg version="1.1" id="Ebene_1" xmlns="http://www.w3.org/2000/svg" xmlns:xlink="http://www.w3.org/1999/xlink" x="0px" y="0px"
	 viewBox="0 0 1440 900" enable-background="new 0 0 1440 900" xml:space="preserve">
<rect width="1440" height="902.8"/>
<g>
	<path fill="#FFFFFF" d="M715.8,241.1c-92.9,0-168.5,75.6-168.5,168.5c0,92.9,75.6,168.5,168.5,168.5c92.9,0,168.5-75.6,168.5-168.5
		C884.3,316.7,808.7,241.1,715.8,241.1 M715.8,583.6c-95.9,0-174-78-174-174s78.1-174,174-174c95.9,0,174,78,174,174
		S811.7,583.6,715.8,583.6"/>
	<circle cx="886.7" cy="409.6" r="41.8"/>
	<path fill="#FFFFFF" d="M760.5,238.4c0,24.7-20,44.7-44.7,44.7s-44.7-20-44.7-44.7c0-24.7,20-44.7,44.7-44.7
		S760.5,213.7,760.5,238.4"/>
	<path fill="#FFFFFF" d="M887,372c-20.8,0-37.8,17-37.8,37.8c0,20.8,17,37.8,37.8,37.8c20.9,0,37.8-17,37.8-37.8
		C924.8,388.9,907.8,372,887,372 M887,455.8c-25.3,0-46-20.6-46-46c0-25.4,20.6-46,46-46c25.4,0,46,20.6,46,46
		C933,435.1,912.4,455.8,887,455.8"/>
	<g>
		<path fill="#FFFFFF" d="M466.9,706.2v-39h1.1v39H466.9z"/>
		<path fill="#FFFFFF" d="M477.1,706.2v-39h1l20.1,37.4l20.1-37.4h1v39h-1.1v-36.6l-19.7,36.6h-0.8l-19.7-36.6v36.6H477.1z"/>
	</g>
	<g>
		<path fill="#FFFFFF" d="M540.2,706.2V667h4.6l22.3,28v-28h6v39.2h-4.6l-22.3-28v28H540.2z"/>
		<path fill="#FFFFFF" d="M580.3,706.2V667h29.2v5.9h-23.2v10.8h23v5.9h-23v10.8h23.2v5.9H580.3z"/>
		<path fill="#FFFFFF" d="M611.8,672.9V667h33.1v5.9h-13.6v33.3h-6v-33.3H611.8z"/>
		<path fill="#FFFFFF" d="M640.6,706.2l21.2-33.3H643V667h29.7l-21.2,33.4h19.3v5.9H640.6z"/>
	</g>
	<g>
		<path fill="#FFFFFF" d="M692.3,706.2v-39h11.1c6.1,0,10.8,1.8,14.2,5.3c3.3,3.5,4.9,8.3,4.9,14.4c0,6.1-1.7,10.8-5,14.2
			c-3.3,3.4-8,5-14.1,5H692.3z M693.4,705.2h10.1c5.8,0,10.2-1.6,13.3-4.7c3.1-3.1,4.6-7.6,4.6-13.4c0-5.8-1.5-10.4-4.6-13.6
			c-3.1-3.3-7.6-5-13.4-5h-10V705.2z"/>
		<path fill="#FFFFFF" d="M730.8,706.2v-39H756v1.1h-24.1v17.9h23.9v1.1h-23.9v17.9H756v1.1H730.8z"/>
		<path fill="#FFFFFF" d="M763.8,706.2v-39H778c3.5,0,6.3,1,8.3,3.1c1.9,2,2.9,4.8,2.9,8.4c0,3.6-1,6.4-2.9,8.4
			c-2,2.1-4.7,3.1-8.3,3.1h-2.3l2.7,3l11.6,12.9h-1.5L777,693.3l-2.7-3h-9.4v15.9H763.8z M764.9,689.2H778c3.3,0,5.8-0.9,7.5-2.8
			c1.7-1.8,2.6-4.4,2.6-7.6c0-3.3-0.9-5.8-2.6-7.7c-1.7-1.9-4.2-2.8-7.5-2.8h-13.2V689.2z"/>
	</g>
	<g>
		<path fill="#FFFFFF" d="M808.3,706.2V667h13.1c6.5,0,11.6,1.8,15.3,5.4c3.7,3.5,5.5,8.4,5.5,14.5c0,6.1-1.9,10.9-5.6,14.3
			c-3.7,3.4-8.8,5.1-15.3,5.1H808.3z M814.2,700.3h7.2c4.9,0,8.6-1.2,11.1-3.5c2.4-2.3,3.7-5.6,3.7-10c0-4.4-1.2-7.9-3.7-10.2
			c-2.5-2.5-6.2-3.7-11.1-3.7h-7.1V700.3z"/>
		<path fill="#FFFFFF" d="M848.5,706.2V667h6v39.2H848.5z"/>
		<path fill="#FFFFFF" d="M861.4,706.2V667h4.6l22.3,28v-28h6v39.2h-4.6l-22.3-28v28H861.4z"/>
		<path fill="#FFFFFF" d="M900.4,686.5c0-6.1,1.8-10.9,5.4-14.5c3.7-3.6,8.7-5.3,15.2-5.3h0.2c2.7,0,5.3,0.5,7.8,1.4
			c2.8,1.1,5.6,3.3,8.3,6.7l-5,3.3c-1.9-2.4-3.7-3.9-5.5-4.6c-1.7-0.6-3.6-1-5.6-1h-0.1c-4.9,0-8.6,1.2-11.1,3.7
			c-2.5,2.4-3.7,5.8-3.7,10.2s1.2,7.8,3.7,10.2c2.6,2.5,6.3,3.7,11.2,3.7c4.6,0,8.1-0.8,10.4-2.2v-12.5h6v15.6l-1.3,0.9
			c-4.1,2.7-9.2,4.1-15.1,4.1h-0.1c-6.5,0-11.6-1.8-15.3-5.4C902.2,697.5,900.4,692.6,900.4,686.5z"/>
		<path fill="#FFFFFF" d="M944,706.2V667h29.2v5.9H950v10.8h23v5.9h-23v10.8h23.2v5.9H944z"/>
	</g>
	<g>
		<path fill="#FFFFFF" d="M467.4,656.8v-18.2h0.5v18.2H467.4z"/>
		<path fill="#FFFFFF" d="M487.4,656.8v-18.2h0.5l12.6,17.3v-17.3h0.5v18.2h-0.5l-12.6-17.3v17.3H487.4z"/>
		<path fill="#FFFFFF" d="M519,639.1v-0.5h13.7v0.5h-6.6v17.7h-0.5v-17.7H519z"/>
		<path fill="#FFFFFF" d="M549,656.8v-18.2h11.8v0.5h-11.3v8.3h11.2v0.5h-11.2v8.3h11.3v0.5H549z"/>
		<path fill="#FFFFFF" d="M579.5,656.8v-18.2h6.6c1.7,0,2.9,0.5,3.9,1.5c0.9,0.9,1.3,2.3,1.3,3.9c0,1.7-0.4,3-1.3,3.9
			c-0.9,1-2.2,1.5-3.9,1.5h-1.1l1.3,1.4l5.4,6h-0.7l-5.4-6l-1.3-1.4H580v7.4H579.5z M580,648.8h6.1c1.5,0,2.7-0.4,3.5-1.3
			c0.8-0.8,1.2-2,1.2-3.6c0-1.5-0.4-2.7-1.2-3.6c-0.8-0.9-2-1.3-3.5-1.3H580V648.8z"/>
		<path fill="#FFFFFF" d="M610.1,656.8v-18.2h0.5l12.6,17.3v-17.3h0.5v18.2h-0.5l-12.6-17.3v17.3H610.1z"/>
		<path fill="#FFFFFF" d="M643.2,656.8v-18.2H655v0.5h-11.3v8.3h11.2v0.5h-11.2v8.3H655v0.5H643.2z"/>
		<path fill="#FFFFFF" d="M672.3,639.1v-0.5H686v0.5h-6.6v17.7h-0.5v-17.7H672.3z"/>
		<path fill="#FFFFFF" d="M723.3,647.6c0-2.9,0.8-5.1,2.3-6.7c1.6-1.6,3.7-2.5,6.6-2.5h0c2.8,0,5,0.8,6.6,2.5
			c1.5,1.6,2.3,3.9,2.3,6.7c0,2.9-0.8,5.1-2.3,6.7c-1.6,1.7-3.8,2.5-6.6,2.5h0c-2.8,0-5-0.8-6.6-2.5
			C724.1,652.7,723.3,650.5,723.3,647.6z M723.8,647.6c0,2.7,0.7,4.8,2.2,6.4c1.5,1.6,3.6,2.3,6.3,2.3c2.7,0,4.8-0.8,6.3-2.3
			c1.4-1.5,2.2-3.6,2.2-6.4c0-2.7-0.7-4.8-2.2-6.4c-1.5-1.6-3.6-2.3-6.3-2.3c-2.7,0-4.8,0.8-6.3,2.3
			C724.5,642.8,723.8,644.9,723.8,647.6z"/>
		<path fill="#FFFFFF" d="M760.5,656.8v-18.2h11.8v0.5H761v8.3h11.2v0.5H761v8.8H760.5z"/>
		<path fill="#FFFFFF" d="M810.9,639.1v-0.5h13.7v0.5H818v17.7h-0.5v-17.7H810.9z"/>
		<path fill="#FFFFFF" d="M840.9,656.8v-18.2h0.5v8.8H854v-8.8h0.5v18.2H854v-8.9h-12.6v8.9H840.9z"/>
		<path fill="#FFFFFF" d="M874,656.8v-18.2h0.5v18.2H874z"/>
		<path fill="#FFFFFF" d="M893.9,656.8v-18.2h0.5l12.6,17.3v-17.3h0.5v18.2h-0.5l-12.6-17.3v17.3H893.9z"/>
		<path fill="#FFFFFF" d="M926.5,647.6c0-2.9,0.8-5.1,2.3-6.7c1.6-1.6,3.7-2.5,6.5-2.5h0.1c1.2,0,2.3,0.2,3.3,0.7
			c1.2,0.5,2.1,1.2,2.7,2l-0.4,0.3c-0.6-0.8-1.4-1.4-2.5-1.9c-1-0.4-2-0.6-3.1-0.6h0c-2.7,0-4.8,0.8-6.2,2.3
			c-1.4,1.5-2.2,3.7-2.2,6.4c0,2.7,0.7,4.8,2.2,6.4c1.5,1.6,3.6,2.3,6.3,2.3c2.5,0,4.6-0.6,6.3-1.8v-6h0.5v6.3l-0.1,0.1
			c-1.8,1.3-4,1.9-6.7,1.9h0c-2.8,0-5-0.8-6.6-2.5C927.3,652.7,926.5,650.5,926.5,647.6z"/>
		<path fill="#FFFFFF" d="M960.5,654.1l0.4-0.3c0.6,0.8,1.4,1.4,2.5,1.9c1,0.4,2,0.6,3.1,0.6h0c3.8,0,5.7-1.4,5.7-4.2
			c0-1.3-0.6-2.3-1.8-3c-0.7-0.4-2-0.8-3.9-1.2c-1.9-0.4-3.2-0.9-3.9-1.3c-1.2-0.8-1.8-1.9-1.8-3.3c0-1.6,0.6-2.8,1.8-3.6
			c1.1-0.7,2.4-1.1,4.1-1.1c1.4,0,2.7,0.3,3.7,0.9c1.2,0.7,2,1.6,2.2,2.9l-0.5,0.1c-0.2-1.2-0.9-2-2-2.6c-1-0.5-2.1-0.7-3.4-0.7
			c-1.5,0-2.8,0.3-3.7,0.9c-1.1,0.7-1.7,1.8-1.7,3.3c0,1.4,0.6,2.4,1.8,3c0.7,0.4,2,0.8,3.9,1.3c1.9,0.4,3.2,0.9,3.9,1.3
			c1.2,0.7,1.8,1.8,1.8,3.3c0,3.1-2.1,4.7-6.3,4.7c-1.2,0-2.3-0.2-3.3-0.7C962,655.7,961.1,655,960.5,654.1z"/>
	</g>
</g>
</svg>
