<?xml version="1.0" encoding="utf-8"?>
<!-- Generator: Adobe Illustrator 18.1.1, SVG Export Plug-In . SVG Version: 6.00 Build 0)  -->
<svg version="1.1" id="Ebene_1" xmlns="http://www.w3.org/2000/svg" xmlns:xlink="http://www.w3.org/1999/xlink" x="0px" y="0px"
	 viewBox="0 0 343.6 289.2" enable-background="new 0 0 343.6 289.2" xml:space="preserve">
<g>
	<polyline fill="#009245" points="199.6,289.2 239.5,212.3 210.3,212.3 256,146.3 235.9,146.3 272.4,52.6 318.1,146.3 294.3,146.3 
		327.2,205.3 301.6,205.3 343.1,288.6 	"/>
	<polyline fill="#0A6031" points="272.4,52.9 318.1,146.3 294.3,146.3 327.2,205.3 301.6,205.3 343.6,289.2 271.8,289.2 	"/>
	<g>
		<polyline fill="#009245" points="119.3,288.9 134.3,240.4 125.4,240.6 145.9,201.1 140.2,200.9 161.3,142 187.6,200.3 
			173.9,200.3 192.9,233.3 178.2,233.3 202.1,287 		"/>
		<polyline fill="#0A6031" points="161.3,142 187.6,200.9 178.7,200.7 192.9,236.2 186,236 202.5,288.7 160.9,288.7 		"/>
	</g>
	<g>
		<polygon fill="#009245" points="0,289.2 23,205.3 8.3,205.3 41,120.3 27.9,120.3 86.8,0 142.4,127.3 129.3,127.3 154.9,207.3 
			140.8,207.3 165.5,288.5 		"/>
		<polyline fill="#8CC63F" points="86.8,0.5 142.4,127.3 129.3,127.3 154.9,207.3 140.8,207.3 165.5,288.5 82.4,288.6 		"/>
	</g>
</g>
</svg>
