<?xml version="1.0" encoding="utf-8"?>
<!-- Generator: Adobe Illustrator 18.1.1, SVG Export Plug-In . SVG Version: 6.00 Build 0)  -->
<svg version="1.1" id="Ebene_1" xmlns="http://www.w3.org/2000/svg" xmlns:xlink="http://www.w3.org/1999/xlink" x="0px" y="0px"
	 viewBox="0 0 110.7 94.5" enable-background="new 0 0 110.7 94.5" xml:space="preserve">
<g>
	<g>
		<path fill="#2D4124" d="M67.8,35.5c-2.7,3-1.9,3.9,1.5,1.8c8-5,15.8-10.6,23.2-16.6c3-2.6,3.9-5.3,2.8-6.6c0,0-0.1-0.1-0.1-0.1
			c-1.1-1.3-3.9-0.9-7,1.6C81,21.7,74.1,28.4,67.8,35.5z"/>
		<path fill="#2D4124" d="M99.6,20.6c-1.8,1.5-2,4.1-0.5,5.8c1.5,1.7,4.1,2,5.8,0.5c1.7-1.5,2-4.1,0.5-5.8
			C104,19.4,101.3,19.1,99.6,20.6z"/>
		<path fill="#2D4124" d="M103.9,9.2c-1.7,1.5-2,4.1-0.5,5.8c1.5,1.7,4.1,2,5.8,0.5c1.7-1.5,2-4.1,0.5-5.8
			C108.3,8,105.7,7.8,103.9,9.2z"/>
		<circle fill="#2D4124" cx="96.7" cy="5.3" r="4.1"/>
		<path fill="#2D4124" d="M94.5,5.6c-2.4,2-2.7,5.7-0.7,8.1c2,2.4,5.7,2.7,8.1,0.7c2.4-2.1,2.7-5.7,0.7-8.1
			C100.6,3.9,96.9,3.5,94.5,5.6z"/>
		<path fill="#2D4124" d="M91.2,16.9c-2.9,2.5-3.3,6.9-0.8,9.8c2.5,2.9,6.8,3.3,9.8,0.8c2.9-2.5,3.3-6.9,0.8-9.8
			C98.5,14.8,94.1,14.4,91.2,16.9z"/>
		<path fill="#2D4124" d="M96.6,10.6c-2.9,2.5-3.3,6.9-0.8,9.8c2.5,2.9,6.9,3.3,9.8,0.8c2.9-2.5,3.3-6.8,0.8-9.8
			C103.9,8.5,99.5,8.1,96.6,10.6z"/>
		<path fill="#2D4124" d="M86.7,8.1c-2.9,2.5-3.3,6.9-0.8,9.8c2.5,2.9,6.9,3.3,9.8,0.8c2.9-2.5,3.3-6.8,0.8-9.8
			C94,6,89.7,5.6,86.7,8.1z"/>
	</g>
	<g>
		<path fill="#405933" d="M64.4,45.8c-3.2,2.4-2.7,3.4,1.1,2c8.9-3.2,17.7-7.1,26.1-11.4c3.5-1.9,4.9-4.4,4.1-5.9
			c0-0.1-0.1-0.1-0.1-0.2c-0.8-1.5-3.6-1.7-7.2,0.1C80.2,35,72.1,40.2,64.4,45.8z"/>
		<path fill="#405933" d="M99.7,36.9c-2,1.1-2.8,3.6-1.7,5.6c1.1,2,3.6,2.8,5.6,1.7c2-1.1,2.8-3.6,1.7-5.6
			C104.2,36.6,101.7,35.8,99.7,36.9z"/>
		<path fill="#405933" d="M103.4,24.6c-2,1.1-2.8,3.6-1.7,5.6c1.1,2,3.6,2.8,5.6,1.7c2-1.1,2.8-3.6,1.7-5.6
			C107.9,24.2,105.4,23.5,103.4,24.6z"/>
		<path fill="#405933" d="M97,18.6c-2,1.1-2.8,3.6-1.7,5.6c1.1,2,3.6,2.8,5.6,1.7c2-1.1,2.8-3.6,1.7-5.6C101.5,18.3,99,17.5,97,18.6
			z"/>
		<path fill="#405933" d="M96.7,22.1c-2.8,1.5-3.9,5-2.4,7.8c1.5,2.8,5,3.9,7.8,2.4c2.8-1.5,3.9-5,2.4-7.8
			C103,21.7,99.5,20.6,96.7,22.1z"/>
		<path fill="#405933" d="M91.2,32.4c-3.4,1.8-4.7,6-2.9,9.4c1.8,3.4,6,4.7,9.4,2.9c3.4-1.8,4.7-6,2.9-9.4
			C98.8,31.9,94.5,30.6,91.2,32.4z"/>
		<path fill="#405933" d="M97.7,27.4c-3.4,1.8-4.7,6-2.9,9.4c1.8,3.4,6,4.7,9.4,2.9c3.4-1.8,4.7-6,2.9-9.4
			C105.3,26.9,101.1,25.6,97.7,27.4z"/>
		<circle fill="#405933" cx="91.9" cy="29" r="6.9"/>
	</g>
	<g>
		<path fill="#405933" d="M57.8,41.6c-2.9,2.8-3.8,2.1-1.8-1.4c4.7-8.2,10-16.2,15.7-23.8c2.5-3.1,5.2-4.1,6.5-3.1
			c0.1,0,0.1,0.1,0.2,0.1c1.4,1,1.1,3.9-1.4,7C71.1,27.9,64.6,35,57.8,41.6z"/>
		<path fill="#405933" d="M72.5,8.3c-1.4,1.8-4,2.1-5.8,0.7c-1.8-1.4-2.1-4-0.7-5.8c1.4-1.8,4-2.1,5.8-0.7
			C73.6,3.9,73.9,6.5,72.5,8.3z"/>
		<path fill="#405933" d="M85.3,6.8c-1.4,1.8-4,2.1-5.8,0.7c-1.8-1.4-2.1-4-0.7-5.8c1.4-1.8,4-2.1,5.8-0.7C86.4,2.4,86.7,5,85.3,6.8
			z"/>
		<path fill="#405933" d="M90.1,14.1c-1.4,1.8-4,2.1-5.8,0.7c-1.8-1.4-2.1-4-0.7-5.8c1.4-1.8,4-2.1,5.8-0.7
			C91.2,9.7,91.5,12.3,90.1,14.1z"/>
		<path fill="#405933" d="M86.6,13.8c-2,2.5-5.6,3-8.1,1c-2.5-2-3-5.6-1-8.1c2-2.5,5.6-3,8.1-1C88.1,7.6,88.6,11.3,86.6,13.8z"/>
		<path fill="#405933" d="M75.5,17.5c-2.4,3-6.7,3.6-9.7,1.2c-3-2.4-3.6-6.7-1.2-9.7c2.4-3,6.7-3.6,9.7-1.2
			C77.3,10.1,77.8,14.5,75.5,17.5z"/>
		<path fill="#405933" d="M81.5,11.9c-2.4,3-6.7,3.6-9.7,1.2c-3-2.4-3.6-6.7-1.2-9.7c2.4-3,6.7-3.6,9.7-1.2
			C83.3,4.5,83.9,8.9,81.5,11.9z"/>
		<path fill="#405933" d="M84.4,21.6c-2.4,3-6.7,3.6-9.7,1.2c-3-2.4-3.6-6.7-1.2-9.7c2.4-3,6.7-3.6,9.7-1.2
			C86.2,14.2,86.8,18.6,84.4,21.6z"/>
	</g>
	<path fill="#FBAB18" d="M4,87c-6.3,7.5-4.5,9.6,4,4.7L68.1,57c8.4-4.9,10.2-15,3.9-22.4l-0.7-0.8c-6.3-7.5-16.5-7.4-22.8,0L4,87z"
		/>
	<path fill="#E39910" d="M71.3,33.7l0.4,0.4L0.5,94c-0.8-0.8,0.3-3.2,3.5-7l44.5-53.3C54.8,26.3,65,26.3,71.3,33.7z"/>
	<g>
		<defs>
			<path id="SVGID_1_" d="M4,87c-6.3,7.5-4.5,9.6,4,4.7L68.1,57c8.4-4.9,10.2-15,3.9-22.4l-0.7-0.8c-6.3-7.5-16.5-7.4-22.8,0L4,87z"
				/>
		</defs>
		<clipPath id="SVGID_2_">
			<use xlink:href="#SVGID_1_"  overflow="visible"/>
		</clipPath>
		<path clip-path="url(#SVGID_2_)" fill="#FBAB18" d="M49.2,36.1c6.6,7,7.2,6.5,1.4-1.2l-1.4-1.8c-0.2,0.2-0.4,0.4-0.6,0.7l-0.7,0.8
			L49.2,36.1z"/>
		<path clip-path="url(#SVGID_2_)" fill="#FBAB18" d="M28.2,57.5c6.6,7,7.2,6.5,1.4-1.2L-11.7,1.8C-17.5-5.9-24-10.6-26.2-8.8
			l-0.2,0.2c-2.2,1.8,1.4,9.1,8,16.1L28.2,57.5z"/>
		<path clip-path="url(#SVGID_2_)" fill="#FBAB18" d="M16.5,68.9c6.6,7,7.2,6.5,1.4-1.2l-41.3-54.6C-29.2,5.5-35.7,0.7-37.9,2.6
			l-0.2,0.2c-2.2,1.8,1.4,9.1,8,16.1L16.5,68.9z"/>
		<path clip-path="url(#SVGID_2_)" fill="#E39910" d="M51.4,58.5c-5.8-7.7-5.2-8.2,1.4-1.2l46.7,50c6.6,7,10.1,14.3,8,16.1l-0.2,0.2
			c-2.2,1.8-8.7-2.9-14.5-10.6L51.4,58.5z"/>
		<path clip-path="url(#SVGID_2_)" fill="#E39910" d="M44.4,69.4c-5.8-7.7-5.2-8.2,1.4-1.2l46.7,50c6.6,7,10.2,14.3,8,16.1l-0.2,0.2
			c-2.2,1.8-8.7-2.9-14.5-10.6L44.4,69.4z"/>
		<path clip-path="url(#SVGID_2_)" fill="#E39910" d="M14.6,91c-5.8-7.7-5.2-8.2,1.4-1.2l46.7,50c6.6,7,10.1,14.3,8,16.1l-0.2,0.2
			c-2.2,1.8-8.7-2.9-14.5-10.6L14.6,91z"/>
		<g clip-path="url(#SVGID_2_)">
			<path fill="#E39910" d="M51.7,45.4c-0.5-0.8-0.4-0.9,0.3-0.3l4.8,4.5c0.7,0.6,0.8,1.5,0.3,1.9l-0.1,0c-0.5,0.4-1.3,0.1-1.8-0.6
				L51.7,45.4z"/>
			<path fill="#E39910" d="M60.7,56.1c0.7,0.6,0.8,0.5,0.3-0.3l-3.6-5.5c-0.5-0.8-1.3-1.1-1.8-0.6l-0.1,0c-0.5,0.4-0.4,1.3,0.3,1.9
				L60.7,56.1z"/>
		</g>
		<g clip-path="url(#SVGID_2_)">
			<path fill="#E39910" d="M35.9,48.7c-0.5-0.8-0.4-0.9,0.3-0.3l4.8,4.5c0.7,0.6,0.8,1.5,0.3,1.9l-0.1,0c-0.5,0.4-1.3,0.1-1.8-0.6
				L35.9,48.7z"/>
			<path fill="#E39910" d="M44.9,59.3c0.7,0.6,0.8,0.5,0.3-0.3l-3.6-5.5c-0.5-0.8-1.3-1.1-1.8-0.6l-0.1,0c-0.5,0.4-0.4,1.3,0.3,1.9
				L44.9,59.3z"/>
		</g>
		<path clip-path="url(#SVGID_2_)" fill="#FBAB18" d="M35.9,48.6c-0.4-0.7-0.3-0.8,0.3-0.3l4.3,3.9c0.6,0.5,0.7,1.3,0.2,1.8l-0.1,0
			c-0.5,0.4-1.3,0.2-1.7-0.5L35.9,48.6z"/>
		<path clip-path="url(#SVGID_2_)" fill="#FBAB18" d="M43.7,58c0.6,0.5,0.8,0.4,0.3-0.3L41,52.8c-0.4-0.7-1.2-0.9-1.7-0.5l-0.1,0
			c-0.5,0.4-0.4,1.2,0.2,1.8L43.7,58z"/>
		<g clip-path="url(#SVGID_2_)">
			<path fill="#E39910" d="M27.5,71.2c-0.5-0.8-0.4-0.9,0.3-0.3l4.8,4.5c0.7,0.6,0.8,1.5,0.3,1.9l-0.1,0c-0.5,0.4-1.3,0.1-1.8-0.6
				L27.5,71.2z"/>
			<path fill="#E39910" d="M36.4,81.9c0.7,0.6,0.8,0.5,0.3-0.3l-3.6-5.5c-0.5-0.8-1.3-1.1-1.8-0.6l-0.1,0c-0.5,0.4-0.4,1.3,0.3,1.9
				L36.4,81.9z"/>
		</g>
		<g clip-path="url(#SVGID_2_)">
			<path fill="#E39910" d="M16.4,76.4c-0.5-0.8-0.4-0.9,0.3-0.3l4.8,4.5c0.7,0.6,0.8,1.5,0.3,1.9l-0.1,0C21.3,83,20.5,82.8,20,82
				L16.4,76.4z"/>
			<path fill="#E39910" d="M25.3,87.1c0.7,0.6,0.8,0.5,0.3-0.3l-3.6-5.5c-0.5-0.8-1.3-1.1-1.8-0.6l-0.1,0c-0.5,0.4-0.4,1.3,0.3,1.9
				L25.3,87.1z"/>
		</g>
		<path clip-path="url(#SVGID_2_)" fill="#FBAB18" d="M52.1,45.2l3.2,3l-1.2,1l-2.4-3.7C51.2,44.7,51.4,44.5,52.1,45.2z"/>
	</g>
</g>
</svg>
