<?xml version="1.0" encoding="utf-8"?>
<!-- Generator: Adobe Illustrator 18.1.1, SVG Export Plug-In . SVG Version: 6.00 Build 0)  -->
<svg version="1.1" id="Ebene_1" xmlns="http://www.w3.org/2000/svg" xmlns:xlink="http://www.w3.org/1999/xlink" x="0px" y="0px"
	 viewBox="0 0 48 79.9" enable-background="new 0 0 48 79.9" xml:space="preserve">
<g>
	<path fill="#71841F" d="M25.6,28.9c0.5,2.1,0.6,2,0.4-0.1c-0.4-5,0.5-10.4,2.8-14.7c0.9-1.8,1.1-3.1,0.4-3.3c0,0-0.1,0-0.1,0
		c-0.7-0.3-2,0.7-2.7,2.8C24.7,18.4,24.6,24,25.6,28.9z"/>
	<path fill="#FFCB09" d="M19.4,25.7c3.9-1.9,2.6-4.3,5.9-4.2c0.3,0,0.5,0,0.7,0v58.3c-0.2,0-0.5,0.1-0.8,0c-4.2-0.3-4.6-5.2-6.6-5.9
		c-8.9-3.2-15.3-12.9-15-24.3C3.8,37,9.1,30.7,19.4,25.7z"/>
	<path fill="#FBAB18" d="M32.2,25.7c-3.9-1.9-2.6-4.3-5.9-4.2c-0.3,0-0.5,0-0.7,0v58.3c0.2,0,0.5,0.1,0.8,0c4.2-0.3,4.6-5.2,6.6-5.9
		c8.9-3.2,15.2-12.9,15-24.3C47.7,37,42.4,30.7,32.2,25.7z"/>
	<path fill="#71841F" d="M45.1,13c-3.8,6.5-11.2,8.7-18.6,6.2c-0.1,0,0.9-2.7,1.5-3.5c3.3-4.6,8.8-7.2,14.3-4.6
		C43.3,11.6,44.2,12.2,45.1,13z"/>
	<g>
		<path fill="#71841F" d="M2.3,0.6C1.5,0.8,0.8,1.1,0,1.5C0.2,2.7,0.4,3.8,0.7,5c3.1,10.7,13,17.3,22.1,14.7
			c0.8-0.2,1.6-0.6,2.3-0.9c-0.2-1.2-0.4-2.3-0.7-3.5C21.4,4.5,11.5-2,2.3,0.6z"/>
		<path fill="#879C29" d="M22.8,19.7c0.8-0.2,1.6-0.6,2.3-0.9C17.5,11.6,7.1,4.4,0,1.5c0,0,0,0,0,0C0.2,2.7,0.4,3.8,0.7,5
			C3.8,15.7,13.7,22.3,22.8,19.7z"/>
	</g>
	<path fill="#879C29" d="M26.5,19.2c7.4,2.5,14.8,0.3,18.5-6.2c0,0,0,0,0,0C36.7,11.4,30.2,13.9,26.5,19.2z"/>
</g>
</svg>
