<?xml version="1.0" encoding="utf-8"?>
<!-- Generator: Adobe Illustrator 18.1.1, SVG Export Plug-In . SVG Version: 6.00 Build 0)  -->
<svg version="1.1" id="Ebene_1" xmlns="http://www.w3.org/2000/svg" xmlns:xlink="http://www.w3.org/1999/xlink" x="0px" y="0px"
	 viewBox="0 0 64.5 96.6" enable-background="new 0 0 64.5 96.6" xml:space="preserve">
<g>
	<path fill="#48172D" d="M11.6,25C23.1,7.7,35.3,1.4,44.6,0.1c6.6-0.9,17.3,3.5,19,10.1c4.7,18.3-8.3,17.9-27.8,35.6
		C15.8,64.3,21.1,89,11.9,91.5C4.5,93.6-10.5,61.4,11.6,25z"/>
	<path fill="#6B3A55" d="M12,91.5c9.1-2.6,3.9-27.2,23.8-45.7c19.6-17.7,32.5-17.2,27.8-35.6c-0.4-1.6-1.4-3.1-2.6-4.4
		c-0.7,0-1.5,0.1-2.1,0.2C49.2,7.8,30.3,21,17.7,39.8C3.5,63.2,6.5,80.7,12,91.5z"/>
	<path fill="#71841F" d="M13.6,91.8c0.8-1.3,1.3-2.8,1.3-4.5c0-2.8-1.3-5.2-3.2-6.5c-1.9,1.3-3.2,3.7-3.2,6.5c0,1.7,0.5,3.2,1.3,4.5
		c0.6,0.2,1.2,0.3,1.9,0.3C12.4,92.2,13,92,13.6,91.8z"/>
	<path fill="#71841F" d="M11.1,92.9c0.7,1.6,1.7,2.8,3,3.6c0.6-0.1,1.3-0.2,1.9-0.5c0,0,0.1,0,0.1,0c-0.9-0.8-1.8-1.8-2.3-3.1
		c-0.9-2.2-0.9-4.5-0.1-6.4c-0.7-0.4-1.4-0.7-2.2-0.9C10.3,87.7,10,90.4,11.1,92.9z"/>
	<g>
		<path fill="#879C29" d="M18.2,85.6c0-0.9-0.2-1.8-0.5-2.6c-3,0.6-5.2,3.2-5.2,6.4c0,0.9,0.2,1.8,0.5,2.6
			C16,91.4,18.2,88.8,18.2,85.6z"/>
		<path fill="#879C29" d="M10.4,92c0.3-0.8,0.5-1.7,0.5-2.6c0-3.1-2.2-5.8-5.2-6.4c-0.3,0.8-0.5,1.7-0.5,2.6
			C5.2,88.8,7.4,91.4,10.4,92z"/>
	</g>
</g>
</svg>
