<?xml version="1.0" encoding="utf-8"?>
<!-- Generator: Adobe Illustrator 18.1.1, SVG Export Plug-In . SVG Version: 6.00 Build 0)  -->
<svg version="1.1" id="Ebene_1" xmlns="http://www.w3.org/2000/svg" xmlns:xlink="http://www.w3.org/1999/xlink" x="0px" y="0px"
	 viewBox="0 0 204.9 138" enable-background="new 0 0 204.9 138" xml:space="preserve">
<g>
	<path fill="#424242" d="M204.9,10v118c0,5.5-4.5,10-10,10H10c-5.5,0-10-4.5-10-10L0,10C0,4.5,4.5,0,10,0l184.9,0
		C200.4,0,204.9,4.5,204.9,10z"/>
	<rect x="20.2" y="8.5" fill="#E2BBC0" width="163.1" height="122.6"/>
	<circle fill="#8E8E8E" cx="11.2" cy="69" r="1.7"/>
	<circle fill="#8E8E8E" cx="194.7" cy="69" r="4.8"/>
	<path fill="none" stroke="#D8D8D8" stroke-miterlimit="10" d="M196.6,68.2v1.8c0,0.5-0.4,1-1,1h-1.8c-0.6,0-1-0.5-1-1v-1.8
		c0-0.6,0.4-1,1-1h1.8C196.1,67.2,196.6,67.6,196.6,68.2z"/>
	<g>
		<path fill="#FFFFFF" d="M118.4,99c-4.4-1.2-8.8-5.6-10.4-6.7c-2.3-1.7-5.5-1-5.5-1c0.9-1,1.3-2.4,1.3-2.4
			c-1.7,2.8-4.7,2.4-4.7,2.4s-3,0.5-4.7-2.4c0,0,0.3,1.4,1.3,2.4c0,0-3.2-0.6-5.5,1c-1.6,1.2-6,5.5-10.4,6.7V64.3
			c14.9,2.4,31.5,8.7,38.5,11.6V99z M79.8,109.7v-5.2c6.5-1.3,12.8-7.8,17.8-5.8l1.5-1.3l1.5,1.3c5-2,11.2,4.6,17.8,5.8v5.2H79.8z
			 M99.1,113.9c-0.8,0-1.5-0.7-1.5-1.5c0-0.8,0.7-1.5,1.5-1.5c0.8,0,1.5,0.7,1.5,1.5C100.6,113.2,99.9,113.9,99.1,113.9 M77.1,53.1
			c-8.9-2.6-13-7.7-11.5-14.2c1.8-7.8,7.9-9.7,11.3-10.2c1.6-0.2,3.4-0.2,4.9,0c0.9,0.1,2.1,0.4,3.4,0.6c5.6,1.1,15,2.9,22.9,1.8
			c0.9-0.1,1.7-0.3,2.5-0.5c3.6-0.8,6-1.3,8.2-1.6c8-1.1,13,0.4,17.2,5.3c1.9,2.2,2.7,4.7,2.4,7.5c-0.4,4.5-3.6,8.8-6.5,11.1
			c-1.8,1.4-3.7,2.2-5.8,2.5c-0.2,0-0.4,0-0.6,0.1l-0.1,0l-1.8-0.8l1-0.4c1.1-0.5,2.2-1.4,3.3-2.7c-0.9,0.4-2,0.8-3.2,1
			c-0.8,0.1-1.6,0.1-2.5,0l-1.4-0.2l1.2-0.7c1.2-0.7,2.2-1.6,3.1-2.5c2.2-2.4,3.6-4.6,4.4-6.2c-3.9,4-7.5,6.2-10.8,6.7
			c-1.6,0.2-2.8-0.1-3.6-0.3l-0.6-0.2l0.3-0.5c1.2-1.8,2.2-4.1,2.8-6.7c-1,1.7-2.5,3.8-4.3,5c-1.4,1-3.1,2.1-4.6,2.3
			c-1,0.1-1.8-0.1-2.5-0.6c-0.9-0.7-1.5-1.9-1.8-3.7c-0.6,1.1-1.7,2.3-3.7,2.6l-0.1,0c-1.7,0.2-3.5-0.3-5-1.5
			c-1.1-0.9-1.9-2-2.4-3.3c0,0.4,0,0.9,0.1,1.4l0.1,0.4l-0.4,0.1c-0.5,0.1-1.4,0.4-2.6,0.5c-3.6,0.5-9.8,0.6-15.9-3
			c1.1,1,2.5,2.1,4.1,3l0.9,0.5l-1,0.4c-1.2,0.4-2.4,0.7-3.7,0.9c1,0.3,2.2,0.7,3.6,0.8l0.6,0.1l-1.5,5.4L77.1,53.1z M118.9,72.8
			l-2-0.8c-20.2-9-37.3-10.7-37.5-10.7l1.5-7.3l2-7.1l0.5,0.1c3.3,0.9,6.9,0.9,10.5,0l0.4-0.1l0.2,0.3c0.2,0.5,0.5,0.9,0.9,1.4
			c1.6,2.1,3.6,2.4,5,2.2c1.5-0.2,2.7-1,2.8-1.3l0.4-0.9l0.4,0.9c0,0,1.2,2.4,4.1,3.2c1,0.3,2.3,0,3.6-0.8l0.4-0.2l0.3,0.4
			c1.1,1.7,3.4,1.6,4.6,1.5c0.5-0.1,1.1-0.2,1.7-0.4l0.2-0.1l0.2,0.2c0.5,0.4,1.5,1.1,2.8,1.3l0.6,0.1L118.9,72.8z M121.4,77.2
			l4.1-20.2l0.3,0c0.4,0,0.8-0.1,1.2-0.1c7.4-1,15-8.8,14-18.2c-0.4-4.1-2.4-7.5-5.6-10c-4.2-3.3-10.6-4.8-16.7-4
			c-0.5,0.1-1,0.2-1.4,0.3c-1.7,0.4-3.4,0.7-5.1,0.9c-9.5,1.3-18.9,0.9-30.9-0.3c-2-0.2-3.9-0.2-5.7,0.1c-4.9,0.7-8.9,3.2-11.2,7
			c-2.1,3.6-2.6,7.9-1.3,11.7c2.4,6.7,10.2,9.4,13.5,10.2l0.5,0.1l0,0h0c0,0-0.4,3.1-0.6,5.1c-0.3,2.2-0.3,4.2-0.3,4.2
			c0.3,0,0.6,0.1,0.9,0.1v35.4c-1-0.1-1.9-0.4-2.8-1c-5.4-4-0.8-11.5-1.4-15.3c-0.6-3.9-4.7-4.5-6.7-0.9c0,0,3.5-2.5,4.2-0.2
			c0.7,2.2-1.9,7.9-2.1,11c-0.2,3.1,0.3,10.7,8.1,11.9c0.3,0,0.5,0.1,0.8,0.1v8.2c0,1.2,1,2.3,2.3,2.3h39.3c1.2,0,2.3-1,2.3-2.3
			v-8.2c0.3,0,0.5,0,0.8-0.1c7.7-1.2,8.3-8.8,8.1-11.9c-0.2-3.1-2.8-8.8-2.1-11c0.7-2.2,4.2,0.2,4.2,0.2c-2.1-3.6-6.1-2.9-6.7,0.9
			c-0.6,3.9,4,11.4-1.4,15.3c-0.9,0.6-1.8,1-2.8,1V77C121.1,77.1,121.3,77.1,121.4,77.2"/>
	</g>
</g>
</svg>
