<?xml version="1.0" encoding="utf-8"?>
<!-- Generator: Adobe Illustrator 18.1.1, SVG Export Plug-In . SVG Version: 6.00 Build 0)  -->
<svg version="1.1" id="Ebene_1" xmlns="http://www.w3.org/2000/svg" xmlns:xlink="http://www.w3.org/1999/xlink" x="0px" y="0px"
	 viewBox="541 657.1 358 206" enable-background="new 541 657.1 358 206" xml:space="preserve">
<g>
	<path fill="#EDEDED" enable-background="new    " d="M887,863.1H553c-6.6,0-12-5.4-12-12v-182c0-6.6,5.4-12,12-12h334
		c6.6,0,12,5.4,12,12v182C899,857.7,893.6,863.1,887,863.1z"/>
	<g>
		<g>
			<path fill="#96DD8E" d="M649.1,769.5v-4.8c0-2.7,2.6-5,5.9-5h130c3.3,0,5.9,2.2,5.9,5v4.8c0,33-31.7,59.7-70.9,59.7
				S649.1,802.5,649.1,769.5z"/>
			<path fill="#89C681" d="M649.1,769.5v-4.8c0-2.7,2.6-5,5.9-5h65v69.6C680.8,829.3,649.1,802.5,649.1,769.5z"/>
		</g>
		<path fill="#EFE6B9" d="M741.1,719.5c3.9-8.6,1.3-2.9,5.3-11.6c3-6.5,2.6-12.4,1.4-17.1c-0.5-2,1.2-3.6,3.5-0.8
			c5.9,7.1,10.4,15,4.9,27.1c-3.9,8.7-1.4,3-5.3,11.6c-3.2,7-2.6,13.2-1.1,18.1c0.6,2-1,3.7-3.4,1
			C739.1,739.7,735.6,731.4,741.1,719.5z"/>
		<path fill="#EFE6B9" d="M712.5,719.5c3.9-8.6,1.3-2.9,5.3-11.6c3-6.5,2.6-12.4,1.4-17.1c-0.5-2,1.2-3.6,3.5-0.8
			c5.9,7.1,10.4,15,4.9,27.1c-3.9,8.7-1.4,3-5.3,11.6c-3.2,7-2.6,13.2-1.1,18.1c0.6,2-1,3.7-3.4,1
			C710.5,739.7,707,731.4,712.5,719.5z"/>
		<path fill="#EFE6B9" d="M683.9,719.5c3.9-8.6,1.3-2.9,5.3-11.6c3-6.5,2.6-12.4,1.4-17.1c-0.5-2,1.2-3.6,3.5-0.8
			c5.9,7.1,10.4,15,4.9,27.1c-3.9,8.7-1.4,3-5.3,11.6c-3.2,7-2.6,13.2-1.1,18.1c0.6,2-1,3.7-3.4,1
			C682,739.7,678.5,731.4,683.9,719.5z"/>
	</g>
</g>
</svg>
