<?xml version="1.0" encoding="utf-8"?>
<!-- Generator: Adobe Illustrator 18.1.1, SVG Export Plug-In . SVG Version: 6.00 Build 0)  -->
<svg version="1.1" id="Ebene_1" xmlns="http://www.w3.org/2000/svg" xmlns:xlink="http://www.w3.org/1999/xlink" x="0px" y="0px"
	 viewBox="541 657.1 358 206" enable-background="new 541 657.1 358 206" xml:space="preserve">
<g>
	<path fill="#EDEDED" enable-background="new    " d="M887,863.1H553c-6.6,0-12-5.4-12-12v-182c0-6.6,5.4-12,12-12h334
		c6.6,0,12,5.4,12,12v182C899,857.7,893.6,863.1,887,863.1z"/>
	<g>
		<g>
			<polygon fill="#FFEBC6" points="663,734 699.9,700.1 726.6,698.1 745.6,701.1 774.4,726.3 767.7,743.2 672.2,747.3 			"/>
			<path fill="#FAC761" d="M656.2,756.5h127.6c1.6,0,3-1.4,4-2.6c1-1.2,1.3-3.1,1-4.7c-6.8-31.8-35-55.8-68.8-55.8
				c-33.8,0-62,23.8-68.8,55.6c-0.3,1.5,0.1,3.7,1,4.9C653.2,755.1,654.6,756.5,656.2,756.5L656.2,756.5z M761.4,718.7
				c2.8,0,5,2.2,5,5c0,2.8-2.2,5-5,5c-2.8,0-5-2.2-5-5C756.4,720.9,758.7,718.7,761.4,718.7L761.4,718.7z M733.7,730.9
				c0,2.8-2.2,5-5,5s-5-2.2-5-5c0-2.8,2.2-5,5-5C731.4,725.9,733.7,728.2,733.7,730.9L733.7,730.9z M730.1,700.4c2.8,0,5,2.2,5,5
				s-2.2,5-5,5c-2.8,0-5-2.2-5-5C725.1,702.7,727.4,700.4,730.1,700.4L730.1,700.4z M695.8,707.7c2.8,0,5,2.2,5,5c0,2.8-2.2,5-5,5
				s-5-2.2-5-5C690.8,710,693.1,707.7,695.8,707.7L695.8,707.7z M681.3,729.6c2.8,0,5,2.2,5,5s-2.2,5-5,5s-5-2.2-5-5
				C676.2,731.8,678.5,729.6,681.3,729.6L681.3,729.6z"/>
			<path fill="#FAC761" d="M784.5,790.1H655.4c-1.5,0-2.9,0.7-3.9,1.9c-1,1.1-1.4,2.7-1.2,4.2c5,30.8,34.3,27.3,69.6,27.3
				c35.4,0,64.6,3.5,69.6-27.3c0.3-1.5-0.2-3.1-1.1-4.2C787.5,790.8,786.1,790.1,784.5,790.1L784.5,790.1z"/>
			<path fill="#F4B649" d="M656.2,756.5H720v-63c-33.8,0-62,23.8-68.8,55.6c-0.3,1.5,0.1,3.7,1,4.9
				C653.2,755.1,654.6,756.5,656.2,756.5L656.2,756.5z M695.8,707.7c2.8,0,5,2.2,5,5c0,2.8-2.2,5-5,5s-5-2.2-5-5
				C690.8,710,693.1,707.7,695.8,707.7L695.8,707.7z M681.3,729.6c2.8,0,5,2.2,5,5s-2.2,5-5,5s-5-2.2-5-5
				C676.2,731.8,678.5,729.6,681.3,729.6L681.3,729.6z"/>
			<path fill="#F4B649" d="M720.2,790.1h-64.8c-1.5,0-2.9,0.7-3.9,1.9c-1,1.1-1.4,2.7-1.2,4.2c5,30.8,34.3,27.3,69.6,27.3
				L720.2,790.1z"/>
			<path fill="#BC8C5D" d="M646,783.9h148c5.4,0,9.8-4.3,9.8-9.7V772c0-5.4-4.4-9.8-9.8-9.8H646c-5.4,0-9.8,4.4-9.8,9.8v2.2
				C636.2,779.5,640.6,783.9,646,783.9L646,783.9z"/>
			<path fill="#B48051" d="M803.8,773v-1.1c0-5.4-4.4-9.8-9.8-9.8H646c-5.4,0-9.8,4.4-9.8,9.8v1.1H803.8z"/>
		</g>
		<path fill="#DC503C" d="M737.1,769l51.2-51.2c4.7-4.7,4.7-12.4,0-17.1c-4.7-4.7-12.4-4.7-17.1,0L720,751.9l-51.2-51.3
			c-4.7-4.7-12.4-4.7-17.1,0s-4.7,12.4,0,17.1l51.2,51.2l-51.2,51.2c-4.7,4.7-4.7,12.4,0,17.1c4.7,4.7,12.4,4.7,17.1,0L720,786
			l51.2,51.2c4.7,4.7,12.4,4.7,17.1,0c4.7-4.7,4.7-12.4,0-17.1L737.1,769z"/>
	</g>
</g>
</svg>
