<?xml version="1.0" encoding="utf-8"?>
<!-- Generator: Adobe Illustrator 18.1.1, SVG Export Plug-In . SVG Version: 6.00 Build 0)  -->
<svg version="1.1" id="Ebene_1" xmlns="http://www.w3.org/2000/svg" xmlns:xlink="http://www.w3.org/1999/xlink" x="0px" y="0px"
	 viewBox="0 -182 2000 1200" enable-background="new 0 -182 2000 1200" xml:space="preserve">
<rect x="317.5" y="41.2" display="none" fill="#7FB2AF" width="401" height="243.4"/>
<rect x="317.5" y="41.2" display="none" fill="#7FB2AF" width="401" height="243.4"/>
<g>
	<polygon fill="#E2E2E2" points="998,418 998,466 441,466 441,418 0,418 0,683 2000,683 2000,418 	"/>
	<rect y="683" fill="#CEC9C6" width="2000" height="335"/>
	<rect y="638" fill="#BCBCBC" width="2000" height="5"/>
	<rect y="593" fill="#BCBCBC" width="2000" height="5"/>
	<rect y="548" fill="#BCBCBC" width="2000" height="5"/>
	<rect y="503" fill="#BCBCBC" width="2000" height="5"/>
	<rect x="1009.6" y="458" fill="#BCBCBC" width="990.4" height="5"/>
	<rect y="458" fill="#BCBCBC" width="430.4" height="5"/>
	<g>
		<rect x="1945" y="418" fill="#BCBCBC" width="5" height="265"/>
		<rect x="1880" y="418" fill="#BCBCBC" width="5" height="265"/>
		<rect x="1815" y="418" fill="#BCBCBC" width="5" height="265"/>
	</g>
	<g>
		<rect x="1750" y="418" fill="#BCBCBC" width="5" height="265"/>
		<rect x="1685" y="418" fill="#BCBCBC" width="5" height="265"/>
		<rect x="1620" y="418" fill="#BCBCBC" width="5" height="265"/>
		<rect x="1555" y="418" fill="#BCBCBC" width="5" height="265"/>
		<rect x="1490" y="418" fill="#BCBCBC" width="5" height="265"/>
	</g>
	<rect x="1425" y="418" fill="#BCBCBC" width="5" height="265"/>
	<rect x="1360" y="418" fill="#BCBCBC" width="5" height="265"/>
	<rect x="1295" y="418" fill="#BCBCBC" width="5" height="265"/>
	<rect x="1230" y="418" fill="#BCBCBC" width="5" height="265"/>
	<rect x="1165" y="418" fill="#BCBCBC" width="5" height="265"/>
	<rect x="1100" y="418" fill="#BCBCBC" width="5" height="265"/>
	<rect x="1035" y="418" fill="#BCBCBC" width="5" height="265"/>
	<g>
		<rect x="905" y="494" fill="#BCBCBC" width="5" height="189"/>
		<rect x="970" y="494" fill="#BCBCBC" width="5" height="189"/>
		<rect x="840" y="494" fill="#BCBCBC" width="5" height="189"/>
		<rect x="775" y="494" fill="#BCBCBC" width="5" height="189"/>
		<rect x="710" y="494" fill="#BCBCBC" width="5" height="189"/>
		<rect x="645" y="494" fill="#BCBCBC" width="5" height="189"/>
		<rect x="577.5" y="494" fill="#BCBCBC" width="5" height="189"/>
		<rect x="515" y="494" fill="#BCBCBC" width="5" height="189"/>
		<rect x="450" y="494" fill="#BCBCBC" width="5" height="189"/>
	</g>
	<rect x="385" y="418" fill="#BCBCBC" width="5" height="265"/>
	<rect x="320" y="418" fill="#BCBCBC" width="5" height="265"/>
	<rect x="255" y="418" fill="#BCBCBC" width="5" height="265"/>
	<rect x="190" y="418" fill="#BCBCBC" width="5" height="265"/>
	<rect x="125" y="418" fill="#BCBCBC" width="5" height="265"/>
	<rect x="60" y="418" fill="#BCBCBC" width="5" height="265"/>
	<rect y="683" fill="#BE8B5C" width="2000" height="15"/>
	<rect x="398.2" y="697.6" fill="#DCDCD2" width="10" height="320.4"/>
	<rect x="708.2" y="697.6" fill="#DCDCD2" width="10" height="320.4"/>
	<rect x="1006" y="697.6" fill="#DCDCD2" width="10" height="320.4"/>
	<rect x="1304" y="697.6" fill="#DCDCD2" width="10" height="220"/>
	<rect x="1304" y="697.6" fill="#DCDCD2" width="10" height="320.4"/>
	<rect x="718.2" y="773" fill="#DCDCD2" width="591.3" height="10"/>
	<path opacity="0.5" fill="#514F4A" enable-background="new    " d="M980.8,753h-27c-2.9,0-5.2-2.4-5.2-5.2l0,0
		c0-2.9,2.4-5.2,5.2-5.2h27c2.9,0,5.2,2.4,5.2,5.2l0,0C986,750.6,983.6,753,980.8,753z"/>
	<path opacity="0.5" fill="#514F4A" enable-background="new    " d="M1068.2,753h-27c-2.9,0-5.2-2.4-5.2-5.2l0,0
		c0-2.9,2.4-5.2,5.2-5.2h27c2.9,0,5.2,2.4,5.2,5.2l0,0C1073.5,750.6,1071.1,753,1068.2,753z"/>
	<rect x="100" y="697.6" fill="#DCDCD2" width="10" height="320.4"/>
	<path fill="#8E8E8E" d="M408.2,1018V698c0,0,15.8,0,35.3,0h229.4c19.5,0,35.3,0,35.3,0v320"/>
	<rect y="773" fill="#DCDCD2" width="398.2" height="10"/>
	<path opacity="0.5" fill="#514F4A" enable-background="new    " d="M74.8,753h-27c-2.9,0-5.2-2.4-5.2-5.2l0,0
		c0-2.9,2.4-5.2,5.2-5.2h27c2.9,0,5.2,2.4,5.2,5.2l0,0C80,750.6,77.6,753,74.8,753z"/>
	<path opacity="0.5" fill="#514F4A" enable-background="new    " d="M162.2,753h-27c-2.9,0-5.2-2.4-5.2-5.2l0,0
		c0-2.9,2.4-5.2,5.2-5.2h27c2.9,0,5.2,2.4,5.2,5.2l0,0C167.5,750.6,165.1,753,162.2,753z"/>
	<rect x="1643.9" y="18" fill="#BEBEB4" width="290" height="315"/>
	<rect x="1572.5" y="333" fill="#6B6B6B" width="427.5" height="16.5"/>
	<rect x="1788.9" y="18" opacity="0.11" fill="#5B5B5B" enable-background="new    " width="145" height="315"/>
	<rect x="408.2" y="708.2" opacity="0.43" fill="#C6C6C6" enable-background="new    " width="300" height="67.5"/>
	<path opacity="0.16" fill="#DDDDDD" enable-background="new    " d="M558.2,1018V698c0,0,7.9,0,17.7,0h114.7c9.8,0,17.6,0,17.6,0
		v320"/>
	<path fill="#757575" d="M575.3,765.1h-42c-4.5,0-8.2-3.7-8.2-8.2l0,0c0-4.5,3.7-8.2,8.2-8.2h42c4.5,0,8.2,3.7,8.2,8.2l0,0
		C583.6,761.4,579.9,765.1,575.3,765.1z"/>
	<polygon opacity="0.11" fill="#727272" enable-background="new    " points="1304,811.8 1016,903.1 1016,1018 1304,1018 	"/>
	<polygon opacity="0.11" fill="#727272" enable-background="new    " points="1602,811.8 1314,903.1 1314,1018 1602,1018 	"/>
	<polygon opacity="0.11" fill="#727272" enable-background="new    " points="1006,811.8 718,903.1 718,1018 1006,1018 	"/>
	<polygon opacity="0.11" fill="#727272" enable-background="new    " points="398,811.8 110,903.1 110,1018 398,1018 	"/>
	<polygon opacity="0.11" fill="#727272" enable-background="new    " points="0,843.5 0,1018 100,1018 100,811.8 	"/>
	<polygon fill="#E2BBC0" points="0,18 0,418 441,418 441,128 998,128 998,418 2000,418 2000,18 	"/>
	<rect y="124" fill="#7FB2AF" width="257" height="372"/>
	<polygon fill="#444444" points="288,126 288,103 0,103 0,128 257,128 257,466 0,466 0,508 288,508 288,485 277,485 277,126 	"/>
	<rect x="430" y="309" fill="#444444" width="579" height="20"/>
	<rect y="309" fill="#444444" width="272" height="20"/>
	<g>
		<path fill="#DCDCD2" d="M1955.7,682.2V977c0,23.6-18.6,41-41.6,41h-270.5c-23,0-41.6,0-41.6,0V682.2c0,0,18.6,0,41.6,0h270.5
			C1937.1,682.2,1955.7,682.2,1955.7,682.2z"/>
		<path fill="#466482" d="M1761.2,682.2h-129.7c0-9.8,7.9-17.7,17.7-17.7h94.3C1753.3,664.5,1761.2,672.4,1761.2,682.2z"/>
		<path fill="#32506E" d="M1926.3,682.2h-129.7c0-9.8,7.9-17.7,17.7-17.7h94.3C1918.3,664.5,1926.3,672.4,1926.3,682.2z"/>
		<path fill="#BEBEB4" d="M1955.7,682.2V1018c0,0-18.6,0-41.6,0h-135.2V682.2h135.2C1937.1,682.2,1955.7,682.2,1955.7,682.2z"/>
		<rect x="1637.4" y="823.7" fill="#466482" width="283" height="161.1"/>
		<circle fill="#32506E" cx="1896.8" cy="723.5" r="23.6"/>
		<circle fill="#32506E" cx="1826" cy="723.5" r="23.6"/>
		<circle fill="#466482" cx="1731.7" cy="723.5" r="23.6"/>
		<circle fill="#466482" cx="1661" cy="723.5" r="23.6"/>
		<g>
			<path fill="#466482" d="M1920.4,800.1c0,4.9-3.9,8.8-8.7,8.8H1646c-4.8,0-8.7-3.9-8.7-8.8c0-4.9,3.9-8.8,8.7-8.8h265.7
				C1916.5,791.3,1920.4,795.2,1920.4,800.1z"/>
		</g>
		<rect x="1602" y="762.8" fill="#BEBEB4" width="353.7" height="13.7"/>
		<rect x="1778.9" y="762.8" fill="#DCDCD2" width="176.9" height="13.7"/>
		<rect x="1778.9" y="762.8" fill="#A0A096" width="176.9" height="13.7"/>
		<path fill="#32506E" d="M1920.4,800.1c0,4.9-3.9,8.8-8.7,8.8h-132.8v-17.7h132.8C1916.5,791.3,1920.4,795.2,1920.4,800.1z"/>
		<rect x="1778.9" y="823.7" fill="#32506E" width="141.5" height="161.1"/>
	</g>
	<g>
		<rect x="411" y="103" fill="#444444" width="618" height="23"/>
		<path fill="#444444" d="M422,111v379h596V111H422z M998,466H654.1l-16.4,0.1V466H441v0.3l0,0v-8.4V128h557V466z"/>
		<rect x="411" y="485" fill="#444444" width="618" height="23"/>
	</g>
	<rect x="1641.3" y="-182" fill="#BEBEB4" width="290" height="515"/>
	<rect x="1574.5" y="333" fill="#6B6B6B" width="425.5" height="16.5"/>
	<rect x="1786.3" y="-182" opacity="0.11" fill="#5B5B5B" enable-background="new    " width="145" height="515"/>
	<g>
		<g>
			<rect x="1398.4" y="456.6" fill="#3F3F3F" width="198.7" height="11.7"/>
			<rect x="1548.3" y="466" fill="#3F3F3F" width="4.7" height="14.8"/>
			<rect x="1489.9" y="466" fill="#3F3F3F" width="4.7" height="14.8"/>
			<rect x="1437.3" y="466" fill="#3F3F3F" width="4.7" height="14.8"/>
		</g>
		<g>
			<path fill="#DCDCD2" d="M1573.9,612.9c0-6.6-1-13.1-2.9-19.4l-14.5-54.8h-12.3l-14.5,54.8c-1.9,6.2-2.9,12.7-2.9,19.3
				c0,13,10.6,23.7,23.6,23.7S1573.9,625.9,1573.9,612.9z M1539.9,575l-3.4,18.8c-1.2,6.2-1.8,12.6-1.8,19.1c0,4.8,0.9,9.2,2.5,12.9
				c-3.3-3.3-5.3-7.9-5.3-12.9c0-6.1,0.9-12.1,2.7-17.8L1539.9,575z M1547.6,630.7c-4.4-2.2-7.7-9.4-7.7-17.8
				c0-6.2,0.6-12.3,1.7-18.1l6-32.9V630.7z M1560.6,612.9c0,8.4-3.3,15.6-7.7,17.8v-68.8l6,32.9
				C1560,600.6,1560.6,606.7,1560.6,612.9z M1568.6,612.9c0,5-2,9.6-5.3,12.9c1.5-3.7,2.5-8.1,2.5-12.9c0-6.5-0.6-12.9-1.8-19.1
				l-3.4-18.8l5.3,20C1567.7,600.8,1568.6,606.8,1568.6,612.9z"/>
			<path fill="#466482" d="M1462.9,628.4l-3.9-42.8c-0.4-3.9-3.6-6.8-7.5-6.8h-6.3v-38.7h0.2c2.8,0,5.1-2.3,5.1-5.1v-50.9
				c0-2.8-2.3-5.1-5.1-5.1h-10.8c-2.8,0-5.1,2.3-5.1,5.1V535c0,2.8,2.3,5.1,5.1,5.1h0.2v38.7h-6.3c-3.9,0-7.1,2.9-7.5,6.8l-3.9,42.8
				c-0.4,4.4,3,8.1,7.4,8.1h30.9C1459.8,636.6,1463.3,632.8,1462.9,628.4z M1432.1,620.8c0,1.4-1.2,2.6-2.6,2.6s-2.6-1.2-2.6-2.6
				v-26.3c0-1.4,1.2-2.6,2.6-2.6s2.6,1.2,2.6,2.6V620.8z M1442.6,620.8c0,1.4-1.2,2.6-2.6,2.6s-2.6-1.2-2.6-2.6v-26.3
				c0-1.4,1.2-2.6,2.6-2.6s2.6,1.2,2.6,2.6V620.8z M1453.1,620.8c0,1.4-1.2,2.6-2.6,2.6s-2.6-1.2-2.6-2.6v-26.3
				c0-1.4,1.2-2.6,2.6-2.6s2.6,1.2,2.6,2.6V620.8z"/>
			<path fill="#466482" d="M1516.1,607.4V607c0-13.3-5.3-22.1-12.3-26.5c-3.8-2.4-6-6.5-6-10.9v-29.4h0.2c2.8,0,5.1-2.3,5.1-5.1
				v-50.9c0-2.8-2.3-5.1-5.1-5.1h-10.8c-2.8,0-5.1,2.3-5.1,5.1V535c0,2.8,2.3,5.1,5.1,5.1h0.2v29.3c0,4.5-2.3,8.6-6.1,11
				c-7,4.4-12.3,13.2-12.3,26.5v0.5c0,6.6,2.1,13.1,5.9,18.6c1.8,2.5,3.9,4.7,6.2,6.6c3.2,2.6,7.1,3.9,11,4h0.6
				c4.1,0,8.1-1.3,11.4-4c2.4-1.9,4.5-4.1,6.2-6.6C1514.1,620.5,1516.1,614,1516.1,607.4z M1484.6,620.8c0,1.4-1.2,2.6-2.6,2.6
				s-2.6-1.2-2.6-2.6v-26.3c0-1.4,1.2-2.6,2.6-2.6s2.6,1.2,2.6,2.6V620.8z M1495.1,620.8c0,1.4-1.2,2.6-2.6,2.6s-2.6-1.2-2.6-2.6
				v-26.3c0-1.4,1.2-2.6,2.6-2.6s2.6,1.2,2.6,2.6V620.8z M1505.6,620.8c0,1.4-1.2,2.6-2.6,2.6s-2.6-1.2-2.6-2.6v-26.3
				c0-1.4,1.2-2.6,2.6-2.6s2.6,1.2,2.6,2.6V620.8z"/>
			<path fill="#32506E" d="M1462.9,628.4l-3.9-42.8c-0.4-3.9-3.6-6.8-7.5-6.8h-6.3v-38.7h0.2c2.8,0,5.1-2.3,5.1-5.1v-50.9
				c0-2.8-2.3-5.1-5.1-5.1h-5.4v112.9c1.4,0,2.6,1.2,2.6,2.6v26.3c0,1.4-1.2,2.6-2.6,2.6v13.1h15.5
				C1459.8,636.6,1463.3,632.8,1462.9,628.4z M1453.1,620.8c0,1.4-1.2,2.6-2.6,2.6s-2.6-1.2-2.6-2.6v-26.3c0-1.4,1.2-2.6,2.6-2.6
				s2.6,1.2,2.6,2.6V620.8z"/>
			<path fill="#32506E" d="M1516.1,607.4V607c0-13.3-5.3-22.1-12.3-26.5c-3.8-2.4-6-6.5-6-10.9v-29.4h0.2c2.8,0,5.1-2.3,5.1-5.1
				v-50.9c0-2.8-2.3-5.1-5.1-5.1h-5.4V592c1.4,0,2.6,1.2,2.6,2.6v26.3c0,1.4-1.2,2.6-2.6,2.6v13.1c4.1,0,8.1-1.3,11.4-4
				c2.4-1.9,4.5-4.1,6.2-6.6C1514.1,620.5,1516.1,614,1516.1,607.4z M1505.6,620.8c0,1.4-1.2,2.6-2.6,2.6s-2.6-1.2-2.6-2.6v-26.3
				c0-1.4,1.2-2.6,2.6-2.6s2.6,1.2,2.6,2.6V620.8z"/>
			<path fill="#BEBEB4" d="M1573.9,612.9c0-6.6-1-13.1-2.9-19.4l-14.5-54.8h-6.1v97.8C1563.3,636.6,1573.9,625.9,1573.9,612.9z
				 M1560.6,612.9c0,8.4-3.3,15.6-7.7,17.8v-68.8l6,32.9C1560,600.6,1560.6,606.7,1560.6,612.9z M1568.6,612.9c0,5-2,9.6-5.3,12.9
				c1.5-3.7,2.5-8.1,2.5-12.9c0-6.5-0.6-12.9-1.8-19.1l-3.4-18.8l5.3,20C1567.7,600.8,1568.6,606.8,1568.6,612.9z"/>
			<path fill="#466482" d="M1560.8,535v-50.9c0-2.8-2.3-5.1-5.1-5.1h-10.8c-2.8,0-5.1,2.3-5.1,5.1V535c0,2.8,2.3,5.1,5.1,5.1h10.8
				C1558.5,540.1,1560.8,537.8,1560.8,535z"/>
			<path fill="#32506E" d="M1560.8,535v-50.9c0-2.8-2.3-5.1-5.1-5.1h-5.4v61.1h5.4C1558.5,540.1,1560.8,537.8,1560.8,535z"/>
		</g>
	</g>
	<g>
		<g>
			<g>
				<path fill="#DCDCD2" d="M236.1,588.7v82.4c0,6.3-5.1,11.4-11.4,11.4H54.6c-6.3,0-11.4-5.1-11.4-11.4v-82.4
					c0-14.7,7.7-27.6,19.3-34.9c6.4-4,13.9-6.3,22-6.3h110.4c8.1,0,15.6,2.3,22,6.3C228.4,561.1,236.1,574,236.1,588.7z"/>
				<path fill="#466482" d="M236.1,588.7v82.4c0,6.3-5.1,11.4-11.4,11.4H54.6c-6.3,0-11.4-5.1-11.4-11.4v-82.4
					c0-14.7,7.7-27.6,19.3-34.9V660h154.3V553.8C228.4,561.1,236.1,574,236.1,588.7z"/>
				<path fill="#466482" d="M155.7,627.8c0,8.9-7.2,16.1-16.1,16.1c-8.9,0-16.1-7.2-16.1-16.1c0-8.9,7.2-16.1,16.1-16.1
					C148.5,611.8,155.7,619,155.7,627.8z"/>
				<path fill="#BEBEB4" d="M236.1,588.7v82.4c0,6.3-5.1,11.4-11.4,11.4h-85.1v-135h55.2c8.1,0,15.6,2.3,22,6.3
					C228.4,561.1,236.1,574,236.1,588.7z"/>
			</g>
			<path fill="#32506E" d="M236.1,588.7v82.4c0,6.3-5.1,11.4-11.4,11.4h-85.1V660h77.2V553.8C228.4,561.1,236.1,574,236.1,588.7z"/>
		</g>
		<path fill="#32506E" d="M155.7,627.8c0,8.9-7.2,16.1-16.1,16.1v-32.2C148.5,611.8,155.7,619,155.7,627.8z"/>
	</g>
</g>
</svg>
