<?xml version="1.0" encoding="utf-8"?>
<!-- Generator: Adobe Illustrator 18.1.1, SVG Export Plug-In . SVG Version: 6.00 Build 0)  -->
<svg version="1.1" id="Ebene_1" xmlns="http://www.w3.org/2000/svg" xmlns:xlink="http://www.w3.org/1999/xlink" x="0px" y="0px"
	 viewBox="0 0 1440 900" enable-background="new 0 0 1440 900" xml:space="preserve">
<rect y="665" fill="#CEC9C6" width="1440" height="235"/>
<rect y="400" fill="#E2E2E2" width="1440" height="265"/>
<rect fill="#E2BBC0" width="1440" height="400"/>
<g>
	<rect y="620" fill="#BCBCBC" width="1440" height="5"/>
	<rect y="575" fill="#BCBCBC" width="1440" height="5"/>
	<rect y="530" fill="#BCBCBC" width="1440" height="5"/>
	<rect y="485" fill="#BCBCBC" width="1440" height="5"/>
	<rect y="440" fill="#BCBCBC" width="1440" height="5"/>
</g>
<rect x="905" y="400" fill="#BCBCBC" width="5" height="265"/>
<rect x="1425" y="400" fill="#BCBCBC" width="5" height="265"/>
<rect x="1360" y="400" fill="#BCBCBC" width="5" height="265"/>
<rect x="1295" y="400" fill="#BCBCBC" width="5" height="265"/>
<rect x="1230" y="400" fill="#BCBCBC" width="5" height="265"/>
<rect x="1165" y="400" fill="#BCBCBC" width="5" height="265"/>
<rect x="1100" y="400" fill="#BCBCBC" width="5" height="265"/>
<rect x="1035" y="400" fill="#BCBCBC" width="5" height="265"/>
<rect x="970" y="400" fill="#BCBCBC" width="5" height="265"/>
<rect x="840" y="400" fill="#BCBCBC" width="5" height="265"/>
<rect x="775" y="400" fill="#BCBCBC" width="5" height="265"/>
<rect x="710" y="400" fill="#BCBCBC" width="5" height="265"/>
<rect x="645" y="400" fill="#BCBCBC" width="5" height="265"/>
<rect x="580" y="400" fill="#BCBCBC" width="5" height="265"/>
<rect x="515" y="400" fill="#BCBCBC" width="5" height="265"/>
<rect x="450" y="400" fill="#BCBCBC" width="5" height="265"/>
<rect x="385" y="400" fill="#BCBCBC" width="5" height="265"/>
<rect x="320" y="400" fill="#BCBCBC" width="5" height="265"/>
<rect x="255" y="400" fill="#BCBCBC" width="5" height="265"/>
<rect x="190" y="400" fill="#BCBCBC" width="5" height="265"/>
<rect x="125" y="400" fill="#BCBCBC" width="5" height="265"/>
<rect x="60" y="400" fill="#BCBCBC" width="5" height="265"/>
<g>
	<rect x="441" y="106" fill="#7FB2AF" width="557" height="372"/>
	<g>
		<polyline fill="#009245" points="557.4,477.6 572.4,429.2 563.6,429.4 584.1,389.8 578.3,389.6 599.4,330.8 625.8,389 612.1,389 
			631.1,422 616.3,422 640.2,475.7 		"/>
		<polyline fill="#0A6031" points="599.4,330.7 625.8,389.6 616.8,389.4 631.1,424.9 624.2,424.8 640.7,477.4 599.1,477.4 		"/>
	</g>
	<g>
		<polygon fill="#009245" points="438.1,477.9 461.2,394 446.5,394 479.2,309 466.1,309 524.9,188.7 580.5,316 567.5,316 593.1,396 
			578.9,396 603.7,477.3 		"/>
		<polyline fill="#8CC63F" points="524.9,189.3 580.5,316 567.5,316 593.1,396 578.9,396 603.7,477.3 520.6,477.3 		"/>
	</g>
</g>
<rect x="427" y="291" fill="#444444" width="585" height="20"/>
<g>
	<rect x="411" y="85" fill="#444444" width="618" height="23"/>
	<path fill="#444444" d="M422,93v379h596V93H422z M998,448H654.1l-16.4,0.1l0-0.1H441v0.3l0,0v-8.4V110h557V448z"/>
	<rect x="411" y="467" fill="#444444" width="618" height="23"/>
</g>
<rect y="665" fill="#BE8B5C" width="1440" height="15"/>
<rect x="398.2" y="679.6" fill="#DCDCD2" width="10" height="220.4"/>
<rect x="708.2" y="679.6" fill="#DCDCD2" width="10" height="220.4"/>
<rect x="1006" y="679.6" fill="#DCDCD2" width="10" height="220.4"/>
<rect x="1304" y="679.6" fill="#DCDCD2" width="10" height="220"/>
<rect x="1304" y="679.6" fill="#DCDCD2" width="10" height="220.4"/>
<rect x="718.2" y="755" fill="#DCDCD2" width="591.3" height="10"/>
<path opacity="0.5" fill="#514F4A" d="M980.8,735h-27c-2.9,0-5.2-2.4-5.2-5.2l0,0c0-2.9,2.4-5.2,5.2-5.2h27c2.9,0,5.2,2.4,5.2,5.2
	l0,0C986,732.6,983.6,735,980.8,735z"/>
<path opacity="0.5" fill="#514F4A" d="M1068.2,735h-27c-2.9,0-5.2-2.4-5.2-5.2l0,0c0-2.9,2.4-5.2,5.2-5.2h27c2.9,0,5.2,2.4,5.2,5.2
	l0,0C1073.5,732.6,1071.1,735,1068.2,735z"/>
<rect x="100" y="679.6" fill="#DCDCD2" width="10" height="220.4"/>
<path fill="#8E8E8E" d="M408.2,900V680c0,0,15.8,0,35.3,0h229.4c19.5,0,35.3,0,35.3,0v220"/>
<rect x="0" y="755" fill="#DCDCD2" width="398.2" height="10"/>
<path opacity="0.5" fill="#514F4A" d="M74.8,735h-27c-2.9,0-5.2-2.4-5.2-5.2l0,0c0-2.9,2.4-5.2,5.2-5.2h27c2.9,0,5.2,2.4,5.2,5.2
	l0,0C80,732.6,77.6,735,74.8,735z"/>
<path opacity="0.5" fill="#514F4A" d="M162.2,735h-27c-2.9,0-5.2-2.4-5.2-5.2l0,0c0-2.9,2.4-5.2,5.2-5.2h27c2.9,0,5.2,2.4,5.2,5.2
	l0,0C167.5,732.6,165.1,735,162.2,735z"/>
<rect x="408.2" y="690.2" opacity="0.43" fill="#C6C6C6" width="300" height="67.5"/>
<path opacity="0.16" fill="#DDDDDD" d="M558.2,900V680c0,0,7.9,0,17.7,0h114.7c9.8,0,17.6,0,17.6,0v220"/>
<path fill="#757575" d="M575.3,747.1h-42c-4.5,0-8.2-3.7-8.2-8.2l0,0c0-4.5,3.7-8.2,8.2-8.2h42c4.5,0,8.2,3.7,8.2,8.2l0,0
	C583.6,743.4,579.9,747.1,575.3,747.1z"/>
<polygon opacity="0.11" fill="#727272" points="1304,793.8 1016,885.1 1016,900 1304,900 "/>
<polygon opacity="0.11" fill="#727272" points="1006,793.8 718,885.1 718,900 1006,900 "/>
<polygon opacity="0.11" fill="#727272" points="398,793.8 110,885.1 110,900 398,900 "/>
<polygon opacity="0.11" fill="#727272" points="0,825.5 0,900 100,900 100,793.8 "/>
<g>
	<g>
		<g>
			<path fill="#DCDCD2" d="M236.1,570.7v82.4c0,6.3-5.1,11.4-11.4,11.4H54.6c-6.3,0-11.4-5.1-11.4-11.4v-82.4
				c0-14.7,7.7-27.6,19.3-34.9c6.4-4,13.9-6.3,22-6.3h110.4c8.1,0,15.6,2.3,22,6.3C228.4,543.1,236.1,556,236.1,570.7z"/>
			<path fill="#466482" d="M236.1,570.7v82.4c0,6.3-5.1,11.4-11.4,11.4H54.6c-6.3,0-11.4-5.1-11.4-11.4v-82.4
				c0-14.7,7.7-27.6,19.3-34.9V642h154.3V535.8C228.4,543.1,236.1,556,236.1,570.7z"/>
			<path fill="#466482" d="M155.7,609.8c0,8.9-7.2,16.1-16.1,16.1c-8.9,0-16.1-7.2-16.1-16.1s7.2-16.1,16.1-16.1
				C148.5,593.8,155.7,601,155.7,609.8z"/>
			<path fill="#BEBEB4" d="M236.1,570.7v82.4c0,6.3-5.1,11.4-11.4,11.4h-85.1v-135h55.2c8.1,0,15.6,2.3,22,6.3
				C228.4,543.1,236.1,556,236.1,570.7z"/>
		</g>
		<path fill="#32506E" d="M236.1,570.7v82.4c0,6.3-5.1,11.4-11.4,11.4h-85.1V642h77.2V535.8C228.4,543.1,236.1,556,236.1,570.7z"/>
	</g>
	<path fill="#32506E" d="M155.7,609.8c0,8.9-7.2,16.1-16.1,16.1v-32.2C148.5,593.8,155.7,601,155.7,609.8z"/>
</g>
<g>
	<rect y="106" fill="#7FB2AF" width="257" height="372"/>
	<polygon fill="#444444" points="288,108 288,85 0,85 0,110 257,110 257,448 0,448 0,490 288,490 288,467 277,467 277,108 	"/>
</g>
<g>
	<path fill="#424242" d="M1342.4,537v118c0,5.5-4.5,10-10,10h-184.9c-5.5,0-10-4.5-10-10V537c0-5.5,4.5-10,10-10h184.9
		C1337.9,527,1342.4,531.5,1342.4,537z"/>
	<rect x="1157.7" y="535.5" fill="#E2BBC0" width="163.1" height="122.6"/>
	<circle fill="#8E8E8E" cx="1148.7" cy="596" r="1.7"/>
	<circle fill="#8E8E8E" cx="1332.2" cy="596" r="4.8"/>
	<path fill="none" stroke="#D8D8D8" stroke-miterlimit="10" d="M1334.1,595.2v1.8c0,0.5-0.4,1-1,1h-1.8c-0.6,0-1-0.5-1-1v-1.8
		c0-0.5,0.4-1,1-1h1.8C1333.6,594.2,1334.1,594.6,1334.1,595.2z"/>
	<g>
		<path fill="#FFFFFF" d="M1255.9,626c-4.4-1.2-8.8-5.6-10.4-6.7c-2.3-1.7-5.5-1-5.5-1c0.9-1,1.3-2.4,1.3-2.4
			c-1.7,2.8-4.7,2.4-4.7,2.4s-3,0.5-4.7-2.4c0,0,0.3,1.4,1.3,2.4c0,0-3.2-0.6-5.5,1c-1.6,1.2-6,5.5-10.4,6.7v-34.7
			c14.9,2.4,31.5,8.7,38.5,11.6V626z M1217.3,636.7v-5.2c6.5-1.3,12.8-7.8,17.8-5.8l1.5-1.3l1.5,1.3c5-2,11.2,4.6,17.8,5.8v5.2
			H1217.3z M1236.6,640.9c-0.8,0-1.5-0.7-1.5-1.5c0-0.8,0.7-1.5,1.5-1.5c0.8,0,1.5,0.7,1.5,1.5
			C1238.1,640.2,1237.4,640.9,1236.6,640.9 M1214.6,580.1c-8.9-2.6-13-7.7-11.5-14.2c1.8-7.8,7.9-9.7,11.3-10.2
			c1.6-0.2,3.4-0.2,4.9,0c0.9,0.1,2.1,0.4,3.4,0.6c5.6,1.1,15,2.9,22.9,1.8c0.9-0.1,1.7-0.3,2.5-0.5c3.6-0.8,6-1.3,8.2-1.6
			c8-1.1,13,0.4,17.2,5.3c1.9,2.2,2.7,4.7,2.4,7.5c-0.4,4.5-3.6,8.8-6.5,11.1c-1.8,1.4-3.7,2.2-5.8,2.5c-0.2,0-0.4,0-0.6,0.1l-0.1,0
			l-1.8-0.8l1-0.4c1.1-0.5,2.2-1.4,3.3-2.7c-0.9,0.4-2,0.8-3.2,1c-0.8,0.1-1.6,0.1-2.5,0l-1.4-0.2l1.2-0.7c1.2-0.7,2.2-1.6,3.1-2.5
			c2.2-2.4,3.6-4.6,4.4-6.2c-3.9,4-7.5,6.2-10.8,6.7c-1.6,0.2-2.8-0.1-3.6-0.3l-0.6-0.2l0.3-0.5c1.2-1.8,2.2-4.1,2.8-6.7
			c-1,1.7-2.5,3.8-4.3,5c-1.4,1-3.1,2.1-4.6,2.3c-1,0.1-1.8-0.1-2.5-0.6c-0.9-0.7-1.5-1.9-1.8-3.7c-0.6,1.1-1.7,2.3-3.7,2.6l-0.1,0
			c-1.7,0.2-3.5-0.3-5-1.5c-1.1-0.9-1.9-2-2.4-3.3c0,0.4,0,0.9,0.1,1.4l0.1,0.4l-0.4,0.1c-0.5,0.1-1.4,0.4-2.6,0.5
			c-3.6,0.5-9.8,0.6-15.9-3c1.1,1,2.5,2.1,4.1,3l0.9,0.5l-1,0.4c-1.2,0.4-2.4,0.7-3.7,0.9c1,0.3,2.2,0.7,3.6,0.8l0.6,0.1l-1.5,5.4
			L1214.6,580.1z M1256.4,599.8l-2-0.8c-20.2-9-37.3-10.7-37.5-10.7l1.5-7.3l2-7.1l0.5,0.1c3.3,0.9,6.9,0.9,10.5,0l0.4-0.1l0.2,0.3
			c0.2,0.5,0.5,0.9,0.9,1.4c1.6,2.1,3.6,2.4,5,2.2c1.5-0.2,2.7-1,2.8-1.3l0.4-0.9l0.4,0.9c0,0,1.2,2.4,4.1,3.2c1,0.3,2.3,0,3.6-0.8
			l0.4-0.2l0.3,0.4c1.1,1.7,3.4,1.6,4.6,1.5c0.5-0.1,1.1-0.2,1.7-0.4l0.2-0.1l0.2,0.2c0.5,0.4,1.5,1.1,2.8,1.3l0.5,0.1L1256.4,599.8
			z M1258.9,604.2l4.1-20.2l0.3,0c0.4,0,0.8-0.1,1.2-0.1c7.4-1,15-8.8,14-18.2c-0.4-4.1-2.4-7.5-5.6-10c-4.2-3.3-10.6-4.8-16.7-4
			c-0.5,0.1-1,0.2-1.4,0.3c-1.7,0.4-3.4,0.7-5.1,0.9c-9.5,1.3-18.9,0.9-30.9-0.3c-2-0.2-3.9-0.2-5.7,0.1c-4.9,0.7-8.9,3.2-11.2,7
			c-2.1,3.6-2.6,7.9-1.3,11.7c2.4,6.7,10.2,9.4,13.5,10.2l0.5,0.1l0,0h0c0,0-0.4,3.1-0.6,5.1c-0.3,2.2-0.3,4.2-0.3,4.2
			c0.3,0,0.6,0.1,0.9,0.1v35.4c-1-0.1-1.9-0.4-2.8-1c-5.4-4-0.8-11.5-1.4-15.3c-0.6-3.9-4.7-4.5-6.7-0.9c0,0,3.5-2.5,4.2-0.2
			c0.7,2.2-1.9,7.9-2.1,11c-0.2,3.1,0.3,10.7,8.1,11.9c0.3,0,0.5,0.1,0.8,0.1v8.2c0,1.2,1,2.3,2.3,2.3h39.3c1.2,0,2.3-1,2.3-2.3
			v-8.2c0.3,0,0.5,0,0.8-0.1c7.7-1.2,8.3-8.8,8.1-11.9c-0.2-3.1-2.8-8.8-2.1-11c0.7-2.2,4.2,0.2,4.2,0.2c-2.1-3.6-6.1-2.9-6.7,0.9
			c-0.6,3.9,4,11.4-1.4,15.3c-0.9,0.6-1.8,1-2.8,1V604C1258.6,604.1,1258.8,604.1,1258.9,604.2"/>
	</g>
</g>
<rect y="291" fill="#444444" width="272" height="20"/>
<polygon opacity="0.11" fill="#727272" points="1440,845.1 1314,885.1 1314,900 1440,900 "/>
</svg>
