<?xml version="1.0" encoding="utf-8"?>
<!-- Generator: Adobe Illustrator 18.1.1, SVG Export Plug-In . SVG Version: 6.00 Build 0)  -->
<svg version="1.1" id="Ebene_1" xmlns="http://www.w3.org/2000/svg" xmlns:xlink="http://www.w3.org/1999/xlink" x="0px" y="0px"
	 viewBox="0 0 145.7 254.9" enable-background="new 0 0 145.7 254.9" xml:space="preserve">
<g>
	<path fill="#F06E5A" d="M127.5,226.9v15.3c0,7.1-5.7,12.7-12.7,12.7h-102c-7.1,0-12.7-5.7-12.7-12.7v-15.3c0-23.7,4-47.3,11.7-69.7
		c0.7-2,1.4-4.1,2.2-6.1l4.2-11.1c1.9-5,6.6-8.2,11.9-8.2h67.4c5.3,0,10,3.3,11.9,8.2l4.2,11.1c0.8,2,1.5,4.1,2.2,6.1
		C123.5,179.6,127.5,203.1,127.5,226.9z"/>
	<path fill="#DC503C" d="M127.5,226.9v15.3c0,7.1-5.7,12.7-12.7,12.7h-51V131.7h33.7c5.3,0,10,3.3,11.9,8.2l4.2,11.1
		c0.8,2,1.5,4.1,2.2,6.1C123.5,179.6,127.5,203.1,127.5,226.9z"/>
	<path opacity="0.54" fill="#DCDCD2" d="M131.4,28.3l-14.3-5.7l0.5-5.1c0.2-1.7,0-3.3-0.5-4.8c-1.3-4.5-5.1-8.1-10-9h0
		C92.8,1.3,78.3,0,63.7,0C49.2,0,34.7,1.3,20.3,3.8h0c-4.9,0.8-8.8,4.5-10,9c-0.5,1.5-0.6,3.2-0.5,4.8l10.3,102.6
		c0.3,3.3,1.9,6.2,4.1,8.2c2.3,2.1,5.3,3.3,8.5,3.3h61.9c6.5,0,12-5,12.7-11.5l0.8-7.5l23.4-9.3c8.7-3.5,14.2-11.7,14.2-21V49.4
		C145.7,40.1,140.1,31.8,131.4,28.3z M132.9,82.3c0,4.1-2.4,7.6-6.2,9.2l-17.2,6.9l6.3-62.5l10.9,4.3c3.8,1.5,6.2,5.1,6.2,9.2V82.3z
		"/>
	<path opacity="0.19" fill="#BEBEB4" d="M131.4,28.3l-14.3-5.7l0.5-5.1c0.2-1.7,0-3.3-0.5-4.8c-1.3-4.5-5.1-8.1-10-9h0
		C92.8,1.3,78.3,0,63.7,0v131.7h30.9c6.5,0,12-5,12.7-11.5l0.8-7.5l23.4-9.3c8.7-3.5,14.2-11.7,14.2-21V49.4
		C145.7,40.1,140.1,31.8,131.4,28.3z M132.9,82.3c0,4.1-2.4,7.6-6.2,9.2l-17.2,6.9l6.3-62.5l10.9,4.3c3.8,1.5,6.2,5.1,6.2,9.2V82.3z
		"/>
	<path fill="#466482" d="M115.8,157.2H11.7c0.7-2,1.4-4.1,2.2-6.1l4.2-11.1c1.9-5,6.6-8.2,11.9-8.2h67.4c5.3,0,10,3.3,11.9,8.2
		l4.2,11.1C114.3,153.1,115.1,155.1,115.8,157.2z"/>
	<path fill="#466482" d="M127.5,242.2c0,7.1-5.7,12.7-12.7,12.7h-102c-7.1,0-12.7-5.7-12.7-12.7H127.5z"/>
	<path fill="#466482" d="M80.7,208.2c0,9.4-7.6,17-17,17c-9.4,0-17-7.6-17-17c0-9.4,7.6-17,17-17C73.1,191.2,80.7,198.8,80.7,208.2z
		"/>
	<path fill="#466482" d="M117.2,12.7H10.3c1.3-4.5,5.1-8.1,10-9h0C34.7,1.3,49.2,0,63.7,0c14.5,0,29.1,1.3,43.4,3.8h0
		C112.1,4.6,115.9,8.2,117.2,12.7z"/>
	<path fill="#32506E" d="M117.2,12.7H63.7V0c14.5,0,29.1,1.3,43.4,3.8h0C112.1,4.6,115.9,8.2,117.2,12.7z"/>
	<path fill="#32506E" d="M115.8,157.2h-52v-25.5h33.7c5.3,0,10,3.3,11.9,8.2l4.2,11.1C114.3,153.1,115.1,155.1,115.8,157.2z"/>
	<path fill="#32506E" d="M80.7,208.2c0,9.4-7.6,17-17,17v-34C73.1,191.2,80.7,198.8,80.7,208.2z"/>
	<path fill="#32506E" d="M127.5,242.2c0,7.1-5.7,12.7-12.7,12.7h-51v-12.7H127.5z"/>
</g>
</svg>
