<?xml version="1.0" encoding="utf-8"?>
<!-- Generator: Adobe Illustrator 18.1.1, SVG Export Plug-In . SVG Version: 6.00 Build 0)  -->
<svg version="1.1" id="Ebene_1" xmlns="http://www.w3.org/2000/svg" xmlns:xlink="http://www.w3.org/1999/xlink" x="0px" y="0px"
	 viewBox="0 0 1440 900" enable-background="new 0 0 1440 900" xml:space="preserve">
<rect fill="#E2BBC0" width="1440" height="900"/>
<g>
	<path fill="#E21118" d="M725.3,628l34.6-89.5c0,0,0.5-5.8,5.8-3.8l26.6,6l-1.7,5.8l-24.7-6.5l-1,3.1L731,629L725.3,628z"/>
	<polygon fill="#3A3833" points="708.3,581.5 712.5,641.3 714.2,641.3 714.2,644.2 764.8,644.2 764.8,641.3 765.7,641.3 
		769.9,581.5 	"/>
	<polygon opacity="0.48" fill="#3EA3A9" points="772.3,546.4 705.9,546.4 708.3,581.5 769.9,581.5 	"/>
	<polygon opacity="0.48" fill="#3EA3A9" points="708.3,581.5 712.5,641.3 714.2,641.3 714.2,644.2 764.8,644.2 764.8,641.3 
		765.7,641.3 769.9,581.5 	"/>
</g>
<rect x="1085" y="690" fill="#1B1D20" width="20" height="210"/>
<rect x="145" y="690" fill="#1B1D20" width="20" height="210"/>
<rect x="145" y="680" fill="#1B1D20" width="960" height="20"/>
<rect x="145" y="670" fill="#825646" width="960" height="10"/>
<rect x="110.7" y="645" fill="#9F6442" width="1028.6" height="25"/>
<g>
	<g>
		<polygon fill="#B2B4B6" points="251.8,362.1 246.4,356.5 243.9,354 241.9,357 164.8,479.4 175.3,478.3 176.1,486.5 252.2,365.9 
			253.5,363.8 		"/>
		<path fill="#0E2037" d="M200.5,448.8l-10.3-8.7c-1-0.9-2.4-1.2-3.7-1c-1.3,0.2-2.5,1-3.2,2.1l-22.4,35.5c-1,1.6-1,3.6-0.1,5.2
			c0.9,1.6,2.7,2.5,4.5,2.3l5.9-0.6l0.3,3.4c0.2,2,1.6,3.7,3.5,4.2c0.5,0.1,1.1,0.2,1.6,0.1c1.4-0.1,2.6-0.9,3.4-2.2l21.4-34
			C202.8,453.2,202.4,450.4,200.5,448.8z"/>
	</g>
	<g>
		<polygon fill="#B2B4B6" points="220.1,629.1 227.7,627.8 231.2,627.2 229.9,623.8 179.4,487.3 174.2,496.8 167.2,492.6 217,627.2 
			217.8,629.5 		"/>
		<path fill="#0E2037" d="M182.4,535.2l12.9-3.6c1.3-0.4,2.4-1.3,3-2.5c0.6-1.2,0.7-2.6,0.2-3.9l-14.6-39.6c-0.6-1.7-2.2-2.9-4-3.1
			c-1.8-0.1-3.5,0.8-4.4,2.4l-2.9,5.3l-2.9-1.7c-1.7-1-3.9-0.8-5.4,0.5c-0.4,0.4-0.8,0.8-1,1.3c-0.7,1.2-0.8,2.8-0.3,4.2l14,37.9
			C177.7,534.5,180.1,535.8,182.4,535.2z"/>
	</g>
	<g>
		<path fill="#EAE741" d="M346.2,393.6c4.6,10.6-0.2,23.1-10.7,27.9c-10.5,4.8-22.8,0.2-27.3-10.4c-4.6-10.6,0.2-23.1,10.7-27.9
			C329.3,378.4,341.6,383,346.2,393.6z"/>
		<g>
			<path fill="#9DB2BD" d="M253.2,346.1l-14.7,15.1l-13.2,13.5c-0.7,0.7-1.1,1.8-1.1,2.8c0,1.1,0.4,2.1,1.1,2.8l8.6,9
				c0.7,0.8,1.7,1.2,2.7,1.2c1,0,2-0.4,2.7-1.2l11-11.3l16.9-17.3L253.2,346.1z"/>
			<path fill="#231F20" d="M240.5,378.9c0,3.1-2.4,5.5-5.4,5.5c-2.9,0-5.3-2.5-5.3-5.6c0-3.1,2.4-5.5,5.3-5.5
				C238.1,373.4,240.5,375.8,240.5,378.9z"/>
		</g>
	</g>
	<path fill="#FFFFFF" d="M268,609.8c-0.5-0.3-1-0.4-1.6-0.4c-1.2,0-2.2,0.6-2.8,1.7l-3.9,7.1c-0.4,0.8-0.5,1.7-0.3,2.5
		c0.2,0.9,0.8,1.6,1.5,2c0.5,0.3,1,0.4,1.6,0.4c1.2,0,2.2-0.6,2.8-1.7l3.9-7.1C270.1,612.8,269.6,610.8,268,609.8z"/>
	<ellipse fill="#0E2037" stroke="#FFFFFF" stroke-width="5" stroke-miterlimit="10" cx="172.5" cy="483" rx="17.1" ry="17.7"/>
	<path fill="#0E2037" d="M273.6,624.3c0,3.7-2.9,6.7-6.5,6.7h-8.6c-3.6,0-6.5-3-6.5-6.7l0,0c0-3.7,2.9-6.7,6.5-6.7h8.6
		C270.7,617.6,273.6,620.6,273.6,624.3L273.6,624.3z"/>
	<path fill="#0E2037" d="M240.2,309.5l-15.3,18.7c-21.6,26.4,28,33.3,32.5,70.7c2.5,20.7,17.2,30.9,34,45.7
		c3.6,3.2,8.2,3.6,10.3,1.1l62.5-76.3c2.1-2.6,0.9-7.2-2.7-10.4c-20.8-18.3-34.1-29.1-48.8-27.7C275.9,334.8,261.8,283,240.2,309.5z
		"/>
	<path fill="#FFFFFF" d="M291.4,444.6c3.6,3.2,8.2,3.6,10.3,1.1l62.5-76.3c2.1-2.6,0.9-7.2-2.7-10.4
		C361.3,358.7,291,444.3,291.4,444.6z"/>
	<path fill="#0E2037" d="M240.2,341.2l15.3-18.7c11.4-14,32.6,3.1,32.7,2.7c-20.1-11.9-32-35.3-48.1-15.7l-15.3,18.7
		c-16.6,20.2,8.6,28.8,23.4,48.8C248.3,377,227.1,357.5,240.2,341.2z"/>
	<path fill="#364D5C" d="M290.3,633.4c0,5.9-6.8,10.6-15.1,10.6h-72.1c-8.3,0-15.1-4.8-15.1-10.6l0,0c0-5.9,6.8-10.6,15.1-10.6h72.1
		C283.6,622.8,290.3,627.6,290.3,633.4L290.3,633.4z"/>
	<path fill="#0E2037" d="M310.2,645c-1-7.5-10-13.4-20.9-13.4H189c-10.9,0-19.9,5.9-20.9,13.4H310.2z"/>
</g>
<g>
	<rect x="1183" y="161" fill="#7FB2AF" width="257" height="372"/>
	<polygon fill="#444444" points="1152,163 1152,140 1440,140 1440,165 1183,165 1183,503 1440,503 1440,545 1152,545 1152,522 
		1163,522 1163,163 	"/>
</g>
<g>
	<g>
		<path fill="#96DD8E" d="M535.5,563.9v-6.4c0-3.7,3.5-6.6,7.9-6.6h173.2c4.3,0,7.9,3,7.9,6.6v6.4c0,44-42.3,79.6-94.5,79.6
			S535.5,607.9,535.5,563.9z"/>
		<path fill="#89C681" d="M535.5,563.9v-6.4c0-3.7,3.5-6.6,7.9-6.6H630v92.7C577.8,643.5,535.5,607.9,535.5,563.9z"/>
	</g>
</g>
<g>
	<path fill="#424242" d="M1048.4,517v118c0,5.5-4.5,10-10,10H853.5c-5.5,0-10-4.5-10-10V517c0-5.5,4.5-10,10-10h184.9
		C1043.9,507,1048.4,511.5,1048.4,517z"/>
	<rect x="863.7" y="515.5" fill="#EAEAEA" width="163.1" height="122.6"/>
	<circle fill="#8E8E8E" cx="854.7" cy="576" r="1.7"/>
	<circle fill="#8E8E8E" cx="1038.2" cy="576" r="4.8"/>
	<path fill="none" stroke="#D8D8D8" stroke-miterlimit="10" d="M1040.1,575.2v1.8c0,0.5-0.4,1-1,1h-1.8c-0.6,0-1-0.5-1-1v-1.8
		c0-0.5,0.4-1,1-1h1.8C1039.6,574.2,1040.1,574.6,1040.1,575.2z"/>
	<g>
		<path fill="#5D5D5D" d="M961.9,606c-4.4-1.2-8.8-5.6-10.4-6.7c-2.3-1.7-5.5-1-5.5-1c0.9-1,1.3-2.4,1.3-2.4
			c-1.7,2.8-4.7,2.4-4.7,2.4s-3,0.5-4.7-2.4c0,0,0.3,1.4,1.3,2.4c0,0-3.2-0.6-5.5,1c-1.6,1.2-6,5.5-10.4,6.7v-34.7
			c14.9,2.4,31.5,8.7,38.5,11.6V606z M923.3,616.7v-5.2c6.5-1.3,12.8-7.8,17.8-5.8l1.5-1.3l1.5,1.3c5-2,11.2,4.6,17.8,5.8v5.2H923.3
			z M942.6,620.9c-0.8,0-1.5-0.7-1.5-1.5c0-0.8,0.7-1.5,1.5-1.5c0.8,0,1.5,0.7,1.5,1.5C944.1,620.2,943.4,620.9,942.6,620.9
			 M920.6,560.1c-8.9-2.6-13-7.7-11.5-14.2c1.8-7.8,7.9-9.7,11.3-10.2c1.6-0.2,3.4-0.2,4.9,0c0.9,0.1,2.1,0.4,3.4,0.6
			c5.6,1.1,15,2.9,22.9,1.8c0.9-0.1,1.7-0.3,2.5-0.5c3.6-0.8,6-1.3,8.2-1.6c8-1.1,13,0.4,17.2,5.3c1.9,2.2,2.7,4.7,2.4,7.5
			c-0.4,4.5-3.6,8.8-6.5,11.1c-1.8,1.4-3.7,2.2-5.8,2.5c-0.2,0-0.4,0-0.6,0.1l-0.1,0l-1.8-0.8l1-0.4c1.1-0.5,2.2-1.4,3.3-2.7
			c-0.9,0.4-2,0.8-3.2,1c-0.8,0.1-1.6,0.1-2.5,0l-1.4-0.2l1.2-0.7c1.2-0.7,2.2-1.6,3.1-2.5c2.2-2.4,3.6-4.6,4.4-6.2
			c-3.9,4-7.5,6.2-10.8,6.7c-1.6,0.2-2.8-0.1-3.6-0.3l-0.6-0.2l0.3-0.5c1.2-1.8,2.2-4.1,2.8-6.7c-1,1.7-2.5,3.8-4.3,5
			c-1.4,1-3.1,2.1-4.6,2.3c-1,0.1-1.8-0.1-2.5-0.6c-0.9-0.7-1.5-1.9-1.8-3.7c-0.6,1.1-1.7,2.3-3.7,2.6l-0.1,0
			c-1.7,0.2-3.5-0.3-5-1.5c-1.1-0.9-1.9-2-2.4-3.3c0,0.4,0,0.9,0.1,1.4l0.1,0.4l-0.4,0.1c-0.5,0.1-1.4,0.4-2.6,0.5
			c-3.6,0.5-9.8,0.6-15.9-3c1.1,1,2.5,2.1,4.1,3l0.9,0.5l-1,0.4c-1.2,0.4-2.4,0.7-3.7,0.9c1,0.3,2.2,0.7,3.6,0.8l0.6,0.1l-1.5,5.4
			L920.6,560.1z M962.4,579.8l-2-0.8c-20.2-9-37.3-10.7-37.5-10.7l1.5-7.3l2-7.1l0.5,0.1c3.3,0.9,6.9,0.9,10.5,0l0.4-0.1l0.2,0.3
			c0.2,0.5,0.5,0.9,0.9,1.4c1.6,2.1,3.6,2.4,5,2.2c1.5-0.2,2.7-1,2.8-1.3l0.4-0.9l0.4,0.9c0,0,1.2,2.4,4.1,3.2c1,0.3,2.3,0,3.6-0.8
			l0.4-0.2l0.3,0.4c1.1,1.7,3.4,1.6,4.6,1.5c0.5-0.1,1.1-0.2,1.7-0.4l0.2-0.1l0.2,0.2c0.5,0.4,1.5,1.1,2.8,1.3l0.5,0.1L962.4,579.8z
			 M964.9,584.2L969,564l0.3,0c0.4,0,0.8-0.1,1.2-0.1c7.4-1,15-8.8,14-18.2c-0.4-4.1-2.4-7.5-5.6-10c-4.2-3.3-10.6-4.8-16.7-4
			c-0.5,0.1-1,0.2-1.4,0.3c-1.7,0.4-3.4,0.7-5.1,0.9c-9.5,1.3-18.9,0.9-30.9-0.3c-2-0.2-3.9-0.2-5.7,0.1c-4.9,0.7-8.9,3.2-11.2,7
			c-2.1,3.6-2.6,7.9-1.3,11.7c2.4,6.7,10.2,9.4,13.5,10.2l0.5,0.1l0,0h0c0,0-0.4,3.1-0.6,5.1c-0.3,2.2-0.3,4.2-0.3,4.2
			c0.3,0,0.6,0.1,0.9,0.1v35.4c-1-0.1-1.9-0.4-2.8-1c-5.4-4-0.8-11.5-1.4-15.3c-0.6-3.9-4.7-4.5-6.7-0.9c0,0,3.5-2.5,4.2-0.2
			c0.7,2.2-1.9,7.9-2.1,11c-0.2,3.1,0.3,10.7,8.1,11.9c0.3,0,0.5,0.1,0.8,0.1v8.2c0,1.2,1,2.3,2.3,2.3h39.3c1.2,0,2.3-1,2.3-2.3
			v-8.2c0.3,0,0.5,0,0.8-0.1c7.7-1.2,8.3-8.8,8.1-11.9c-0.2-3.1-2.8-8.8-2.1-11c0.7-2.2,4.2,0.2,4.2,0.2c-2.1-3.6-6.1-2.9-6.7,0.9
			c-0.6,3.9,4,11.4-1.4,15.3c-0.9,0.6-1.8,1-2.8,1V584C964.6,584.1,964.8,584.1,964.9,584.2"/>
	</g>
</g>
</svg>
