<?xml version="1.0" encoding="utf-8"?>
<!-- Generator: Adobe Illustrator 18.1.1, SVG Export Plug-In . SVG Version: 6.00 Build 0)  -->
<svg version="1.1" id="Ebene_1" xmlns="http://www.w3.org/2000/svg" xmlns:xlink="http://www.w3.org/1999/xlink" x="0px" y="0px"
	 viewBox="0 0 278.4 698.4" enable-background="new 0 0 278.4 698.4" xml:space="preserve">
<g>
	<g>
		<path fill="#E6C48A" d="M12,237.4c0,0-0.1,0-0.1,0.1C11.9,237.5,12,237.5,12,237.4L12,237.4z"/>
		<path fill="#E6C48A" d="M224.9,237.8c0,0-0.1,0-0.1,0l0,0c0.2,0.1,0.3,0.1,0.4,0.2C225.2,237.9,225,237.9,224.9,237.8z"/>
		<ellipse fill="#DEB773" cx="197.8" cy="116.4" rx="14.8" ry="25.9"/>
		<ellipse fill="#DEB773" cx="82.8" cy="115.2" rx="14.8" ry="25.9"/>
		<path fill="#E6C389" d="M177.7,176.1l-37.7,2.3v0l-37.7-2.3c2.3,55.3-10.8,47.2-23.5,53.1c2.7,32.7,61.1,36.7,61.1,36.7v0
			c0,0,61.7-4.1,64.5-36.7C191.8,223.3,175.4,231.4,177.7,176.1z"/>
		<path fill="#FFFFFF" d="M232.4,237.2c-9-3.5-22-7.5-29-9.1c-1-0.3-2.8-0.5-4-0.7c-6.4,29.4-60.3,27.8-60.3,27.8
			s-54.3,1.6-60.7-27.8c-1.1,0.1-2,0.3-4,0.6c-7,1.6-19.1,5.7-29.1,9.2v0.3c-5,1.7-9,3.5-12.1,4.7L33,487.4h12.3h29.1h64.7h64.3h29
			h13V242C242.4,240.8,238.4,239.1,232.4,237.2z"/>
		<path fill="#E6C48A" d="M6.1,277.1c0.6-15.8,10.6-25.6,16.9-30.1c2.1-1.1,6.3-2.9,10-4.7c0.1-0.1-0.5-0.2,0.5-0.2v275.4H0
			L6.1,277.1z"/>
		<path fill="#E6C48A" d="M272.3,277.1c-0.6-15.8-10.6-25.6-16.9-30.1c-2.1-1.1-6.1-2.9-9.8-4.7c-0.1-0.1,0.7-0.2-0.3-0.2v275.4h33
			L272.3,277.1z"/>
		<path fill="#F2CFA5" d="M201.5,55.2L141,28.3v0L80.4,55.2c0,0-2.7,89.3,0,93.5c9.1,48,60.5,53,60.5,53v0c0,0,51.4-5,60.5-53
			C204.2,144.5,201.5,55.2,201.5,55.2z"/>
		<path fill="#3D2901" d="M79.8,119.7l0.1-42c0,0,19.2-5,60.8-4.8c47.4,0.9,60.4,3.6,60.4,3.6s-1.2,15.1,1.9,29.2
			c3.4-9,3.7-34.1,3.8-59.1c0.2-28.3-11.1-40-13.5-43.8c0,0-3,23-19.6,18.8c-9.2-3.8-11.1-7.9-11.1-7.9c-1.4,17.3-16.8-6-24.4-7.7
			c4,5.9-2.5,16-12.3,14.7C115,19.4,113.8,0,113.8,0c-0.6,0.8-7.4,19.9-13.7,22.2C95.4,23.9,95.2,10,95.2,10
			c-15.8,7.2-22.3,36.6-22.5,42.3C70.4,131.7,79.8,119.7,79.8,119.7z"/>
		<path fill="#2D2D2D" d="M163.6,158.9c-3,2.7-10.6,9-21.3,9.6c-12.8,0.7-21.5-7.2-24.2-9.7L163.6,158.9z"/>
		<polygon fill="#4183D7" points="246,698.4 33,698.4 33,501.7 45.3,485.3 233,485.3 246,501.7 		"/>
		<rect x="135.6" y="529.5" fill="#205DA0" width="3.6" height="165.3"/>
		<rect x="33" y="482.6" fill="#66593C" width="212.4" height="28.5"/>
	</g>
	<circle fill="#694A39" cx="166.2" cy="114.5" r="5.2"/>
	<circle fill="#694A39" cx="113.7" cy="114.5" r="5.2"/>
</g>
</svg>
