<?xml version="1.0" encoding="utf-8"?>
<!-- Generator: Adobe Illustrator 16.0.0, SVG Export Plug-In . SVG Version: 6.00 Build 0)  -->
<!DOCTYPE svg PUBLIC "-//W3C//DTD SVG 1.1//EN" "http://www.w3.org/Graphics/SVG/1.1/DTD/svg11.dtd">
<svg version="1.1" id="Capa_1" xmlns="http://www.w3.org/2000/svg" xmlns:xlink="http://www.w3.org/1999/xlink" x="0px" y="0px"
	 width="533.332px" height="533.333px" viewBox="0 0 533.332 533.333" enable-background="new 0 0 533.332 533.333"
	 xml:space="preserve">
<g>
	<g>
		<path fill="#FFFFFF" d="M530.165,265.537v27.864c0,18.774-15.342,34.117-34.116,34.117h-21.224v-16.486
			c0-12.506-10.233-22.739-22.747-22.739H82.21c-12.514,0-22.747,10.233-22.747,22.739v16.486H38.244
			c-18.767,0-34.117-15.343-34.117-34.117v-27.864H530.165z"/>
		<path fill="#FFFFFF" d="M496.049,97.889H38.244c-18.767,0-34.117,15.351-34.117,34.117v110.793h526.038V132.005
			C530.165,113.239,514.823,97.889,496.049,97.889z M325.61,214.981c0,6.253-5.116,11.363-11.369,11.363h-94.186
			c-6.253,0-11.37-5.11-11.37-11.363v-8.446c0-6.253,5.117-11.362,11.37-11.362h94.186c6.253,0,11.369,5.109,11.369,11.362V214.981z
			"/>
	</g>
	<g>
		<path fill="#FFFFFF" d="M115.002,351.212c0.596-3.196,2.767-3.776,4.835-1.254l8.04,9.811l1.372,1.646
			c18.218-13.149,35.104-27.269,45.016-46.639c0,0,4.553,37.502-26.9,68.469l0.643,0.8l8.149,9.92
			c2.061,2.522,1.089,4.528-2.17,4.48c0,0-46.231,0.017-47.116-1.064C105.999,396.315,115.002,351.212,115.002,351.212z"/>
		<path fill="#FFFFFF" d="M427.427,397.381c-0.885,1.081-47.115,1.064-47.115,1.064c-3.26,0.048-4.231-1.958-2.172-4.48l8.149-9.92
			l0.644-0.8c-31.452-30.967-26.9-68.469-26.9-68.469c9.913,19.37,26.799,33.489,45.016,46.639l1.372-1.646l8.039-9.811
			c2.069-2.522,4.239-1.942,4.835,1.254C419.294,351.212,428.297,396.315,427.427,397.381z"/>
		<g>
			<path fill="#FFFFFF" d="M295.6,384.327h-12.686c0,0-9.262-15.217-14.928-64.958c-5.986,48.519-16.604,64.77-16.604,64.77h-12.835
				c-3.268,0-4.208,2.037-2.107,4.53c0,0,29.32,35.746,30.708,35.746s30.543-35.559,30.543-35.559
				C299.8,386.364,298.859,384.327,295.6,384.327z"/>
		</g>
	</g>
</g>
</svg>
