<?xml version="1.0" encoding="utf-8"?>
<!-- Generator: Adobe Illustrator 16.0.0, SVG Export Plug-In . SVG Version: 6.00 Build 0)  -->
<!DOCTYPE svg PUBLIC "-//W3C//DTD SVG 1.1//EN" "http://www.w3.org/Graphics/SVG/1.1/DTD/svg11.dtd">
<svg version="1.1" id="Capa_1" xmlns="http://www.w3.org/2000/svg" xmlns:xlink="http://www.w3.org/1999/xlink" x="0px" y="0px"
	 width="533.332px" height="533.333px" viewBox="0 0 533.332 533.333" enable-background="new 0 0 533.332 533.333"
	 xml:space="preserve">
<g>
	<path fill="#FFFFFF" d="M527.614,451.63l-10.308-14.487c-3.417-4.811-11.057-8.755-16.968-8.755h-57.128L325.273,104.347
		c-22.377-44.293-58.687-49.704-75.242-48.927c-42.769,2.141-86.659,38.861-90.333,75.558c-1.159,11.606,0.784,39.784,43.699,50.702
		c89.717,22.813,83.243,51.409,77.538,76.646c0,0-0.022,0.103-0.037,0.162c-3.357-0.235-6.628,1.627-7.838,4.942l-6.768,18.58
		c11.452,4.003,22.056,7.83,31.039,11.174l6.722-18.477c1.152-3.138,0.059-6.526-2.375-8.564c0.221-0.982,0.411-1.95,0.646-2.977
		c8.16-36.133,8.343-76.826-93.514-102.727c-19.431-4.934-28.611-14.122-27.299-27.284c2.311-23.19,35.555-54.147,69.612-55.848
		c22.568-1.181,40.635,10.968,52.916,34.769L419.17,428.417c-5.845,0.104-11.872,4.693-13.456,10.31l-3.183,11.321
		c-1.612,5.675,1.9,10.323,7.795,10.323h112.788C529.009,460.372,531.031,456.442,527.614,451.63z"/>
	<path fill="#FFFFFF" d="M68.252,380.333c-6.693,0-12.112,5.426-12.112,12.112s5.418,12.113,12.112,12.113
		c6.687,0,12.113-5.427,12.113-12.113S74.939,380.333,68.252,380.333z"/>
	<path fill="#FFFFFF" d="M68.252,325.943c-36.733,0-66.502,29.783-66.502,66.503c0,36.734,29.769,66.503,66.502,66.503
		c36.719,0,66.495-29.769,66.495-66.503C134.747,355.726,104.971,325.943,68.252,325.943z M68.252,425.852
		c-18.418,0-33.397-14.987-33.397-33.406c0-18.404,14.979-33.391,33.397-33.391c18.412,0,33.392,14.986,33.392,33.391
		C101.644,410.865,86.664,425.852,68.252,425.852z"/>
	<path fill="#FFFFFF" d="M354.603,401.611c-57.976-25.075-160.266-60.533-228.807-75.389c18.55,16.102,30.34,39.784,30.34,66.224
		c0,26.514-11.877,50.239-30.517,66.356l17.414,1.847c56.796,0.631,127.163-0.308,151.709-7.934
		C329.35,441.983,346.727,425.748,354.603,401.611z"/>
	<path fill="#FFFFFF" d="M358.121,386.976c0.308-1.862,0.602-3.77,0.837-5.719c4.971-47.103-29.468-57.969-41.779-63.98
		c-9.128-5.661-151.116-55.857-186.156-60.167c-53.437-6.6-74.693,17.583-85.229,32.232c-5.155,7.156-9.217,14.943-12.501,22.686
		c10.749-4.707,22.597-7.361,35.062-7.361C120.282,299.665,277.79,352.515,358.121,386.976z"/>
</g>
</svg>
