<?xml version="1.0" encoding="utf-8"?>
<!-- Generator: Adobe Illustrator 16.0.0, SVG Export Plug-In . SVG Version: 6.00 Build 0)  -->
<!DOCTYPE svg PUBLIC "-//W3C//DTD SVG 1.1//EN" "http://www.w3.org/Graphics/SVG/1.1/DTD/svg11.dtd">
<svg version="1.1" id="Capa_1" xmlns="http://www.w3.org/2000/svg" xmlns:xlink="http://www.w3.org/1999/xlink" x="0px" y="0px"
	 width="533.332px" height="533.333px" viewBox="0 0 533.332 533.333" enable-background="new 0 0 533.332 533.333"
	 xml:space="preserve">
<g>
	<path fill="#FFFFFF" d="M2.9,503.828c0,15.586,12.621,28.187,28.188,28.187h471.489c15.552,0,28.181-12.601,28.181-28.187v-18.199
		H2.9V503.828z"/>
	<path fill="#FFFFFF" d="M502.576,4.167H31.087C15.521,4.167,2.9,16.786,2.9,32.344v439.183h527.857V32.344
		C530.757,16.786,518.128,4.167,502.576,4.167z M266.837,441.322c-109.722,0-198.677-88.95-198.677-198.651
		c0-109.715,88.955-198.676,198.677-198.676c109.718,0,198.656,88.961,198.656,198.676
		C465.493,352.372,376.555,441.322,266.837,441.322z"/>
	<path fill="#FFFFFF" d="M309.318,176.466c13.188-19.003,33.316-59.483-3.857-93.426c-30.14-27.495-133.317-13.362-138.174,8.515
		c-3.763,16.921,33.31,66.956,47.388,92.25c-5.395,4.787-10.131,10.285-14.043,16.377c-19.008-13.213-59.474-33.324-93.426,3.857
		c-27.504,30.105-13.356,133.278,8.506,138.164c16.936,3.758,66.975-33.33,92.258-47.393c4.792,5.38,10.292,10.127,16.378,14.043
		c-13.202,18.989-33.329,59.479,3.857,93.441c30.12,27.475,133.298,13.353,138.164-8.524c3.77-16.933-33.324-66.956-47.393-92.255
		c5.39-4.787,10.127-10.285,14.05-16.378c18.982,13.213,59.472,33.33,93.43-3.857c27.485-30.125,13.352-133.303-8.529-138.158
		c-16.924-3.759-66.955,33.304-92.246,47.388C320.891,185.129,315.402,180.362,309.318,176.466z M266.837,304.444
		c-34.068,0-61.783-27.712-61.783-61.773c0-34.082,27.715-61.794,61.783-61.794c34.062,0,61.772,27.712,61.772,61.794
		C328.609,276.732,300.898,304.444,266.837,304.444z"/>
	<path fill="#FFFFFF" d="M266.837,194.96c-26.293,0-47.685,21.402-47.685,47.71c0,26.288,21.392,47.69,47.685,47.69
		c26.288,0,47.68-21.402,47.68-47.69C314.517,216.363,293.125,194.96,266.837,194.96z M266.826,267.099
		c-13.496,0-24.424-10.958-24.424-24.428c0-13.491,10.928-24.429,24.424-24.429c13.505,0,24.424,10.938,24.424,24.429
		C291.25,256.141,280.331,267.099,266.826,267.099z"/>
</g>
</svg>
