<?xml version="1.0" encoding="utf-8"?>
<!-- Generator: Adobe Illustrator 16.0.0, SVG Export Plug-In . SVG Version: 6.00 Build 0)  -->
<!DOCTYPE svg PUBLIC "-//W3C//DTD SVG 1.1//EN" "http://www.w3.org/Graphics/SVG/1.1/DTD/svg11.dtd">
<svg version="1.1" id="Capa_1" xmlns="http://www.w3.org/2000/svg" xmlns:xlink="http://www.w3.org/1999/xlink" x="0px" y="0px"
	 width="533.332px" height="533.333px" viewBox="0 0 533.332 533.333" enable-background="new 0 0 533.332 533.333"
	 xml:space="preserve">
<path fill="#FFFFFF" d="M463.397,105.151H68.848c0-31.79,74.654-57.788,183.262-59.863c-4.371-3.874-7.169-9.486-7.169-15.793
	c0-11.704,9.485-21.2,21.189-21.2c11.705,0,21.185,9.496,21.185,21.2c0,6.307-2.808,11.919-7.17,15.793
	C388.743,47.363,463.397,73.361,463.397,105.151z M518.015,136.717l-46.698,19.768c3.248,5.32,5.137,11.524,5.137,18.157v292.189
	c0,19.822-16.578,35.884-36.991,35.884H92.783c-20.428,0-36.983-16.062-36.983-35.884V174.642c0-6.633,1.895-12.837,5.139-18.171
	l-46.728-19.753c-9.433-3.996-13.844-14.885-9.853-24.317c3.996-9.443,14.874-13.873,24.331-9.862l41.775,17.663h391.331
	l41.761-17.663c9.427-4.011,20.32,0.419,24.311,9.862C531.861,121.832,527.447,132.721,518.015,136.717z M141.139,190.625
	c0-10.307-8.382-18.68-18.681-18.68c-10.311,0-18.67,8.373-18.67,18.68v269.396c0,10.336,8.359,18.679,18.67,18.679
	c10.298,0,18.681-8.343,18.681-18.679V190.625z"/>
</svg>
