<?xml version="1.0" encoding="utf-8"?>
<!-- Generator: Adobe Illustrator 16.0.0, SVG Export Plug-In . SVG Version: 6.00 Build 0)  -->
<!DOCTYPE svg PUBLIC "-//W3C//DTD SVG 1.1//EN" "http://www.w3.org/Graphics/SVG/1.1/DTD/svg11.dtd">
<svg version="1.1" id="Capa_1" xmlns="http://www.w3.org/2000/svg" xmlns:xlink="http://www.w3.org/1999/xlink" x="0px" y="0px"
	 width="533.332px" height="533.333px" viewBox="0 0 533.332 533.333" enable-background="new 0 0 533.332 533.333"
	 xml:space="preserve">
<g>
	<path fill="#FFFFFF" d="M340.898,335.677c-10.188,0-18.907-5.948-23.113-14.515c-4.181,8.566-12.901,14.515-23.073,14.515
		c-10.174,0-18.893-5.948-23.084-14.515c-4.201,8.566-12.916,14.515-23.093,14.515c-10.168,0-18.897-5.943-23.089-14.515
		c-4.196,8.571-12.916,14.515-23.084,14.515c-14.209,0-25.726-11.487-25.788-25.693c-2.887,9.317-4.437,19.216-4.437,29.475
		c0,54.954,44.536,99.491,99.491,99.491c54.945,0,99.48-44.537,99.48-99.491c0-10.259-1.559-20.157-4.446-29.475
		C366.608,324.19,355.094,335.677,340.898,335.677z"/>
	<path fill="#FFFFFF" d="M472.899,140.252H70.356c-15.616,0-28.271,12.646-28.271,28.267v362.02h459.081v-362.02
		C501.166,152.898,488.51,140.252,472.899,140.252z M271.628,464.483c-69.049,0-125.019-55.971-125.019-125.024
		c0-69.044,55.97-125.019,125.019-125.019c69.039,0,125.019,55.975,125.019,125.019
		C396.646,408.512,340.667,464.483,271.628,464.483z"/>
	<path fill="#FFFFFF" d="M472.899,5.137H70.356c-15.616,0-28.271,12.656-28.271,28.257v83.63h459.081v-83.63
		C501.166,17.793,488.51,5.137,472.899,5.137z M112.173,87.824c-14.778,0-26.75-11.977-26.75-26.75
		c0-14.769,11.973-26.741,26.75-26.741c14.764,0,26.741,11.973,26.741,26.741C138.914,75.847,126.937,87.824,112.173,87.824z
		 M198.488,87.824c-14.773,0-26.755-11.977-26.755-26.75c0-14.769,11.981-26.741,26.755-26.741
		c14.769,0,26.741,11.973,26.741,26.741C225.229,75.847,213.257,87.824,198.488,87.824z"/>
</g>
</svg>
