<?xml version="1.0" encoding="utf-8"?>
<!-- Generator: Adobe Illustrator 16.0.0, SVG Export Plug-In . SVG Version: 6.00 Build 0)  -->
<!DOCTYPE svg PUBLIC "-//W3C//DTD SVG 1.1//EN" "http://www.w3.org/Graphics/SVG/1.1/DTD/svg11.dtd">
<svg version="1.1" id="Capa_1" xmlns="http://www.w3.org/2000/svg" xmlns:xlink="http://www.w3.org/1999/xlink" x="0px" y="0px"
	 width="533.332px" height="533.333px" viewBox="0 0 533.332 533.333" enable-background="new 0 0 533.332 533.333"
	 xml:space="preserve">
<path fill="#FFFFFF" d="M365.96,108.971H166.335c-127.754,0-163.526,88.773-163.526,157.887c0,69.095,16.081,148.952,85.175,148.952
	c39.621,0,105.322-103.796,156.721-103.796c4.011,0,38.875,0,42.887,0c51.399,0,117.101,103.796,156.72,103.796
	c69.091,0,85.171-79.857,85.171-148.952C529.482,197.745,493.715,108.971,365.96,108.971z M174.448,259.307h-33.286v33.269
	c0,8.258-6.751,14.991-14.991,14.991c-8.24,0-14.973-6.733-14.973-14.991v-33.269H77.894c-8.24,0-14.974-6.751-14.974-14.99
	c0-8.24,6.733-14.992,14.974-14.992h33.304v-33.268c0-8.259,6.733-14.992,14.973-14.992c8.24,0,14.991,6.733,14.991,14.992v33.268
	h33.286c8.241,0,14.974,6.751,14.974,14.992C189.421,252.556,182.688,259.307,174.448,259.307z M367.866,258.092
	c-4.01,4.011-9.4,6.225-15.137,6.225c-5.771,0-11.161-2.232-15.209-6.28c-4.083-4.065-6.315-9.456-6.315-15.173
	c0-5.753,2.25-11.162,6.315-15.227c4.012-4.011,9.419-6.244,15.173-6.244c5.735,0,11.163,2.25,15.246,6.298
	C376.215,236.022,376.252,249.707,367.866,258.092z M422.243,312.45c-4.012,4.011-9.402,6.243-15.173,6.243
	c-5.736,0-11.145-2.232-15.21-6.28c-4.028-4.028-6.243-9.419-6.243-15.137c0-5.717,2.215-11.089,6.243-15.118
	c4.102-4.103,9.511-6.335,15.21-6.335c5.733,0,11.124,2.232,15.19,6.299c4.047,4.047,6.262,9.419,6.262,15.136
	C428.522,302.994,426.308,308.401,422.243,312.45z M422.243,203.625c-4.03,4.029-9.402,6.262-15.155,6.262
	c-5.754,0-11.162-2.232-15.191-6.28c-4.064-4.047-6.279-9.42-6.279-15.173c0-5.717,2.215-11.09,6.243-15.101
	c4.102-4.097,9.511-6.33,15.245-6.33c5.735,0,11.107,2.232,15.138,6.275C430.627,181.646,430.627,195.258,422.243,203.625z
	 M476.618,258.037c-4.065,4.066-9.438,6.298-15.155,6.298c-5.734,0-11.107-2.232-15.154-6.28c-8.386-8.403-8.386-22.033-0.02-30.418
	c4.049-4.047,9.439-6.28,15.174-6.28c5.735,0,11.144,2.232,15.209,6.298C485.021,236.004,485.003,249.652,476.618,258.037z"/>
</svg>
