<?xml version="1.0" encoding="utf-8"?>
<!-- Generator: Adobe Illustrator 16.0.4, SVG Export Plug-In . SVG Version: 6.00 Build 0)  -->
<!DOCTYPE svg PUBLIC "-//W3C//DTD SVG 1.1//EN" "http://www.w3.org/Graphics/SVG/1.1/DTD/svg11.dtd">
<svg version="1.1" id="Capa_1" xmlns="http://www.w3.org/2000/svg" xmlns:xlink="http://www.w3.org/1999/xlink" x="0px" y="0px"
	 width="533.332px" height="533.333px" viewBox="0 0 533.332 533.333" enable-background="new 0 0 533.332 533.333"
	 xml:space="preserve">
<g>
	<path fill="#FFFFFF" d="M158.333,300c0,59.83,48.502,108.332,108.333,108.332S375,359.831,375,300
		c0-59.832-48.502-108.333-108.333-108.333S158.333,240.169,158.333,300z M500,116.667H383.333C375,83.333,366.667,50,333.333,50
		H200c-33.333,0-41.667,33.333-50,66.667H33.333C15,116.667,0,131.667,0,150v300c0,18.332,15,33.332,33.333,33.332H500
		c18.332,0,33.334-15,33.334-33.332V150C533.332,131.667,518.332,116.667,500,116.667z M266.667,447.917
		c-81.692,0-147.917-66.223-147.917-147.916c0-81.692,66.224-147.917,147.917-147.917c81.692,0,147.917,66.224,147.917,147.917
		C414.583,381.694,348.361,447.917,266.667,447.917z M500,216.667h-66.666v-33.333H500V216.667z"/>
</g>
</svg>
