<?xml version="1.0" encoding="utf-8"?>
<!-- Generator: Adobe Illustrator 18.1.1, SVG Export Plug-In . SVG Version: 6.00 Build 0)  -->
<svg version="1.1" id="Ebene_1" xmlns="http://www.w3.org/2000/svg" xmlns:xlink="http://www.w3.org/1999/xlink" x="0px" y="0px"
	 viewBox="0 0 580 199.8" enable-background="new 0 0 580 199.8" xml:space="preserve">
<g>
	<g>
		<g>
			<path fill="#FFFFFF" d="M1,0h69.6C77,0,82.9,1.9,88.4,5.5c5.5,3.7,10.1,8.7,14,15.2s7,13.7,9.2,21.7s3.4,16.4,3.5,25.1
				c0,17.5-2.3,31.3-7,41.6s-12.4,18.2-23.3,23.8c-8.9,4.6-18.7,7-29.2,7H0v-2.6h20.9L20.8,2.3H1C1,2.3,1,0,1,0z M60.6,2.6H39.3
				v134.8h17.9c7.5,0,14.4-1.7,20.4-5.2s9.6-8.1,10.9-14.2c4.3-20.2,6.4-38.2,6.4-53.7c0-18.2-2.7-33.8-8-46.7c-1.3-3-3.2-5.6-6-7.9
				c-2.8-2.3-6-4.1-9.5-5.3C67.5,3.1,64,2.6,60.6,2.6z"/>
			<path fill="#FFFFFF" d="M123.9,0h57.7v2.3h-19.8v135h19.8v2.6h-57.7v-2.6h19.3V2.3h-19.3V0z"/>
			<path fill="#FFFFFF" d="M191.3,0.2h100.5V47h-1.6c-0.7-7.1-1.3-12.2-1.7-15.3s-1.4-6.7-2.7-10.7s-3.2-7.3-5.9-10.3
				c-2.7-2.9-6-5-10.2-6c-5.8-1.4-12.5-2.1-20.1-2.1c-1.2,0-3.6,0-7.2,0.1c-3.7,0.1-7.1,0.1-10.3,0.1l-2.9,0.6v58.8
				c2.8,0,6,0,10,0.1c3.8,0,6.8,0.1,8.8,0.1c3.8,0,6.6-1.6,8.5-4.9c1.9-3.2,3.1-7.1,3.8-11.5s1.5-8.7,2.1-13l1,0.2v63H262
				c-0.5-3.7-0.9-7.2-1.4-10.2c-0.5-3.1-1-6-1.9-8.8c-0.8-2.8-2.1-5.2-3.9-7.1c-1.7-1.9-4.2-2.8-7.1-2.8H229V137c2,0,5,0.1,9,0.2
				s7.1,0.2,9.2,0.2c6.7,0,12.8-0.7,18-2.2c5.2-1.4,9.9-4.2,14-8.2c2.8-2.7,5-5.6,6.6-8.8c1.6-3.2,2.9-6.4,3.7-9.5
				c0.8-3.1,1.4-6.7,2-10.8c0.5-4.1,1-7.9,1.5-11.5h1.3v53.5l-103.9,0.2v-2.8h19.7l1.9-2.3V3.4c-2.3-0.5-5.7-0.7-10.2-0.8
				c-4.5-0.1-8-0.2-10.4-0.2V0.2z"/>
			<path fill="#FFFFFF" d="M408.9,0.5l36.8-0.2v2.3h-18.8v134.8h19.7v2.3h-56.8v-2.3h20.8V8.2c-2.7,9.6-6.6,24-11.8,43.2
				c-5.3,19.1-10.8,38.6-16.6,58.5c-5.8,19.8-8.9,29.8-9.6,29.8c-0.5,0-2.6-5.9-6.3-17.7c-3.6-11.8-8.2-27.4-13.9-46.7
				c-5.6-19.4-9.7-33.8-12.5-43.3s-4.9-16.9-6.4-22.4v118.7c0,2.3,0.8,4.1,2.3,5.5c1.6,1.3,3.6,2.2,6,2.7s5,0.8,7.5,0.8
				c2.6,0,4.5,0.1,5.9,0.1l0.2,2.8l-47.6-0.5v-2.3c13.9,0,20.9-3.1,20.9-9.3L329,11.4c0-2.7-1.2-4.6-3.4-5.7c-2.2-1.2-4.9-1.9-8-2.1
				c-3.1-0.3-6.6-0.7-10.7-1V0.2H349L377.5,105h1.3L408.9,0.5z"/>
			<path fill="#FFFFFF" d="M459.5,0.5h59.3v2.1h-22.3L529,67l21.3-49.5c1-2.2,1.5-4.2,1.5-5.9c0-6.1-6.6-9.3-19.8-9.3V0h48v2.3
				c-12.3,0-21.2,6.1-26.9,18.6l-22.9,51.6v64.7h21.9v2.8l-58.8-0.5v-2.3h20.1V70.3L478.3,2.6h-18.8L459.5,0.5L459.5,0.5z"/>
		</g>
		<g>
			<path fill="#FFFFFF" d="M6.7,199.2v-29.6h6.1c4.4,0,7.7,0.3,9.6,1c2.9,1,5.1,2.8,6.7,5.2c1.6,2.4,2.4,5.5,2.4,8.9
				c0,3-0.7,5.6-2,7.8c-1.3,2.2-2.9,3.9-5,5c-2.1,1-4.9,1.6-8.6,1.6L6.7,199.2L6.7,199.2z M9.6,196.4H13c4.1,0,7-0.2,8.5-0.8
				c2.2-0.7,3.9-2,5.2-3.9c1.3-2,1.9-4.2,1.9-7c0-2.9-0.7-5.3-2.1-7.3c-1.4-2-3.4-3.4-5.8-4.2c-1.9-0.6-4.9-0.8-9.2-0.8H9.6V196.4z"
				/>
			<path fill="#FFFFFF" d="M54.6,168.3c0.7,0,1.2,0.2,1.6,0.7c0.5,0.5,0.7,1,0.7,1.6s-0.2,1.2-0.7,1.6c-0.5,0.5-1,0.7-1.6,0.7
				c-0.6,0-1.2-0.2-1.6-0.7c-0.5-0.5-0.7-1-0.7-1.6c0-0.7,0.2-1.2,0.7-1.6C53.5,168.4,53.9,168.3,54.6,168.3z M53.2,177.2H56v21.9
				h-2.8V177.2z"/>
			<path fill="#FFFFFF" d="M97,191.9l2.3,1.3c-0.8,1.5-1.6,2.8-2.7,3.7c-1,0.9-2.2,1.6-3.5,2.1c-1.3,0.5-2.7,0.7-4.3,0.7
				c-3.6,0-6.4-1.2-8.4-3.5c-2-2.3-3-5-3-7.9c0-2.8,0.8-5.2,2.6-7.4c2.2-2.8,5.1-4.2,8.7-4.2c3.7,0,6.7,1.4,8.9,4.3
				c1.6,2,2.4,4.5,2.4,7.5H80.4c0,2.6,0.8,4.6,2.4,6.3c1.6,1.6,3.5,2.4,5.8,2.4c1.2,0,2.2-0.2,3.2-0.6c1-0.3,2-0.9,2.7-1.5
				C95.4,194.4,96.2,193.4,97,191.9z M97,186.1c-0.3-1.5-0.9-2.7-1.6-3.6s-1.6-1.6-2.9-2.2c-1.2-0.6-2.4-0.8-3.7-0.8
				c-2.2,0-3.9,0.7-5.6,2.1c-1.2,1-2,2.6-2.6,4.5H97z"/>
			<path fill="#FFFFFF" d="M150.6,199.2v-29.6h0.7l19.7,22.7v-22.7h2.9v29.6h-0.7l-19.5-22.4v22.4H150.6z"/>
			<path fill="#FFFFFF" d="M207.5,176.7c3.4,0,6.1,1.3,8.4,3.7c2,2.2,3,4.9,3,7.9s-1,5.7-3.2,8c-2.1,2.3-4.9,3.5-8.2,3.5
				c-3.4,0-6.1-1.2-8.2-3.5c-2.1-2.3-3.2-5-3.2-8c0-3,1-5.7,3-7.9C201.4,177.9,204.2,176.7,207.5,176.7z M207.5,179.5
				c-2.3,0-4.4,0.8-6,2.6c-1.7,1.7-2.6,3.8-2.6,6.3c0,1.6,0.3,3,1.2,4.4s1.9,2.4,3.1,3.1c1.3,0.7,2.8,1.2,4.3,1.2
				c1.5,0,3-0.3,4.3-1.2c1.3-0.7,2.3-1.9,3.1-3.1c0.8-1.3,1.2-2.9,1.2-4.4c0-2.4-0.8-4.5-2.6-6.3
				C211.9,180.4,209.8,179.5,207.5,179.5z"/>
			<path fill="#FFFFFF" d="M243.3,169.1h2.8v8.1h4.5v2.4H246v19.5h-2.8v-19.5h-3.8v-2.4h3.8V169.1z"/>
			<path fill="#FFFFFF" d="M280.5,168.8v2.8c-1-0.5-2-0.7-2.7-0.7c-0.6,0-1,0.1-1.4,0.3c-0.3,0.2-0.6,0.5-0.7,0.8
				c-0.1,0.2-0.1,1-0.1,2.3v3h4.5v2.4h-4.5v19.5h-2.8v-19.5h-2.9v-2.4h2.9V174c0-1.6,0.1-2.7,0.5-3.4c0.2-0.7,0.8-1.2,1.5-1.6
				c0.7-0.5,1.5-0.6,2.6-0.6C278.2,168.3,279.2,168.4,280.5,168.8z"/>
			<path fill="#FFFFFF" d="M322.8,177.2v21.9H320v-3.7c-1.2,1.4-2.6,2.6-3.9,3.2c-1.5,0.7-3.1,1-4.9,1c-3.1,0-5.8-1.2-7.9-3.4
				c-2.2-2.2-3.2-5-3.2-8.2c0-3.1,1.2-5.8,3.4-8.1c2.2-2.2,4.9-3.4,8-3.4c1.9,0,3.5,0.3,4.9,1.2c1.5,0.8,2.8,1.9,3.8,3.5v-4.1H322.8
				z M311.6,179.5c-1.6,0-3,0.3-4.3,1.2s-2.4,1.9-3.1,3.2c-0.8,1.4-1.2,2.9-1.2,4.4c0,1.5,0.3,3,1.2,4.4s1.9,2.6,3.1,3.2
				c1.3,0.8,2.8,1.2,4.3,1.2c1.5,0,3-0.3,4.4-1.2c1.4-0.8,2.4-1.9,3.1-3.1c0.7-1.3,1.2-2.8,1.2-4.5c0-2.6-0.8-4.6-2.6-6.4
				C316.1,180.3,314,179.5,311.6,179.5z"/>
			<path fill="#FFFFFF" d="M345.4,168.8h2.8v30.4h-2.8V168.8z"/>
			<path fill="#FFFFFF" d="M370.4,168.8h2.8v30.4h-2.8V168.8z"/>
			<path fill="#FFFFFF" d="M395.7,168.8h2.8v17.3l10.2-8.8h4.2l-12.1,10.4l12.8,11.5h-4.1l-11-9.9v9.9h-2.8V168.8z"/>
			<path fill="#FFFFFF" d="M451.5,191.9l2.3,1.3c-0.8,1.5-1.6,2.8-2.7,3.7c-1,0.9-2.2,1.6-3.5,2.1c-1.3,0.5-2.7,0.7-4.3,0.7
				c-3.6,0-6.4-1.2-8.4-3.5c-2-2.3-3-5-3-7.9c0-2.8,0.8-5.2,2.6-7.4c2.2-2.8,5.1-4.2,8.7-4.2c3.7,0,6.7,1.4,8.9,4.3
				c1.6,2,2.4,4.5,2.4,7.5h-19.7c0,2.6,0.8,4.6,2.4,6.3s3.5,2.4,5.8,2.4c1.2,0,2.2-0.2,3.2-0.6c1-0.3,2-0.9,2.7-1.5
				C449.8,194.4,450.7,193.4,451.5,191.9z M451.5,186.1c-0.3-1.5-0.9-2.7-1.6-3.6s-1.6-1.6-2.9-2.2c-1.2-0.6-2.4-0.8-3.7-0.8
				c-2.2,0-3.9,0.7-5.6,2.1c-1.2,1-2,2.6-2.6,4.5H451.5z"/>
			<path fill="#FFFFFF" d="M479,169.1h2.8v8.1h4.5v2.4h-4.5v19.5H479v-19.5h-3.8v-2.4h3.8V169.1z"/>
			<path fill="#FFFFFF" d="M509.6,169.1h2.8v8.1h4.5v2.4h-4.5v19.5h-2.8v-19.5h-3.8v-2.4h3.8V169.1z"/>
			<path fill="#FFFFFF" d="M556.1,191.9l2.3,1.3c-0.8,1.5-1.6,2.8-2.7,3.7c-1,0.9-2.2,1.6-3.5,2.1c-1.3,0.5-2.7,0.7-4.3,0.7
				c-3.6,0-6.4-1.2-8.4-3.5c-2-2.3-3-5-3-7.9c0-2.8,0.8-5.2,2.6-7.4c2.2-2.8,5.1-4.2,8.7-4.2c3.7,0,6.7,1.4,8.9,4.3
				c1.6,2,2.4,4.5,2.4,7.5h-19.7c0,2.6,0.8,4.6,2.4,6.3c1.6,1.6,3.5,2.4,5.8,2.4c1.2,0,2.2-0.2,3.2-0.6c1-0.3,2-0.9,2.7-1.5
				C554.5,194.4,555.3,193.4,556.1,191.9z M556.1,186.1c-0.3-1.5-0.9-2.7-1.6-3.6c-0.7-0.9-1.6-1.6-2.9-2.2
				c-1.2-0.6-2.4-0.8-3.7-0.8c-2.2,0-3.9,0.7-5.6,2.1c-1.2,1-2,2.6-2.6,4.5H556.1z"/>
		</g>
	</g>
</g>
</svg>
