<?xml version="1.0" encoding="utf-8"?>
<!-- Generator: Adobe Illustrator 18.1.1, SVG Export Plug-In . SVG Version: 6.00 Build 0)  -->
<svg version="1.1" id="Ebene_1" xmlns="http://www.w3.org/2000/svg" xmlns:xlink="http://www.w3.org/1999/xlink" x="0px" y="0px"
	 viewBox="0 0 560.8 686.1" enable-background="new 0 0 560.8 686.1" xml:space="preserve">
<g>
	<polygon fill="#473227" points="466.5,281.5 76.7,281.5 133,486.9 432.3,486.9 	"/>
	<path fill="#E6C389" d="M347.3,399.6l-67.2,5.4v0l-67.2-5.4c4.1,127.8-35.4,114.7-58,128.3c4.9,75.4,125.5,100,125.5,100l0,0
		c0,0,120.6-24.6,125.5-100C383.3,514.3,343.2,527.4,347.3,399.6z"/>
	<path fill="#5ABA70" d="M405.9,527.8c0,0-74.4,21.2-125.5,89.8c-51.1-68.6-125.5-89.8-125.5-89.8C29.3,566.4-2.7,617.1,0.2,686.1
		h280.3h280.1C563.4,617.1,531.5,566.5,405.9,527.8z"/>
	<ellipse fill="#F2CFA5" cx="280.2" cy="265.3" rx="166.1" ry="201.2"/>
	<path fill="#694A39" d="M280.5,0.1C11.9,6.6,35.2,384,133.2,486.9V257c0,0,33.6-150.4,153.2-137.2c-0.5,41.2,11.6,83.4,80.2,99.3
		s65.6,52.2,65.6,52.2v215.6C542.2,399.6,549.1-6.5,280.5,0.1z"/>
	<circle fill="#694A39" cx="338.7" cy="253.8" r="11.5"/>
	<circle fill="#694A39" cx="221.9" cy="253.8" r="11.5"/>
	<rect x="233.4" y="384.2" fill="#2D2D2D" width="93.7" height="7.1"/>
	<path fill="#141414" d="M261.7,574.1H296c53.5-17,81.8-47.1,72.3-77.6c-0.4-1.4-2.4-2.3-5.2-2.3c-2,0-4.1,0.4-5.4,1.2
		c-1.2,0.7-1.8,1.6-1.5,2.5c8.8,28.3-19.5,57.2-70.6,72c-0.2,0.1-0.5,0.1-0.7,0.2c-1.6-0.2-3.3-0.3-5-0.3c-0.3,0-0.6,0-0.9,0
		c-2.1-0.1-4.1,0.1-6,0.3c-0.2-0.1-0.5-0.2-0.7-0.2c-51.1-14.8-79.5-43.8-70.6-72c0.3-0.9-0.2-1.8-1.5-2.5c-1.3-0.7-3.4-1.2-5.4-1.2
		c-2.8,0-4.7,0.9-5.2,2.3C179.9,527,208.2,557.1,261.7,574.1z"/>
	<g>
		<circle cx="280" cy="595.5" r="40.7"/>
		<circle fill="#FC7C7C" cx="280" cy="595.5" r="23"/>
	</g>
</g>
</svg>
