<?xml version="1.0" encoding="utf-8"?>
<!-- Generator: Adobe Illustrator 18.1.1, SVG Export Plug-In . SVG Version: 6.00 Build 0)  -->
<svg version="1.1" id="Ebene_1" xmlns="http://www.w3.org/2000/svg" xmlns:xlink="http://www.w3.org/1999/xlink" x="0px" y="0px"
	 viewBox="892.4 116.5 491 748" enable-background="new 892.4 116.5 491 748" xml:space="preserve">
<g>
	<rect x="892.4" y="116.5" fill="#FDE3A7" width="491" height="742.8"/>
	<g>
		<rect x="1200.8" y="676.7" fill="#A4E3FF" width="92.1" height="129.6"/>
		<path fill="#B3B3B3" d="M1297.1,810.5h-100.5V672.5h100.5V810.5z M1205,802.1h83.7V680.9H1205V802.1z"/>
	</g>
	<rect x="1057.8" y="676.7" fill="#EFA081" width="110.1" height="182.6"/>
	<rect x="1111.8" y="676.7" opacity="0.5" fill="#EA8A6C" enable-background="new    " width="56" height="182.6"/>
	
		<rect x="932.5" y="676.7" fill="#A4E3FF" stroke="#B3B3B3" stroke-width="10" stroke-miterlimit="10" width="92.1" height="129.6"/>
	
		<rect x="1066.7" y="505.6" fill="#A4E3FF" stroke="#B3B3B3" stroke-width="10" stroke-miterlimit="10" width="92.1" height="129.6"/>
	
		<rect x="932.5" y="505.6" fill="#A4E3FF" stroke="#B3B3B3" stroke-width="10" stroke-miterlimit="10" width="92.1" height="129.6"/>
	<rect x="1066.7" y="334.6" fill="#A4E3FF" width="92.1" height="129.6"/>
	
		<rect x="1066.7" y="163.6" fill="#A4E3FF" stroke="#B3B3B3" stroke-width="10" stroke-miterlimit="10" width="92.1" height="129.6"/>
	
		<rect x="932.5" y="163.6" fill="#A4E3FF" stroke="#B3B3B3" stroke-width="10" stroke-miterlimit="10" width="92.1" height="129.6"/>
	
		<rect x="1066.7" y="334.6" fill="#A4E3FF" stroke="#B3B3B3" stroke-width="10" stroke-miterlimit="10" width="92.1" height="129.6"/>
	
		<rect x="932.5" y="334.6" fill="#A4E3FF" stroke="#B3B3B3" stroke-width="10" stroke-miterlimit="10" width="92.1" height="129.6"/>
	<polyline opacity="0.5" fill="#64D7FF" enable-background="new    " points="1292.9,676.7 1292.9,806.3 1200.8,806.3 	"/>
	<polyline opacity="0.5" fill="#64D7FF" enable-background="new    " points="1024.6,676.7 1024.6,806.3 932.5,806.3 	"/>
	<polyline opacity="0.5" fill="#64D7FF" enable-background="new    " points="1158.8,505.6 1158.8,635.2 1066.7,635.2 	"/>
	<polyline opacity="0.5" fill="#64D7FF" enable-background="new    " points="1024.6,505.6 1024.6,635.2 932.5,635.2 	"/>
	<polyline opacity="0.5" fill="#64D7FF" enable-background="new    " points="1024.6,334.6 1024.6,464.2 932.5,464.2 	"/>
	<polyline opacity="0.5" fill="#64D7FF" enable-background="new    " points="1158.8,163.6 1158.8,293.1 1066.7,293.1 	"/>
	<polyline opacity="0.5" fill="#64D7FF" enable-background="new    " points="1024.6,163.6 1024.6,293.1 932.5,293.1 	"/>
	<g>
		<rect x="1200.8" y="505.6" fill="#A4E3FF" width="92.1" height="129.6"/>
		<path fill="#B3B3B3" d="M1297.2,639.4h-100.5V501.5h100.5V639.4z M1205.1,631.1h83.7V509.8h-83.7V631.1z"/>
	</g>
	<g>
		<rect x="1200.8" y="334.6" fill="#A4E3FF" width="92.1" height="129.6"/>
		<path fill="#B3B3B3" d="M1297.2,468.3h-100.5V330.4h100.5V468.3z M1205.1,460h83.7V338.8h-83.7V460z"/>
	</g>
	<rect x="1200.8" y="163.6" fill="#A4E3FF" width="92.1" height="129.6"/>
	<path fill="#B3B3B3" d="M1297.2,297.3h-100.5V159.4h100.5V297.3z M1205.1,289h83.7V167.7h-83.7V289z"/>
	<polyline opacity="0.5" fill="#64D7FF" enable-background="new    " points="1292.9,505.6 1292.9,635.2 1200.8,635.2 	"/>
	<polyline opacity="0.5" fill="#64D7FF" enable-background="new    " points="1292.9,163.6 1292.9,293.1 1200.8,293.1 	"/>
	<polyline opacity="0.5" fill="#64D7FF" enable-background="new    " points="1292.9,334.6 1292.9,464.2 1200.8,464.2 	"/>
	<polyline opacity="0.5" fill="#64D7FF" enable-background="new    " points="1158.8,334.6 1158.8,464.2 1066.7,464.2 	"/>
	<rect x="892.4" y="856.2" fill="#B3B3B3" width="491" height="8.3"/>
	<g>
		<rect x="1334.1" y="676.7" fill="#A4E3FF" width="49.3" height="129.6"/>
		<polygon opacity="0.5" fill="#64D7FF" enable-background="new    " points="1383.4,736.9 1334.1,806.2 1383.4,806.2 		"/>
		<polygon fill="#B3B3B3" points="1383.4,802.1 1338.3,802.1 1338.3,680.8 1383.4,680.8 1383.4,672.5 1329.9,672.5 1329.9,810.4 
			1383.4,810.4 		"/>
	</g>
	<g>
		<rect x="1334.1" y="505.7" fill="#A4E3FF" width="49.3" height="129.6"/>
		<polygon opacity="0.5" fill="#64D7FF" enable-background="new    " points="1383.4,565.9 1334.1,635.2 1383.4,635.2 		"/>
		<polygon fill="#B3B3B3" points="1383.4,631.1 1338.3,631.1 1338.3,509.8 1383.4,509.8 1383.4,501.5 1329.9,501.5 1329.9,639.4 
			1383.4,639.4 		"/>
	</g>
	<g>
		<rect x="1334.1" y="334.6" fill="#A4E3FF" width="49.3" height="129.6"/>
		<polygon opacity="0.5" fill="#64D7FF" enable-background="new    " points="1383.4,394.8 1334.1,464.1 1383.4,464.1 		"/>
		<polygon fill="#B3B3B3" points="1383.4,460 1338.3,460 1338.3,338.7 1383.4,338.7 1383.4,330.4 1329.9,330.4 1329.9,468.3 
			1383.4,468.3 		"/>
	</g>
	<g>
		<rect x="1334.1" y="163.6" fill="#A4E3FF" width="49.3" height="129.6"/>
		<polygon opacity="0.5" fill="#64D7FF" enable-background="new    " points="1383.4,223.8 1334.1,293.1 1383.4,293.1 		"/>
		<polygon fill="#B3B3B3" points="1383.4,289 1338.3,289 1338.3,167.7 1383.4,167.7 1383.4,159.4 1329.9,159.4 1329.9,297.3 
			1383.4,297.3 		"/>
	</g>
	<ellipse fill="#84551E" cx="1078.6" cy="780.2" rx="4.2" ry="4.2"/>
</g>
</svg>
