<?xml version="1.0" encoding="utf-8"?>
<!-- Generator: Adobe Illustrator 18.1.1, SVG Export Plug-In . SVG Version: 6.00 Build 0)  -->
<svg version="1.1" id="Ebene_1" xmlns="http://www.w3.org/2000/svg" xmlns:xlink="http://www.w3.org/1999/xlink" x="0px" y="0px"
	 viewBox="556.7 -224 361 967" enable-background="new 556.7 -224 361 967" xml:space="preserve">
<rect x="556.7" y="-224" fill="#427F75" width="287.2" height="127.9"/>
<rect x="556.7" y="-103.1" fill="#65C6BB" width="350.2" height="723.1"/>
<rect x="556.7" y="-116.3" fill="#5E5E5E" width="358.6" height="27.3"/>
<rect x="559" y="620" fill="#5E5E5E" width="358.6" height="27.3"/>
<rect x="580.2" y="647.2" fill="#549E93" width="326.7" height="95.1"/>
<g>
	<rect x="556.7" y="226.1" fill="#4C8E85" width="324.6" height="127.1"/>
	<rect x="811.5" y="239.5" fill="#97CFEF" width="58.8" height="99.3"/>
	<rect x="740.9" y="239.5" fill="#97CFEF" width="58.8" height="99.3"/>
	<rect x="670.4" y="239.5" fill="#97CFEF" width="58.8" height="99.3"/>
	<rect x="599.8" y="239.5" fill="#97CFEF" width="58.8" height="99.3"/>
	<rect x="556.7" y="239.5" fill="#97CFEF" width="31.4" height="99.3"/>
	<polygon opacity="0.35" fill="#519CBC" points="870.3,239.5 870.3,338.8 811.5,338.8 	"/>
	<polygon opacity="0.35" fill="#519CBC" points="799.7,239.5 799.7,338.8 740.9,338.8 	"/>
	<polygon opacity="0.35" fill="#519CBC" points="729.2,239.5 729.2,338.8 670.4,338.8 	"/>
	<polygon opacity="0.35" fill="#519CBC" points="658.6,239.5 658.6,338.8 599.8,338.8 	"/>
	<polygon opacity="0.35" fill="#519CBC" points="556.7,292.5 556.7,338.8 588,338.8 588,239.5 	"/>
</g>
<g>
	<rect x="556.7" y="76.1" fill="#4C8E85" width="324.6" height="127.1"/>
	<rect x="811.5" y="89.5" fill="#97CFEF" width="58.8" height="99.3"/>
	<rect x="740.9" y="89.5" fill="#97CFEF" width="58.8" height="99.3"/>
	<rect x="670.4" y="89.5" fill="#97CFEF" width="58.8" height="99.3"/>
	<rect x="599.8" y="89.5" fill="#97CFEF" width="58.8" height="99.3"/>
	<rect x="556.7" y="89.5" fill="#97CFEF" width="31.4" height="99.3"/>
	<polygon opacity="0.35" fill="#519CBC" points="870.3,89.5 870.3,188.8 811.5,188.8 	"/>
	<polygon opacity="0.35" fill="#519CBC" points="799.7,89.5 799.7,188.8 740.9,188.8 	"/>
	<polygon opacity="0.35" fill="#519CBC" points="729.2,89.5 729.2,188.8 670.4,188.8 	"/>
	<polygon opacity="0.35" fill="#519CBC" points="658.6,89.5 658.6,188.8 599.8,188.8 	"/>
	<polygon opacity="0.35" fill="#519CBC" points="556.7,142.5 556.7,188.8 588,188.8 588,89.5 	"/>
</g>
<g>
	<rect x="556.7" y="-73.9" fill="#4C8E85" width="324.6" height="127.1"/>
	<rect x="811.5" y="-60.5" fill="#97CFEF" width="58.8" height="99.3"/>
	<rect x="740.9" y="-60.5" fill="#97CFEF" width="58.8" height="99.3"/>
	<rect x="670.4" y="-60.5" fill="#97CFEF" width="58.8" height="99.3"/>
	<rect x="599.8" y="-60.5" fill="#97CFEF" width="58.8" height="99.3"/>
	<rect x="556.7" y="-60.5" fill="#97CFEF" width="31.4" height="99.3"/>
	<polygon opacity="0.35" fill="#519CBC" points="870.3,-60.5 870.3,38.8 811.5,38.8 	"/>
	<polygon opacity="0.35" fill="#519CBC" points="799.7,-60.5 799.7,38.8 740.9,38.8 	"/>
	<polygon opacity="0.35" fill="#519CBC" points="729.2,-60.5 729.2,38.8 670.4,38.8 	"/>
	<polygon opacity="0.35" fill="#519CBC" points="658.6,-60.5 658.6,38.8 599.8,38.8 	"/>
	<polygon opacity="0.35" fill="#519CBC" points="556.7,-7.5 556.7,38.8 588,38.8 588,-60.5 	"/>
</g>
<g>
	<rect x="556.7" y="376.1" fill="#4C8E85" width="324.6" height="127.1"/>
	<rect x="811.5" y="389.5" fill="#97CFEF" width="58.8" height="99.3"/>
	<rect x="740.9" y="389.5" fill="#97CFEF" width="58.8" height="99.3"/>
	<rect x="670.4" y="389.5" fill="#97CFEF" width="58.8" height="99.3"/>
	<rect x="599.8" y="389.5" fill="#97CFEF" width="58.8" height="99.3"/>
	<rect x="556.7" y="389.5" fill="#97CFEF" width="31.4" height="99.3"/>
	<polygon opacity="0.35" fill="#519CBC" points="870.3,389.5 870.3,488.8 811.5,488.8 	"/>
	<polygon opacity="0.35" fill="#519CBC" points="799.7,389.5 799.7,488.8 740.9,488.8 	"/>
	<polygon opacity="0.35" fill="#519CBC" points="729.2,389.5 729.2,488.8 670.4,488.8 	"/>
	<polygon opacity="0.35" fill="#519CBC" points="658.6,389.5 658.6,488.8 599.8,488.8 	"/>
	<polygon opacity="0.35" fill="#519CBC" points="556.7,442.5 556.7,488.8 588,488.8 588,389.5 	"/>
</g>
<rect x="556.7" y="542" fill="#4C8E85" width="160.4" height="167.8"/>
<rect x="556.7" y="726.4" fill="#4C4C4C" width="208.6" height="16.6"/>
<rect x="556.7" y="709.8" fill="#5E5E5E" width="192.9" height="16.6"/>
<rect x="556.7" y="-197.1" fill="#828282" width="270" height="57.4"/>
<rect x="556.7" y="-151.8" fill="#474747" width="270" height="12"/>
<rect x="556.7" y="-166.9" fill="#474747" width="270" height="12"/>
<rect x="556.7" y="-182" fill="#474747" width="270" height="12"/>
<rect x="556.7" y="-197.1" fill="#474747" width="270" height="12"/>
<rect x="556.7" y="552" fill="#97CFEF" width="149.8" height="157.8"/>
<rect x="567.7" y="552" fill="#23647A" width="2" height="157.8"/>
</svg>
