<?xml version="1.0" encoding="utf-8"?>
<!-- Generator: Adobe Illustrator 18.1.1, SVG Export Plug-In . SVG Version: 6.00 Build 0)  -->
<svg version="1.1" id="Ebene_1" xmlns="http://www.w3.org/2000/svg" xmlns:xlink="http://www.w3.org/1999/xlink" x="0px" y="0px"
	 viewBox="493.5 -180 450.4 1080" enable-background="new 493.5 -180 450.4 1080" xml:space="preserve">
<line fill="none" stroke="#666666" stroke-width="2" stroke-miterlimit="10" x1="719.1" y1="501.1" x2="719.1" y2="649.6"/>
<polygon fill="#666666" points="527.4,-180 910.1,-180 939,-92.9 498.4,-92.9 "/>
<polygon opacity="0.2" fill="#3A3A3A" points="718.8,-180 910.1,-180 939,-92.9 718.8,-92.9 "/>
<rect x="498.4" y="-69.7" fill="#E26A6A" width="440.6" height="812.9"/>
<g>
	
		<rect x="815.8" y="522.8" fill="#96C8FB" stroke="#EFEFEF" stroke-width="7" stroke-miterlimit="10" width="101.4" height="145.1"/>
	
		<rect x="520.3" y="522.8" fill="#96C8FB" stroke="#EFEFEF" stroke-width="7" stroke-miterlimit="10" width="101.4" height="145.1"/>
</g>
<g>
	
		<rect x="668.1" y="258.4" fill="#96C8FB" stroke="#EFEFEF" stroke-width="7" stroke-miterlimit="10" width="101.4" height="145.1"/>
	
		<rect x="815.8" y="258.4" fill="#96C8FB" stroke="#EFEFEF" stroke-width="7" stroke-miterlimit="10" width="101.4" height="145.1"/>
	
		<rect x="520.3" y="258.4" fill="#96C8FB" stroke="#EFEFEF" stroke-width="7" stroke-miterlimit="10" width="101.4" height="145.1"/>
</g>
<g>
	<rect x="668.1" y="-6.2" fill="#96C8FB" stroke="#EFEFEF" stroke-width="7" stroke-miterlimit="10" width="101.4" height="145.1"/>
	<rect x="815.8" y="-6.2" fill="#96C8FB" stroke="#EFEFEF" stroke-width="7" stroke-miterlimit="10" width="101.4" height="145.1"/>
	<rect x="520.3" y="-6.2" fill="#96C8FB" stroke="#EFEFEF" stroke-width="7" stroke-miterlimit="10" width="101.4" height="145.1"/>
</g>
<rect x="497.3" y="757.7" fill="#CCCCCC" width="442.8" height="142.2"/>
<rect x="498.4" y="763.2" opacity="0.24" fill="#3D3D3D" width="440.6" height="7"/>
<rect x="493.5" y="740" fill="#B3B3B3" width="450.4" height="23.2"/>
<rect x="643.4" y="743.2" fill="#B7B7B7" width="149.4" height="156.7"/>
<rect x="632.6" y="770" fill="#727272" width="174" height="10"/>
<rect x="632.6" y="800" fill="#727272" width="174" height="10"/>
<rect x="632.6" y="830" fill="#727272" width="174" height="10"/>
<rect x="632.6" y="860" fill="#727272" width="174" height="10"/>
<path fill="#EFA081" d="M779.7,522.8c0-21.2-27.1-38.3-60.6-38.3c-33.5,0-60.6,17.1-60.6,38.3v0h0v221.9h121.2L779.7,522.8
	L779.7,522.8z"/>
<path opacity="0.35" fill="#BC7C68" d="M718.6,486.1v255.2L779,740l-1-222C778,499.5,748.5,487.2,718.6,486.1z"/>
<rect x="632.6" y="890" fill="#727272" width="174" height="10"/>
<polyline opacity="0.41" fill="#3D3D3D" points="907.7,899 806.8,899 806.8,677.8 "/>
<path fill="#EFEFEF" d="M783.2,748.2H655.1V522.8c0-11.5,6.9-22.1,19.4-30c12-7.6,27.9-11.8,44.7-11.8c16.8,0,32.7,4.2,44.7,11.8
	c12.5,7.9,19.4,18.6,19.4,30V748.2z M662.1,741.2h114.2V522.8c0-19.2-25.6-34.8-57.1-34.8c-31.5,0-57.1,15.6-57.1,34.8V741.2z"/>
<rect x="632.6" y="740" fill="#727272" width="174" height="10"/>
<g>
	<rect x="793" y="678.8" fill="#444444" width="13.9" height="221.2"/>
	<rect x="630.7" y="678.8" fill="#444444" width="13.9" height="221.2"/>
</g>
<rect x="705" y="622" fill="#444444" width="4" height="18"/>
<rect x="729" y="622" fill="#444444" width="4" height="18"/>
<rect x="862.5" y="523" fill="#EFEFEF" width="7" height="145"/>
<rect x="862.5" y="-6" fill="#EFEFEF" width="7" height="145"/>
<rect x="862.5" y="258" fill="#EFEFEF" width="7" height="145"/>
<rect x="714.5" y="-6" fill="#EFEFEF" width="7" height="145"/>
<rect x="714.5" y="258" fill="#EFEFEF" width="7" height="145"/>
<rect x="566.5" y="522" fill="#EFEFEF" width="7" height="145"/>
<rect x="817" y="591" fill="#EFEFEF" width="100" height="7"/>
<rect x="520" y="591" fill="#EFEFEF" width="100" height="7"/>
<rect x="817" y="63" fill="#EFEFEF" width="100" height="7"/>
<rect x="670" y="63" fill="#EFEFEF" width="100" height="7"/>
<rect x="520" y="63" fill="#EFEFEF" width="100" height="7"/>
<rect x="566.5" y="-6" fill="#EFEFEF" width="7" height="145"/>
<rect x="816" y="327" fill="#EFEFEF" width="100" height="7"/>
<rect x="669" y="327" fill="#EFEFEF" width="100" height="7"/>
<rect x="520" y="327" fill="#EFEFEF" width="100" height="7"/>
<rect x="566.5" y="258" fill="#EFEFEF" width="7" height="145"/>
<rect x="498.4" y="461.3" opacity="0.19" fill="#3D3D3D" width="440.6" height="7"/>
<rect x="493.5" y="438.1" fill="#B3B3B3" width="450.4" height="23.2"/>
<rect x="498.4" y="-69.7" opacity="0.19" fill="#3D3D3D" width="440.6" height="7"/>
<rect x="493.5" y="-92.9" fill="#B3B3B3" width="450.4" height="23.2"/>
<rect x="498.4" y="206.3" opacity="0.19" fill="#3D3D3D" width="440.6" height="7"/>
<rect x="493.5" y="183.1" fill="#B3B3B3" width="450.4" height="23.2"/>
</svg>
