<?xml version="1.0" encoding="utf-8"?>
<!-- Generator: Adobe Illustrator 16.0.0, SVG Export Plug-In . SVG Version: 6.00 Build 0)  -->
<!DOCTYPE svg PUBLIC "-//W3C//DTD SVG 1.1//EN" "http://www.w3.org/Graphics/SVG/1.1/DTD/svg11.dtd">
<svg version="1.1" id="Capa_1" xmlns="http://www.w3.org/2000/svg" xmlns:xlink="http://www.w3.org/1999/xlink" x="0px" y="0px"
	 width="533.332px" height="533.333px" viewBox="0 0 533.332 533.333" enable-background="new 0 0 533.332 533.333"
	 xml:space="preserve">
<g>
	<path fill="#FFFFFF" d="M341.485,338.568c-9.206,0.101-16.635-15.343-41.003-19.704c-17.846-3.21-47.987,33.493-72.94,35.087
		c-22.045,1.395-68.661-11.83-69.206-32.159c0,62.846,51.138,113.982,114.004,113.982c62.845,0,114.002-51.137,114.002-113.982
		C365.793,321.792,356.849,338.426,341.485,338.568z"/>
	<path fill="#FFFFFF" d="M454.5,2.408H90.161c-15.666,0-28.485,12.819-28.485,28.516v470.403c0,15.665,12.82,28.484,28.485,28.484
		H454.5c15.665,0,28.486-12.819,28.486-28.484V30.923C482.986,15.227,470.165,2.408,454.5,2.408z M396.377,45.378
		c11.811,0,21.379,9.559,21.379,21.359c0,11.819-9.568,21.389-21.379,21.389c-11.81,0-21.379-9.57-21.379-21.389
		C374.998,54.938,384.567,45.378,396.377,45.378z M325.132,45.378c11.791,0,21.38,9.559,21.38,21.359
		c0,11.819-9.589,21.389-21.38,21.389c-11.81,0-21.378-9.57-21.378-21.389C303.754,54.938,313.322,45.378,325.132,45.378z
		 M272.341,464.28c-78.715,0-142.51-63.814-142.51-142.488c0-78.714,63.795-142.509,142.51-142.509
		c78.694,0,142.489,63.795,142.489,142.509C414.83,400.465,351.035,464.28,272.341,464.28z M272.341,148.197
		c-147.031,0-182.18-15.787-182.18-15.787s13.183-15.767,53.943-15.767c40.781,0,128.236,0,128.236,0s87.435,0,128.216,0
		S454.5,132.41,454.5,132.41S419.351,148.197,272.341,148.197z"/>
</g>
</svg>
