<?xml version="1.0" encoding="utf-8"?>
<!-- Generator: Adobe Illustrator 16.0.0, SVG Export Plug-In . SVG Version: 6.00 Build 0)  -->
<!DOCTYPE svg PUBLIC "-//W3C//DTD SVG 1.1//EN" "http://www.w3.org/Graphics/SVG/1.1/DTD/svg11.dtd">
<svg version="1.1" id="Capa_1" xmlns="http://www.w3.org/2000/svg" xmlns:xlink="http://www.w3.org/1999/xlink" x="0px" y="0px"
	 width="533.332px" height="533.333px" viewBox="0 0 533.332 533.333" enable-background="new 0 0 533.332 533.333"
	 xml:space="preserve">
<g>
	<path fill="#FFFFFF" d="M310.1,493.58c-4.251,20.587,8.571,37.448,28.471,37.448c9.943,0,23.064,0,36.186,0s26.241,0,36.2,0
		c19.901,0,32.707-16.861,28.473-37.448l-13.981-68.011c-4.251-20.604-13.683-37.448-33.479-37.448c-1.413,0-2.969,0-4.462,0
		v-57.402h-25.495v57.402c-1.493,0-3.047,0-4.452,0c-19.813,0-29.246,16.845-33.479,37.448L310.1,493.58z M387.507,413.642
		c8.29,0.176,10.575,4.689,12.173,9.537c0.809,2.406,12.594,60.636,14.246,70.348c1.018,5.92-0.616,12.014-9.327,12.014
		c-2.882,0-9.336,0-17.092,0V413.642z M335.585,493.527c1.669-9.712,13.456-67.941,14.245-70.348
		c1.617-4.848,3.883-9.361,12.182-9.537v91.898c-7.755,0-14.219,0-17.1,0C336.2,505.541,334.584,499.447,335.585,493.527z"/>
	<path fill="#FFFFFF" d="M55.364,160.553c0,74.454,25.443,134.807,46.863,134.807h240.781v6.061c0,6.305,5.146,11.452,11.442,11.452
		h39.925c6.297,0,11.444-5.147,11.444-11.452v-6.061h33.706c0,0,22.088,0,26.9-20.287c14.369-75.687-24.302-249.312-115.174-249.312
		c-1.815,0-3.783,0-5.849,0V14.607c0-6.289-5.146-11.444-11.442-11.444h-16.239c-6.288,0-11.434,5.155-11.434,11.444v11.153
		c-82.495,0-193.003,0-204.061,0C80.807,25.761,55.364,86.114,55.364,160.553z M120.064,232.513h69.97
		c6.322,0,6.322,17.846,0,17.846h-69.97C113.75,250.358,113.75,232.513,120.064,232.513z M120.064,193.624h69.97
		c6.322,0,6.322,17.845,0,17.845h-69.97C113.75,211.469,113.75,193.624,120.064,193.624z M108.831,112.435
		c0-17.478,15.177-31.652,33.909-31.652l113.953-8.888c22.395,0,40.549,18.145,40.549,40.54c0,22.395-18.154,40.548-40.549,40.548
		l-113.953-8.905C124.008,144.078,108.831,129.921,108.831,112.435z"/>
</g>
</svg>
