<?xml version="1.0" encoding="utf-8"?>
<!-- Generator: Adobe Illustrator 16.0.0, SVG Export Plug-In . SVG Version: 6.00 Build 0)  -->
<!DOCTYPE svg PUBLIC "-//W3C//DTD SVG 1.1//EN" "http://www.w3.org/Graphics/SVG/1.1/DTD/svg11.dtd">
<svg version="1.1" id="Capa_1" xmlns="http://www.w3.org/2000/svg" xmlns:xlink="http://www.w3.org/1999/xlink" x="0px" y="0px"
	 width="533.332px" height="533.333px" viewBox="0 0 533.332 533.333" enable-background="new 0 0 533.332 533.333"
	 xml:space="preserve">
<path fill="#FFFFFF" d="M510.551,27.435H21.366c-11.211,0-20.315,7.489-20.315,16.745v422.518c0,9.236,9.104,16.735,20.315,16.735
	h489.185c11.222,0,20.324-7.499,20.324-16.735V44.18C530.875,34.924,521.772,27.435,510.551,27.435z M434.245,75.578
	c15.777,0,28.561,11.149,28.561,24.909c0,13.743-12.783,24.905-28.561,24.905c-15.768,0-28.559-11.163-28.559-24.905
	C405.687,86.727,418.478,75.578,434.245,75.578z M357.383,75.578c15.79,0,28.568,11.149,28.568,24.909
	c0,13.743-12.778,24.905-28.568,24.905c-15.773,0-28.561-11.163-28.561-24.905C328.822,86.727,341.609,75.578,357.383,75.578z
	 M210.863,53.355h98.226v28.002h-98.226V53.355z M162.559,75.578c15.791,0,28.579,11.149,28.579,24.909
	c0,13.743-12.788,24.905-28.579,24.905c-15.773,0-28.561-11.163-28.561-24.905C133.999,86.727,146.786,75.578,162.559,75.578z
	 M85.691,75.578c15.772,0,28.56,11.149,28.56,24.909c0,13.743-12.788,24.905-28.56,24.905c-15.777,0-28.56-11.163-28.56-24.905
	C57.131,86.727,69.914,75.578,85.691,75.578z M462.806,397.848c0,12.438-9.771,22.525-21.817,22.525H90.924
	c-12.047,0-21.812-10.087-21.812-22.525v-89.485h393.694V397.848z M462.806,283.732H69.111v-52.568
	c0-12.429,9.766-22.515,21.812-22.515h350.064c12.047,0,21.817,10.086,21.817,22.515V283.732z M478.304,164.299H53.623
	c-5.643,0-10.2-3.986-10.2-8.893c0-4.92,4.557-8.896,10.2-8.896h424.681c5.644,0,10.2,3.976,10.2,8.896
	C488.504,160.313,483.947,164.299,478.304,164.299z"/>
</svg>
