<?xml version="1.0" encoding="utf-8"?>
<!-- Generator: Adobe Illustrator 16.0.0, SVG Export Plug-In . SVG Version: 6.00 Build 0)  -->
<!DOCTYPE svg PUBLIC "-//W3C//DTD SVG 1.1//EN" "http://www.w3.org/Graphics/SVG/1.1/DTD/svg11.dtd">
<svg version="1.1" id="Capa_1" xmlns="http://www.w3.org/2000/svg" xmlns:xlink="http://www.w3.org/1999/xlink" x="0px" y="0px"
	 width="533.332px" height="533.333px" viewBox="0 0 533.332 533.333" enable-background="new 0 0 533.332 533.333"
	 xml:space="preserve">
<g>
	<g>
		<path fill="#FFFFFF" d="M491.761,39.839H266.624H41.47c-20.982,0-38.157,17.192-38.157,38.166v254.693
			c0,20.965,5.753,37.676,34.247,51.611c37.985,18.622,103.378,28.631,175.369,31.784l6.167,17.846H91.065
			c-20.999,0-38.192,17.159-38.192,38.158h213.75h213.699c0-20.999-17.159-38.158-38.158-38.158H314.118l6.167-17.846
			c72.008-3.153,137.384-13.162,175.387-31.784c28.471-13.936,34.225-30.646,34.225-51.611V78.005
			C529.896,57.031,512.738,39.839,491.761,39.839z M266.624,400.417c-10.542,0-19.104-8.562-19.104-19.07
			c0-10.56,8.562-19.104,19.104-19.104c10.508,0,19.087,8.545,19.087,19.104C285.711,391.856,277.132,400.417,266.624,400.417z
			 M499.802,328.513c0,6.666-5.733,12.3-12.486,12.3H266.624H45.897c-6.753,0-12.472-5.634-12.472-12.3V82.166
			c0-6.659,5.719-12.326,12.472-12.326h220.727h220.692c6.753,0,12.486,5.667,12.486,12.326V328.513z"/>
	</g>
</g>
</svg>
