<?xml version="1.0" encoding="utf-8"?>
<!-- Generator: Adobe Illustrator 16.0.0, SVG Export Plug-In . SVG Version: 6.00 Build 0)  -->
<!DOCTYPE svg PUBLIC "-//W3C//DTD SVG 1.1//EN" "http://www.w3.org/Graphics/SVG/1.1/DTD/svg11.dtd">
<svg version="1.1" id="Capa_1" xmlns="http://www.w3.org/2000/svg" xmlns:xlink="http://www.w3.org/1999/xlink" x="0px" y="0px"
	 width="533.332px" height="533.333px" viewBox="0 0 533.332 533.333" enable-background="new 0 0 533.332 533.333"
	 xml:space="preserve">
<g>
	<path fill="#FFFFFF" d="M423.037,379.673H20.629c-9.549,0-17.277,7.727-17.277,17.275s7.728,17.278,17.277,17.278h402.408
		c9.547,0,17.275-7.729,17.275-17.278S432.584,379.673,423.037,379.673z"/>
	<path fill="#FFFFFF" d="M530.674,305.303l-63.106-181.146c0,0-2.53-7.902-10.871-9.292c-56.713-8.953-157.444-0.853-218.964,22.572
		c-21.73,8.267-41.853,18.146-60.419,29.134c-0.183-2.416-0.513-4.7-1.11-6.363c-2.084-5.734-6.238-7.512-10.16-7.512h-16.169
		c0,0-9.531-0.522-12.576,10.185c-5.544,15.725-11.303,30.603-17.194,45c-49.498,43.025-81.603,92.904-95.768,133.746
		c-2.3,7.115,0.661,11.916,7.116,11.916c6.453,0,377.783,0,377.783,0c36.157,0,39.732-20.836,66.309-27.688
		c26.566-6.851,47.88-6.404,47.88-6.404C532.493,318.922,532.758,311.293,530.674,305.303z M337.05,283.773H225.122
		c-31.227-2.581-32.254-24.889-28.065-32.22c10.357-43.506,154.275-92.371,206.899-59.227
		C456.579,225.456,395.234,284.32,337.05,283.773z"/>
	<path fill="#FFFFFF" d="M317.902,245.479c-2.813-5.676-10.277-10.327-16.615-10.327h-40.403c-6.339,0-13.818,4.65-16.615,10.327
		l-8.408,22.175h90.448L317.902,245.479z"/>
</g>
</svg>
