<?xml version="1.0" encoding="utf-8"?>
<!-- Generator: Adobe Illustrator 16.0.0, SVG Export Plug-In . SVG Version: 6.00 Build 0)  -->
<!DOCTYPE svg PUBLIC "-//W3C//DTD SVG 1.1//EN" "http://www.w3.org/Graphics/SVG/1.1/DTD/svg11.dtd">
<svg version="1.1" id="Capa_1" xmlns="http://www.w3.org/2000/svg" xmlns:xlink="http://www.w3.org/1999/xlink" x="0px" y="0px"
	 width="533.332px" height="533.333px" viewBox="0 0 533.332 533.333" enable-background="new 0 0 533.332 533.333"
	 xml:space="preserve">
<g>
	<path fill="#FFFFFF" d="M512.827,122.986H75.396V79.879h63.612c4.603,0,8.357,3.746,8.357,8.339v9.775
		c0,7.84,6.354,14.208,14.204,14.208c7.853,0,14.208-6.368,14.208-14.208v-9.775c0-20.274-16.492-36.765-36.77-36.765h-26.843
		v-9.535h12.51c4.396,0,7.956-3.559,7.956-7.947c0-4.389-3.559-7.965-7.956-7.965H83.748c-4.396,0-7.96,3.576-7.96,7.965
		c0,4.388,3.564,7.947,7.96,7.947h12.509v9.535H61.187c-7.848,0-14.208,6.368-14.208,14.208v57.324H21.67
		c-9.851,0-17.834,7.982-17.834,17.821c0,9.855,7.983,17.848,17.834,17.848h491.157c9.847,0,17.821-7.992,17.821-17.848
		C530.648,130.969,522.674,122.986,512.827,122.986z"/>
	<path fill="#FFFFFF" d="M33.716,305.042c25.268,71.193,48.498,95.828,82.405,100.377c-0.236,25.848-21.313,46.809-47.21,46.809
		c-8.554,0-15.484,6.92-15.484,15.483c0,8.545,6.93,15.484,15.484,15.484c42.696,0,77.455-34.393,78.146-76.921
		c49.881,0,190.494,0,240.383,0c0.7,42.528,35.445,76.921,78.146,76.921c8.553,0,15.479-6.939,15.479-15.484
		c0-8.563-6.926-15.483-15.479-15.483c-25.906,0-46.982-20.961-47.214-46.809c33.901-4.549,57.137-29.184,82.405-100.377
		c23.225-75.511,23.377-129.027,23.377-129.027H10.338C10.338,176.016,10.495,229.531,33.716,305.042z"/>
</g>
</svg>
