<?xml version="1.0" encoding="utf-8"?>
<!-- Generator: Adobe Illustrator 16.0.0, SVG Export Plug-In . SVG Version: 6.00 Build 0)  -->
<!DOCTYPE svg PUBLIC "-//W3C//DTD SVG 1.1//EN" "http://www.w3.org/Graphics/SVG/1.1/DTD/svg11.dtd">
<svg version="1.1" id="Capa_1" xmlns="http://www.w3.org/2000/svg" xmlns:xlink="http://www.w3.org/1999/xlink" x="0px" y="0px"
	 width="533.332px" height="533.333px" viewBox="0 0 533.332 533.333" enable-background="new 0 0 533.332 533.333"
	 xml:space="preserve">
<g>
	<path fill="#FFFFFF" d="M4.872,453.225c0,10.731,0,17.239,0,17.239c0,15.85,12.954,28.802,28.804,28.802
		c8.114,6.012,20.592,14.999,23.547,15.792c2.282,0.634,5.197,1.071,8.252,1.29h0.754h0.754c3.055-0.219,5.991-0.656,8.272-1.29
		c2.956-0.793,15.414-9.78,23.547-15.792h154.476h154.454c8.133,6.012,20.592,14.999,23.549,15.792
		c2.279,0.634,5.217,1.071,8.271,1.29h0.752h0.756c3.055-0.219,5.969-0.656,8.252-1.29c2.955-0.793,15.434-9.78,23.547-15.792
		c15.85,0,28.804-12.952,28.804-28.802c0,0,0-6.508,0-17.239H4.872z"/>
	<path fill="#FFFFFF" d="M527.075,281.65c-1.845-6.27-15.016-10.911-25.412-13.41c0-1.588,0-2.797,0-3.532
		c0-23.388-16.424-106.602-119.501-111.145v20.547c1.13,0.1,2.062,0.199,2.539,0.298c12.518,2.937,27.595,13.172,22.277,22.694
		c-5.316,9.501-302.125,9.501-307.443,0c-5.315-9.522,9.762-19.758,22.299-22.694c0.476-0.099,1.408-0.198,2.54-0.298v-20.547
		C21.297,158.116,4.872,241.32,4.872,264.708c0,11.328,0,92.206,0,159.733h496.792c0-31.979,0-37.236,0-75.423
		c4.185,0.615,8.254,0.833,10.792,0.516c6.527-0.813,11.764-4.622,13.669-9.899c0.674-1.864,0.932-3.828,0.771-5.911
		c-1.665-18.926-0.475-30.589,0.298-38.307C527.769,289.644,528.207,285.458,527.075,281.65z"/>
	<path fill="#FFFFFF" d="M253.278,24.58c18.806,0,82.523,1.498,120.453,23.587c1.566-2.223,2.618-4.483,2.618-6.825
		C376.35,21.267,326.854,5,253.278,5c-73.599,0-123.093,16.267-123.093,36.342c0,2.341,1.03,4.602,2.619,6.825
		C170.733,26.078,234.452,24.58,253.278,24.58z"/>
	<path fill="#FFFFFF" d="M144.528,185.319c6.319,0.277,13.103,0.535,20.313,0.754v-68.405v-4.503l-1.905-4.076
		c-4.461-9.592-8.926-20.076-11.197-26.195c9.284-6.249,41.589-16.446,101.54-16.446c59.938,0,92.232,10.197,101.519,16.446
		c-2.273,6.129-6.734,16.603-11.199,26.205l-1.903,4.086v4.494v68.395c7.21-0.219,13.995-0.477,20.313-0.754v-67.641
		c0,0,14.342-30.788,14.342-36.67c0-20.075-49.495-34.874-123.071-34.874c-73.599,0-123.093,14.799-123.093,34.874
		c0,5.882,14.343,36.66,14.343,36.66V185.319z"/>
</g>
</svg>
