<?xml version="1.0" encoding="utf-8"?>
<!-- Generator: Adobe Illustrator 16.0.0, SVG Export Plug-In . SVG Version: 6.00 Build 0)  -->
<!DOCTYPE svg PUBLIC "-//W3C//DTD SVG 1.1//EN" "http://www.w3.org/Graphics/SVG/1.1/DTD/svg11.dtd">
<svg version="1.1" id="Capa_1" xmlns="http://www.w3.org/2000/svg" xmlns:xlink="http://www.w3.org/1999/xlink" x="0px" y="0px"
	 width="533.332px" height="533.333px" viewBox="0 0 533.332 533.333" enable-background="new 0 0 533.332 533.333"
	 xml:space="preserve">
<g>
	<path fill="#FFFFFF" d="M271.445,233.108c-65.187,0-117.964,52.837-117.964,118.024s52.777,117.984,117.964,117.984
		S389.43,416.319,389.43,351.132S336.632,233.108,271.445,233.108z M271.466,311.644c16.812,0,30.461,10.007,30.461,22.337
		c0,12.367-13.649,22.396-30.461,22.396c-16.832,0-30.502-10.028-30.502-22.396C240.964,321.651,254.634,311.644,271.466,311.644z
		 M271.445,439.294c-48.594,0-88.143-39.547-88.143-88.162c0-5.204,0.521-10.268,1.381-15.251
		c7.165,10.607,19.694,19.515,35.465,25.719c4.863,23.856,26.018,41.869,51.296,41.869c25.258,0,46.413-18.013,51.316-41.869
		c15.73-6.204,28.279-15.111,35.466-25.719c0.84,4.983,1.381,10.047,1.381,15.251C359.608,399.748,320.04,439.294,271.445,439.294z"
		/>
	<path fill="#FFFFFF" d="M417.369,3H125.522C100.784,3,80.53,23.234,80.53,47.992v435.534c0,24.738,20.254,44.973,44.992,44.973
		h291.847c24.758,0,44.992-20.234,44.992-44.973V47.992C462.361,23.234,442.127,3,417.369,3z M271.445,499.098
		c-81.598,0-147.965-66.389-147.965-147.966c0-56.62,31.963-105.855,78.756-130.753c-23.197-19.654-37.947-48.935-37.947-81.653
		c0-59.072,48.074-107.156,107.156-107.156c59.082,0,107.156,48.084,107.156,107.156c0,32.718-14.75,61.999-37.927,81.653
		c46.773,24.898,78.755,74.133,78.755,130.753C419.43,432.709,353.044,499.098,271.445,499.098z"/>
	<path fill="#FFFFFF" d="M271.445,78.564c-33.164,0-60.183,26.989-60.183,60.143c0,33.198,27.019,60.198,60.183,60.198
		c33.204,0,60.163-27,60.163-60.198C331.608,105.553,304.649,78.564,271.445,78.564z M271.445,143.51
		c-16.131,0-29.181-8.837-29.181-19.705c0-10.887,13.049-19.724,29.181-19.724c16.132,0,29.181,8.837,29.181,19.724
		C300.626,134.673,287.577,143.51,271.445,143.51z"/>
</g>
</svg>
