<?xml version="1.0" encoding="utf-8"?>
<!-- Generator: Adobe Illustrator 18.1.1, SVG Export Plug-In . SVG Version: 6.00 Build 0)  -->
<svg version="1.1" id="Ebene_1" xmlns="http://www.w3.org/2000/svg" xmlns:xlink="http://www.w3.org/1999/xlink" x="0px" y="0px"
	 viewBox="448 0 544 815" enable-background="new 448 0 544 815" xml:space="preserve">
<g>
	<path fill="#686868" d="M943.4,77.7c0,14.2,0,28.5,0,42.7c-65.2-89.2-241.7-144-415.5-110.2c-3.9,0.7-7.6,1.6-11,2.6
		c-24.4,2.7-48.1,8.6-68.9,17.7c0,6.6,0,13.3,0,20h198.7c0-6.7,0-13.3,0-20c-16.6-7.3-34.9-12.5-54-15.7
		C760.4,1.6,917.1,71.6,943.4,167.3c0,215.9,0,431.8,0,647.7c16.2,0,32.4,0,48.6,0c0-245.8,0-491.6,0-737.4
		C982.1,65.9,953.3,65.9,943.4,77.7z"/>
	<path fill="#A0A0A0" d="M448,50.4c7.1,0,14.1,0,21.2,0c14.8,16.4,44.2,27.5,78.1,27.5s63.3-11.1,78.1-27.5c7.1,0,14.1,0,21.2,0
		c0,0,0,0,0,0L448,50.4C448,50.4,448,50.4,448,50.4z"/>
	<path opacity="0.17" fill="#8E8E8E" d="M992,77.7c-4.9-5.8-14.4-8.8-24-8.8V815c8,0,16,0,24,0C992,569.2,992,323.5,992,77.7z"/>
</g>
</svg>
