<?xml version="1.0" encoding="utf-8"?>
<!-- Generator: Adobe Illustrator 18.1.1, SVG Export Plug-In . SVG Version: 6.00 Build 0)  -->
<svg version="1.1" id="Ebene_1" xmlns="http://www.w3.org/2000/svg" xmlns:xlink="http://www.w3.org/1999/xlink" x="0px" y="0px"
	 viewBox="0 0 738.3 400" enable-background="new 0 0 738.3 400" xml:space="preserve">
<g>
	<path fill="#2870E5" d="M372.3,40.2h25.1c7.3,0,7.7-3.8,7.7-11l-2.2-15.9C402.9,6,394.8,0,387.5,0l-6.4,0c-7.3,0-15.4,6-15.4,13.2
		l-2.2,15.9C363.4,36.5,365,40.2,372.3,40.2z"/>
	<path fill="#CCCAC4" d="M362.1,55.7H405c1.9,0,3.5-1.6,3.5-3.5v-13c0-1.9-1.6-3.5-3.5-3.5h-42.9c-1.9,0-3.5,1.6-3.5,3.5v13
		C358.6,54.2,360.2,55.7,362.1,55.7z"/>
	<rect x="673" y="333.1" fill="#3E577A" width="65.3" height="10"/>
	<rect x="189.6" y="48.8" fill="#3F5778" width="548.7" height="10"/>
	<rect x="174.1" y="333.1" fill="#3F5778" width="349.4" height="10"/>
	<rect x="0" y="272.7" fill="#35322F" width="23.9" height="76.4"/>
	<circle fill="#333333" cx="598.2" cy="335.6" r="64.4"/>
	<circle fill="#828282" cx="598.2" cy="335.6" r="39.9"/>
	<path fill="#FAF8EC" d="M158.9,154.4l30.7-95.5h539.3v274H673c-1.3-40-34.3-72.3-74.8-72.3c-40.5,0-73.5,32.3-74.8,72.3H174.1
		c-1.3-40-34.3-72.3-74.8-72.3s-73.5,32.3-74.8,72.3H9.9V197.7L158.9,154.4z"/>
	<circle fill="#333333" cx="99.3" cy="335.6" r="64.4"/>
	<circle fill="#828282" cx="99.3" cy="335.6" r="39.9"/>
	<polygon fill="#3F5778" points="10,240.4 728.4,240.4 728.4,165.6 162,165.6 120.7,165.5 10,197.7 	"/>
	<path fill="#003D41" d="M392.8,138.7h58.3c6.2,0,11.3-5.1,11.3-11.3V105c0-6.2-5.1-11.3-11.3-11.3h-58.3c-6.2,0-11.3,5.1-11.3,11.3
		v22.4C381.6,133.6,386.6,138.7,392.8,138.7z"/>
	<path fill="#003E41" d="M532.5,138.7h58.3c6.2,0,11.3-5.1,11.3-11.3V105c0-6.2-5.1-11.3-11.3-11.3h-58.3c-6.2,0-11.3,5.1-11.3,11.3
		v22.4C521.3,133.6,526.3,138.7,532.5,138.7z"/>
	<path fill="#003D41" d="M202.4,158.1h64.5c4.9,0,8.9-3.4,8.9-7.6V83.4c0-4.2-4-7.6-8.9-7.6h-49.7c-4.9,0-8.9,3.4-8.9,7.6
		l-14.8,67.2C193.5,154.7,197.5,158.1,202.4,158.1z"/>
	<circle fill="#333333" cx="598.2" cy="335.6" r="15"/>
	<circle fill="#333333" cx="99.3" cy="335.6" r="15"/>
	<path fill="none" stroke="#B7B6B3" stroke-width="3" stroke-miterlimit="10" d="M178.4,308.2V158.1c0,0,0,0,0,0l19-84.5
		c0-4.2,4.5-7.3,11.1-7.3h66.3c6.5,0,12.7,2.9,12.7,7v67.2c0,0.1,0,0.3,0,0.4c0,0.2,0,0.4,0,0.6v166.6c0,6.6-7.4,14.2-14,14.2h-85.8
		C181,322.4,176.4,314.8,178.4,308.2z"/>
	<path fill="#CCCAC4" d="M258.6,197.4h15.5c1,0,1.8-0.8,1.8-1.8v-3.5c0-1-0.8-1.8-1.8-1.8h-15.5c-1,0-1.8,0.8-1.8,1.8v3.5
		C256.9,196.6,257.6,197.4,258.6,197.4z"/>
	<rect x="356.1" y="181.5" fill="none" width="372.3" height="117.7"/>
	<text transform="matrix(1 0 0 1 356.1095 223.9774)" fill="#FFFFFF" font-family="'MyriadPro-Semibold'" font-size="59.8716">POLIZEI</text>
</g>
</svg>
