<?xml version="1.0" encoding="utf-8"?>
<!-- Generator: Adobe Illustrator 18.1.1, SVG Export Plug-In . SVG Version: 6.00 Build 0)  -->
<svg version="1.1" id="Ebene_1" xmlns="http://www.w3.org/2000/svg" xmlns:xlink="http://www.w3.org/1999/xlink" x="0px" y="0px"
	 viewBox="0 0 347.5 348" enable-background="new 0 0 347.5 348" xml:space="preserve">
<path fill="#F5AA34" d="M173.5,75.3c-54.3,0-98.7,44.4-98.7,98.7s44.4,98.7,98.7,98.7s98.7-44.4,98.7-98.7
	C272.2,119.8,228.3,75.3,173.5,75.3L173.5,75.3z M165.5,36.3V8.1c0-4.5,3.6-8.1,8.1-8.1c4.5,0,8.1,3.6,8.1,8.1v28.2
	c0,4.5-3.6,8.1-8.1,8.1C169.1,44.8,165.5,40.8,165.5,36.3L165.5,36.3z M83.8,34.5c-2.2-4-0.9-9,3.2-11.2c4-2.2,9-0.9,11.2,3.2
	l13.9,24.2c2.2,4,0.9,9-3.2,11.2c-1.3,0.9-2.7,0.9-4,0.9c-2.7,0-5.8-1.3-7.2-4L83.8,34.5z M61.9,109.4c-1.3,2.7-4.5,4-7.2,4
	c-1.3,0-2.7-0.5-4-0.9L26.5,98.6c-4-2.2-5.4-7.2-3.2-11.2c2.2-4,7.2-5.4,11.2-3.2l24.2,13.9C62.7,100.4,64.1,105.4,61.9,109.4
	L61.9,109.4z M36.3,182.1H8.1c-4.5,0-8.1-3.6-8.1-8.1c0-4.5,3.6-8.1,8.1-8.1h28.2c4.5,0,8.1,3.6,8.1,8.1
	C44.4,178.5,40.8,182.1,36.3,182.1L36.3,182.1z M61.9,238.6c2.2,4,0.9,9-3.2,11.2l-24.2,13.9c-1.3,0.9-2.7,0.9-4,0.9
	c-2.7,0-5.8-1.3-7.2-4c-2.2-4-0.9-9,3.2-11.2l24.2-13.9C54.2,233.2,59.6,234.5,61.9,238.6L61.9,238.6z M112.1,297.3l-13.9,24.2
	c-1.3,2.7-4.5,4-7.2,4c-1.3,0-2.7-0.5-4-0.9c-4-2.2-5.4-7.2-3.2-11.2l13.9-24.2c2.2-4,7.2-5.4,11.2-3.2
	C113,288.4,114.3,293.3,112.1,297.3L112.1,297.3z M182.1,311.7v28.2c0,4.5-3.6,8.1-8.1,8.1c-4.5,0-8.1-3.6-8.1-8.1v-28.2
	c0-4.5,3.6-8.1,8.1-8.1C178.5,303.1,182.1,307.2,182.1,311.7L182.1,311.7z M263.7,313.4c2.2,4,0.9,9-3.2,11.2
	c-1.3,0.5-2.7,0.9-4,0.9c-2.7,0-5.8-1.3-7.2-4l-13.9-24.2c-2.2-4-0.9-9,3.2-11.2c4-2.2,9-0.9,11.2,3.2L263.7,313.4z M324.2,261
	c-1.3,2.7-4.5,4-7.2,4c-1.3,0-2.7-0.5-4-0.9l-24.2-13.9c-4-2.2-5.4-7.2-3.2-11.2c2.2-4,7.2-5.4,11.2-3.2l24.2,13.9
	C325.1,252,326.5,257,324.2,261L324.2,261z M347.5,174c0,4.5-3.6,8.1-8.1,8.1h-28.2c-4.5,0-8.1-3.6-8.1-8.1c0-4.5,3.6-8.1,8.1-8.1
	h28.2C344,165.4,347.5,169.5,347.5,174L347.5,174z M285.7,109.4c-2.2-4-0.9-9,3.2-11.2L313,84.3c4-2.2,9-0.9,11.2,3.2
	c2.2,4,0.9,9-3.2,11.2l-24.2,13.9c-1.3,0.9-2.7,0.9-4,0.9C290.2,113.5,287.4,112.1,285.7,109.4L285.7,109.4z M235.4,50.7l13.9-24.2
	c2.2-4,7.2-5.4,11.2-3.2c4,2.2,5.4,7.2,3.2,11.2l-13.9,24.2c-1.3,2.7-4.5,4-7.2,4c-1.3,0-2.7-0.5-4-0.9
	C234.5,59.6,233.2,54.7,235.4,50.7L235.4,50.7z M235.4,50.7"/>
</svg>
