<?xml version="1.0" encoding="utf-8"?>
<!-- Generator: Adobe Illustrator 18.1.1, SVG Export Plug-In . SVG Version: 6.00 Build 0)  -->
<svg version="1.1" id="Ebene_1" xmlns="http://www.w3.org/2000/svg" xmlns:xlink="http://www.w3.org/1999/xlink" x="0px" y="0px"
	 viewBox="0 0 292 604.5" enable-background="new 0 0 292 604.5" xml:space="preserve">
<g>
	<ellipse fill="#E6C48A" cx="278.3" cy="362.1" rx="13.7" ry="10.4"/>
	<path fill="#6B593A" d="M189.8,550.3c-51,0-93.4,24.2-93.4,54.2h93.4V550.3z"/>
	<path fill="#6B593A" d="M195.8,548.4c51,0,93.2,24.1,93.2,56.1h-93.2V548.4z"/>
	<path fill="#E6C48A" d="M105.8,164.5C105.7,164.5,105.7,164.5,105.8,164.5C105.7,164.5,105.7,164.5,105.8,164.5L105.8,164.5z"/>
	<path fill="#E6C48A" d="M253.3,164.8C253.3,164.8,253.2,164.7,253.3,164.8L253.3,164.8c0,0,0.1,0.1,0.2,0.1
		C253.4,164.8,253.4,164.8,253.3,164.8z"/>
	<ellipse fill="#DEB773" cx="234.5" cy="80.7" rx="10.2" ry="18"/>
	<ellipse fill="#DEB773" cx="154.8" cy="79.9" rx="10.2" ry="18"/>
	<path fill="#E6C389" d="M220.5,122l-26.1,1.6l0,0l-26.1-1.6c1.6,38.3-7.4,32.7-16.3,36.8c1.9,22.6,42.4,25.4,42.4,25.4l0,0
		c0,0,42.8-2.9,44.6-25.4C230.3,154.7,218.9,160.3,220.5,122z"/>
	<path fill="#FFFFFF" d="M235.3,157.6c-4.4,20.3-41.6,19.2-41.6,19.2s-36.9,1.1-41.3-19.2c-0.7,0.1-2.1,0.2-2.1,0.4
		c0,17.6,0,162,0,179.9h43.5h43.9c0-17.9,0-162.2,0-179.9C236.7,157.9,236.1,157.7,235.3,157.6z"/>
	<path fill="#4183D7" d="M129.4,164.6l-0.6,173.3h21.5c0-17.9,0-162.3,0-179.9C144.4,159.1,136.4,162.2,129.4,164.6z"/>
	<path fill="#4183D7" d="M237.7,158c0,17.6,0,162,0,179.9h20.8V164.4C252.6,161.9,243.6,159.2,237.7,158z"/>
	<path fill="#FFFFFF" d="M129,164.7c-3.4,1.2-6.3,2.6-8.6,3.4l-0.1,169.8h8.5L129,164.7z"/>
	<path fill="#E6C48A" d="M120.5,167.5c-3.5,1.8-6.5,3.4-7.7,4c-1.7,1.3-3.7,3.1-5.5,5.4c-2.6,3.5-5.2,8.9-5.4,16.6l-1.6,64
		c-0.1,4.5-3.1,5.9-6.6,3.3l-46.4-34.2l-2,21.3l68.9,50.6c3.6,2.3,6.4,0.7,6.4-3.5l0.1-99.5L120.5,167.5L120.5,167.5z"/>
	<path fill="#FFFFFF" d="M258.5,164.4v173.5h9.9V167.7C265.5,166.9,262.5,165.7,258.5,164.4z"/>
	<path fill="#E6C48A" d="M286.1,191.7c-0.4-10.9-7.3-17.6-11.7-20.7c-1.5-0.8-3.7-1.9-6.3-3.2c-0.1,0,0.3,0,0.3-0.1v190h21.8
		L286.1,191.7z"/>
	<path fill="#F2CFA5" d="M237,38.3l-42-18.7l0,0l-42,18.7c0,0-1.9,61.8,0,64.8c6.3,33.2,42,36.7,42,36.7l0,0c0,0,35.6-3.5,42-36.7
		C238.9,100.2,237,38.3,237,38.3z"/>
	<path fill="#3D2901" d="M152.8,82.9l0.1-29.1c0,0,13.3-3.5,42.1-3.3c32.8,0.6,41.8,2.5,41.8,2.5s-0.9,10.4,1.4,20.2
		c2.3-6.3,2.6-23.6,2.7-41c0.1-19.5-7.6-27.7-9.3-30.4c0,0-2.1,16-13.6,13c-6.3-2.7-7.6-5.5-7.6-5.5c-1,11.9-11.6-4.2-16.9-5.4
		c2.8,4.1-1.7,11.1-8.5,10.2c-7.5-1-8.4-14.4-8.4-14.4c-0.4,0.6-5.1,13.8-9.5,15.4c-3.3,1.2-3.5-8.4-3.5-8.4
		c-11,5-15.5,25.3-15.6,29.3C146.2,91.3,152.8,82.9,152.8,82.9z"/>
	<polygon fill="#4183D7" points="240.8,337 144.6,337 144.6,240.8 193.9,237.2 240.8,240.8 	"/>
	<path fill="#2D2D2D" d="M210.8,116.7c-2.1-1.9-7.3-6.3-14.8-6.6c-8.8-0.5-14.9,5-16.8,6.7L210.8,116.7z"/>
	<g>
		<g>
			<g>
				<defs>
					<rect id="SVGID_1_" x="152.4" y="61.9" width="85.4" height="43.1"/>
				</defs>
				<clipPath id="SVGID_2_">
					<use xlink:href="#SVGID_1_"  overflow="visible"/>
				</clipPath>
				<path clip-path="url(#SVGID_2_)" d="M240.2,83.4V70.8c-4.2-3.2-18.8-5.9-23.9-7c-7-1.5-14.1-1.9-21.2-1.9
					c-2.2,0.1-4.3,0-6.4,0.1c-4.2,0.2-8.2,0.5-12.4,1.3c-5.5,1-21.3,3.2-26,6.3L149.3,81v9.2c2,5.2,10.6,11,16.1,13
					c3.8,1.3,7.6,1.7,11.6,1.8c4.1,0,7.6-1.1,10.8-3.5c1.6-1.2,3-2.6,4.7-3.7c1.8-1.2,3.2-1.2,5-0.1c1.2,0.8,2.3,1.7,3.4,2.7
					c2.7,2.3,5.6,4.1,9.2,4.4c4.7,0.5,9.3,0.1,13.8-1.3c5.4-1.7,14.1-5.2,16.4-10v-7.3L240.2,83.4z M175.4,90.9
					c-6.1,0-6.6-5.4-6.6-5.4s0.7-5.4,6.6-5.4c6.1,0,6.6,5.4,6.6,5.4S181.3,90.9,175.4,90.9L175.4,90.9z M216.5,90.9
					c-6.1,0-6.6-5.4-6.6-5.4s0.7-5.4,6.6-5.4s6.6,5.3,6.6,5.3S222.4,90.9,216.5,90.9L216.5,90.9z"/>
			</g>
		</g>
	</g>
	<polygon fill="#4183D7" points="267.8,568.8 120.3,568.8 120.3,347.5 128.8,336.1 258.8,336.1 267.8,347.5 	"/>
	<rect x="191.5" y="361.1" fill="#205DA0" width="2.5" height="206.8"/>
	<path fill="#444444" d="M56.1,256.5c0.4-8-2.2-13.6-3.9-17.3c-0.4-0.8-0.7-1.5-0.9-2.1l-1.1-2.7c-1.8-4.4-4.5-10.8-5.9-15
		c0-0.2,0-0.4-0.1-0.6c0,0,0,0,0-0.1v-0.1c-1.2-3.7-10.2-39-11-42.9c-1.2-6.1-4.1-8.7-8.6-8.2c-0.2,0-22.8,3-24.4,7.3
		c-2.1,5.7,8.5,44.6,15.5,52.2c0.6,0.6,1.2,1.1,1.7,1.4c0.8,0.4,1.6,0.5,2.4,0.3c2.3-0.6,9.7-3.1,15.8-5.1c1,0.7,1.2,1.4,1.3,2.5
		v0.4c0.4,4.6,1.1,13.1,4.3,19.3c1.5,3,3.2,5,4.5,6.4c1.5,1.7,2,2.4,1.7,3.2c-1.1,3,0.2,5.3,2,6.2c1.3,0.7,2.9,0.7,4.2-0.1
		C54.3,261.1,55.9,259.7,56.1,256.5z"/>
	<ellipse fill="#E6C48A" cx="44.2" cy="237" rx="10.4" ry="13.7"/>
</g>
</svg>
