<?xml version="1.0" encoding="utf-8"?>
<!-- Generator: Adobe Illustrator 18.1.1, SVG Export Plug-In . SVG Version: 6.00 Build 0)  -->
<svg version="1.1" id="Ebene_1" xmlns="http://www.w3.org/2000/svg" xmlns:xlink="http://www.w3.org/1999/xlink" x="0px" y="0px"
	 viewBox="30.3 7.6 452.1 290" enable-background="new 30.3 7.6 452.1 290" xml:space="preserve">
<g>
	<path fill="#EDEDED" enable-background="new    " d="M470.5,297.6H42.3c-6.6,0-12-5.4-12-12V19.6c0-6.6,5.4-12,12-12h428.2
		c6.6,0,12,5.4,12,12v266.1C482.4,292.2,477,297.6,470.5,297.6z"/>
	<g enable-background="new    ">
		<path d="M126.7,61l-1.1,4H122l4.7-15.5h4.6l4.8,15.5h-3.8l-1.2-4H126.7z M130.7,58.4l-1-3.3c-0.3-0.9-0.6-2.1-0.8-3h0
			c-0.2,0.9-0.5,2.1-0.7,3l-0.9,3.3H130.7z"/>
		<path d="M138.2,49.5h3.5V62h6.2V65h-9.7V49.5z"/>
		<path d="M153.8,61l-1.1,4H149l4.7-15.5h4.6l4.8,15.5h-3.8l-1.2-4H153.8z M157.7,58.4l-1-3.3c-0.3-0.9-0.6-2.1-0.8-3h0
			c-0.2,0.9-0.5,2.1-0.7,3l-0.9,3.3H157.7z"/>
		<path d="M165.3,49.7c1.1-0.2,2.8-0.3,4.7-0.3c2.3,0,3.9,0.3,5,1.2c0.9,0.7,1.4,1.8,1.4,3.2c0,2-1.4,3.3-2.7,3.8v0.1
			c1.1,0.4,1.7,1.5,2.1,2.9c0.5,1.8,1,3.8,1.3,4.4h-3.6c-0.3-0.4-0.6-1.7-1.1-3.6c-0.4-1.9-1.1-2.5-2.5-2.5h-1.1V65h-3.5V49.7z
			 M168.7,56.3h1.4c1.8,0,2.8-0.9,2.8-2.2c0-1.4-1-2.1-2.6-2.2c-0.9,0-1.3,0.1-1.6,0.1V56.3z"/>
		<path d="M192,59c-0.1-1.9-0.1-4.1-0.1-6.4h-0.1c-0.5,2-1.1,4.2-1.7,6l-1.9,6.1h-2.7l-1.7-6c-0.5-1.8-1-4-1.4-6.1h0
			c-0.1,2.1-0.2,4.5-0.3,6.4l-0.3,5.9h-3.2l1-15.5h4.7l1.5,5.2c0.5,1.8,1,3.7,1.3,5.6h0.1c0.4-1.8,1-3.8,1.5-5.6l1.7-5.2h4.6
			l0.9,15.5h-3.4L192,59z"/>
		<path d="M204.7,65L201,49.5h3.8l1.2,6.4c0.3,1.8,0.7,3.8,0.9,5.4h0c0.3-1.7,0.6-3.5,1-5.5l1.3-6.4h3.7l1.2,6.5
			c0.3,1.8,0.6,3.5,0.8,5.2h0c0.2-1.7,0.6-3.5,0.9-5.4l1.3-6.4h3.6l-4,15.5H213l-1.3-6.7c-0.3-1.6-0.6-3-0.7-4.8h0
			c-0.3,1.8-0.5,3.2-0.9,4.8l-1.5,6.7H204.7z"/>
		<path d="M226.2,49.5V65h-3.5V49.5H226.2z"/>
		<path d="M229.2,49.7c1.1-0.2,2.8-0.3,4.7-0.3c2.3,0,3.9,0.3,5,1.2c0.9,0.7,1.4,1.8,1.4,3.2c0,2-1.4,3.3-2.7,3.8v0.1
			c1.1,0.4,1.7,1.5,2.1,2.9c0.5,1.8,1,3.8,1.3,4.4h-3.6c-0.3-0.4-0.6-1.7-1.1-3.6c-0.4-1.9-1.1-2.5-2.5-2.5h-1.1V65h-3.5V49.7z
			 M232.7,56.3h1.4c1.8,0,2.8-0.9,2.8-2.2c0-1.4-1-2.1-2.6-2.2c-0.9,0-1.3,0.1-1.6,0.1V56.3z"/>
		<path d="M242.9,49.7c1.3-0.2,3-0.3,4.7-0.3c2.9,0,4.9,0.5,6.4,1.7c1.6,1.2,2.6,3.1,2.6,5.8c0,3-1.1,5-2.6,6.3
			c-1.6,1.4-4.1,2-7.2,2c-1.8,0-3.1-0.1-4-0.2V49.7z M246.4,62.3c0.3,0.1,0.8,0.1,1.2,0.1c3.2,0,5.3-1.7,5.3-5.4
			c0-3.2-1.9-4.9-4.9-4.9c-0.8,0-1.3,0.1-1.6,0.1V62.3z"/>
		<path d="M267.2,61l-1.1,4h-3.6l4.7-15.5h4.6l4.8,15.5h-3.8l-1.2-4H267.2z M271.1,58.4l-1-3.3c-0.3-0.9-0.6-2.1-0.8-3h0
			c-0.2,0.9-0.5,2.1-0.7,3l-0.9,3.3H271.1z"/>
		<path d="M281.4,49.5v8.9c0,2.7,1,4,2.8,4c1.8,0,2.9-1.3,2.9-4v-8.9h3.5v8.7c0,4.8-2.4,7.1-6.5,7.1c-3.9,0-6.2-2.2-6.2-7.1v-8.7
			H281.4z"/>
		<path d="M293.7,61.4c0.9,0.5,2.4,1,3.9,1c1.6,0,2.5-0.7,2.5-1.7c0-1-0.7-1.5-2.6-2.2c-2.6-0.9-4.3-2.3-4.3-4.6
			c0-2.6,2.2-4.7,5.9-4.7c1.8,0,3,0.4,4,0.8l-0.8,2.8c-0.6-0.3-1.7-0.7-3.2-0.7s-2.3,0.7-2.3,1.5c0,1,0.9,1.4,2.9,2.2
			c2.7,1,4,2.4,4,4.6c0,2.6-2,4.8-6.3,4.8c-1.8,0-3.5-0.5-4.4-0.9L293.7,61.4z"/>
		<path d="M319,64.3c-1.1,0.4-3.1,0.9-5.2,0.9c-2.8,0-4.9-0.7-6.3-2.1c-1.4-1.3-2.2-3.4-2.2-5.6c0-5.2,3.8-8.1,8.9-8.1
			c2,0,3.5,0.4,4.3,0.8l-0.7,2.8c-0.9-0.4-1.9-0.7-3.6-0.7c-2.9,0-5.1,1.7-5.1,5c0,3.2,2,5.1,4.9,5.1c0.8,0,1.5-0.1,1.7-0.2v-3.2
			h-2.4v-2.7h5.8V64.3z"/>
		<path d="M330.9,58.4h-5.7v3.7h6.4V65h-9.9V49.5h9.6v2.9h-6.1v3.2h5.7V58.4z"/>
		<path d="M334,49.5h3.5V62h6.2V65H334V49.5z"/>
		<path d="M359.1,57.1c0,5.1-3.1,8.2-7.6,8.2c-4.6,0-7.3-3.5-7.3-7.9c0-4.7,3-8.1,7.6-8.1C356.5,49.2,359.1,52.8,359.1,57.1z
			 M347.7,47c0-0.9,0.7-1.6,1.6-1.6c0.9,0,1.5,0.7,1.5,1.6c0,0.9-0.6,1.6-1.5,1.6C348.4,48.6,347.7,47.8,347.7,47z M347.9,57.3
			c0,3,1.4,5.2,3.8,5.2c2.4,0,3.7-2.3,3.7-5.3c0-2.8-1.3-5.2-3.8-5.2C349.3,52,347.9,54.2,347.9,57.3z M352.5,47
			c0-0.9,0.7-1.6,1.6-1.6c0.9,0,1.5,0.7,1.5,1.6c0,0.9-0.6,1.6-1.5,1.6C353.1,48.6,352.5,47.8,352.5,47z"/>
		<path d="M361.5,61.4c0.9,0.5,2.4,1,3.9,1c1.6,0,2.5-0.7,2.5-1.7c0-1-0.7-1.5-2.6-2.2c-2.6-0.9-4.3-2.3-4.3-4.6
			c0-2.6,2.2-4.7,5.9-4.7c1.8,0,3,0.4,4,0.8l-0.8,2.8c-0.6-0.3-1.7-0.7-3.2-0.7s-2.3,0.7-2.3,1.5c0,1,0.9,1.4,2.9,2.2
			c2.7,1,4,2.4,4,4.6c0,2.6-2,4.8-6.3,4.8c-1.8,0-3.5-0.5-4.4-0.9L361.5,61.4z"/>
		<path d="M376.8,52.4h-4.2v-2.9h11.9v2.9h-4.2V65h-3.5V52.4z"/>
		<path d="M386,63.1c0-1.2,0.9-2.1,2.1-2.1c1.2,0,2,0.9,2,2.1c0,1.2-0.8,2.1-2,2.1C386.8,65.2,386,64.3,386,63.1z M386.7,59.9
			l-0.5-10.4h3.7l-0.5,10.4H386.7z"/>
	</g>
	<rect x="77.8" y="99.6" fill="none" width="375.8" height="40.8"/>
	<g enable-background="new    ">
		<path fill="#20A4B2" d="M79,110.4c0.8,0.4,1.9,0.8,3.1,0.8c1.5,0,2.3-0.7,2.3-1.7c0-1-0.6-1.5-2.3-2.1c-2.1-0.8-3.4-1.9-3.4-3.7
			c0-2.1,1.7-3.6,4.5-3.6c1.4,0,2.4,0.3,3,0.6l-0.6,1.9c-0.5-0.2-1.3-0.6-2.5-0.6c-1.5,0-2.1,0.8-2.1,1.5c0,1,0.7,1.4,2.4,2.1
			c2.2,0.8,3.3,1.9,3.3,3.8c0,2-1.5,3.8-4.8,3.8c-1.3,0-2.7-0.4-3.4-0.8L79,110.4z"/>
		<path fill="#20A4B2" d="M91.3,101.2v2.6h2.2v1.7h-2.2v4c0,1.1,0.3,1.7,1.2,1.7c0.4,0,0.7-0.1,0.9-0.1l0,1.8
			c-0.3,0.1-0.9,0.2-1.7,0.2c-0.8,0-1.6-0.3-2-0.8c-0.5-0.5-0.7-1.4-0.7-2.6v-4.3h-1.3v-1.7H89v-2.1L91.3,101.2z"/>
		<path fill="#20A4B2" d="M103.4,110.2c0,1.1,0,2,0.1,2.7h-2l-0.1-1.4h0c-0.4,0.7-1.3,1.6-2.9,1.6c-1.7,0-3.2-1-3.2-4v-5.4h2.3v5
			c0,1.5,0.5,2.5,1.7,2.5c0.9,0,1.5-0.7,1.8-1.2c0.1-0.2,0.1-0.5,0.1-0.7v-5.5h2.3V110.2z"/>
		<path fill="#20A4B2" d="M106.2,112.9v-7.4h-1.2v-1.7h1.2v-0.4c0-1.2,0.3-2.4,1.1-3.1c0.7-0.6,1.6-0.9,2.4-0.9
			c0.6,0,1.1,0.1,1.5,0.2l-0.2,1.8c-0.2-0.1-0.6-0.2-1-0.2c-1.1,0-1.5,1-1.5,2.1v0.5h2v1.7h-2v7.4H106.2z"/>
		<path fill="#20A4B2" d="M113.3,109c0.1,1.7,1.4,2.4,2.8,2.4c1.1,0,1.8-0.2,2.5-0.4l0.3,1.6c-0.8,0.3-1.9,0.6-3.2,0.6
			c-3,0-4.7-1.8-4.7-4.6c0-2.5,1.5-4.9,4.5-4.9c3,0,3.9,2.4,3.9,4.4c0,0.4,0,0.8-0.1,1H113.3z M117.3,107.4c0-0.8-0.4-2.2-1.9-2.2
			c-1.4,0-2,1.3-2.1,2.2H117.3z"/>
		<path fill="#20A4B2" d="M128.5,102.8L128.5,102.8l-2.3,1.1l-0.4-1.7l3-1.5h1.9v12.2h-2.2V102.8z"/>
	</g>
	<text transform="matrix(1 0 0 1 134.412 112.9237)" font-family="'MyriadPro-Regular'" font-size="18.7663">  </text>
	<g enable-background="new    ">
		<path d="M79,133.5c0.7,0.5,1.8,0.8,2.9,0.8c1.7,0,2.6-0.9,2.6-2.2c0-1.2-0.7-1.9-2.4-2.5c-2.1-0.7-3.3-1.8-3.3-3.6
			c0-2,1.6-3.4,4.1-3.4c1.3,0,2.2,0.3,2.8,0.6l-0.5,1.3c-0.4-0.2-1.3-0.6-2.4-0.6c-1.7,0-2.4,1-2.4,1.9c0,1.2,0.8,1.8,2.5,2.4
			c2.1,0.8,3.2,1.9,3.2,3.7c0,2-1.4,3.6-4.4,3.6c-1.2,0-2.6-0.4-3.2-0.8L79,133.5z"/>
		<path d="M90.3,123.8v2.6h2.4v1.3h-2.4v4.9c0,1.1,0.3,1.8,1.2,1.8c0.4,0,0.8-0.1,1-0.1l0.1,1.2c-0.3,0.1-0.8,0.2-1.5,0.2
			c-0.8,0-1.4-0.2-1.8-0.7c-0.5-0.5-0.6-1.3-0.6-2.4v-5h-1.4v-1.3h1.4v-2.2L90.3,123.8z"/>
		<path d="M99.6,135.5l-0.1-1.1h-0.1c-0.5,0.7-1.5,1.4-2.8,1.4c-1.8,0-2.8-1.3-2.8-2.6c0-2.2,2-3.4,5.5-3.4v-0.2
			c0-0.8-0.2-2.1-2.1-2.1c-0.8,0-1.7,0.3-2.4,0.7l-0.4-1.1c0.8-0.5,1.8-0.8,3-0.8c2.8,0,3.5,1.9,3.5,3.7v3.4c0,0.8,0,1.6,0.2,2.2
			H99.6z M99.3,130.8c-1.8,0-3.8,0.3-3.8,2c0,1.1,0.7,1.6,1.6,1.6c1.2,0,1.9-0.8,2.2-1.5c0.1-0.2,0.1-0.4,0.1-0.5V130.8z"/>
		<path d="M103.6,128.8c0-0.9,0-1.7-0.1-2.5h1.5l0.1,1.5h0c0.5-0.9,1.5-1.7,3-1.7c1.3,0,3.2,0.8,3.2,3.9v5.4h-1.7v-5.2
			c0-1.5-0.5-2.7-2.1-2.7c-1.1,0-1.9,0.8-2.2,1.7c-0.1,0.2-0.1,0.5-0.1,0.8v5.5h-1.7V128.8z"/>
		<path d="M121.8,122.1v11c0,0.8,0,1.7,0.1,2.3h-1.5l-0.1-1.6h0c-0.5,1-1.6,1.8-3.1,1.8c-2.2,0-3.9-1.9-3.9-4.6c0-3,1.9-4.9,4.1-4.9
			c1.4,0,2.3,0.7,2.7,1.4h0v-5.4H121.8z M120.2,130.1c0-0.2,0-0.5-0.1-0.7c-0.2-1.1-1.1-1.9-2.4-1.9c-1.7,0-2.7,1.5-2.7,3.5
			c0,1.8,0.9,3.4,2.7,3.4c1.1,0,2.1-0.7,2.4-2c0.1-0.2,0.1-0.5,0.1-0.7V130.1z"/>
		<path d="M132.8,130.9c0,3.4-2.3,4.8-4.5,4.8c-2.5,0-4.4-1.8-4.4-4.7c0-3,2-4.8,4.5-4.8C131,126.2,132.8,128.1,132.8,130.9z
			 M125.6,130.9c0,2,1.1,3.5,2.8,3.5c1.6,0,2.8-1.5,2.8-3.5c0-1.5-0.8-3.5-2.7-3.5C126.4,127.4,125.6,129.2,125.6,130.9z"/>
		<path d="M134.9,129.2c0-1.1,0-2-0.1-2.8h1.4l0.1,1.8h0.1c0.4-1.2,1.4-2,2.5-2c0.2,0,0.3,0,0.5,0.1v1.6c-0.2,0-0.3-0.1-0.6-0.1
			c-1.2,0-2,0.9-2.2,2.1c0,0.2-0.1,0.5-0.1,0.8v4.8h-1.6V129.2z"/>
		<path d="M143.4,123.8v2.6h2.4v1.3h-2.4v4.9c0,1.1,0.3,1.8,1.2,1.8c0.4,0,0.8-0.1,1-0.1l0.1,1.2c-0.3,0.1-0.8,0.2-1.5,0.2
			c-0.8,0-1.4-0.2-1.8-0.7c-0.5-0.5-0.6-1.3-0.6-2.4v-5h-1.4v-1.3h1.4v-2.2L143.4,123.8z"/>
		<path d="M151.4,129.8v1.2h-4.6v-1.2H151.4z"/>
		<path d="M153.4,123c0.7-0.2,1.8-0.3,3-0.3c1.6,0,2.7,0.3,3.5,0.9c0.7,0.5,1.1,1.2,1.1,2.2c0,1.2-0.8,2.3-2.1,2.8v0
			c1.2,0.3,2.6,1.3,2.6,3.2c0,1.1-0.4,1.9-1.1,2.5c-0.9,0.8-2.3,1.2-4.4,1.2c-1.1,0-2-0.1-2.5-0.2V123z M155,128.2h1.5
			c1.7,0,2.7-0.9,2.7-2.1c0-1.5-1.1-2.1-2.8-2.1c-0.8,0-1.2,0.1-1.4,0.1V128.2z M155,134.2c0.3,0.1,0.8,0.1,1.4,0.1
			c1.7,0,3.2-0.6,3.2-2.5c0-1.7-1.5-2.4-3.3-2.4H155V134.2z"/>
		<path d="M164.5,131.2c0,2.2,1.5,3.2,3.1,3.2c1.2,0,1.9-0.2,2.5-0.5l0.3,1.2c-0.6,0.3-1.6,0.6-3,0.6c-2.8,0-4.5-1.8-4.5-4.6
			c0-2.7,1.6-4.9,4.3-4.9c3,0,3.8,2.6,3.8,4.3c0,0.3,0,0.6-0.1,0.8H164.5z M169.3,130c0-1.1-0.4-2.7-2.3-2.7c-1.7,0-2.4,1.5-2.5,2.7
			H169.3z"/>
		<path d="M173,128.8c0-0.9,0-1.7-0.1-2.5h1.5l0.1,1.5h0c0.5-0.9,1.5-1.7,3-1.7c1.3,0,3.2,0.8,3.2,3.9v5.4h-1.7v-5.2
			c0-1.5-0.5-2.7-2.1-2.7c-1.1,0-1.9,0.8-2.2,1.7c-0.1,0.2-0.1,0.5-0.1,0.8v5.5H173V128.8z"/>
		<path d="M188.4,135.5l-0.1-1.1h-0.1c-0.5,0.7-1.5,1.4-2.8,1.4c-1.8,0-2.8-1.3-2.8-2.6c0-2.2,2-3.4,5.5-3.4v-0.2
			c0-0.8-0.2-2.1-2.1-2.1c-0.8,0-1.7,0.3-2.4,0.7l-0.4-1.1c0.8-0.5,1.8-0.8,3-0.8c2.8,0,3.5,1.9,3.5,3.7v3.4c0,0.8,0,1.6,0.2,2.2
			H188.4z M188.2,130.8c-1.8,0-3.8,0.3-3.8,2c0,1.1,0.7,1.6,1.6,1.6c1.2,0,1.9-0.8,2.2-1.5c0.1-0.2,0.1-0.4,0.1-0.5V130.8z"/>
		<path d="M198.9,135.1c-0.4,0.2-1.4,0.5-2.6,0.5c-2.7,0-4.5-1.9-4.5-4.6c0-2.8,1.9-4.8,4.9-4.8c1,0,1.8,0.2,2.3,0.5l-0.4,1.3
			c-0.4-0.2-1-0.4-1.9-0.4c-2.1,0-3.2,1.5-3.2,3.4c0,2.1,1.4,3.4,3.2,3.4c0.9,0,1.6-0.2,2-0.5L198.9,135.1z"/>
		<path d="M200.9,122.1h1.7v5.7h0c0.3-0.5,0.7-0.9,1.2-1.2c0.5-0.3,1.1-0.5,1.7-0.5c1.2,0,3.2,0.8,3.2,3.9v5.4h-1.7v-5.2
			c0-1.5-0.5-2.7-2.1-2.7c-1.1,0-1.9,0.8-2.2,1.7c-0.1,0.2-0.1,0.5-0.1,0.8v5.5h-1.7V122.1z"/>
		<path d="M211.3,129.2c0-1.1,0-2-0.1-2.8h1.4l0.1,1.8h0.1c0.4-1.2,1.4-2,2.5-2c0.2,0,0.3,0,0.5,0.1v1.6c-0.2,0-0.3-0.1-0.6-0.1
			c-1.2,0-2,0.9-2.2,2.1c0,0.2-0.1,0.5-0.1,0.8v4.8h-1.6V129.2z"/>
		<path d="M219.3,123.8c0,0.6-0.4,1-1.1,1c-0.6,0-1-0.5-1-1c0-0.6,0.4-1,1-1C218.9,122.8,219.3,123.3,219.3,123.8z M217.5,135.5
			v-9.1h1.7v9.1H217.5z"/>
		<path d="M228.3,135.1c-0.4,0.2-1.4,0.5-2.6,0.5c-2.7,0-4.5-1.9-4.5-4.6c0-2.8,1.9-4.8,4.9-4.8c1,0,1.8,0.2,2.3,0.5l-0.4,1.3
			c-0.4-0.2-1-0.4-1.9-0.4c-2.1,0-3.2,1.5-3.2,3.4c0,2.1,1.4,3.4,3.2,3.4c0.9,0,1.6-0.2,2-0.5L228.3,135.1z"/>
		<path d="M230.3,122.1h1.7v5.7h0c0.3-0.5,0.7-0.9,1.2-1.2c0.5-0.3,1.1-0.5,1.7-0.5c1.2,0,3.2,0.8,3.2,3.9v5.4h-1.7v-5.2
			c0-1.5-0.5-2.7-2.1-2.7c-1.1,0-1.9,0.8-2.2,1.7c-0.1,0.2-0.1,0.5-0.1,0.8v5.5h-1.7V122.1z"/>
		<path d="M242.6,123.8v2.6h2.4v1.3h-2.4v4.9c0,1.1,0.3,1.8,1.2,1.8c0.4,0,0.8-0.1,1-0.1l0.1,1.2c-0.3,0.1-0.8,0.2-1.5,0.2
			c-0.8,0-1.4-0.2-1.8-0.7c-0.5-0.5-0.6-1.3-0.6-2.4v-5h-1.4v-1.3h1.4v-2.2L242.6,123.8z"/>
		<path d="M248.7,123.8c0,0.6-0.4,1-1.1,1c-0.6,0-1-0.5-1-1c0-0.6,0.4-1,1-1C248.3,122.8,248.7,123.3,248.7,123.8z M246.8,135.5
			v-9.1h1.7v9.1H246.8z"/>
		<path d="M259,126.4c0,0.7-0.1,1.4-0.1,2.5v5.3c0,2.1-0.4,3.4-1.3,4.1c-0.9,0.8-2.2,1.1-3.3,1.1c-1.1,0-2.3-0.3-3-0.8l0.4-1.3
			c0.6,0.4,1.5,0.7,2.7,0.7c1.7,0,2.9-0.9,2.9-3.2v-1h0c-0.5,0.8-1.5,1.5-2.9,1.5c-2.3,0-3.9-1.9-3.9-4.4c0-3.1,2-4.8,4.1-4.8
			c1.6,0,2.4,0.8,2.8,1.6h0l0.1-1.4H259z M257.3,130c0-0.3,0-0.5-0.1-0.8c-0.3-1-1.1-1.7-2.3-1.7c-1.6,0-2.7,1.3-2.7,3.4
			c0,1.8,0.9,3.3,2.7,3.3c1,0,1.9-0.6,2.3-1.7c0.1-0.3,0.1-0.6,0.1-0.9V130z"/>
		<path d="M269.3,133c0,0.9,0,1.8,0.1,2.5h-1.5l-0.1-1.5h0c-0.4,0.7-1.4,1.7-3,1.7c-1.4,0-3.1-0.8-3.1-4v-5.3h1.7v5
			c0,1.7,0.5,2.9,2,2.9c1.1,0,1.9-0.8,2.2-1.5c0.1-0.2,0.2-0.5,0.2-0.8v-5.6h1.7V133z"/>
		<path d="M272.1,128.8c0-0.9,0-1.7-0.1-2.5h1.5l0.1,1.5h0c0.5-0.9,1.5-1.7,3-1.7c1.3,0,3.2,0.8,3.2,3.9v5.4h-1.7v-5.2
			c0-1.5-0.5-2.7-2.1-2.7c-1.1,0-1.9,0.8-2.2,1.7c-0.1,0.2-0.1,0.5-0.1,0.8v5.5h-1.7V128.8z"/>
		<path d="M290.3,126.4c0,0.7-0.1,1.4-0.1,2.5v5.3c0,2.1-0.4,3.4-1.3,4.1c-0.9,0.8-2.2,1.1-3.3,1.1c-1.1,0-2.3-0.3-3-0.8l0.4-1.3
			c0.6,0.4,1.5,0.7,2.7,0.7c1.7,0,2.9-0.9,2.9-3.2v-1h0c-0.5,0.8-1.5,1.5-2.9,1.5c-2.3,0-3.9-1.9-3.9-4.4c0-3.1,2-4.8,4.1-4.8
			c1.6,0,2.4,0.8,2.8,1.6h0l0.1-1.4H290.3z M288.6,130c0-0.3,0-0.5-0.1-0.8c-0.3-1-1.1-1.7-2.3-1.7c-1.6,0-2.7,1.3-2.7,3.4
			c0,1.8,0.9,3.3,2.7,3.3c1,0,1.9-0.6,2.3-1.7c0.1-0.3,0.1-0.6,0.1-0.9V130z"/>
		<path d="M302,135.5l-0.1-1.1h-0.1c-0.5,0.7-1.5,1.4-2.8,1.4c-1.8,0-2.8-1.3-2.8-2.6c0-2.2,2-3.4,5.5-3.4v-0.2
			c0-0.8-0.2-2.1-2.1-2.1c-0.8,0-1.7,0.3-2.4,0.7l-0.4-1.1c0.8-0.5,1.8-0.8,3-0.8c2.8,0,3.5,1.9,3.5,3.7v3.4c0,0.8,0,1.6,0.2,2.2
			H302z M301.7,130.8c-1.8,0-3.8,0.3-3.8,2c0,1.1,0.7,1.6,1.6,1.6c1.2,0,1.9-0.8,2.2-1.5c0.1-0.2,0.1-0.4,0.1-0.5V130.8z"/>
		<path d="M306,128.8c0-0.9,0-1.7-0.1-2.5h1.5l0.1,1.5h0c0.5-0.9,1.5-1.7,3-1.7c1.3,0,3.2,0.8,3.2,3.9v5.4h-1.7v-5.2
			c0-1.5-0.5-2.7-2.1-2.7c-1.1,0-1.9,0.8-2.2,1.7c-0.1,0.2-0.1,0.5-0.1,0.8v5.5H306V128.8z"/>
		<path d="M320.4,123c0.7-0.2,1.8-0.3,3-0.3c1.6,0,2.7,0.3,3.5,0.9c0.7,0.5,1.1,1.2,1.1,2.2c0,1.2-0.8,2.3-2.1,2.8v0
			c1.2,0.3,2.6,1.3,2.6,3.2c0,1.1-0.4,1.9-1.1,2.5c-0.9,0.8-2.3,1.2-4.4,1.2c-1.1,0-2-0.1-2.5-0.2V123z M322.1,128.2h1.5
			c1.7,0,2.7-0.9,2.7-2.1c0-1.5-1.1-2.1-2.8-2.1c-0.8,0-1.2,0.1-1.4,0.1V128.2z M322.1,134.2c0.3,0.1,0.8,0.1,1.4,0.1
			c1.7,0,3.2-0.6,3.2-2.5c0-1.7-1.5-2.4-3.3-2.4h-1.4V134.2z"/>
		<path d="M331.5,131.2c0,2.2,1.5,3.2,3.1,3.2c1.2,0,1.9-0.2,2.5-0.5l0.3,1.2c-0.6,0.3-1.6,0.6-3,0.6c-2.8,0-4.5-1.8-4.5-4.6
			c0-2.7,1.6-4.9,4.3-4.9c3,0,3.8,2.6,3.8,4.3c0,0.3,0,0.6-0.1,0.8H331.5z M336.4,130c0-1.1-0.4-2.7-2.3-2.7c-1.7,0-2.4,1.5-2.5,2.7
			H336.4z"/>
		<path d="M341.7,130.6L341.7,130.6c0.3-0.3,0.6-0.7,0.8-1l2.7-3.1h2l-3.5,3.7l4,5.3h-2l-3.1-4.4l-0.8,0.9v3.4H340v-13.3h1.6V130.6z
			"/>
		<path d="M354.2,135.5l-0.1-1.1H354c-0.5,0.7-1.5,1.4-2.8,1.4c-1.8,0-2.8-1.3-2.8-2.6c0-2.2,2-3.4,5.5-3.4v-0.2
			c0-0.8-0.2-2.1-2.1-2.1c-0.8,0-1.7,0.3-2.4,0.7l-0.4-1.1c0.8-0.5,1.8-0.8,3-0.8c2.8,0,3.5,1.9,3.5,3.7v3.4c0,0.8,0,1.6,0.2,2.2
			H354.2z M353.9,130.8c-1.8,0-3.8,0.3-3.8,2c0,1.1,0.7,1.6,1.6,1.6c1.2,0,1.9-0.8,2.2-1.5c0.1-0.2,0.1-0.4,0.1-0.5V130.8z"/>
		<path d="M358.2,128.8c0-0.9,0-1.7-0.1-2.5h1.5l0.1,1.5h0c0.5-0.9,1.5-1.7,3-1.7c1.3,0,3.2,0.8,3.2,3.9v5.4h-1.7v-5.2
			c0-1.5-0.5-2.7-2.1-2.7c-1.1,0-1.9,0.8-2.2,1.7c-0.1,0.2-0.1,0.5-0.1,0.8v5.5h-1.7V128.8z"/>
		<path d="M368.6,128.8c0-0.9,0-1.7-0.1-2.5h1.5l0.1,1.5h0c0.5-0.9,1.5-1.7,3-1.7c1.3,0,3.2,0.8,3.2,3.9v5.4h-1.7v-5.2
			c0-1.5-0.5-2.7-2.1-2.7c-1.1,0-1.9,0.8-2.2,1.7c-0.1,0.2-0.1,0.5-0.1,0.8v5.5h-1.7V128.8z"/>
		<path d="M381,123.8v2.6h2.4v1.3H381v4.9c0,1.1,0.3,1.8,1.2,1.8c0.4,0,0.8-0.1,1-0.1l0.1,1.2c-0.3,0.1-0.8,0.2-1.5,0.2
			c-0.8,0-1.4-0.2-1.8-0.7c-0.5-0.5-0.6-1.3-0.6-2.4v-5h-1.4v-1.3h1.4v-2.2L381,123.8z"/>
		<path d="M386,131.2c0,2.2,1.5,3.2,3.1,3.2c1.2,0,1.9-0.2,2.5-0.5l0.3,1.2c-0.6,0.3-1.6,0.6-3,0.6c-2.8,0-4.5-1.8-4.5-4.6
			c0-2.7,1.6-4.9,4.3-4.9c3,0,3.8,2.6,3.8,4.3c0,0.3,0,0.6-0.1,0.8H386z M390.8,130c0-1.1-0.4-2.7-2.3-2.7c-1.7,0-2.4,1.5-2.5,2.7
			H390.8z"/>
	</g>
	<rect x="76.6" y="161.3" fill="none" width="400.5" height="38.3"/>
	<g enable-background="new    ">
		<path fill="#20A4B2" d="M77.9,172.1c0.8,0.4,1.9,0.8,3.1,0.8c1.5,0,2.3-0.7,2.3-1.7c0-1-0.6-1.5-2.3-2.1c-2.1-0.8-3.4-1.9-3.4-3.7
			c0-2.1,1.7-3.6,4.5-3.6c1.4,0,2.4,0.3,3,0.6l-0.6,1.9c-0.5-0.2-1.3-0.6-2.5-0.6c-1.5,0-2.1,0.8-2.1,1.5c0,1,0.7,1.4,2.4,2.1
			c2.2,0.8,3.3,1.9,3.3,3.8c0,2-1.5,3.8-4.8,3.8c-1.3,0-2.7-0.4-3.4-0.8L77.9,172.1z"/>
		<path fill="#20A4B2" d="M90.1,162.9v2.6h2.2v1.7h-2.2v4c0,1.1,0.3,1.7,1.2,1.7c0.4,0,0.7-0.1,0.9-0.1l0,1.8
			c-0.3,0.1-0.9,0.2-1.7,0.2c-0.8,0-1.6-0.3-2-0.8c-0.5-0.5-0.7-1.4-0.7-2.6v-4.3h-1.3v-1.7h1.3v-2.1L90.1,162.9z"/>
		<path fill="#20A4B2" d="M102.3,171.9c0,1.1,0,2,0.1,2.7h-2l-0.1-1.4h0c-0.4,0.7-1.3,1.6-2.9,1.6c-1.7,0-3.2-1-3.2-4v-5.4h2.3v5
			c0,1.5,0.5,2.5,1.7,2.5c0.9,0,1.5-0.7,1.8-1.2c0.1-0.2,0.1-0.5,0.1-0.7v-5.5h2.3V171.9z"/>
		<path fill="#20A4B2" d="M105,174.6v-7.4h-1.2v-1.7h1.2v-0.4c0-1.2,0.3-2.4,1.1-3.1c0.7-0.6,1.6-0.9,2.4-0.9c0.6,0,1.1,0.1,1.5,0.2
			l-0.2,1.8c-0.2-0.1-0.6-0.2-1-0.2c-1.1,0-1.5,1-1.5,2.1v0.5h2v1.7h-2v7.4H105z"/>
		<path fill="#20A4B2" d="M112.2,170.7c0.1,1.7,1.4,2.4,2.8,2.4c1.1,0,1.8-0.2,2.5-0.4l0.3,1.6c-0.8,0.3-1.9,0.6-3.2,0.6
			c-3,0-4.7-1.8-4.7-4.6c0-2.5,1.5-4.9,4.5-4.9c3,0,3.9,2.4,3.9,4.4c0,0.4,0,0.8-0.1,1H112.2z M116.2,169.1c0-0.8-0.4-2.2-1.9-2.2
			c-1.4,0-2,1.3-2.1,2.2H116.2z"/>
		<path fill="#20A4B2" d="M123.7,174.6v-1.4l1.4-1.3c2.9-2.7,4.2-4.1,4.2-5.7c0-1.1-0.6-2-2.2-2c-1.1,0-2,0.5-2.6,1l-0.7-1.6
			c0.9-0.7,2.2-1.3,3.8-1.3c2.7,0,4,1.7,4,3.7c0,2.1-1.5,3.9-3.7,5.8l-1.1,0.9v0h5v1.9H123.7z"/>
	</g>
	<g enable-background="new    ">
		<path d="M80.1,193.2l-1.3,4h-1.7l4.3-12.6h2l4.3,12.6h-1.7l-1.4-4H80.1z M84.2,191.9l-1.2-3.6c-0.3-0.8-0.5-1.6-0.7-2.3h0
			c-0.2,0.8-0.4,1.5-0.6,2.3l-1.2,3.7H84.2z"/>
		<path d="M91,192.2L91,192.2c0.3-0.3,0.6-0.7,0.8-1l2.7-3.1h2l-3.5,3.7l4,5.3h-2l-3.1-4.4l-0.8,0.9v3.4h-1.6v-13.3H91V192.2z"/>
		<path d="M100.2,185.5v2.6h2.4v1.3h-2.4v4.9c0,1.1,0.3,1.8,1.2,1.8c0.4,0,0.8-0.1,1-0.1l0.1,1.2c-0.3,0.1-0.8,0.2-1.5,0.2
			c-0.8,0-1.4-0.2-1.8-0.7c-0.5-0.5-0.6-1.3-0.6-2.4v-5h-1.4v-1.3h1.4v-2.2L100.2,185.5z"/>
		<path d="M106.2,185.5c0,0.6-0.4,1-1.1,1c-0.6,0-1-0.5-1-1c0-0.6,0.4-1,1-1C105.8,184.5,106.2,184.9,106.2,185.5z M104.4,197.2
			v-9.1h1.7v9.1H104.4z"/>
		<path d="M109.4,188.1l1.8,5.1c0.3,0.8,0.5,1.6,0.7,2.3h0.1c0.2-0.8,0.5-1.5,0.8-2.3l1.8-5.1h1.7l-3.6,9.1h-1.6l-3.5-9.1H109.4z"/>
		<path d="M119.7,185.5c0,0.6-0.4,1-1.1,1c-0.6,0-1-0.5-1-1c0-0.6,0.4-1,1-1C119.3,184.5,119.7,184.9,119.7,185.5z M117.8,197.2
			v-9.1h1.7v9.1H117.8z"/>
		<path d="M123.1,192.9c0,2.2,1.5,3.2,3.1,3.2c1.2,0,1.9-0.2,2.5-0.5l0.3,1.2c-0.6,0.3-1.6,0.6-3,0.6c-2.8,0-4.5-1.8-4.5-4.6
			c0-2.7,1.6-4.9,4.3-4.9c3,0,3.8,2.6,3.8,4.3c0,0.3,0,0.6-0.1,0.8H123.1z M128,191.7c0-1.1-0.4-2.7-2.3-2.7c-1.7,0-2.4,1.5-2.5,2.7
			H128z"/>
		<path d="M131.6,190.9c0-1.1,0-2-0.1-2.8h1.4l0.1,1.8h0.1c0.4-1.2,1.4-2,2.5-2c0.2,0,0.3,0,0.5,0.1v1.6c-0.2,0-0.3-0.1-0.6-0.1
			c-1.2,0-2,0.9-2.2,2.1c0,0.2-0.1,0.5-0.1,0.8v4.8h-1.6V190.9z"/>
		<path d="M145.3,194.7c0,0.9,0,1.8,0.1,2.5H144l-0.1-1.5h0c-0.4,0.7-1.4,1.7-3,1.7c-1.4,0-3.1-0.8-3.1-4v-5.3h1.7v5
			c0,1.7,0.5,2.9,2,2.9c1.1,0,1.9-0.8,2.2-1.5c0.1-0.2,0.2-0.5,0.2-0.8v-5.6h1.7V194.7z"/>
		<path d="M148.1,190.5c0-0.9,0-1.7-0.1-2.5h1.5l0.1,1.5h0c0.5-0.9,1.5-1.7,3-1.7c1.3,0,3.2,0.8,3.2,3.9v5.4h-1.7v-5.2
			c0-1.5-0.5-2.7-2.1-2.7c-1.1,0-1.9,0.8-2.2,1.7c-0.1,0.2-0.1,0.5-0.1,0.8v5.5h-1.7V190.5z"/>
		<path d="M166.3,188.1c0,0.7-0.1,1.4-0.1,2.5v5.3c0,2.1-0.4,3.4-1.3,4.1c-0.9,0.8-2.2,1.1-3.3,1.1c-1.1,0-2.3-0.3-3-0.8l0.4-1.3
			c0.6,0.4,1.5,0.7,2.7,0.7c1.7,0,2.9-0.9,2.9-3.2v-1h0c-0.5,0.8-1.5,1.5-2.9,1.5c-2.3,0-3.9-1.9-3.9-4.4c0-3.1,2-4.8,4.1-4.8
			c1.6,0,2.4,0.8,2.8,1.6h0l0.1-1.4H166.3z M164.6,191.7c0-0.3,0-0.5-0.1-0.8c-0.3-1-1.1-1.7-2.3-1.7c-1.6,0-2.7,1.3-2.7,3.4
			c0,1.8,0.9,3.3,2.7,3.3c1,0,1.9-0.6,2.3-1.7c0.1-0.3,0.1-0.6,0.1-0.9V191.7z"/>
		<path d="M173.6,188.1l1.8,5.1c0.3,0.8,0.5,1.6,0.7,2.3h0.1c0.2-0.8,0.5-1.5,0.8-2.3l1.8-5.1h1.7l-3.6,9.1h-1.6l-3.5-9.1H173.6z"/>
		<path d="M190,192.5c0,3.4-2.3,4.8-4.5,4.8c-2.5,0-4.4-1.8-4.4-4.7c0-3,2-4.8,4.5-4.8C188.3,187.9,190,189.8,190,192.5z
			 M182.8,192.6c0,2,1.1,3.5,2.8,3.5c1.6,0,2.8-1.5,2.8-3.5c0-1.5-0.8-3.5-2.7-3.5C183.7,189.1,182.8,190.9,182.8,192.6z"/>
		<path d="M192.1,190.5c0-0.9,0-1.7-0.1-2.5h1.5l0.1,1.5h0c0.5-0.9,1.5-1.7,3-1.7c1.3,0,3.2,0.8,3.2,3.9v5.4h-1.7v-5.2
			c0-1.5-0.5-2.7-2.1-2.7c-1.1,0-1.9,0.8-2.2,1.7c-0.1,0.2-0.1,0.5-0.1,0.8v5.5h-1.7V190.5z"/>
		<path d="M206.6,184.5h1.6v6.1h0.1c0.3-0.5,0.7-0.9,1-1.4l3.9-4.7h2l-4.6,5.4l4.9,7.3h-1.9l-4.2-6.2l-1.2,1.4v4.8h-1.6V184.5z"/>
		<path d="M222,197.2l-0.1-1.1h-0.1c-0.5,0.7-1.5,1.4-2.8,1.4c-1.8,0-2.8-1.3-2.8-2.6c0-2.2,2-3.4,5.5-3.4v-0.2
			c0-0.8-0.2-2.1-2.1-2.1c-0.8,0-1.7,0.3-2.4,0.7l-0.4-1.1c0.8-0.5,1.8-0.8,3-0.8c2.8,0,3.5,1.9,3.5,3.7v3.4c0,0.8,0,1.6,0.2,2.2
			H222z M221.8,192.5c-1.8,0-3.8,0.3-3.8,2c0,1.1,0.7,1.6,1.6,1.6c1.2,0,1.9-0.8,2.2-1.5c0.1-0.2,0.1-0.4,0.1-0.5V192.5z"/>
		<path d="M226,190.5c0-0.9,0-1.7-0.1-2.5h1.4l0.1,1.5h0.1c0.5-0.9,1.4-1.7,2.9-1.7c1.2,0,2.2,0.8,2.6,1.8h0c0.3-0.5,0.6-0.9,1-1.2
			c0.5-0.4,1.1-0.6,2-0.6c1.2,0,3,0.8,3,3.9v5.3h-1.6V192c0-1.7-0.6-2.8-2-2.8c-0.9,0-1.7,0.7-2,1.5c-0.1,0.2-0.1,0.5-0.1,0.8v5.6
			h-1.6v-5.4c0-1.4-0.6-2.5-1.9-2.5c-1,0-1.8,0.8-2,1.7c-0.1,0.2-0.1,0.5-0.1,0.8v5.5H226V190.5z"/>
		<path d="M242.6,192.9c0,2.2,1.5,3.2,3.1,3.2c1.2,0,1.9-0.2,2.5-0.5l0.3,1.2c-0.6,0.3-1.6,0.6-3,0.6c-2.8,0-4.5-1.8-4.5-4.6
			c0-2.7,1.6-4.9,4.3-4.9c3,0,3.8,2.6,3.8,4.3c0,0.3,0,0.6-0.1,0.8H242.6z M247.4,191.7c0-1.1-0.4-2.7-2.3-2.7
			c-1.7,0-2.4,1.5-2.5,2.7H247.4z"/>
		<path d="M251.1,190.9c0-1.1,0-2-0.1-2.8h1.4l0.1,1.8h0.1c0.4-1.2,1.4-2,2.5-2c0.2,0,0.3,0,0.5,0.1v1.6c-0.2,0-0.3-0.1-0.6-0.1
			c-1.2,0-2,0.9-2.2,2.1c0,0.2-0.1,0.5-0.1,0.8v4.8h-1.6V190.9z"/>
		<path d="M262.1,197.2L262,196H262c-0.5,0.7-1.5,1.4-2.8,1.4c-1.8,0-2.8-1.3-2.8-2.6c0-2.2,2-3.4,5.5-3.4v-0.2
			c0-0.8-0.2-2.1-2.1-2.1c-0.8,0-1.7,0.3-2.4,0.7l-0.4-1.1c0.8-0.5,1.8-0.8,3-0.8c2.8,0,3.5,1.9,3.5,3.7v3.4c0,0.8,0,1.6,0.2,2.2
			H262.1z M261.9,192.5c-1.8,0-3.8,0.3-3.8,2c0,1.1,0.7,1.6,1.6,1.6c1.2,0,1.9-0.8,2.2-1.5c0.1-0.2,0.1-0.4,0.1-0.5V192.5z"/>
		<path d="M277.7,194.7c0,0.9,0,1.8,0.1,2.5h-1.5l-0.1-1.5h0c-0.4,0.7-1.4,1.7-3,1.7c-1.4,0-3.1-0.8-3.1-4v-5.3h1.7v5
			c0,1.7,0.5,2.9,2,2.9c1.1,0,1.9-0.8,2.2-1.5c0.1-0.2,0.2-0.5,0.2-0.8v-5.6h1.7V194.7z"/>
		<path d="M280.5,190.5c0-0.9,0-1.7-0.1-2.5h1.5l0.1,1.5h0c0.5-0.9,1.5-1.7,3-1.7c1.3,0,3.2,0.8,3.2,3.9v5.4h-1.7v-5.2
			c0-1.5-0.5-2.7-2.1-2.7c-1.1,0-1.9,0.8-2.2,1.7c-0.1,0.2-0.1,0.5-0.1,0.8v5.5h-1.7V190.5z"/>
		<path d="M298.7,183.8v11c0,0.8,0,1.7,0.1,2.3h-1.5l-0.1-1.6h0c-0.5,1-1.6,1.8-3.1,1.8c-2.2,0-3.9-1.9-3.9-4.6c0-3,1.9-4.9,4.1-4.9
			c1.4,0,2.3,0.7,2.7,1.4h0v-5.4H298.7z M297.1,191.8c0-0.2,0-0.5-0.1-0.7c-0.2-1.1-1.1-1.9-2.4-1.9c-1.7,0-2.7,1.5-2.7,3.5
			c0,1.8,0.9,3.4,2.7,3.4c1.1,0,2.1-0.7,2.4-2c0.1-0.2,0.1-0.5,0.1-0.7V191.8z"/>
		<path d="M316.2,191.6c-0.1-1.8-0.2-3.9-0.2-5.5h-0.1c-0.4,1.5-1,3.1-1.6,4.8l-2.2,6.1h-1.2l-2-6c-0.6-1.8-1.1-3.4-1.5-4.9h0
			c0,1.6-0.1,3.7-0.2,5.6l-0.3,5.4h-1.6l0.9-12.6h2.1l2.2,6.1c0.5,1.6,1,2.9,1.3,4.3h0.1c0.3-1.3,0.8-2.7,1.3-4.3l2.3-6.1h2.1
			l0.8,12.6h-1.6L316.2,191.6z"/>
		<path d="M322.6,185.5c0,0.6-0.4,1-1.1,1c-0.6,0-1-0.5-1-1c0-0.6,0.4-1,1-1C322.2,184.5,322.6,184.9,322.6,185.5z M320.8,197.2
			v-9.1h1.7v9.1H320.8z"/>
		<path d="M326.8,192.2L326.8,192.2c0.3-0.3,0.6-0.7,0.8-1l2.7-3.1h2l-3.5,3.7l4,5.3h-2l-3.1-4.4l-0.8,0.9v3.4h-1.6v-13.3h1.6V192.2
			z"/>
		<path d="M334.3,190.9c0-1.1,0-2-0.1-2.8h1.4l0.1,1.8h0.1c0.4-1.2,1.4-2,2.5-2c0.2,0,0.3,0,0.5,0.1v1.6c-0.2,0-0.3-0.1-0.6-0.1
			c-1.2,0-2,0.9-2.2,2.1c0,0.2-0.1,0.5-0.1,0.8v4.8h-1.6V190.9z"/>
		<path d="M348.4,192.5c0,3.4-2.3,4.8-4.5,4.8c-2.5,0-4.4-1.8-4.4-4.7c0-3,2-4.8,4.5-4.8C346.7,187.9,348.4,189.8,348.4,192.5z
			 M341.2,192.6c0,2,1.1,3.5,2.8,3.5c1.6,0,2.8-1.5,2.8-3.5c0-1.5-0.8-3.5-2.7-3.5C342.1,189.1,341.2,190.9,341.2,192.6z"/>
		<path d="M350.7,197.2v-7.8h-1.3v-1.3h1.3v-0.4c0-1.3,0.3-2.4,1.1-3.2c0.6-0.6,1.4-0.8,2.2-0.8c0.6,0,1.1,0.1,1.4,0.3l-0.2,1.3
			c-0.2-0.1-0.6-0.2-1.1-0.2c-1.4,0-1.8,1.2-1.8,2.6v0.5h2.2v1.3h-2.2v7.8H350.7z"/>
		<path d="M364,192.5c0,3.4-2.3,4.8-4.5,4.8c-2.5,0-4.4-1.8-4.4-4.7c0-3,2-4.8,4.5-4.8C362.2,187.9,364,189.8,364,192.5z
			 M356.8,192.6c0,2,1.1,3.5,2.8,3.5c1.6,0,2.8-1.5,2.8-3.5c0-1.5-0.8-3.5-2.7-3.5C357.6,189.1,356.8,190.9,356.8,192.6z"/>
		<path d="M366.1,190.5c0-0.9,0-1.7-0.1-2.5h1.5l0.1,1.5h0c0.5-0.9,1.5-1.7,3-1.7c1.3,0,3.2,0.8,3.2,3.9v5.4h-1.7v-5.2
			c0-1.5-0.5-2.7-2.1-2.7c-1.1,0-1.9,0.8-2.2,1.7c-0.1,0.2-0.1,0.5-0.1,0.8v5.5h-1.7V190.5z"/>
	</g>
	<rect x="77.7" y="221.7" fill="none" width="364.7" height="38.3"/>
	<g enable-background="new    ">
		<path fill="#20A4B2" d="M79,232.6c0.8,0.4,1.9,0.8,3.1,0.8c1.5,0,2.3-0.7,2.3-1.7c0-1-0.6-1.5-2.3-2.1c-2.1-0.8-3.4-1.9-3.4-3.7
			c0-2.1,1.7-3.6,4.5-3.6c1.4,0,2.4,0.3,3,0.6l-0.6,1.9c-0.5-0.2-1.3-0.6-2.5-0.6c-1.5,0-2.1,0.8-2.1,1.5c0,1,0.7,1.4,2.4,2.1
			c2.2,0.8,3.3,1.9,3.3,3.8c0,2-1.5,3.8-4.8,3.8c-1.3,0-2.7-0.4-3.4-0.8L79,232.6z"/>
		<path fill="#20A4B2" d="M91.3,223.3v2.6h2.2v1.7h-2.2v4c0,1.1,0.3,1.7,1.2,1.7c0.4,0,0.7-0.1,0.9-0.1l0,1.8
			c-0.3,0.1-0.9,0.2-1.7,0.2c-0.8,0-1.6-0.3-2-0.8c-0.5-0.5-0.7-1.4-0.7-2.6v-4.3h-1.3v-1.7H89v-2.1L91.3,223.3z"/>
		<path fill="#20A4B2" d="M103.4,232.3c0,1.1,0,2,0.1,2.7h-2l-0.1-1.4h0c-0.4,0.7-1.3,1.6-2.9,1.6c-1.7,0-3.2-1-3.2-4v-5.4h2.3v5
			c0,1.5,0.5,2.5,1.7,2.5c0.9,0,1.5-0.7,1.8-1.2c0.1-0.2,0.1-0.5,0.1-0.7v-5.5h2.3V232.3z"/>
		<path fill="#20A4B2" d="M106.1,235.1v-7.4h-1.2v-1.7h1.2v-0.4c0-1.2,0.3-2.4,1.1-3.1c0.7-0.6,1.6-0.9,2.4-0.9
			c0.6,0,1.1,0.1,1.5,0.2l-0.2,1.8c-0.2-0.1-0.6-0.2-1-0.2c-1.1,0-1.5,1-1.5,2.1v0.5h2v1.7h-2v7.4H106.1z"/>
		<path fill="#20A4B2" d="M113.3,231.1c0.1,1.7,1.4,2.4,2.8,2.4c1.1,0,1.8-0.2,2.5-0.4l0.3,1.6c-0.8,0.3-1.9,0.6-3.2,0.6
			c-3,0-4.7-1.8-4.7-4.6c0-2.5,1.5-4.9,4.5-4.9c3,0,3.9,2.4,3.9,4.4c0,0.4,0,0.8-0.1,1H113.3z M117.3,229.5c0-0.8-0.4-2.2-1.9-2.2
			c-1.4,0-2,1.3-2.1,2.2H117.3z"/>
		<path fill="#20A4B2" d="M125.3,232.7c0.5,0.3,1.6,0.8,2.8,0.8c1.8,0,2.5-1,2.5-2c0-1.4-1.4-2.1-2.8-2.1h-1.1v-1.7h1
			c1.1,0,2.4-0.5,2.4-1.7c0-0.8-0.6-1.5-2-1.5c-1,0-2,0.4-2.5,0.8l-0.5-1.7c0.7-0.5,2-0.9,3.5-0.9c2.5,0,3.8,1.4,3.8,3
			c0,1.3-0.8,2.3-2.3,2.9v0c1.5,0.3,2.7,1.4,2.7,3c0,2.1-1.7,3.7-4.7,3.7c-1.5,0-2.8-0.4-3.4-0.8L125.3,232.7z"/>
	</g>
	<g enable-background="new    ">
		<path d="M79.1,245.1c0.8-0.1,1.8-0.2,3.1-0.2c1.6,0,2.8,0.4,3.5,1.1c0.7,0.6,1.1,1.5,1.1,2.6c0,1.1-0.3,2-1,2.7
			c-0.9,0.9-2.3,1.4-3.9,1.4c-0.5,0-0.9,0-1.3-0.1v5.1h-1.6V245.1z M80.8,251.2c0.4,0.1,0.8,0.1,1.4,0.1c2,0,3.2-1,3.2-2.7
			c0-1.7-1.2-2.5-3-2.5c-0.7,0-1.3,0.1-1.5,0.1V251.2z"/>
		<path d="M96.8,253c0,3.4-2.3,4.8-4.5,4.8c-2.5,0-4.4-1.8-4.4-4.7c0-3,2-4.8,4.5-4.8C95.1,248.3,96.8,250.2,96.8,253z M89.6,253.1
			c0,2,1.1,3.5,2.8,3.5c1.6,0,2.8-1.5,2.8-3.5c0-1.5-0.8-3.5-2.7-3.5C90.5,249.6,89.6,251.4,89.6,253.1z"/>
		<path d="M98.9,244.3h1.7v13.3h-1.7V244.3z"/>
		<path d="M105.2,246c0,0.6-0.4,1-1.1,1c-0.6,0-1-0.5-1-1c0-0.6,0.4-1,1-1C104.8,244.9,105.2,245.4,105.2,246z M103.3,257.6v-9.1
			h1.7v9.1H103.3z"/>
		<path d="M106.7,256.7l4.1-5.3c0.4-0.5,0.8-0.9,1.2-1.4v0h-4.9v-1.3h6.9l0,1l-4.1,5.3c-0.4,0.5-0.8,1-1.2,1.4v0h5.3v1.3h-7.4V256.7
			z"/>
		<path d="M116.5,253.4c0,2.2,1.5,3.2,3.1,3.2c1.2,0,1.9-0.2,2.5-0.5l0.3,1.2c-0.6,0.3-1.6,0.6-3,0.6c-2.8,0-4.5-1.8-4.5-4.6
			c0-2.7,1.6-4.9,4.3-4.9c3,0,3.8,2.6,3.8,4.3c0,0.3,0,0.6-0.1,0.8H116.5z M121.4,252.2c0-1.1-0.4-2.7-2.3-2.7
			c-1.7,0-2.4,1.5-2.5,2.7H121.4z"/>
		<path d="M126.9,246c0,0.6-0.4,1-1.1,1c-0.6,0-1-0.5-1-1c0-0.6,0.4-1,1-1C126.5,244.9,126.9,245.4,126.9,246z M125,257.6v-9.1h1.7
			v9.1H125z"/>
		<path d="M133.2,251.9v1.2h-4.6v-1.2H133.2z"/>
		<path d="M135.2,257.6V245h1.8l4.1,6.4c0.9,1.5,1.7,2.8,2.3,4.1l0,0c-0.2-1.7-0.2-3.2-0.2-5.2V245h1.5v12.6h-1.7l-4-6.4
			c-0.9-1.4-1.7-2.9-2.4-4.2l-0.1,0c0.1,1.6,0.1,3.1,0.1,5.2v5.4H135.2z"/>
		<path d="M155.7,253c0,3.4-2.3,4.8-4.5,4.8c-2.5,0-4.4-1.8-4.4-4.7c0-3,2-4.8,4.5-4.8C154,248.3,155.7,250.2,155.7,253z
			 M148.5,253.1c0,2,1.1,3.5,2.8,3.5c1.6,0,2.8-1.5,2.8-3.5c0-1.5-0.8-3.5-2.7-3.5S148.5,251.4,148.5,253.1z"/>
		<path d="M159.8,245.9v2.6h2.4v1.3h-2.4v4.9c0,1.1,0.3,1.8,1.2,1.8c0.4,0,0.8-0.1,1-0.1l0.1,1.2c-0.3,0.1-0.8,0.2-1.5,0.2
			c-0.8,0-1.4-0.2-1.8-0.7c-0.5-0.5-0.6-1.3-0.6-2.4v-5h-1.4v-1.3h1.4v-2.2L159.8,245.9z"/>
		<path d="M164,251.4c0-1.1,0-2-0.1-2.8h1.4l0.1,1.8h0.1c0.4-1.2,1.4-2,2.5-2c0.2,0,0.3,0,0.5,0.1v1.6c-0.2,0-0.3-0.1-0.6-0.1
			c-1.2,0-2,0.9-2.2,2.1c0,0.2-0.1,0.5-0.1,0.8v4.8H164V251.4z"/>
		<path d="M177.8,255.1c0,0.9,0,1.8,0.1,2.5h-1.5l-0.1-1.5h0c-0.4,0.7-1.4,1.7-3,1.7c-1.4,0-3.1-0.8-3.1-4v-5.3h1.7v5
			c0,1.7,0.5,2.9,2,2.9c1.1,0,1.9-0.8,2.2-1.5c0.1-0.2,0.2-0.5,0.2-0.8v-5.6h1.7V255.1z"/>
		<path d="M180.7,257.6v-7.8h-1.3v-1.3h1.3v-0.4c0-1.3,0.3-2.4,1.1-3.2c0.6-0.6,1.4-0.8,2.2-0.8c0.6,0,1.1,0.1,1.4,0.3l-0.2,1.3
			c-0.2-0.1-0.6-0.2-1.1-0.2c-1.4,0-1.8,1.2-1.8,2.6v0.5h2.2v1.3h-2.2v7.8H180.7z"/>
		<path d="M190,251c0-0.9,0-1.7-0.1-2.5h1.4l0.1,1.5h0.1c0.5-0.9,1.4-1.7,2.9-1.7c1.2,0,2.2,0.8,2.6,1.8h0c0.3-0.5,0.6-0.9,1-1.2
			c0.5-0.4,1.1-0.6,2-0.6c1.2,0,3,0.8,3,3.9v5.3h-1.6v-5.1c0-1.7-0.6-2.8-2-2.8c-0.9,0-1.7,0.7-2,1.5c-0.1,0.2-0.1,0.5-0.1,0.8v5.6
			h-1.6v-5.4c0-1.4-0.6-2.5-1.9-2.5c-1,0-1.8,0.8-2,1.7c-0.1,0.2-0.1,0.5-0.1,0.8v5.5H190V251z"/>
		<path d="M207.5,246c0,0.6-0.4,1-1.1,1c-0.6,0-1-0.5-1-1c0-0.6,0.4-1,1-1C207.1,244.9,207.5,245.4,207.5,246z M205.6,257.6v-9.1
			h1.7v9.1H205.6z"/>
		<path d="M212,245.9v2.6h2.4v1.3H212v4.9c0,1.1,0.3,1.8,1.2,1.8c0.4,0,0.8-0.1,1-0.1l0.1,1.2c-0.3,0.1-0.8,0.2-1.5,0.2
			c-0.8,0-1.4-0.2-1.8-0.7c-0.5-0.5-0.6-1.3-0.6-2.4v-5H209v-1.3h1.4v-2.2L212,245.9z"/>
		<path d="M221.9,245v7.5c0,2.8,1.3,4,2.9,4c1.9,0,3.1-1.2,3.1-4V245h1.7v7.4c0,3.9-2,5.5-4.8,5.5c-2.6,0-4.5-1.5-4.5-5.4V245H221.9
			z M222.3,243.1c0-0.5,0.4-0.9,0.9-0.9c0.5,0,0.9,0.4,0.9,0.9c0,0.5-0.4,1-0.9,1C222.7,244.1,222.3,243.7,222.3,243.1z
			 M225.8,243.1c0-0.5,0.4-0.9,0.9-0.9c0.5,0,0.9,0.4,0.9,0.9c0,0.5-0.4,1-0.9,1C226.1,244.1,225.8,243.7,225.8,243.1z"/>
		<path d="M232.3,257.6c0-0.6,0.1-1.5,0.1-2.3v-11h1.6v5.7h0c0.6-1,1.6-1.7,3.1-1.7c2.3,0,3.8,1.9,3.8,4.6c0,3.2-2,4.9-4.1,4.9
			c-1.3,0-2.4-0.5-3-1.7h-0.1l-0.1,1.5H232.3z M234,254c0,0.2,0,0.4,0.1,0.6c0.3,1.1,1.3,1.9,2.5,1.9c1.7,0,2.8-1.4,2.8-3.5
			c0-1.8-0.9-3.4-2.7-3.4c-1.1,0-2.2,0.8-2.5,2c0,0.2-0.1,0.4-0.1,0.7V254z"/>
		<path d="M243.9,253.4c0,2.2,1.5,3.2,3.1,3.2c1.2,0,1.9-0.2,2.5-0.5l0.3,1.2c-0.6,0.3-1.6,0.6-3,0.6c-2.8,0-4.5-1.8-4.5-4.6
			c0-2.7,1.6-4.9,4.3-4.9c3,0,3.8,2.6,3.8,4.3c0,0.3,0,0.6-0.1,0.8H243.9z M248.8,252.2c0-1.1-0.4-2.7-2.3-2.7
			c-1.7,0-2.4,1.5-2.5,2.7H248.8z"/>
		<path d="M252.4,251.4c0-1.1,0-2-0.1-2.8h1.4l0.1,1.8h0.1c0.4-1.2,1.4-2,2.5-2c0.2,0,0.3,0,0.5,0.1v1.6c-0.2,0-0.3-0.1-0.6-0.1
			c-1.2,0-2,0.9-2.2,2.1c0,0.2-0.1,0.5-0.1,0.8v4.8h-1.6V251.4z"/>
		<path d="M258.6,251c0-0.9,0-1.7-0.1-2.5h1.4l0.1,1.5h0.1c0.5-0.9,1.4-1.7,2.9-1.7c1.2,0,2.2,0.8,2.6,1.8h0c0.3-0.5,0.6-0.9,1-1.2
			c0.5-0.4,1.1-0.6,2-0.6c1.2,0,3,0.8,3,3.9v5.3H270v-5.1c0-1.7-0.6-2.8-2-2.8c-0.9,0-1.7,0.7-2,1.5c-0.1,0.2-0.1,0.5-0.1,0.8v5.6
			h-1.6v-5.4c0-1.4-0.6-2.5-1.9-2.5c-1,0-1.8,0.8-2,1.7c-0.1,0.2-0.1,0.5-0.1,0.8v5.5h-1.6V251z"/>
		<path d="M276.1,246c0,0.6-0.4,1-1.1,1c-0.6,0-1-0.5-1-1c0-0.6,0.4-1,1-1C275.7,244.9,276.1,245.4,276.1,246z M274.3,257.6v-9.1
			h1.7v9.1H274.3z"/>
		<path d="M280.7,245.9v2.6h2.4v1.3h-2.4v4.9c0,1.1,0.3,1.8,1.2,1.8c0.4,0,0.8-0.1,1-0.1l0.1,1.2c-0.3,0.1-0.8,0.2-1.5,0.2
			c-0.8,0-1.4-0.2-1.8-0.7c-0.5-0.5-0.6-1.3-0.6-2.4v-5h-1.4v-1.3h1.4v-2.2L280.7,245.9z"/>
		<path d="M286.9,245.9v2.6h2.4v1.3h-2.4v4.9c0,1.1,0.3,1.8,1.2,1.8c0.4,0,0.8-0.1,1-0.1l0.1,1.2c-0.3,0.1-0.8,0.2-1.5,0.2
			c-0.8,0-1.4-0.2-1.8-0.7c-0.5-0.5-0.6-1.3-0.6-2.4v-5h-1.4v-1.3h1.4v-2.2L286.9,245.9z"/>
		<path d="M291.1,244.3h1.7v13.3h-1.7V244.3z"/>
		<path d="M303.1,255.1c0,0.9,0,1.8,0.1,2.5h-1.5l-0.1-1.5h0c-0.4,0.7-1.4,1.7-3,1.7c-1.4,0-3.1-0.8-3.1-4v-5.3h1.7v5
			c0,1.7,0.5,2.9,2,2.9c1.1,0,1.9-0.8,2.2-1.5c0.1-0.2,0.2-0.5,0.2-0.8v-5.6h1.7V255.1z"/>
		<path d="M305.9,251c0-0.9,0-1.7-0.1-2.5h1.5l0.1,1.5h0c0.5-0.9,1.5-1.7,3-1.7c1.3,0,3.2,0.8,3.2,3.9v5.4H312v-5.2
			c0-1.5-0.5-2.7-2.1-2.7c-1.1,0-1.9,0.8-2.2,1.7c-0.1,0.2-0.1,0.5-0.1,0.8v5.5h-1.7V251z"/>
		<path d="M324.1,248.5c0,0.7-0.1,1.4-0.1,2.5v5.3c0,2.1-0.4,3.4-1.3,4.1c-0.9,0.8-2.2,1.1-3.3,1.1c-1.1,0-2.3-0.3-3-0.8l0.4-1.3
			c0.6,0.4,1.5,0.7,2.7,0.7c1.7,0,2.9-0.9,2.9-3.2v-1h0c-0.5,0.8-1.5,1.5-2.9,1.5c-2.3,0-3.9-1.9-3.9-4.4c0-3.1,2-4.8,4.1-4.8
			c1.6,0,2.4,0.8,2.8,1.6h0l0.1-1.4H324.1z M322.4,252.1c0-0.3,0-0.5-0.1-0.8c-0.3-1-1.1-1.7-2.3-1.7c-1.6,0-2.7,1.3-2.7,3.4
			c0,1.8,0.9,3.3,2.7,3.3c1,0,1.9-0.6,2.3-1.7c0.1-0.3,0.1-0.6,0.1-0.9V252.1z"/>
		<path d="M331.4,248.5l1.8,5.1c0.3,0.8,0.5,1.6,0.7,2.3h0.1c0.2-0.8,0.5-1.5,0.8-2.3l1.8-5.1h1.7l-3.6,9.1h-1.6l-3.5-9.1H331.4z"/>
		<path d="M347.8,253c0,3.4-2.3,4.8-4.5,4.8c-2.5,0-4.4-1.8-4.4-4.7c0-3,2-4.8,4.5-4.8C346,248.3,347.8,250.2,347.8,253z
			 M340.6,253.1c0,2,1.1,3.5,2.8,3.5c1.6,0,2.8-1.5,2.8-3.5c0-1.5-0.8-3.5-2.7-3.5C341.5,249.6,340.6,251.4,340.6,253.1z"/>
		<path d="M349.9,251c0-0.9,0-1.7-0.1-2.5h1.5l0.1,1.5h0c0.5-0.9,1.5-1.7,3-1.7c1.3,0,3.2,0.8,3.2,3.9v5.4H356v-5.2
			c0-1.5-0.5-2.7-2.1-2.7c-1.1,0-1.9,0.8-2.2,1.7c-0.1,0.2-0.1,0.5-0.1,0.8v5.5h-1.7V251z"/>
		<path d="M364.1,255.6c0.7,0.5,1.8,0.8,2.9,0.8c1.7,0,2.6-0.9,2.6-2.2c0-1.2-0.7-1.9-2.4-2.5c-2.1-0.7-3.3-1.8-3.3-3.6
			c0-2,1.6-3.4,4.1-3.4c1.3,0,2.2,0.3,2.8,0.6l-0.5,1.3c-0.4-0.2-1.3-0.6-2.4-0.6c-1.7,0-2.4,1-2.4,1.9c0,1.2,0.8,1.8,2.5,2.4
			c2.1,0.8,3.2,1.9,3.2,3.7c0,2-1.4,3.6-4.4,3.6c-1.2,0-2.6-0.4-3.2-0.8L364.1,255.6z"/>
		<path d="M375.5,245.9v2.6h2.4v1.3h-2.4v4.9c0,1.1,0.3,1.8,1.2,1.8c0.4,0,0.8-0.1,1-0.1l0.1,1.2c-0.3,0.1-0.8,0.2-1.5,0.2
			c-0.8,0-1.4-0.2-1.8-0.7c-0.5-0.5-0.6-1.3-0.6-2.4v-5h-1.4v-1.3h1.4v-2.2L375.5,245.9z"/>
		<path d="M384.7,257.6l-0.1-1.1h-0.1c-0.5,0.7-1.5,1.4-2.8,1.4c-1.8,0-2.8-1.3-2.8-2.6c0-2.2,2-3.4,5.5-3.4v-0.2
			c0-0.8-0.2-2.1-2.1-2.1c-0.8,0-1.7,0.3-2.4,0.7l-0.4-1.1c0.8-0.5,1.8-0.8,3-0.8c2.8,0,3.5,1.9,3.5,3.7v3.4c0,0.8,0,1.6,0.2,2.2
			H384.7z M384.5,253c-1.8,0-3.8,0.3-3.8,2c0,1.1,0.7,1.6,1.6,1.6c1.2,0,1.9-0.8,2.2-1.5c0.1-0.2,0.1-0.4,0.1-0.5V253z"/>
		<path d="M388.7,251c0-0.9,0-1.7-0.1-2.5h1.5l0.1,1.5h0c0.5-0.9,1.5-1.7,3-1.7c1.3,0,3.2,0.8,3.2,3.9v5.4h-1.7v-5.2
			c0-1.5-0.5-2.7-2.1-2.7c-1.1,0-1.9,0.8-2.2,1.7c-0.1,0.2-0.1,0.5-0.1,0.8v5.5h-1.7V251z"/>
		<path d="M407,244.3v11c0,0.8,0,1.7,0.1,2.3h-1.5l-0.1-1.6h0c-0.5,1-1.6,1.8-3.1,1.8c-2.2,0-3.9-1.9-3.9-4.6c0-3,1.9-4.9,4.1-4.9
			c1.4,0,2.3,0.7,2.7,1.4h0v-5.4H407z M405.3,252.2c0-0.2,0-0.5-0.1-0.7c-0.2-1.1-1.1-1.9-2.4-1.9c-1.7,0-2.7,1.5-2.7,3.5
			c0,1.8,0.9,3.4,2.7,3.4c1.1,0,2.1-0.7,2.4-2c0.1-0.2,0.1-0.5,0.1-0.7V252.2z"/>
		<path d="M418,253c0,3.4-2.3,4.8-4.5,4.8c-2.5,0-4.4-1.8-4.4-4.7c0-3,2-4.8,4.5-4.8C416.2,248.3,418,250.2,418,253z M410.8,253.1
			c0,2,1.1,3.5,2.8,3.5c1.6,0,2.8-1.5,2.8-3.5c0-1.5-0.8-3.5-2.7-3.5C411.6,249.6,410.8,251.4,410.8,253.1z"/>
		<path d="M420,251.4c0-1.1,0-2-0.1-2.8h1.4l0.1,1.8h0.1c0.4-1.2,1.4-2,2.5-2c0.2,0,0.3,0,0.5,0.1v1.6c-0.2,0-0.3-0.1-0.6-0.1
			c-1.2,0-2,0.9-2.2,2.1c0,0.2-0.1,0.5-0.1,0.8v4.8H420V251.4z"/>
		<path d="M428.6,245.9v2.6h2.4v1.3h-2.4v4.9c0,1.1,0.3,1.8,1.2,1.8c0.4,0,0.8-0.1,1-0.1l0.1,1.2c-0.3,0.1-0.8,0.2-1.5,0.2
			c-0.8,0-1.4-0.2-1.8-0.7c-0.5-0.5-0.6-1.3-0.6-2.4v-5h-1.4v-1.3h1.4v-2.2L428.6,245.9z"/>
	</g>
</g>
</svg>
